G04 #@! TF.FileFunction,Legend,Bot*
%FSLAX46Y46*%
G04 Gerber Fmt 4.6, Leading zero omitted, Abs format (unit mm)*
G04 Created by KiCad (PCBNEW 4.0.6) date 08/11/17 10:43:16*
%MOMM*%
%LPD*%
G01*
G04 APERTURE LIST*
%ADD10C,0.100000*%
%ADD11C,0.120000*%
%ADD12C,0.300000*%
%ADD13C,0.600000*%
%ADD14C,0.200000*%
%ADD15C,0.150000*%
G04 APERTURE END LIST*
D10*
D11*
X24850000Y-65400000D02*
X29150000Y-65400000D01*
X29150000Y-65400000D02*
X29150000Y-72700000D01*
X24850000Y-65400000D02*
X24850000Y-72700000D01*
X38400000Y-111150000D02*
X38400000Y-106850000D01*
X38400000Y-106850000D02*
X45700000Y-106850000D01*
X38400000Y-111150000D02*
X45700000Y-111150000D01*
X49850000Y-65400000D02*
X54150000Y-65400000D01*
X54150000Y-65400000D02*
X54150000Y-72700000D01*
X49850000Y-65400000D02*
X49850000Y-72700000D01*
X63400000Y-111150000D02*
X63400000Y-106850000D01*
X63400000Y-106850000D02*
X70700000Y-106850000D01*
X63400000Y-111150000D02*
X70700000Y-111150000D01*
X74850000Y-65400000D02*
X79150000Y-65400000D01*
X79150000Y-65400000D02*
X79150000Y-72700000D01*
X74850000Y-65400000D02*
X74850000Y-72700000D01*
X88400000Y-111150000D02*
X88400000Y-106850000D01*
X88400000Y-106850000D02*
X95700000Y-106850000D01*
X88400000Y-111150000D02*
X95700000Y-111150000D01*
X99850000Y-65400000D02*
X104150000Y-65400000D01*
X104150000Y-65400000D02*
X104150000Y-72700000D01*
X99850000Y-65400000D02*
X99850000Y-72700000D01*
X113400000Y-111150000D02*
X113400000Y-106850000D01*
X113400000Y-106850000D02*
X120700000Y-106850000D01*
X113400000Y-111150000D02*
X120700000Y-111150000D01*
X124850000Y-65400000D02*
X129150000Y-65400000D01*
X129150000Y-65400000D02*
X129150000Y-72700000D01*
X124850000Y-65400000D02*
X124850000Y-72700000D01*
X139400000Y-111150000D02*
X139400000Y-106850000D01*
X139400000Y-106850000D02*
X146700000Y-106850000D01*
X139400000Y-111150000D02*
X146700000Y-111150000D01*
X154850000Y-65400000D02*
X159150000Y-65400000D01*
X159150000Y-65400000D02*
X159150000Y-72700000D01*
X154850000Y-65400000D02*
X154850000Y-72700000D01*
X168400000Y-111150000D02*
X168400000Y-106850000D01*
X168400000Y-106850000D02*
X175700000Y-106850000D01*
X168400000Y-111150000D02*
X175700000Y-111150000D01*
X179850000Y-65400000D02*
X184150000Y-65400000D01*
X184150000Y-65400000D02*
X184150000Y-72700000D01*
X179850000Y-65400000D02*
X179850000Y-72700000D01*
X193400000Y-111150000D02*
X193400000Y-106850000D01*
X193400000Y-106850000D02*
X200700000Y-106850000D01*
X193400000Y-111150000D02*
X200700000Y-111150000D01*
X204850000Y-64400000D02*
X209150000Y-64400000D01*
X209150000Y-64400000D02*
X209150000Y-71700000D01*
X204850000Y-64400000D02*
X204850000Y-71700000D01*
X218400000Y-111150000D02*
X218400000Y-106850000D01*
X218400000Y-106850000D02*
X225700000Y-106850000D01*
X218400000Y-111150000D02*
X225700000Y-111150000D01*
X229850000Y-64400000D02*
X234150000Y-64400000D01*
X234150000Y-64400000D02*
X234150000Y-71700000D01*
X229850000Y-64400000D02*
X229850000Y-71700000D01*
X243400000Y-111150000D02*
X243400000Y-106850000D01*
X243400000Y-106850000D02*
X250700000Y-106850000D01*
X243400000Y-111150000D02*
X250700000Y-111150000D01*
X254850000Y-65400000D02*
X259150000Y-65400000D01*
X259150000Y-65400000D02*
X259150000Y-72700000D01*
X254850000Y-65400000D02*
X254850000Y-72700000D01*
X269400000Y-111150000D02*
X269400000Y-106850000D01*
X269400000Y-106850000D02*
X276700000Y-106850000D01*
X269400000Y-111150000D02*
X276700000Y-111150000D01*
D12*
X30780000Y-117210000D02*
X30780000Y-118910000D01*
X30780000Y-118910000D02*
X29680000Y-118910000D01*
X29680000Y-118910000D02*
X29680000Y-117310000D01*
X29680000Y-117310000D02*
X30580000Y-117310000D01*
X30580000Y-117310000D02*
X30580000Y-118710000D01*
X30580000Y-118710000D02*
X29880000Y-118710000D01*
X29880000Y-118710000D02*
X29880000Y-117510000D01*
X29880000Y-117510000D02*
X30380000Y-117510000D01*
X30380000Y-117510000D02*
X30380000Y-118510000D01*
X30380000Y-118510000D02*
X30080000Y-118510000D01*
X30080000Y-118510000D02*
X30080000Y-117810000D01*
X30080000Y-117810000D02*
X30280000Y-117810000D01*
X30730000Y-118110000D02*
X29730000Y-118110000D01*
D13*
X30980000Y-118110000D02*
X32730000Y-118110000D01*
D14*
X25230000Y-120110000D02*
X24230000Y-120110000D01*
X25230000Y-116110000D02*
X24230000Y-116110000D01*
X29230000Y-116110000D02*
X25230000Y-116110000D01*
X25230000Y-116110000D02*
X25230000Y-120110000D01*
X25230000Y-120110000D02*
X29230000Y-120110000D01*
X30980000Y-119110000D02*
X30980000Y-117110000D01*
X30980000Y-117110000D02*
X29480000Y-117110000D01*
X29480000Y-117110000D02*
X29480000Y-119110000D01*
X29480000Y-119110000D02*
X30980000Y-119110000D01*
D12*
X32050000Y-49900000D02*
X32050000Y-51600000D01*
X32050000Y-51600000D02*
X30950000Y-51600000D01*
X30950000Y-51600000D02*
X30950000Y-50000000D01*
X30950000Y-50000000D02*
X31850000Y-50000000D01*
X31850000Y-50000000D02*
X31850000Y-51400000D01*
X31850000Y-51400000D02*
X31150000Y-51400000D01*
X31150000Y-51400000D02*
X31150000Y-50200000D01*
X31150000Y-50200000D02*
X31650000Y-50200000D01*
X31650000Y-50200000D02*
X31650000Y-51200000D01*
X31650000Y-51200000D02*
X31350000Y-51200000D01*
X31350000Y-51200000D02*
X31350000Y-50500000D01*
X31350000Y-50500000D02*
X31550000Y-50500000D01*
X32000000Y-50800000D02*
X31000000Y-50800000D01*
D13*
X32250000Y-50800000D02*
X34000000Y-50800000D01*
D14*
X26500000Y-52800000D02*
X25500000Y-52800000D01*
X26500000Y-48800000D02*
X25500000Y-48800000D01*
X30500000Y-48800000D02*
X26500000Y-48800000D01*
X26500000Y-48800000D02*
X26500000Y-52800000D01*
X26500000Y-52800000D02*
X30500000Y-52800000D01*
X32250000Y-51800000D02*
X32250000Y-49800000D01*
X32250000Y-49800000D02*
X30750000Y-49800000D01*
X30750000Y-49800000D02*
X30750000Y-51800000D01*
X30750000Y-51800000D02*
X32250000Y-51800000D01*
D12*
X276560000Y-51700000D02*
X276560000Y-50000000D01*
X276560000Y-50000000D02*
X277660000Y-50000000D01*
X277660000Y-50000000D02*
X277660000Y-51600000D01*
X277660000Y-51600000D02*
X276760000Y-51600000D01*
X276760000Y-51600000D02*
X276760000Y-50200000D01*
X276760000Y-50200000D02*
X277460000Y-50200000D01*
X277460000Y-50200000D02*
X277460000Y-51400000D01*
X277460000Y-51400000D02*
X276960000Y-51400000D01*
X276960000Y-51400000D02*
X276960000Y-50400000D01*
X276960000Y-50400000D02*
X277260000Y-50400000D01*
X277260000Y-50400000D02*
X277260000Y-51100000D01*
X277260000Y-51100000D02*
X277060000Y-51100000D01*
X276610000Y-50800000D02*
X277610000Y-50800000D01*
D13*
X276360000Y-50800000D02*
X274610000Y-50800000D01*
D14*
X282110000Y-48800000D02*
X283110000Y-48800000D01*
X282110000Y-52800000D02*
X283110000Y-52800000D01*
X278110000Y-52800000D02*
X282110000Y-52800000D01*
X282110000Y-52800000D02*
X282110000Y-48800000D01*
X282110000Y-48800000D02*
X278110000Y-48800000D01*
X276360000Y-49800000D02*
X276360000Y-51800000D01*
X276360000Y-51800000D02*
X277860000Y-51800000D01*
X277860000Y-51800000D02*
X277860000Y-49800000D01*
X277860000Y-49800000D02*
X276360000Y-49800000D01*
D12*
X276560000Y-119010000D02*
X276560000Y-117310000D01*
X276560000Y-117310000D02*
X277660000Y-117310000D01*
X277660000Y-117310000D02*
X277660000Y-118910000D01*
X277660000Y-118910000D02*
X276760000Y-118910000D01*
X276760000Y-118910000D02*
X276760000Y-117510000D01*
X276760000Y-117510000D02*
X277460000Y-117510000D01*
X277460000Y-117510000D02*
X277460000Y-118710000D01*
X277460000Y-118710000D02*
X276960000Y-118710000D01*
X276960000Y-118710000D02*
X276960000Y-117710000D01*
X276960000Y-117710000D02*
X277260000Y-117710000D01*
X277260000Y-117710000D02*
X277260000Y-118410000D01*
X277260000Y-118410000D02*
X277060000Y-118410000D01*
X276610000Y-118110000D02*
X277610000Y-118110000D01*
D13*
X276360000Y-118110000D02*
X274610000Y-118110000D01*
D14*
X282110000Y-116110000D02*
X283110000Y-116110000D01*
X282110000Y-120110000D02*
X283110000Y-120110000D01*
X278110000Y-120110000D02*
X282110000Y-120110000D01*
X282110000Y-120110000D02*
X282110000Y-116110000D01*
X282110000Y-116110000D02*
X278110000Y-116110000D01*
X276360000Y-117110000D02*
X276360000Y-119110000D01*
X276360000Y-119110000D02*
X277860000Y-119110000D01*
X277860000Y-119110000D02*
X277860000Y-117110000D01*
X277860000Y-117110000D02*
X276360000Y-117110000D01*
D12*
X143931472Y-121074264D02*
X145133553Y-119872183D01*
X145133553Y-119872183D02*
X145911371Y-120650000D01*
X145911371Y-120650000D02*
X144780000Y-121781371D01*
X144780000Y-121781371D02*
X144143604Y-121144975D01*
X144143604Y-121144975D02*
X145133553Y-120155025D01*
X145133553Y-120155025D02*
X145628528Y-120650000D01*
X145628528Y-120650000D02*
X144780000Y-121498528D01*
X144780000Y-121498528D02*
X144426447Y-121144975D01*
X144426447Y-121144975D02*
X145133553Y-120437868D01*
X145133553Y-120437868D02*
X145345685Y-120650000D01*
X145345685Y-120650000D02*
X144850711Y-121144975D01*
X144850711Y-121144975D02*
X144709289Y-121003553D01*
X144603223Y-120473223D02*
X145310330Y-121180330D01*
D13*
X144426447Y-120296447D02*
X143189010Y-119059010D01*
D14*
X149906524Y-122948097D02*
X150613631Y-123655204D01*
X147078097Y-125776524D02*
X147785204Y-126483631D01*
X144249670Y-122948097D02*
X147078097Y-125776524D01*
X147078097Y-125776524D02*
X149906524Y-122948097D01*
X149906524Y-122948097D02*
X147078097Y-120119670D01*
X145133553Y-119589340D02*
X143719340Y-121003553D01*
X143719340Y-121003553D02*
X144780000Y-122064214D01*
X144780000Y-122064214D02*
X146194214Y-120650000D01*
X146194214Y-120650000D02*
X145133553Y-119589340D01*
D12*
X160868528Y-47835736D02*
X159666447Y-49037817D01*
X159666447Y-49037817D02*
X158888629Y-48260000D01*
X158888629Y-48260000D02*
X160020000Y-47128629D01*
X160020000Y-47128629D02*
X160656396Y-47765025D01*
X160656396Y-47765025D02*
X159666447Y-48754975D01*
X159666447Y-48754975D02*
X159171472Y-48260000D01*
X159171472Y-48260000D02*
X160020000Y-47411472D01*
X160020000Y-47411472D02*
X160373553Y-47765025D01*
X160373553Y-47765025D02*
X159666447Y-48472132D01*
X159666447Y-48472132D02*
X159454315Y-48260000D01*
X159454315Y-48260000D02*
X159949289Y-47765025D01*
X159949289Y-47765025D02*
X160090711Y-47906447D01*
X160196777Y-48436777D02*
X159489670Y-47729670D01*
D13*
X160373553Y-48613553D02*
X161610990Y-49850990D01*
D14*
X154893476Y-45961903D02*
X154186369Y-45254796D01*
X157721903Y-43133476D02*
X157014796Y-42426369D01*
X160550330Y-45961903D02*
X157721903Y-43133476D01*
X157721903Y-43133476D02*
X154893476Y-45961903D01*
X154893476Y-45961903D02*
X157721903Y-48790330D01*
X159666447Y-49320660D02*
X161080660Y-47906447D01*
X161080660Y-47906447D02*
X160020000Y-46845786D01*
X160020000Y-46845786D02*
X158605786Y-48260000D01*
X158605786Y-48260000D02*
X159666447Y-49320660D01*
D12*
X147744264Y-49108528D02*
X146542183Y-47906447D01*
X146542183Y-47906447D02*
X147320000Y-47128629D01*
X147320000Y-47128629D02*
X148451371Y-48260000D01*
X148451371Y-48260000D02*
X147814975Y-48896396D01*
X147814975Y-48896396D02*
X146825025Y-47906447D01*
X146825025Y-47906447D02*
X147320000Y-47411472D01*
X147320000Y-47411472D02*
X148168528Y-48260000D01*
X148168528Y-48260000D02*
X147814975Y-48613553D01*
X147814975Y-48613553D02*
X147107868Y-47906447D01*
X147107868Y-47906447D02*
X147320000Y-47694315D01*
X147320000Y-47694315D02*
X147814975Y-48189289D01*
X147814975Y-48189289D02*
X147673553Y-48330711D01*
X147143223Y-48436777D02*
X147850330Y-47729670D01*
D13*
X146966447Y-48613553D02*
X145729010Y-49850990D01*
D14*
X149618097Y-43133476D02*
X150325204Y-42426369D01*
X152446524Y-45961903D02*
X153153631Y-45254796D01*
X149618097Y-48790330D02*
X152446524Y-45961903D01*
X152446524Y-45961903D02*
X149618097Y-43133476D01*
X149618097Y-43133476D02*
X146789670Y-45961903D01*
X146259340Y-47906447D02*
X147673553Y-49320660D01*
X147673553Y-49320660D02*
X148734214Y-48260000D01*
X148734214Y-48260000D02*
X147320000Y-46845786D01*
X147320000Y-46845786D02*
X146259340Y-47906447D01*
D12*
X159595736Y-119801472D02*
X160797817Y-121003553D01*
X160797817Y-121003553D02*
X160020000Y-121781371D01*
X160020000Y-121781371D02*
X158888629Y-120650000D01*
X158888629Y-120650000D02*
X159525025Y-120013604D01*
X159525025Y-120013604D02*
X160514975Y-121003553D01*
X160514975Y-121003553D02*
X160020000Y-121498528D01*
X160020000Y-121498528D02*
X159171472Y-120650000D01*
X159171472Y-120650000D02*
X159525025Y-120296447D01*
X159525025Y-120296447D02*
X160232132Y-121003553D01*
X160232132Y-121003553D02*
X160020000Y-121215685D01*
X160020000Y-121215685D02*
X159525025Y-120720711D01*
X159525025Y-120720711D02*
X159666447Y-120579289D01*
X160196777Y-120473223D02*
X159489670Y-121180330D01*
D13*
X160373553Y-120296447D02*
X161610990Y-119059010D01*
D14*
X157721903Y-125776524D02*
X157014796Y-126483631D01*
X154893476Y-122948097D02*
X154186369Y-123655204D01*
X157721903Y-120119670D02*
X154893476Y-122948097D01*
X154893476Y-122948097D02*
X157721903Y-125776524D01*
X157721903Y-125776524D02*
X160550330Y-122948097D01*
X161080660Y-121003553D02*
X159666447Y-119589340D01*
X159666447Y-119589340D02*
X158605786Y-120650000D01*
X158605786Y-120650000D02*
X160020000Y-122064214D01*
X160020000Y-122064214D02*
X161080660Y-121003553D01*
D11*
X32025000Y-71000000D02*
X32025000Y-73000000D01*
X29975000Y-73000000D02*
X29975000Y-71000000D01*
X66000000Y-103975000D02*
X68000000Y-103975000D01*
X68000000Y-106025000D02*
X66000000Y-106025000D01*
X82025000Y-71000000D02*
X82025000Y-73000000D01*
X79975000Y-73000000D02*
X79975000Y-71000000D01*
X107025000Y-71000000D02*
X107025000Y-73000000D01*
X104975000Y-73000000D02*
X104975000Y-71000000D01*
X132025000Y-71000000D02*
X132025000Y-73000000D01*
X129975000Y-73000000D02*
X129975000Y-71000000D01*
X162025000Y-71000000D02*
X162025000Y-73000000D01*
X159975000Y-73000000D02*
X159975000Y-71000000D01*
X187025000Y-71000000D02*
X187025000Y-73000000D01*
X184975000Y-73000000D02*
X184975000Y-71000000D01*
X212025000Y-71000000D02*
X212025000Y-73000000D01*
X209975000Y-73000000D02*
X209975000Y-71000000D01*
X237025000Y-71000000D02*
X237025000Y-73000000D01*
X234975000Y-73000000D02*
X234975000Y-71000000D01*
X262025000Y-71000000D02*
X262025000Y-73000000D01*
X259975000Y-73000000D02*
X259975000Y-71000000D01*
X38370000Y-49775000D02*
X40370000Y-49775000D01*
X40370000Y-51825000D02*
X38370000Y-51825000D01*
X41000000Y-103975000D02*
X43000000Y-103975000D01*
X43000000Y-106025000D02*
X41000000Y-106025000D01*
X57025000Y-71000000D02*
X57025000Y-73000000D01*
X54975000Y-73000000D02*
X54975000Y-71000000D01*
X91000000Y-103975000D02*
X93000000Y-103975000D01*
X93000000Y-106025000D02*
X91000000Y-106025000D01*
X116000000Y-103975000D02*
X118000000Y-103975000D01*
X118000000Y-106025000D02*
X116000000Y-106025000D01*
X142000000Y-103975000D02*
X144000000Y-103975000D01*
X144000000Y-106025000D02*
X142000000Y-106025000D01*
X171000000Y-103975000D02*
X173000000Y-103975000D01*
X173000000Y-106025000D02*
X171000000Y-106025000D01*
X196000000Y-103975000D02*
X198000000Y-103975000D01*
X198000000Y-106025000D02*
X196000000Y-106025000D01*
X221000000Y-103975000D02*
X223000000Y-103975000D01*
X223000000Y-106025000D02*
X221000000Y-106025000D01*
X246000000Y-103975000D02*
X248000000Y-103975000D01*
X248000000Y-106025000D02*
X246000000Y-106025000D01*
X272000000Y-103975000D02*
X274000000Y-103975000D01*
X274000000Y-106025000D02*
X272000000Y-106025000D01*
X68850000Y-43425000D02*
X70850000Y-43425000D01*
X70850000Y-45475000D02*
X68850000Y-45475000D01*
X34300000Y-90900000D02*
X30700000Y-90900000D01*
X30700000Y-84100000D02*
X34300000Y-84100000D01*
X37200000Y-74600000D02*
X40800000Y-74600000D01*
X40800000Y-81400000D02*
X37200000Y-81400000D01*
X59300000Y-90900000D02*
X55700000Y-90900000D01*
X55700000Y-84100000D02*
X59300000Y-84100000D01*
X63200000Y-74600000D02*
X66800000Y-74600000D01*
X66800000Y-81400000D02*
X63200000Y-81400000D01*
X84300000Y-90900000D02*
X80700000Y-90900000D01*
X80700000Y-84100000D02*
X84300000Y-84100000D01*
X88200000Y-74600000D02*
X91800000Y-74600000D01*
X91800000Y-81400000D02*
X88200000Y-81400000D01*
X109300000Y-90900000D02*
X105700000Y-90900000D01*
X105700000Y-84100000D02*
X109300000Y-84100000D01*
X114200000Y-74600000D02*
X117800000Y-74600000D01*
X117800000Y-81400000D02*
X114200000Y-81400000D01*
X134300000Y-90900000D02*
X130700000Y-90900000D01*
X130700000Y-84100000D02*
X134300000Y-84100000D01*
X139200000Y-74600000D02*
X142800000Y-74600000D01*
X142800000Y-81400000D02*
X139200000Y-81400000D01*
X164300000Y-90900000D02*
X160700000Y-90900000D01*
X160700000Y-84100000D02*
X164300000Y-84100000D01*
X167200000Y-74600000D02*
X170800000Y-74600000D01*
X170800000Y-81400000D02*
X167200000Y-81400000D01*
X189300000Y-90900000D02*
X185700000Y-90900000D01*
X185700000Y-84100000D02*
X189300000Y-84100000D01*
X192200000Y-74600000D02*
X195800000Y-74600000D01*
X195800000Y-81400000D02*
X192200000Y-81400000D01*
X214300000Y-90900000D02*
X210700000Y-90900000D01*
X210700000Y-84100000D02*
X214300000Y-84100000D01*
X218200000Y-74600000D02*
X221800000Y-74600000D01*
X221800000Y-81400000D02*
X218200000Y-81400000D01*
X239300000Y-90900000D02*
X235700000Y-90900000D01*
X235700000Y-84100000D02*
X239300000Y-84100000D01*
X243200000Y-74600000D02*
X246800000Y-74600000D01*
X246800000Y-81400000D02*
X243200000Y-81400000D01*
X264300000Y-90900000D02*
X260700000Y-90900000D01*
X260700000Y-84100000D02*
X264300000Y-84100000D01*
X268200000Y-74600000D02*
X271800000Y-74600000D01*
X271800000Y-81400000D02*
X268200000Y-81400000D01*
D15*
X24352381Y-69261905D02*
X23352381Y-69261905D01*
X23352381Y-69500000D01*
X23400000Y-69642858D01*
X23495238Y-69738096D01*
X23590476Y-69785715D01*
X23780952Y-69833334D01*
X23923810Y-69833334D01*
X24114286Y-69785715D01*
X24209524Y-69738096D01*
X24304762Y-69642858D01*
X24352381Y-69500000D01*
X24352381Y-69261905D01*
X24352381Y-70785715D02*
X24352381Y-70214286D01*
X24352381Y-70500000D02*
X23352381Y-70500000D01*
X23495238Y-70404762D01*
X23590476Y-70309524D01*
X23638095Y-70214286D01*
X43818095Y-106242381D02*
X43818095Y-105242381D01*
X43580000Y-105242381D01*
X43437142Y-105290000D01*
X43341904Y-105385238D01*
X43294285Y-105480476D01*
X43246666Y-105670952D01*
X43246666Y-105813810D01*
X43294285Y-106004286D01*
X43341904Y-106099524D01*
X43437142Y-106194762D01*
X43580000Y-106242381D01*
X43818095Y-106242381D01*
X42865714Y-105337619D02*
X42818095Y-105290000D01*
X42722857Y-105242381D01*
X42484761Y-105242381D01*
X42389523Y-105290000D01*
X42341904Y-105337619D01*
X42294285Y-105432857D01*
X42294285Y-105528095D01*
X42341904Y-105670952D01*
X42913333Y-106242381D01*
X42294285Y-106242381D01*
X49352381Y-69261905D02*
X48352381Y-69261905D01*
X48352381Y-69500000D01*
X48400000Y-69642858D01*
X48495238Y-69738096D01*
X48590476Y-69785715D01*
X48780952Y-69833334D01*
X48923810Y-69833334D01*
X49114286Y-69785715D01*
X49209524Y-69738096D01*
X49304762Y-69642858D01*
X49352381Y-69500000D01*
X49352381Y-69261905D01*
X48352381Y-70166667D02*
X48352381Y-70785715D01*
X48733333Y-70452381D01*
X48733333Y-70595239D01*
X48780952Y-70690477D01*
X48828571Y-70738096D01*
X48923810Y-70785715D01*
X49161905Y-70785715D01*
X49257143Y-70738096D01*
X49304762Y-70690477D01*
X49352381Y-70595239D01*
X49352381Y-70309524D01*
X49304762Y-70214286D01*
X49257143Y-70166667D01*
X68718095Y-106342381D02*
X68718095Y-105342381D01*
X68480000Y-105342381D01*
X68337142Y-105390000D01*
X68241904Y-105485238D01*
X68194285Y-105580476D01*
X68146666Y-105770952D01*
X68146666Y-105913810D01*
X68194285Y-106104286D01*
X68241904Y-106199524D01*
X68337142Y-106294762D01*
X68480000Y-106342381D01*
X68718095Y-106342381D01*
X67289523Y-105675714D02*
X67289523Y-106342381D01*
X67527619Y-105294762D02*
X67765714Y-106009048D01*
X67146666Y-106009048D01*
X74352381Y-69261905D02*
X73352381Y-69261905D01*
X73352381Y-69500000D01*
X73400000Y-69642858D01*
X73495238Y-69738096D01*
X73590476Y-69785715D01*
X73780952Y-69833334D01*
X73923810Y-69833334D01*
X74114286Y-69785715D01*
X74209524Y-69738096D01*
X74304762Y-69642858D01*
X74352381Y-69500000D01*
X74352381Y-69261905D01*
X73352381Y-70738096D02*
X73352381Y-70261905D01*
X73828571Y-70214286D01*
X73780952Y-70261905D01*
X73733333Y-70357143D01*
X73733333Y-70595239D01*
X73780952Y-70690477D01*
X73828571Y-70738096D01*
X73923810Y-70785715D01*
X74161905Y-70785715D01*
X74257143Y-70738096D01*
X74304762Y-70690477D01*
X74352381Y-70595239D01*
X74352381Y-70357143D01*
X74304762Y-70261905D01*
X74257143Y-70214286D01*
X93818095Y-106342381D02*
X93818095Y-105342381D01*
X93580000Y-105342381D01*
X93437142Y-105390000D01*
X93341904Y-105485238D01*
X93294285Y-105580476D01*
X93246666Y-105770952D01*
X93246666Y-105913810D01*
X93294285Y-106104286D01*
X93341904Y-106199524D01*
X93437142Y-106294762D01*
X93580000Y-106342381D01*
X93818095Y-106342381D01*
X92389523Y-105342381D02*
X92580000Y-105342381D01*
X92675238Y-105390000D01*
X92722857Y-105437619D01*
X92818095Y-105580476D01*
X92865714Y-105770952D01*
X92865714Y-106151905D01*
X92818095Y-106247143D01*
X92770476Y-106294762D01*
X92675238Y-106342381D01*
X92484761Y-106342381D01*
X92389523Y-106294762D01*
X92341904Y-106247143D01*
X92294285Y-106151905D01*
X92294285Y-105913810D01*
X92341904Y-105818571D01*
X92389523Y-105770952D01*
X92484761Y-105723333D01*
X92675238Y-105723333D01*
X92770476Y-105770952D01*
X92818095Y-105818571D01*
X92865714Y-105913810D01*
X99352381Y-69261905D02*
X98352381Y-69261905D01*
X98352381Y-69500000D01*
X98400000Y-69642858D01*
X98495238Y-69738096D01*
X98590476Y-69785715D01*
X98780952Y-69833334D01*
X98923810Y-69833334D01*
X99114286Y-69785715D01*
X99209524Y-69738096D01*
X99304762Y-69642858D01*
X99352381Y-69500000D01*
X99352381Y-69261905D01*
X98352381Y-70166667D02*
X98352381Y-70833334D01*
X99352381Y-70404762D01*
X118618095Y-106342381D02*
X118618095Y-105342381D01*
X118380000Y-105342381D01*
X118237142Y-105390000D01*
X118141904Y-105485238D01*
X118094285Y-105580476D01*
X118046666Y-105770952D01*
X118046666Y-105913810D01*
X118094285Y-106104286D01*
X118141904Y-106199524D01*
X118237142Y-106294762D01*
X118380000Y-106342381D01*
X118618095Y-106342381D01*
X117475238Y-105770952D02*
X117570476Y-105723333D01*
X117618095Y-105675714D01*
X117665714Y-105580476D01*
X117665714Y-105532857D01*
X117618095Y-105437619D01*
X117570476Y-105390000D01*
X117475238Y-105342381D01*
X117284761Y-105342381D01*
X117189523Y-105390000D01*
X117141904Y-105437619D01*
X117094285Y-105532857D01*
X117094285Y-105580476D01*
X117141904Y-105675714D01*
X117189523Y-105723333D01*
X117284761Y-105770952D01*
X117475238Y-105770952D01*
X117570476Y-105818571D01*
X117618095Y-105866190D01*
X117665714Y-105961429D01*
X117665714Y-106151905D01*
X117618095Y-106247143D01*
X117570476Y-106294762D01*
X117475238Y-106342381D01*
X117284761Y-106342381D01*
X117189523Y-106294762D01*
X117141904Y-106247143D01*
X117094285Y-106151905D01*
X117094285Y-105961429D01*
X117141904Y-105866190D01*
X117189523Y-105818571D01*
X117284761Y-105770952D01*
X124352381Y-68785714D02*
X123352381Y-68785714D01*
X123352381Y-69023809D01*
X123400000Y-69166667D01*
X123495238Y-69261905D01*
X123590476Y-69309524D01*
X123780952Y-69357143D01*
X123923810Y-69357143D01*
X124114286Y-69309524D01*
X124209524Y-69261905D01*
X124304762Y-69166667D01*
X124352381Y-69023809D01*
X124352381Y-68785714D01*
X124352381Y-70309524D02*
X124352381Y-69738095D01*
X124352381Y-70023809D02*
X123352381Y-70023809D01*
X123495238Y-69928571D01*
X123590476Y-69833333D01*
X123638095Y-69738095D01*
X123352381Y-70928571D02*
X123352381Y-71023810D01*
X123400000Y-71119048D01*
X123447619Y-71166667D01*
X123542857Y-71214286D01*
X123733333Y-71261905D01*
X123971429Y-71261905D01*
X124161905Y-71214286D01*
X124257143Y-71166667D01*
X124304762Y-71119048D01*
X124352381Y-71023810D01*
X124352381Y-70928571D01*
X124304762Y-70833333D01*
X124257143Y-70785714D01*
X124161905Y-70738095D01*
X123971429Y-70690476D01*
X123733333Y-70690476D01*
X123542857Y-70738095D01*
X123447619Y-70785714D01*
X123400000Y-70833333D01*
X123352381Y-70928571D01*
X145224286Y-106242381D02*
X145224286Y-105242381D01*
X144986191Y-105242381D01*
X144843333Y-105290000D01*
X144748095Y-105385238D01*
X144700476Y-105480476D01*
X144652857Y-105670952D01*
X144652857Y-105813810D01*
X144700476Y-106004286D01*
X144748095Y-106099524D01*
X144843333Y-106194762D01*
X144986191Y-106242381D01*
X145224286Y-106242381D01*
X143700476Y-106242381D02*
X144271905Y-106242381D01*
X143986191Y-106242381D02*
X143986191Y-105242381D01*
X144081429Y-105385238D01*
X144176667Y-105480476D01*
X144271905Y-105528095D01*
X142748095Y-106242381D02*
X143319524Y-106242381D01*
X143033810Y-106242381D02*
X143033810Y-105242381D01*
X143129048Y-105385238D01*
X143224286Y-105480476D01*
X143319524Y-105528095D01*
X154352381Y-68785714D02*
X153352381Y-68785714D01*
X153352381Y-69023809D01*
X153400000Y-69166667D01*
X153495238Y-69261905D01*
X153590476Y-69309524D01*
X153780952Y-69357143D01*
X153923810Y-69357143D01*
X154114286Y-69309524D01*
X154209524Y-69261905D01*
X154304762Y-69166667D01*
X154352381Y-69023809D01*
X154352381Y-68785714D01*
X154352381Y-70309524D02*
X154352381Y-69738095D01*
X154352381Y-70023809D02*
X153352381Y-70023809D01*
X153495238Y-69928571D01*
X153590476Y-69833333D01*
X153638095Y-69738095D01*
X153447619Y-70690476D02*
X153400000Y-70738095D01*
X153352381Y-70833333D01*
X153352381Y-71071429D01*
X153400000Y-71166667D01*
X153447619Y-71214286D01*
X153542857Y-71261905D01*
X153638095Y-71261905D01*
X153780952Y-71214286D01*
X154352381Y-70642857D01*
X154352381Y-71261905D01*
X174294286Y-106202381D02*
X174294286Y-105202381D01*
X174056191Y-105202381D01*
X173913333Y-105250000D01*
X173818095Y-105345238D01*
X173770476Y-105440476D01*
X173722857Y-105630952D01*
X173722857Y-105773810D01*
X173770476Y-105964286D01*
X173818095Y-106059524D01*
X173913333Y-106154762D01*
X174056191Y-106202381D01*
X174294286Y-106202381D01*
X172770476Y-106202381D02*
X173341905Y-106202381D01*
X173056191Y-106202381D02*
X173056191Y-105202381D01*
X173151429Y-105345238D01*
X173246667Y-105440476D01*
X173341905Y-105488095D01*
X172437143Y-105202381D02*
X171818095Y-105202381D01*
X172151429Y-105583333D01*
X172008571Y-105583333D01*
X171913333Y-105630952D01*
X171865714Y-105678571D01*
X171818095Y-105773810D01*
X171818095Y-106011905D01*
X171865714Y-106107143D01*
X171913333Y-106154762D01*
X172008571Y-106202381D01*
X172294286Y-106202381D01*
X172389524Y-106154762D01*
X172437143Y-106107143D01*
X179352381Y-68785714D02*
X178352381Y-68785714D01*
X178352381Y-69023809D01*
X178400000Y-69166667D01*
X178495238Y-69261905D01*
X178590476Y-69309524D01*
X178780952Y-69357143D01*
X178923810Y-69357143D01*
X179114286Y-69309524D01*
X179209524Y-69261905D01*
X179304762Y-69166667D01*
X179352381Y-69023809D01*
X179352381Y-68785714D01*
X179352381Y-70309524D02*
X179352381Y-69738095D01*
X179352381Y-70023809D02*
X178352381Y-70023809D01*
X178495238Y-69928571D01*
X178590476Y-69833333D01*
X178638095Y-69738095D01*
X178685714Y-71166667D02*
X179352381Y-71166667D01*
X178304762Y-70928571D02*
X179019048Y-70690476D01*
X179019048Y-71309524D01*
X199094286Y-106502381D02*
X199094286Y-105502381D01*
X198856191Y-105502381D01*
X198713333Y-105550000D01*
X198618095Y-105645238D01*
X198570476Y-105740476D01*
X198522857Y-105930952D01*
X198522857Y-106073810D01*
X198570476Y-106264286D01*
X198618095Y-106359524D01*
X198713333Y-106454762D01*
X198856191Y-106502381D01*
X199094286Y-106502381D01*
X197570476Y-106502381D02*
X198141905Y-106502381D01*
X197856191Y-106502381D02*
X197856191Y-105502381D01*
X197951429Y-105645238D01*
X198046667Y-105740476D01*
X198141905Y-105788095D01*
X196665714Y-105502381D02*
X197141905Y-105502381D01*
X197189524Y-105978571D01*
X197141905Y-105930952D01*
X197046667Y-105883333D01*
X196808571Y-105883333D01*
X196713333Y-105930952D01*
X196665714Y-105978571D01*
X196618095Y-106073810D01*
X196618095Y-106311905D01*
X196665714Y-106407143D01*
X196713333Y-106454762D01*
X196808571Y-106502381D01*
X197046667Y-106502381D01*
X197141905Y-106454762D01*
X197189524Y-106407143D01*
X204352381Y-67785714D02*
X203352381Y-67785714D01*
X203352381Y-68023809D01*
X203400000Y-68166667D01*
X203495238Y-68261905D01*
X203590476Y-68309524D01*
X203780952Y-68357143D01*
X203923810Y-68357143D01*
X204114286Y-68309524D01*
X204209524Y-68261905D01*
X204304762Y-68166667D01*
X204352381Y-68023809D01*
X204352381Y-67785714D01*
X204352381Y-69309524D02*
X204352381Y-68738095D01*
X204352381Y-69023809D02*
X203352381Y-69023809D01*
X203495238Y-68928571D01*
X203590476Y-68833333D01*
X203638095Y-68738095D01*
X203352381Y-70166667D02*
X203352381Y-69976190D01*
X203400000Y-69880952D01*
X203447619Y-69833333D01*
X203590476Y-69738095D01*
X203780952Y-69690476D01*
X204161905Y-69690476D01*
X204257143Y-69738095D01*
X204304762Y-69785714D01*
X204352381Y-69880952D01*
X204352381Y-70071429D01*
X204304762Y-70166667D01*
X204257143Y-70214286D01*
X204161905Y-70261905D01*
X203923810Y-70261905D01*
X203828571Y-70214286D01*
X203780952Y-70166667D01*
X203733333Y-70071429D01*
X203733333Y-69880952D01*
X203780952Y-69785714D01*
X203828571Y-69738095D01*
X203923810Y-69690476D01*
X223994286Y-106402381D02*
X223994286Y-105402381D01*
X223756191Y-105402381D01*
X223613333Y-105450000D01*
X223518095Y-105545238D01*
X223470476Y-105640476D01*
X223422857Y-105830952D01*
X223422857Y-105973810D01*
X223470476Y-106164286D01*
X223518095Y-106259524D01*
X223613333Y-106354762D01*
X223756191Y-106402381D01*
X223994286Y-106402381D01*
X222470476Y-106402381D02*
X223041905Y-106402381D01*
X222756191Y-106402381D02*
X222756191Y-105402381D01*
X222851429Y-105545238D01*
X222946667Y-105640476D01*
X223041905Y-105688095D01*
X222137143Y-105402381D02*
X221470476Y-105402381D01*
X221899048Y-106402381D01*
X229352381Y-67785714D02*
X228352381Y-67785714D01*
X228352381Y-68023809D01*
X228400000Y-68166667D01*
X228495238Y-68261905D01*
X228590476Y-68309524D01*
X228780952Y-68357143D01*
X228923810Y-68357143D01*
X229114286Y-68309524D01*
X229209524Y-68261905D01*
X229304762Y-68166667D01*
X229352381Y-68023809D01*
X229352381Y-67785714D01*
X229352381Y-69309524D02*
X229352381Y-68738095D01*
X229352381Y-69023809D02*
X228352381Y-69023809D01*
X228495238Y-68928571D01*
X228590476Y-68833333D01*
X228638095Y-68738095D01*
X228780952Y-69880952D02*
X228733333Y-69785714D01*
X228685714Y-69738095D01*
X228590476Y-69690476D01*
X228542857Y-69690476D01*
X228447619Y-69738095D01*
X228400000Y-69785714D01*
X228352381Y-69880952D01*
X228352381Y-70071429D01*
X228400000Y-70166667D01*
X228447619Y-70214286D01*
X228542857Y-70261905D01*
X228590476Y-70261905D01*
X228685714Y-70214286D01*
X228733333Y-70166667D01*
X228780952Y-70071429D01*
X228780952Y-69880952D01*
X228828571Y-69785714D01*
X228876190Y-69738095D01*
X228971429Y-69690476D01*
X229161905Y-69690476D01*
X229257143Y-69738095D01*
X229304762Y-69785714D01*
X229352381Y-69880952D01*
X229352381Y-70071429D01*
X229304762Y-70166667D01*
X229257143Y-70214286D01*
X229161905Y-70261905D01*
X228971429Y-70261905D01*
X228876190Y-70214286D01*
X228828571Y-70166667D01*
X228780952Y-70071429D01*
X249194286Y-106202381D02*
X249194286Y-105202381D01*
X248956191Y-105202381D01*
X248813333Y-105250000D01*
X248718095Y-105345238D01*
X248670476Y-105440476D01*
X248622857Y-105630952D01*
X248622857Y-105773810D01*
X248670476Y-105964286D01*
X248718095Y-106059524D01*
X248813333Y-106154762D01*
X248956191Y-106202381D01*
X249194286Y-106202381D01*
X247670476Y-106202381D02*
X248241905Y-106202381D01*
X247956191Y-106202381D02*
X247956191Y-105202381D01*
X248051429Y-105345238D01*
X248146667Y-105440476D01*
X248241905Y-105488095D01*
X247194286Y-106202381D02*
X247003810Y-106202381D01*
X246908571Y-106154762D01*
X246860952Y-106107143D01*
X246765714Y-105964286D01*
X246718095Y-105773810D01*
X246718095Y-105392857D01*
X246765714Y-105297619D01*
X246813333Y-105250000D01*
X246908571Y-105202381D01*
X247099048Y-105202381D01*
X247194286Y-105250000D01*
X247241905Y-105297619D01*
X247289524Y-105392857D01*
X247289524Y-105630952D01*
X247241905Y-105726190D01*
X247194286Y-105773810D01*
X247099048Y-105821429D01*
X246908571Y-105821429D01*
X246813333Y-105773810D01*
X246765714Y-105726190D01*
X246718095Y-105630952D01*
X254352381Y-68785714D02*
X253352381Y-68785714D01*
X253352381Y-69023809D01*
X253400000Y-69166667D01*
X253495238Y-69261905D01*
X253590476Y-69309524D01*
X253780952Y-69357143D01*
X253923810Y-69357143D01*
X254114286Y-69309524D01*
X254209524Y-69261905D01*
X254304762Y-69166667D01*
X254352381Y-69023809D01*
X254352381Y-68785714D01*
X253447619Y-69738095D02*
X253400000Y-69785714D01*
X253352381Y-69880952D01*
X253352381Y-70119048D01*
X253400000Y-70214286D01*
X253447619Y-70261905D01*
X253542857Y-70309524D01*
X253638095Y-70309524D01*
X253780952Y-70261905D01*
X254352381Y-69690476D01*
X254352381Y-70309524D01*
X253352381Y-70928571D02*
X253352381Y-71023810D01*
X253400000Y-71119048D01*
X253447619Y-71166667D01*
X253542857Y-71214286D01*
X253733333Y-71261905D01*
X253971429Y-71261905D01*
X254161905Y-71214286D01*
X254257143Y-71166667D01*
X254304762Y-71119048D01*
X254352381Y-71023810D01*
X254352381Y-70928571D01*
X254304762Y-70833333D01*
X254257143Y-70785714D01*
X254161905Y-70738095D01*
X253971429Y-70690476D01*
X253733333Y-70690476D01*
X253542857Y-70738095D01*
X253447619Y-70785714D01*
X253400000Y-70833333D01*
X253352381Y-70928571D01*
X274994286Y-106202381D02*
X274994286Y-105202381D01*
X274756191Y-105202381D01*
X274613333Y-105250000D01*
X274518095Y-105345238D01*
X274470476Y-105440476D01*
X274422857Y-105630952D01*
X274422857Y-105773810D01*
X274470476Y-105964286D01*
X274518095Y-106059524D01*
X274613333Y-106154762D01*
X274756191Y-106202381D01*
X274994286Y-106202381D01*
X274041905Y-105297619D02*
X273994286Y-105250000D01*
X273899048Y-105202381D01*
X273660952Y-105202381D01*
X273565714Y-105250000D01*
X273518095Y-105297619D01*
X273470476Y-105392857D01*
X273470476Y-105488095D01*
X273518095Y-105630952D01*
X274089524Y-106202381D01*
X273470476Y-106202381D01*
X272518095Y-106202381D02*
X273089524Y-106202381D01*
X272803810Y-106202381D02*
X272803810Y-105202381D01*
X272899048Y-105345238D01*
X272994286Y-105440476D01*
X273089524Y-105488095D01*
X27038095Y-121552381D02*
X27038095Y-120552381D01*
X26657142Y-120552381D01*
X26561904Y-120600000D01*
X26514285Y-120647619D01*
X26466666Y-120742857D01*
X26466666Y-120885714D01*
X26514285Y-120980952D01*
X26561904Y-121028571D01*
X26657142Y-121076190D01*
X27038095Y-121076190D01*
X25514285Y-121552381D02*
X26085714Y-121552381D01*
X25800000Y-121552381D02*
X25800000Y-120552381D01*
X25895238Y-120695238D01*
X25990476Y-120790476D01*
X26085714Y-120838095D01*
X29238095Y-48452381D02*
X29238095Y-47452381D01*
X28857142Y-47452381D01*
X28761904Y-47500000D01*
X28714285Y-47547619D01*
X28666666Y-47642857D01*
X28666666Y-47785714D01*
X28714285Y-47880952D01*
X28761904Y-47928571D01*
X28857142Y-47976190D01*
X29238095Y-47976190D01*
X28285714Y-47547619D02*
X28238095Y-47500000D01*
X28142857Y-47452381D01*
X27904761Y-47452381D01*
X27809523Y-47500000D01*
X27761904Y-47547619D01*
X27714285Y-47642857D01*
X27714285Y-47738095D01*
X27761904Y-47880952D01*
X28333333Y-48452381D01*
X27714285Y-48452381D01*
X279738095Y-48452381D02*
X279738095Y-47452381D01*
X279357142Y-47452381D01*
X279261904Y-47500000D01*
X279214285Y-47547619D01*
X279166666Y-47642857D01*
X279166666Y-47785714D01*
X279214285Y-47880952D01*
X279261904Y-47928571D01*
X279357142Y-47976190D01*
X279738095Y-47976190D01*
X278690476Y-48452381D02*
X278500000Y-48452381D01*
X278404761Y-48404762D01*
X278357142Y-48357143D01*
X278261904Y-48214286D01*
X278214285Y-48023810D01*
X278214285Y-47642857D01*
X278261904Y-47547619D01*
X278309523Y-47500000D01*
X278404761Y-47452381D01*
X278595238Y-47452381D01*
X278690476Y-47500000D01*
X278738095Y-47547619D01*
X278785714Y-47642857D01*
X278785714Y-47880952D01*
X278738095Y-47976190D01*
X278690476Y-48023810D01*
X278595238Y-48071429D01*
X278404761Y-48071429D01*
X278309523Y-48023810D01*
X278261904Y-47976190D01*
X278214285Y-47880952D01*
X281214286Y-121952381D02*
X281214286Y-120952381D01*
X280833333Y-120952381D01*
X280738095Y-121000000D01*
X280690476Y-121047619D01*
X280642857Y-121142857D01*
X280642857Y-121285714D01*
X280690476Y-121380952D01*
X280738095Y-121428571D01*
X280833333Y-121476190D01*
X281214286Y-121476190D01*
X279690476Y-121952381D02*
X280261905Y-121952381D01*
X279976191Y-121952381D02*
X279976191Y-120952381D01*
X280071429Y-121095238D01*
X280166667Y-121190476D01*
X280261905Y-121238095D01*
X279071429Y-120952381D02*
X278976190Y-120952381D01*
X278880952Y-121000000D01*
X278833333Y-121047619D01*
X278785714Y-121142857D01*
X278738095Y-121333333D01*
X278738095Y-121571429D01*
X278785714Y-121761905D01*
X278833333Y-121857143D01*
X278880952Y-121904762D01*
X278976190Y-121952381D01*
X279071429Y-121952381D01*
X279166667Y-121904762D01*
X279214286Y-121857143D01*
X279261905Y-121761905D01*
X279309524Y-121571429D01*
X279309524Y-121333333D01*
X279261905Y-121142857D01*
X279214286Y-121047619D01*
X279166667Y-121000000D01*
X279071429Y-120952381D01*
X144038748Y-124678512D02*
X144745855Y-123971405D01*
X144476481Y-123702030D01*
X144375465Y-123668359D01*
X144308122Y-123668359D01*
X144207107Y-123702030D01*
X144106092Y-123803045D01*
X144072420Y-123904061D01*
X144072420Y-123971404D01*
X144106092Y-124072419D01*
X144375466Y-124341794D01*
X142961252Y-123601015D02*
X143365313Y-124005076D01*
X143163283Y-123803046D02*
X143870390Y-123095939D01*
X143836718Y-123264298D01*
X143836718Y-123398985D01*
X143870390Y-123500000D01*
X142287817Y-122927580D02*
X142691878Y-123331641D01*
X142489848Y-123129611D02*
X143196955Y-122422504D01*
X143163283Y-122590863D01*
X143163283Y-122725550D01*
X143196955Y-122826565D01*
X160338748Y-44678512D02*
X161045855Y-43971405D01*
X160776481Y-43702030D01*
X160675465Y-43668359D01*
X160608122Y-43668359D01*
X160507107Y-43702030D01*
X160406092Y-43803045D01*
X160372420Y-43904061D01*
X160372420Y-43971404D01*
X160406092Y-44072419D01*
X160675466Y-44341794D01*
X159261252Y-43601015D02*
X159665313Y-44005076D01*
X159463283Y-43803046D02*
X160170390Y-43095939D01*
X160136718Y-43264298D01*
X160136718Y-43398985D01*
X160170390Y-43500000D01*
X159631641Y-42691878D02*
X159631641Y-42624535D01*
X159597970Y-42523519D01*
X159429610Y-42355160D01*
X159328595Y-42321488D01*
X159261252Y-42321488D01*
X159160237Y-42355160D01*
X159092893Y-42422504D01*
X159025550Y-42557190D01*
X159025550Y-43365313D01*
X158587817Y-42927580D01*
X148578512Y-43461253D02*
X147871405Y-42754146D01*
X147602030Y-43023520D01*
X147568359Y-43124536D01*
X147568359Y-43191879D01*
X147602030Y-43292894D01*
X147703045Y-43393909D01*
X147804061Y-43427581D01*
X147871404Y-43427581D01*
X147972419Y-43393909D01*
X148241794Y-43124535D01*
X147501015Y-44538749D02*
X147905076Y-44134688D01*
X147703046Y-44336718D02*
X146995939Y-43629611D01*
X147164298Y-43663283D01*
X147298985Y-43663283D01*
X147400000Y-43629611D01*
X146558206Y-44067344D02*
X146120473Y-44505077D01*
X146625550Y-44538748D01*
X146524534Y-44639764D01*
X146490862Y-44740779D01*
X146490862Y-44808123D01*
X146524535Y-44909139D01*
X146692893Y-45077497D01*
X146793908Y-45111169D01*
X146861252Y-45111169D01*
X146962267Y-45077497D01*
X147164298Y-44875466D01*
X147197970Y-44774451D01*
X147197970Y-44707108D01*
X161878512Y-123861252D02*
X161171405Y-123154145D01*
X160902030Y-123423519D01*
X160868359Y-123524535D01*
X160868359Y-123591878D01*
X160902030Y-123692893D01*
X161003045Y-123793908D01*
X161104061Y-123827580D01*
X161171404Y-123827580D01*
X161272419Y-123793908D01*
X161541794Y-123524534D01*
X160801015Y-124938748D02*
X161205076Y-124534687D01*
X161003046Y-124736717D02*
X160295939Y-124029610D01*
X160464298Y-124063282D01*
X160598985Y-124063282D01*
X160700000Y-124029610D01*
X159723519Y-125073435D02*
X160194924Y-125544840D01*
X159622504Y-124635702D02*
X160295939Y-124972420D01*
X159858206Y-125410153D01*
X29467143Y-71257143D02*
X29514762Y-71209524D01*
X29562381Y-71066667D01*
X29562381Y-70971429D01*
X29514762Y-70828571D01*
X29419524Y-70733333D01*
X29324286Y-70685714D01*
X29133810Y-70638095D01*
X28990952Y-70638095D01*
X28800476Y-70685714D01*
X28705238Y-70733333D01*
X28610000Y-70828571D01*
X28562381Y-70971429D01*
X28562381Y-71066667D01*
X28610000Y-71209524D01*
X28657619Y-71257143D01*
X28657619Y-71638095D02*
X28610000Y-71685714D01*
X28562381Y-71780952D01*
X28562381Y-72019048D01*
X28610000Y-72114286D01*
X28657619Y-72161905D01*
X28752857Y-72209524D01*
X28848095Y-72209524D01*
X28990952Y-72161905D01*
X29562381Y-71590476D01*
X29562381Y-72209524D01*
X28562381Y-72542857D02*
X28562381Y-73161905D01*
X28943333Y-72828571D01*
X28943333Y-72971429D01*
X28990952Y-73066667D01*
X29038571Y-73114286D01*
X29133810Y-73161905D01*
X29371905Y-73161905D01*
X29467143Y-73114286D01*
X29514762Y-73066667D01*
X29562381Y-72971429D01*
X29562381Y-72685714D01*
X29514762Y-72590476D01*
X29467143Y-72542857D01*
X67642857Y-103057143D02*
X67690476Y-103104762D01*
X67833333Y-103152381D01*
X67928571Y-103152381D01*
X68071429Y-103104762D01*
X68166667Y-103009524D01*
X68214286Y-102914286D01*
X68261905Y-102723810D01*
X68261905Y-102580952D01*
X68214286Y-102390476D01*
X68166667Y-102295238D01*
X68071429Y-102200000D01*
X67928571Y-102152381D01*
X67833333Y-102152381D01*
X67690476Y-102200000D01*
X67642857Y-102247619D01*
X67261905Y-102247619D02*
X67214286Y-102200000D01*
X67119048Y-102152381D01*
X66880952Y-102152381D01*
X66785714Y-102200000D01*
X66738095Y-102247619D01*
X66690476Y-102342857D01*
X66690476Y-102438095D01*
X66738095Y-102580952D01*
X67309524Y-103152381D01*
X66690476Y-103152381D01*
X65833333Y-102485714D02*
X65833333Y-103152381D01*
X66071429Y-102104762D02*
X66309524Y-102819048D01*
X65690476Y-102819048D01*
X79467143Y-71457143D02*
X79514762Y-71409524D01*
X79562381Y-71266667D01*
X79562381Y-71171429D01*
X79514762Y-71028571D01*
X79419524Y-70933333D01*
X79324286Y-70885714D01*
X79133810Y-70838095D01*
X78990952Y-70838095D01*
X78800476Y-70885714D01*
X78705238Y-70933333D01*
X78610000Y-71028571D01*
X78562381Y-71171429D01*
X78562381Y-71266667D01*
X78610000Y-71409524D01*
X78657619Y-71457143D01*
X78657619Y-71838095D02*
X78610000Y-71885714D01*
X78562381Y-71980952D01*
X78562381Y-72219048D01*
X78610000Y-72314286D01*
X78657619Y-72361905D01*
X78752857Y-72409524D01*
X78848095Y-72409524D01*
X78990952Y-72361905D01*
X79562381Y-71790476D01*
X79562381Y-72409524D01*
X78562381Y-73314286D02*
X78562381Y-72838095D01*
X79038571Y-72790476D01*
X78990952Y-72838095D01*
X78943333Y-72933333D01*
X78943333Y-73171429D01*
X78990952Y-73266667D01*
X79038571Y-73314286D01*
X79133810Y-73361905D01*
X79371905Y-73361905D01*
X79467143Y-73314286D01*
X79514762Y-73266667D01*
X79562381Y-73171429D01*
X79562381Y-72933333D01*
X79514762Y-72838095D01*
X79467143Y-72790476D01*
X104467143Y-71557143D02*
X104514762Y-71509524D01*
X104562381Y-71366667D01*
X104562381Y-71271429D01*
X104514762Y-71128571D01*
X104419524Y-71033333D01*
X104324286Y-70985714D01*
X104133810Y-70938095D01*
X103990952Y-70938095D01*
X103800476Y-70985714D01*
X103705238Y-71033333D01*
X103610000Y-71128571D01*
X103562381Y-71271429D01*
X103562381Y-71366667D01*
X103610000Y-71509524D01*
X103657619Y-71557143D01*
X103657619Y-71938095D02*
X103610000Y-71985714D01*
X103562381Y-72080952D01*
X103562381Y-72319048D01*
X103610000Y-72414286D01*
X103657619Y-72461905D01*
X103752857Y-72509524D01*
X103848095Y-72509524D01*
X103990952Y-72461905D01*
X104562381Y-71890476D01*
X104562381Y-72509524D01*
X103562381Y-73366667D02*
X103562381Y-73176190D01*
X103610000Y-73080952D01*
X103657619Y-73033333D01*
X103800476Y-72938095D01*
X103990952Y-72890476D01*
X104371905Y-72890476D01*
X104467143Y-72938095D01*
X104514762Y-72985714D01*
X104562381Y-73080952D01*
X104562381Y-73271429D01*
X104514762Y-73366667D01*
X104467143Y-73414286D01*
X104371905Y-73461905D01*
X104133810Y-73461905D01*
X104038571Y-73414286D01*
X103990952Y-73366667D01*
X103943333Y-73271429D01*
X103943333Y-73080952D01*
X103990952Y-72985714D01*
X104038571Y-72938095D01*
X104133810Y-72890476D01*
X129467143Y-71657143D02*
X129514762Y-71609524D01*
X129562381Y-71466667D01*
X129562381Y-71371429D01*
X129514762Y-71228571D01*
X129419524Y-71133333D01*
X129324286Y-71085714D01*
X129133810Y-71038095D01*
X128990952Y-71038095D01*
X128800476Y-71085714D01*
X128705238Y-71133333D01*
X128610000Y-71228571D01*
X128562381Y-71371429D01*
X128562381Y-71466667D01*
X128610000Y-71609524D01*
X128657619Y-71657143D01*
X128657619Y-72038095D02*
X128610000Y-72085714D01*
X128562381Y-72180952D01*
X128562381Y-72419048D01*
X128610000Y-72514286D01*
X128657619Y-72561905D01*
X128752857Y-72609524D01*
X128848095Y-72609524D01*
X128990952Y-72561905D01*
X129562381Y-71990476D01*
X129562381Y-72609524D01*
X128562381Y-72942857D02*
X128562381Y-73609524D01*
X129562381Y-73180952D01*
X159467143Y-71217143D02*
X159514762Y-71169524D01*
X159562381Y-71026667D01*
X159562381Y-70931429D01*
X159514762Y-70788571D01*
X159419524Y-70693333D01*
X159324286Y-70645714D01*
X159133810Y-70598095D01*
X158990952Y-70598095D01*
X158800476Y-70645714D01*
X158705238Y-70693333D01*
X158610000Y-70788571D01*
X158562381Y-70931429D01*
X158562381Y-71026667D01*
X158610000Y-71169524D01*
X158657619Y-71217143D01*
X158657619Y-71598095D02*
X158610000Y-71645714D01*
X158562381Y-71740952D01*
X158562381Y-71979048D01*
X158610000Y-72074286D01*
X158657619Y-72121905D01*
X158752857Y-72169524D01*
X158848095Y-72169524D01*
X158990952Y-72121905D01*
X159562381Y-71550476D01*
X159562381Y-72169524D01*
X158990952Y-72740952D02*
X158943333Y-72645714D01*
X158895714Y-72598095D01*
X158800476Y-72550476D01*
X158752857Y-72550476D01*
X158657619Y-72598095D01*
X158610000Y-72645714D01*
X158562381Y-72740952D01*
X158562381Y-72931429D01*
X158610000Y-73026667D01*
X158657619Y-73074286D01*
X158752857Y-73121905D01*
X158800476Y-73121905D01*
X158895714Y-73074286D01*
X158943333Y-73026667D01*
X158990952Y-72931429D01*
X158990952Y-72740952D01*
X159038571Y-72645714D01*
X159086190Y-72598095D01*
X159181429Y-72550476D01*
X159371905Y-72550476D01*
X159467143Y-72598095D01*
X159514762Y-72645714D01*
X159562381Y-72740952D01*
X159562381Y-72931429D01*
X159514762Y-73026667D01*
X159467143Y-73074286D01*
X159371905Y-73121905D01*
X159181429Y-73121905D01*
X159086190Y-73074286D01*
X159038571Y-73026667D01*
X158990952Y-72931429D01*
X184467143Y-71317143D02*
X184514762Y-71269524D01*
X184562381Y-71126667D01*
X184562381Y-71031429D01*
X184514762Y-70888571D01*
X184419524Y-70793333D01*
X184324286Y-70745714D01*
X184133810Y-70698095D01*
X183990952Y-70698095D01*
X183800476Y-70745714D01*
X183705238Y-70793333D01*
X183610000Y-70888571D01*
X183562381Y-71031429D01*
X183562381Y-71126667D01*
X183610000Y-71269524D01*
X183657619Y-71317143D01*
X183657619Y-71698095D02*
X183610000Y-71745714D01*
X183562381Y-71840952D01*
X183562381Y-72079048D01*
X183610000Y-72174286D01*
X183657619Y-72221905D01*
X183752857Y-72269524D01*
X183848095Y-72269524D01*
X183990952Y-72221905D01*
X184562381Y-71650476D01*
X184562381Y-72269524D01*
X184562381Y-72745714D02*
X184562381Y-72936190D01*
X184514762Y-73031429D01*
X184467143Y-73079048D01*
X184324286Y-73174286D01*
X184133810Y-73221905D01*
X183752857Y-73221905D01*
X183657619Y-73174286D01*
X183610000Y-73126667D01*
X183562381Y-73031429D01*
X183562381Y-72840952D01*
X183610000Y-72745714D01*
X183657619Y-72698095D01*
X183752857Y-72650476D01*
X183990952Y-72650476D01*
X184086190Y-72698095D01*
X184133810Y-72745714D01*
X184181429Y-72840952D01*
X184181429Y-73031429D01*
X184133810Y-73126667D01*
X184086190Y-73174286D01*
X183990952Y-73221905D01*
X209467143Y-71417143D02*
X209514762Y-71369524D01*
X209562381Y-71226667D01*
X209562381Y-71131429D01*
X209514762Y-70988571D01*
X209419524Y-70893333D01*
X209324286Y-70845714D01*
X209133810Y-70798095D01*
X208990952Y-70798095D01*
X208800476Y-70845714D01*
X208705238Y-70893333D01*
X208610000Y-70988571D01*
X208562381Y-71131429D01*
X208562381Y-71226667D01*
X208610000Y-71369524D01*
X208657619Y-71417143D01*
X208562381Y-71750476D02*
X208562381Y-72369524D01*
X208943333Y-72036190D01*
X208943333Y-72179048D01*
X208990952Y-72274286D01*
X209038571Y-72321905D01*
X209133810Y-72369524D01*
X209371905Y-72369524D01*
X209467143Y-72321905D01*
X209514762Y-72274286D01*
X209562381Y-72179048D01*
X209562381Y-71893333D01*
X209514762Y-71798095D01*
X209467143Y-71750476D01*
X208562381Y-72988571D02*
X208562381Y-73083810D01*
X208610000Y-73179048D01*
X208657619Y-73226667D01*
X208752857Y-73274286D01*
X208943333Y-73321905D01*
X209181429Y-73321905D01*
X209371905Y-73274286D01*
X209467143Y-73226667D01*
X209514762Y-73179048D01*
X209562381Y-73083810D01*
X209562381Y-72988571D01*
X209514762Y-72893333D01*
X209467143Y-72845714D01*
X209371905Y-72798095D01*
X209181429Y-72750476D01*
X208943333Y-72750476D01*
X208752857Y-72798095D01*
X208657619Y-72845714D01*
X208610000Y-72893333D01*
X208562381Y-72988571D01*
X234467143Y-71517143D02*
X234514762Y-71469524D01*
X234562381Y-71326667D01*
X234562381Y-71231429D01*
X234514762Y-71088571D01*
X234419524Y-70993333D01*
X234324286Y-70945714D01*
X234133810Y-70898095D01*
X233990952Y-70898095D01*
X233800476Y-70945714D01*
X233705238Y-70993333D01*
X233610000Y-71088571D01*
X233562381Y-71231429D01*
X233562381Y-71326667D01*
X233610000Y-71469524D01*
X233657619Y-71517143D01*
X233562381Y-71850476D02*
X233562381Y-72469524D01*
X233943333Y-72136190D01*
X233943333Y-72279048D01*
X233990952Y-72374286D01*
X234038571Y-72421905D01*
X234133810Y-72469524D01*
X234371905Y-72469524D01*
X234467143Y-72421905D01*
X234514762Y-72374286D01*
X234562381Y-72279048D01*
X234562381Y-71993333D01*
X234514762Y-71898095D01*
X234467143Y-71850476D01*
X234562381Y-73421905D02*
X234562381Y-72850476D01*
X234562381Y-73136190D02*
X233562381Y-73136190D01*
X233705238Y-73040952D01*
X233800476Y-72945714D01*
X233848095Y-72850476D01*
X259467143Y-71117143D02*
X259514762Y-71069524D01*
X259562381Y-70926667D01*
X259562381Y-70831429D01*
X259514762Y-70688571D01*
X259419524Y-70593333D01*
X259324286Y-70545714D01*
X259133810Y-70498095D01*
X258990952Y-70498095D01*
X258800476Y-70545714D01*
X258705238Y-70593333D01*
X258610000Y-70688571D01*
X258562381Y-70831429D01*
X258562381Y-70926667D01*
X258610000Y-71069524D01*
X258657619Y-71117143D01*
X258562381Y-71450476D02*
X258562381Y-72069524D01*
X258943333Y-71736190D01*
X258943333Y-71879048D01*
X258990952Y-71974286D01*
X259038571Y-72021905D01*
X259133810Y-72069524D01*
X259371905Y-72069524D01*
X259467143Y-72021905D01*
X259514762Y-71974286D01*
X259562381Y-71879048D01*
X259562381Y-71593333D01*
X259514762Y-71498095D01*
X259467143Y-71450476D01*
X258657619Y-72450476D02*
X258610000Y-72498095D01*
X258562381Y-72593333D01*
X258562381Y-72831429D01*
X258610000Y-72926667D01*
X258657619Y-72974286D01*
X258752857Y-73021905D01*
X258848095Y-73021905D01*
X258990952Y-72974286D01*
X259562381Y-72402857D01*
X259562381Y-73021905D01*
X44357143Y-49857143D02*
X44404762Y-49809524D01*
X44452381Y-49666667D01*
X44452381Y-49571429D01*
X44404762Y-49428571D01*
X44309524Y-49333333D01*
X44214286Y-49285714D01*
X44023810Y-49238095D01*
X43880952Y-49238095D01*
X43690476Y-49285714D01*
X43595238Y-49333333D01*
X43500000Y-49428571D01*
X43452381Y-49571429D01*
X43452381Y-49666667D01*
X43500000Y-49809524D01*
X43547619Y-49857143D01*
X43452381Y-50190476D02*
X43452381Y-50809524D01*
X43833333Y-50476190D01*
X43833333Y-50619048D01*
X43880952Y-50714286D01*
X43928571Y-50761905D01*
X44023810Y-50809524D01*
X44261905Y-50809524D01*
X44357143Y-50761905D01*
X44404762Y-50714286D01*
X44452381Y-50619048D01*
X44452381Y-50333333D01*
X44404762Y-50238095D01*
X44357143Y-50190476D01*
X43452381Y-51142857D02*
X43452381Y-51761905D01*
X43833333Y-51428571D01*
X43833333Y-51571429D01*
X43880952Y-51666667D01*
X43928571Y-51714286D01*
X44023810Y-51761905D01*
X44261905Y-51761905D01*
X44357143Y-51714286D01*
X44404762Y-51666667D01*
X44452381Y-51571429D01*
X44452381Y-51285714D01*
X44404762Y-51190476D01*
X44357143Y-51142857D01*
X42642857Y-103057143D02*
X42690476Y-103104762D01*
X42833333Y-103152381D01*
X42928571Y-103152381D01*
X43071429Y-103104762D01*
X43166667Y-103009524D01*
X43214286Y-102914286D01*
X43261905Y-102723810D01*
X43261905Y-102580952D01*
X43214286Y-102390476D01*
X43166667Y-102295238D01*
X43071429Y-102200000D01*
X42928571Y-102152381D01*
X42833333Y-102152381D01*
X42690476Y-102200000D01*
X42642857Y-102247619D01*
X42309524Y-102152381D02*
X41690476Y-102152381D01*
X42023810Y-102533333D01*
X41880952Y-102533333D01*
X41785714Y-102580952D01*
X41738095Y-102628571D01*
X41690476Y-102723810D01*
X41690476Y-102961905D01*
X41738095Y-103057143D01*
X41785714Y-103104762D01*
X41880952Y-103152381D01*
X42166667Y-103152381D01*
X42261905Y-103104762D01*
X42309524Y-103057143D01*
X40833333Y-102485714D02*
X40833333Y-103152381D01*
X41071429Y-102104762D02*
X41309524Y-102819048D01*
X40690476Y-102819048D01*
X54467143Y-71357143D02*
X54514762Y-71309524D01*
X54562381Y-71166667D01*
X54562381Y-71071429D01*
X54514762Y-70928571D01*
X54419524Y-70833333D01*
X54324286Y-70785714D01*
X54133810Y-70738095D01*
X53990952Y-70738095D01*
X53800476Y-70785714D01*
X53705238Y-70833333D01*
X53610000Y-70928571D01*
X53562381Y-71071429D01*
X53562381Y-71166667D01*
X53610000Y-71309524D01*
X53657619Y-71357143D01*
X53562381Y-71690476D02*
X53562381Y-72309524D01*
X53943333Y-71976190D01*
X53943333Y-72119048D01*
X53990952Y-72214286D01*
X54038571Y-72261905D01*
X54133810Y-72309524D01*
X54371905Y-72309524D01*
X54467143Y-72261905D01*
X54514762Y-72214286D01*
X54562381Y-72119048D01*
X54562381Y-71833333D01*
X54514762Y-71738095D01*
X54467143Y-71690476D01*
X53562381Y-73214286D02*
X53562381Y-72738095D01*
X54038571Y-72690476D01*
X53990952Y-72738095D01*
X53943333Y-72833333D01*
X53943333Y-73071429D01*
X53990952Y-73166667D01*
X54038571Y-73214286D01*
X54133810Y-73261905D01*
X54371905Y-73261905D01*
X54467143Y-73214286D01*
X54514762Y-73166667D01*
X54562381Y-73071429D01*
X54562381Y-72833333D01*
X54514762Y-72738095D01*
X54467143Y-72690476D01*
X92642857Y-103057143D02*
X92690476Y-103104762D01*
X92833333Y-103152381D01*
X92928571Y-103152381D01*
X93071429Y-103104762D01*
X93166667Y-103009524D01*
X93214286Y-102914286D01*
X93261905Y-102723810D01*
X93261905Y-102580952D01*
X93214286Y-102390476D01*
X93166667Y-102295238D01*
X93071429Y-102200000D01*
X92928571Y-102152381D01*
X92833333Y-102152381D01*
X92690476Y-102200000D01*
X92642857Y-102247619D01*
X92309524Y-102152381D02*
X91690476Y-102152381D01*
X92023810Y-102533333D01*
X91880952Y-102533333D01*
X91785714Y-102580952D01*
X91738095Y-102628571D01*
X91690476Y-102723810D01*
X91690476Y-102961905D01*
X91738095Y-103057143D01*
X91785714Y-103104762D01*
X91880952Y-103152381D01*
X92166667Y-103152381D01*
X92261905Y-103104762D01*
X92309524Y-103057143D01*
X90833333Y-102152381D02*
X91023810Y-102152381D01*
X91119048Y-102200000D01*
X91166667Y-102247619D01*
X91261905Y-102390476D01*
X91309524Y-102580952D01*
X91309524Y-102961905D01*
X91261905Y-103057143D01*
X91214286Y-103104762D01*
X91119048Y-103152381D01*
X90928571Y-103152381D01*
X90833333Y-103104762D01*
X90785714Y-103057143D01*
X90738095Y-102961905D01*
X90738095Y-102723810D01*
X90785714Y-102628571D01*
X90833333Y-102580952D01*
X90928571Y-102533333D01*
X91119048Y-102533333D01*
X91214286Y-102580952D01*
X91261905Y-102628571D01*
X91309524Y-102723810D01*
X117642857Y-103057143D02*
X117690476Y-103104762D01*
X117833333Y-103152381D01*
X117928571Y-103152381D01*
X118071429Y-103104762D01*
X118166667Y-103009524D01*
X118214286Y-102914286D01*
X118261905Y-102723810D01*
X118261905Y-102580952D01*
X118214286Y-102390476D01*
X118166667Y-102295238D01*
X118071429Y-102200000D01*
X117928571Y-102152381D01*
X117833333Y-102152381D01*
X117690476Y-102200000D01*
X117642857Y-102247619D01*
X117309524Y-102152381D02*
X116690476Y-102152381D01*
X117023810Y-102533333D01*
X116880952Y-102533333D01*
X116785714Y-102580952D01*
X116738095Y-102628571D01*
X116690476Y-102723810D01*
X116690476Y-102961905D01*
X116738095Y-103057143D01*
X116785714Y-103104762D01*
X116880952Y-103152381D01*
X117166667Y-103152381D01*
X117261905Y-103104762D01*
X117309524Y-103057143D01*
X116357143Y-102152381D02*
X115690476Y-102152381D01*
X116119048Y-103152381D01*
X143642857Y-103057143D02*
X143690476Y-103104762D01*
X143833333Y-103152381D01*
X143928571Y-103152381D01*
X144071429Y-103104762D01*
X144166667Y-103009524D01*
X144214286Y-102914286D01*
X144261905Y-102723810D01*
X144261905Y-102580952D01*
X144214286Y-102390476D01*
X144166667Y-102295238D01*
X144071429Y-102200000D01*
X143928571Y-102152381D01*
X143833333Y-102152381D01*
X143690476Y-102200000D01*
X143642857Y-102247619D01*
X143309524Y-102152381D02*
X142690476Y-102152381D01*
X143023810Y-102533333D01*
X142880952Y-102533333D01*
X142785714Y-102580952D01*
X142738095Y-102628571D01*
X142690476Y-102723810D01*
X142690476Y-102961905D01*
X142738095Y-103057143D01*
X142785714Y-103104762D01*
X142880952Y-103152381D01*
X143166667Y-103152381D01*
X143261905Y-103104762D01*
X143309524Y-103057143D01*
X142119048Y-102580952D02*
X142214286Y-102533333D01*
X142261905Y-102485714D01*
X142309524Y-102390476D01*
X142309524Y-102342857D01*
X142261905Y-102247619D01*
X142214286Y-102200000D01*
X142119048Y-102152381D01*
X141928571Y-102152381D01*
X141833333Y-102200000D01*
X141785714Y-102247619D01*
X141738095Y-102342857D01*
X141738095Y-102390476D01*
X141785714Y-102485714D01*
X141833333Y-102533333D01*
X141928571Y-102580952D01*
X142119048Y-102580952D01*
X142214286Y-102628571D01*
X142261905Y-102676190D01*
X142309524Y-102771429D01*
X142309524Y-102961905D01*
X142261905Y-103057143D01*
X142214286Y-103104762D01*
X142119048Y-103152381D01*
X141928571Y-103152381D01*
X141833333Y-103104762D01*
X141785714Y-103057143D01*
X141738095Y-102961905D01*
X141738095Y-102771429D01*
X141785714Y-102676190D01*
X141833333Y-102628571D01*
X141928571Y-102580952D01*
X172642857Y-103057143D02*
X172690476Y-103104762D01*
X172833333Y-103152381D01*
X172928571Y-103152381D01*
X173071429Y-103104762D01*
X173166667Y-103009524D01*
X173214286Y-102914286D01*
X173261905Y-102723810D01*
X173261905Y-102580952D01*
X173214286Y-102390476D01*
X173166667Y-102295238D01*
X173071429Y-102200000D01*
X172928571Y-102152381D01*
X172833333Y-102152381D01*
X172690476Y-102200000D01*
X172642857Y-102247619D01*
X172309524Y-102152381D02*
X171690476Y-102152381D01*
X172023810Y-102533333D01*
X171880952Y-102533333D01*
X171785714Y-102580952D01*
X171738095Y-102628571D01*
X171690476Y-102723810D01*
X171690476Y-102961905D01*
X171738095Y-103057143D01*
X171785714Y-103104762D01*
X171880952Y-103152381D01*
X172166667Y-103152381D01*
X172261905Y-103104762D01*
X172309524Y-103057143D01*
X171214286Y-103152381D02*
X171023810Y-103152381D01*
X170928571Y-103104762D01*
X170880952Y-103057143D01*
X170785714Y-102914286D01*
X170738095Y-102723810D01*
X170738095Y-102342857D01*
X170785714Y-102247619D01*
X170833333Y-102200000D01*
X170928571Y-102152381D01*
X171119048Y-102152381D01*
X171214286Y-102200000D01*
X171261905Y-102247619D01*
X171309524Y-102342857D01*
X171309524Y-102580952D01*
X171261905Y-102676190D01*
X171214286Y-102723810D01*
X171119048Y-102771429D01*
X170928571Y-102771429D01*
X170833333Y-102723810D01*
X170785714Y-102676190D01*
X170738095Y-102580952D01*
X197642857Y-103057143D02*
X197690476Y-103104762D01*
X197833333Y-103152381D01*
X197928571Y-103152381D01*
X198071429Y-103104762D01*
X198166667Y-103009524D01*
X198214286Y-102914286D01*
X198261905Y-102723810D01*
X198261905Y-102580952D01*
X198214286Y-102390476D01*
X198166667Y-102295238D01*
X198071429Y-102200000D01*
X197928571Y-102152381D01*
X197833333Y-102152381D01*
X197690476Y-102200000D01*
X197642857Y-102247619D01*
X196785714Y-102485714D02*
X196785714Y-103152381D01*
X197023810Y-102104762D02*
X197261905Y-102819048D01*
X196642857Y-102819048D01*
X196071429Y-102152381D02*
X195976190Y-102152381D01*
X195880952Y-102200000D01*
X195833333Y-102247619D01*
X195785714Y-102342857D01*
X195738095Y-102533333D01*
X195738095Y-102771429D01*
X195785714Y-102961905D01*
X195833333Y-103057143D01*
X195880952Y-103104762D01*
X195976190Y-103152381D01*
X196071429Y-103152381D01*
X196166667Y-103104762D01*
X196214286Y-103057143D01*
X196261905Y-102961905D01*
X196309524Y-102771429D01*
X196309524Y-102533333D01*
X196261905Y-102342857D01*
X196214286Y-102247619D01*
X196166667Y-102200000D01*
X196071429Y-102152381D01*
X222642857Y-103057143D02*
X222690476Y-103104762D01*
X222833333Y-103152381D01*
X222928571Y-103152381D01*
X223071429Y-103104762D01*
X223166667Y-103009524D01*
X223214286Y-102914286D01*
X223261905Y-102723810D01*
X223261905Y-102580952D01*
X223214286Y-102390476D01*
X223166667Y-102295238D01*
X223071429Y-102200000D01*
X222928571Y-102152381D01*
X222833333Y-102152381D01*
X222690476Y-102200000D01*
X222642857Y-102247619D01*
X221785714Y-102485714D02*
X221785714Y-103152381D01*
X222023810Y-102104762D02*
X222261905Y-102819048D01*
X221642857Y-102819048D01*
X220738095Y-103152381D02*
X221309524Y-103152381D01*
X221023810Y-103152381D02*
X221023810Y-102152381D01*
X221119048Y-102295238D01*
X221214286Y-102390476D01*
X221309524Y-102438095D01*
X247642857Y-103057143D02*
X247690476Y-103104762D01*
X247833333Y-103152381D01*
X247928571Y-103152381D01*
X248071429Y-103104762D01*
X248166667Y-103009524D01*
X248214286Y-102914286D01*
X248261905Y-102723810D01*
X248261905Y-102580952D01*
X248214286Y-102390476D01*
X248166667Y-102295238D01*
X248071429Y-102200000D01*
X247928571Y-102152381D01*
X247833333Y-102152381D01*
X247690476Y-102200000D01*
X247642857Y-102247619D01*
X246785714Y-102485714D02*
X246785714Y-103152381D01*
X247023810Y-102104762D02*
X247261905Y-102819048D01*
X246642857Y-102819048D01*
X246357143Y-102152381D02*
X245738095Y-102152381D01*
X246071429Y-102533333D01*
X245928571Y-102533333D01*
X245833333Y-102580952D01*
X245785714Y-102628571D01*
X245738095Y-102723810D01*
X245738095Y-102961905D01*
X245785714Y-103057143D01*
X245833333Y-103104762D01*
X245928571Y-103152381D01*
X246214286Y-103152381D01*
X246309524Y-103104762D01*
X246357143Y-103057143D01*
X273642857Y-103057143D02*
X273690476Y-103104762D01*
X273833333Y-103152381D01*
X273928571Y-103152381D01*
X274071429Y-103104762D01*
X274166667Y-103009524D01*
X274214286Y-102914286D01*
X274261905Y-102723810D01*
X274261905Y-102580952D01*
X274214286Y-102390476D01*
X274166667Y-102295238D01*
X274071429Y-102200000D01*
X273928571Y-102152381D01*
X273833333Y-102152381D01*
X273690476Y-102200000D01*
X273642857Y-102247619D01*
X272785714Y-102485714D02*
X272785714Y-103152381D01*
X273023810Y-102104762D02*
X273261905Y-102819048D01*
X272642857Y-102819048D01*
X271833333Y-102485714D02*
X271833333Y-103152381D01*
X272071429Y-102104762D02*
X272309524Y-102819048D01*
X271690476Y-102819048D01*
X70016666Y-42507143D02*
X70064285Y-42554762D01*
X70207142Y-42602381D01*
X70302380Y-42602381D01*
X70445238Y-42554762D01*
X70540476Y-42459524D01*
X70588095Y-42364286D01*
X70635714Y-42173810D01*
X70635714Y-42030952D01*
X70588095Y-41840476D01*
X70540476Y-41745238D01*
X70445238Y-41650000D01*
X70302380Y-41602381D01*
X70207142Y-41602381D01*
X70064285Y-41650000D01*
X70016666Y-41697619D01*
X69159523Y-41935714D02*
X69159523Y-42602381D01*
X69397619Y-41554762D02*
X69635714Y-42269048D01*
X69016666Y-42269048D01*
X34382857Y-92597143D02*
X34430476Y-92644762D01*
X34573333Y-92692381D01*
X34668571Y-92692381D01*
X34811429Y-92644762D01*
X34906667Y-92549524D01*
X34954286Y-92454286D01*
X35001905Y-92263810D01*
X35001905Y-92120952D01*
X34954286Y-91930476D01*
X34906667Y-91835238D01*
X34811429Y-91740000D01*
X34668571Y-91692381D01*
X34573333Y-91692381D01*
X34430476Y-91740000D01*
X34382857Y-91787619D01*
X33525714Y-92025714D02*
X33525714Y-92692381D01*
X33763810Y-91644762D02*
X34001905Y-92359048D01*
X33382857Y-92359048D01*
X33049524Y-91787619D02*
X33001905Y-91740000D01*
X32906667Y-91692381D01*
X32668571Y-91692381D01*
X32573333Y-91740000D01*
X32525714Y-91787619D01*
X32478095Y-91882857D01*
X32478095Y-91978095D01*
X32525714Y-92120952D01*
X33097143Y-92692381D01*
X32478095Y-92692381D01*
X38402857Y-73617143D02*
X38450476Y-73664762D01*
X38593333Y-73712381D01*
X38688571Y-73712381D01*
X38831429Y-73664762D01*
X38926667Y-73569524D01*
X38974286Y-73474286D01*
X39021905Y-73283810D01*
X39021905Y-73140952D01*
X38974286Y-72950476D01*
X38926667Y-72855238D01*
X38831429Y-72760000D01*
X38688571Y-72712381D01*
X38593333Y-72712381D01*
X38450476Y-72760000D01*
X38402857Y-72807619D01*
X37545714Y-73045714D02*
X37545714Y-73712381D01*
X37783810Y-72664762D02*
X38021905Y-73379048D01*
X37402857Y-73379048D01*
X36545714Y-72712381D02*
X37021905Y-72712381D01*
X37069524Y-73188571D01*
X37021905Y-73140952D01*
X36926667Y-73093333D01*
X36688571Y-73093333D01*
X36593333Y-73140952D01*
X36545714Y-73188571D01*
X36498095Y-73283810D01*
X36498095Y-73521905D01*
X36545714Y-73617143D01*
X36593333Y-73664762D01*
X36688571Y-73712381D01*
X36926667Y-73712381D01*
X37021905Y-73664762D01*
X37069524Y-73617143D01*
X59382857Y-92597143D02*
X59430476Y-92644762D01*
X59573333Y-92692381D01*
X59668571Y-92692381D01*
X59811429Y-92644762D01*
X59906667Y-92549524D01*
X59954286Y-92454286D01*
X60001905Y-92263810D01*
X60001905Y-92120952D01*
X59954286Y-91930476D01*
X59906667Y-91835238D01*
X59811429Y-91740000D01*
X59668571Y-91692381D01*
X59573333Y-91692381D01*
X59430476Y-91740000D01*
X59382857Y-91787619D01*
X58525714Y-92025714D02*
X58525714Y-92692381D01*
X58763810Y-91644762D02*
X59001905Y-92359048D01*
X58382857Y-92359048D01*
X57573333Y-91692381D02*
X57763810Y-91692381D01*
X57859048Y-91740000D01*
X57906667Y-91787619D01*
X58001905Y-91930476D01*
X58049524Y-92120952D01*
X58049524Y-92501905D01*
X58001905Y-92597143D01*
X57954286Y-92644762D01*
X57859048Y-92692381D01*
X57668571Y-92692381D01*
X57573333Y-92644762D01*
X57525714Y-92597143D01*
X57478095Y-92501905D01*
X57478095Y-92263810D01*
X57525714Y-92168571D01*
X57573333Y-92120952D01*
X57668571Y-92073333D01*
X57859048Y-92073333D01*
X57954286Y-92120952D01*
X58001905Y-92168571D01*
X58049524Y-92263810D01*
X64402857Y-73617143D02*
X64450476Y-73664762D01*
X64593333Y-73712381D01*
X64688571Y-73712381D01*
X64831429Y-73664762D01*
X64926667Y-73569524D01*
X64974286Y-73474286D01*
X65021905Y-73283810D01*
X65021905Y-73140952D01*
X64974286Y-72950476D01*
X64926667Y-72855238D01*
X64831429Y-72760000D01*
X64688571Y-72712381D01*
X64593333Y-72712381D01*
X64450476Y-72760000D01*
X64402857Y-72807619D01*
X63545714Y-73045714D02*
X63545714Y-73712381D01*
X63783810Y-72664762D02*
X64021905Y-73379048D01*
X63402857Y-73379048D01*
X63117143Y-72712381D02*
X62450476Y-72712381D01*
X62879048Y-73712381D01*
X84382857Y-92597143D02*
X84430476Y-92644762D01*
X84573333Y-92692381D01*
X84668571Y-92692381D01*
X84811429Y-92644762D01*
X84906667Y-92549524D01*
X84954286Y-92454286D01*
X85001905Y-92263810D01*
X85001905Y-92120952D01*
X84954286Y-91930476D01*
X84906667Y-91835238D01*
X84811429Y-91740000D01*
X84668571Y-91692381D01*
X84573333Y-91692381D01*
X84430476Y-91740000D01*
X84382857Y-91787619D01*
X83525714Y-92025714D02*
X83525714Y-92692381D01*
X83763810Y-91644762D02*
X84001905Y-92359048D01*
X83382857Y-92359048D01*
X82859048Y-92120952D02*
X82954286Y-92073333D01*
X83001905Y-92025714D01*
X83049524Y-91930476D01*
X83049524Y-91882857D01*
X83001905Y-91787619D01*
X82954286Y-91740000D01*
X82859048Y-91692381D01*
X82668571Y-91692381D01*
X82573333Y-91740000D01*
X82525714Y-91787619D01*
X82478095Y-91882857D01*
X82478095Y-91930476D01*
X82525714Y-92025714D01*
X82573333Y-92073333D01*
X82668571Y-92120952D01*
X82859048Y-92120952D01*
X82954286Y-92168571D01*
X83001905Y-92216190D01*
X83049524Y-92311429D01*
X83049524Y-92501905D01*
X83001905Y-92597143D01*
X82954286Y-92644762D01*
X82859048Y-92692381D01*
X82668571Y-92692381D01*
X82573333Y-92644762D01*
X82525714Y-92597143D01*
X82478095Y-92501905D01*
X82478095Y-92311429D01*
X82525714Y-92216190D01*
X82573333Y-92168571D01*
X82668571Y-92120952D01*
X89402857Y-73617143D02*
X89450476Y-73664762D01*
X89593333Y-73712381D01*
X89688571Y-73712381D01*
X89831429Y-73664762D01*
X89926667Y-73569524D01*
X89974286Y-73474286D01*
X90021905Y-73283810D01*
X90021905Y-73140952D01*
X89974286Y-72950476D01*
X89926667Y-72855238D01*
X89831429Y-72760000D01*
X89688571Y-72712381D01*
X89593333Y-72712381D01*
X89450476Y-72760000D01*
X89402857Y-72807619D01*
X88545714Y-73045714D02*
X88545714Y-73712381D01*
X88783810Y-72664762D02*
X89021905Y-73379048D01*
X88402857Y-73379048D01*
X87974286Y-73712381D02*
X87783810Y-73712381D01*
X87688571Y-73664762D01*
X87640952Y-73617143D01*
X87545714Y-73474286D01*
X87498095Y-73283810D01*
X87498095Y-72902857D01*
X87545714Y-72807619D01*
X87593333Y-72760000D01*
X87688571Y-72712381D01*
X87879048Y-72712381D01*
X87974286Y-72760000D01*
X88021905Y-72807619D01*
X88069524Y-72902857D01*
X88069524Y-73140952D01*
X88021905Y-73236190D01*
X87974286Y-73283810D01*
X87879048Y-73331429D01*
X87688571Y-73331429D01*
X87593333Y-73283810D01*
X87545714Y-73236190D01*
X87498095Y-73140952D01*
X109382857Y-92597143D02*
X109430476Y-92644762D01*
X109573333Y-92692381D01*
X109668571Y-92692381D01*
X109811429Y-92644762D01*
X109906667Y-92549524D01*
X109954286Y-92454286D01*
X110001905Y-92263810D01*
X110001905Y-92120952D01*
X109954286Y-91930476D01*
X109906667Y-91835238D01*
X109811429Y-91740000D01*
X109668571Y-91692381D01*
X109573333Y-91692381D01*
X109430476Y-91740000D01*
X109382857Y-91787619D01*
X108478095Y-91692381D02*
X108954286Y-91692381D01*
X109001905Y-92168571D01*
X108954286Y-92120952D01*
X108859048Y-92073333D01*
X108620952Y-92073333D01*
X108525714Y-92120952D01*
X108478095Y-92168571D01*
X108430476Y-92263810D01*
X108430476Y-92501905D01*
X108478095Y-92597143D01*
X108525714Y-92644762D01*
X108620952Y-92692381D01*
X108859048Y-92692381D01*
X108954286Y-92644762D01*
X109001905Y-92597143D01*
X107811429Y-91692381D02*
X107716190Y-91692381D01*
X107620952Y-91740000D01*
X107573333Y-91787619D01*
X107525714Y-91882857D01*
X107478095Y-92073333D01*
X107478095Y-92311429D01*
X107525714Y-92501905D01*
X107573333Y-92597143D01*
X107620952Y-92644762D01*
X107716190Y-92692381D01*
X107811429Y-92692381D01*
X107906667Y-92644762D01*
X107954286Y-92597143D01*
X108001905Y-92501905D01*
X108049524Y-92311429D01*
X108049524Y-92073333D01*
X108001905Y-91882857D01*
X107954286Y-91787619D01*
X107906667Y-91740000D01*
X107811429Y-91692381D01*
X115402857Y-73617143D02*
X115450476Y-73664762D01*
X115593333Y-73712381D01*
X115688571Y-73712381D01*
X115831429Y-73664762D01*
X115926667Y-73569524D01*
X115974286Y-73474286D01*
X116021905Y-73283810D01*
X116021905Y-73140952D01*
X115974286Y-72950476D01*
X115926667Y-72855238D01*
X115831429Y-72760000D01*
X115688571Y-72712381D01*
X115593333Y-72712381D01*
X115450476Y-72760000D01*
X115402857Y-72807619D01*
X114498095Y-72712381D02*
X114974286Y-72712381D01*
X115021905Y-73188571D01*
X114974286Y-73140952D01*
X114879048Y-73093333D01*
X114640952Y-73093333D01*
X114545714Y-73140952D01*
X114498095Y-73188571D01*
X114450476Y-73283810D01*
X114450476Y-73521905D01*
X114498095Y-73617143D01*
X114545714Y-73664762D01*
X114640952Y-73712381D01*
X114879048Y-73712381D01*
X114974286Y-73664762D01*
X115021905Y-73617143D01*
X113498095Y-73712381D02*
X114069524Y-73712381D01*
X113783810Y-73712381D02*
X113783810Y-72712381D01*
X113879048Y-72855238D01*
X113974286Y-72950476D01*
X114069524Y-72998095D01*
X134382857Y-92597143D02*
X134430476Y-92644762D01*
X134573333Y-92692381D01*
X134668571Y-92692381D01*
X134811429Y-92644762D01*
X134906667Y-92549524D01*
X134954286Y-92454286D01*
X135001905Y-92263810D01*
X135001905Y-92120952D01*
X134954286Y-91930476D01*
X134906667Y-91835238D01*
X134811429Y-91740000D01*
X134668571Y-91692381D01*
X134573333Y-91692381D01*
X134430476Y-91740000D01*
X134382857Y-91787619D01*
X133478095Y-91692381D02*
X133954286Y-91692381D01*
X134001905Y-92168571D01*
X133954286Y-92120952D01*
X133859048Y-92073333D01*
X133620952Y-92073333D01*
X133525714Y-92120952D01*
X133478095Y-92168571D01*
X133430476Y-92263810D01*
X133430476Y-92501905D01*
X133478095Y-92597143D01*
X133525714Y-92644762D01*
X133620952Y-92692381D01*
X133859048Y-92692381D01*
X133954286Y-92644762D01*
X134001905Y-92597143D01*
X133049524Y-91787619D02*
X133001905Y-91740000D01*
X132906667Y-91692381D01*
X132668571Y-91692381D01*
X132573333Y-91740000D01*
X132525714Y-91787619D01*
X132478095Y-91882857D01*
X132478095Y-91978095D01*
X132525714Y-92120952D01*
X133097143Y-92692381D01*
X132478095Y-92692381D01*
X140402857Y-73617143D02*
X140450476Y-73664762D01*
X140593333Y-73712381D01*
X140688571Y-73712381D01*
X140831429Y-73664762D01*
X140926667Y-73569524D01*
X140974286Y-73474286D01*
X141021905Y-73283810D01*
X141021905Y-73140952D01*
X140974286Y-72950476D01*
X140926667Y-72855238D01*
X140831429Y-72760000D01*
X140688571Y-72712381D01*
X140593333Y-72712381D01*
X140450476Y-72760000D01*
X140402857Y-72807619D01*
X139498095Y-72712381D02*
X139974286Y-72712381D01*
X140021905Y-73188571D01*
X139974286Y-73140952D01*
X139879048Y-73093333D01*
X139640952Y-73093333D01*
X139545714Y-73140952D01*
X139498095Y-73188571D01*
X139450476Y-73283810D01*
X139450476Y-73521905D01*
X139498095Y-73617143D01*
X139545714Y-73664762D01*
X139640952Y-73712381D01*
X139879048Y-73712381D01*
X139974286Y-73664762D01*
X140021905Y-73617143D01*
X139117143Y-72712381D02*
X138498095Y-72712381D01*
X138831429Y-73093333D01*
X138688571Y-73093333D01*
X138593333Y-73140952D01*
X138545714Y-73188571D01*
X138498095Y-73283810D01*
X138498095Y-73521905D01*
X138545714Y-73617143D01*
X138593333Y-73664762D01*
X138688571Y-73712381D01*
X138974286Y-73712381D01*
X139069524Y-73664762D01*
X139117143Y-73617143D01*
X164382857Y-92597143D02*
X164430476Y-92644762D01*
X164573333Y-92692381D01*
X164668571Y-92692381D01*
X164811429Y-92644762D01*
X164906667Y-92549524D01*
X164954286Y-92454286D01*
X165001905Y-92263810D01*
X165001905Y-92120952D01*
X164954286Y-91930476D01*
X164906667Y-91835238D01*
X164811429Y-91740000D01*
X164668571Y-91692381D01*
X164573333Y-91692381D01*
X164430476Y-91740000D01*
X164382857Y-91787619D01*
X163478095Y-91692381D02*
X163954286Y-91692381D01*
X164001905Y-92168571D01*
X163954286Y-92120952D01*
X163859048Y-92073333D01*
X163620952Y-92073333D01*
X163525714Y-92120952D01*
X163478095Y-92168571D01*
X163430476Y-92263810D01*
X163430476Y-92501905D01*
X163478095Y-92597143D01*
X163525714Y-92644762D01*
X163620952Y-92692381D01*
X163859048Y-92692381D01*
X163954286Y-92644762D01*
X164001905Y-92597143D01*
X162573333Y-92025714D02*
X162573333Y-92692381D01*
X162811429Y-91644762D02*
X163049524Y-92359048D01*
X162430476Y-92359048D01*
X168402857Y-73617143D02*
X168450476Y-73664762D01*
X168593333Y-73712381D01*
X168688571Y-73712381D01*
X168831429Y-73664762D01*
X168926667Y-73569524D01*
X168974286Y-73474286D01*
X169021905Y-73283810D01*
X169021905Y-73140952D01*
X168974286Y-72950476D01*
X168926667Y-72855238D01*
X168831429Y-72760000D01*
X168688571Y-72712381D01*
X168593333Y-72712381D01*
X168450476Y-72760000D01*
X168402857Y-72807619D01*
X167498095Y-72712381D02*
X167974286Y-72712381D01*
X168021905Y-73188571D01*
X167974286Y-73140952D01*
X167879048Y-73093333D01*
X167640952Y-73093333D01*
X167545714Y-73140952D01*
X167498095Y-73188571D01*
X167450476Y-73283810D01*
X167450476Y-73521905D01*
X167498095Y-73617143D01*
X167545714Y-73664762D01*
X167640952Y-73712381D01*
X167879048Y-73712381D01*
X167974286Y-73664762D01*
X168021905Y-73617143D01*
X166545714Y-72712381D02*
X167021905Y-72712381D01*
X167069524Y-73188571D01*
X167021905Y-73140952D01*
X166926667Y-73093333D01*
X166688571Y-73093333D01*
X166593333Y-73140952D01*
X166545714Y-73188571D01*
X166498095Y-73283810D01*
X166498095Y-73521905D01*
X166545714Y-73617143D01*
X166593333Y-73664762D01*
X166688571Y-73712381D01*
X166926667Y-73712381D01*
X167021905Y-73664762D01*
X167069524Y-73617143D01*
X189382857Y-92597143D02*
X189430476Y-92644762D01*
X189573333Y-92692381D01*
X189668571Y-92692381D01*
X189811429Y-92644762D01*
X189906667Y-92549524D01*
X189954286Y-92454286D01*
X190001905Y-92263810D01*
X190001905Y-92120952D01*
X189954286Y-91930476D01*
X189906667Y-91835238D01*
X189811429Y-91740000D01*
X189668571Y-91692381D01*
X189573333Y-91692381D01*
X189430476Y-91740000D01*
X189382857Y-91787619D01*
X188478095Y-91692381D02*
X188954286Y-91692381D01*
X189001905Y-92168571D01*
X188954286Y-92120952D01*
X188859048Y-92073333D01*
X188620952Y-92073333D01*
X188525714Y-92120952D01*
X188478095Y-92168571D01*
X188430476Y-92263810D01*
X188430476Y-92501905D01*
X188478095Y-92597143D01*
X188525714Y-92644762D01*
X188620952Y-92692381D01*
X188859048Y-92692381D01*
X188954286Y-92644762D01*
X189001905Y-92597143D01*
X187573333Y-91692381D02*
X187763810Y-91692381D01*
X187859048Y-91740000D01*
X187906667Y-91787619D01*
X188001905Y-91930476D01*
X188049524Y-92120952D01*
X188049524Y-92501905D01*
X188001905Y-92597143D01*
X187954286Y-92644762D01*
X187859048Y-92692381D01*
X187668571Y-92692381D01*
X187573333Y-92644762D01*
X187525714Y-92597143D01*
X187478095Y-92501905D01*
X187478095Y-92263810D01*
X187525714Y-92168571D01*
X187573333Y-92120952D01*
X187668571Y-92073333D01*
X187859048Y-92073333D01*
X187954286Y-92120952D01*
X188001905Y-92168571D01*
X188049524Y-92263810D01*
X193402857Y-73617143D02*
X193450476Y-73664762D01*
X193593333Y-73712381D01*
X193688571Y-73712381D01*
X193831429Y-73664762D01*
X193926667Y-73569524D01*
X193974286Y-73474286D01*
X194021905Y-73283810D01*
X194021905Y-73140952D01*
X193974286Y-72950476D01*
X193926667Y-72855238D01*
X193831429Y-72760000D01*
X193688571Y-72712381D01*
X193593333Y-72712381D01*
X193450476Y-72760000D01*
X193402857Y-72807619D01*
X192498095Y-72712381D02*
X192974286Y-72712381D01*
X193021905Y-73188571D01*
X192974286Y-73140952D01*
X192879048Y-73093333D01*
X192640952Y-73093333D01*
X192545714Y-73140952D01*
X192498095Y-73188571D01*
X192450476Y-73283810D01*
X192450476Y-73521905D01*
X192498095Y-73617143D01*
X192545714Y-73664762D01*
X192640952Y-73712381D01*
X192879048Y-73712381D01*
X192974286Y-73664762D01*
X193021905Y-73617143D01*
X192117143Y-72712381D02*
X191450476Y-72712381D01*
X191879048Y-73712381D01*
X214382857Y-92597143D02*
X214430476Y-92644762D01*
X214573333Y-92692381D01*
X214668571Y-92692381D01*
X214811429Y-92644762D01*
X214906667Y-92549524D01*
X214954286Y-92454286D01*
X215001905Y-92263810D01*
X215001905Y-92120952D01*
X214954286Y-91930476D01*
X214906667Y-91835238D01*
X214811429Y-91740000D01*
X214668571Y-91692381D01*
X214573333Y-91692381D01*
X214430476Y-91740000D01*
X214382857Y-91787619D01*
X213478095Y-91692381D02*
X213954286Y-91692381D01*
X214001905Y-92168571D01*
X213954286Y-92120952D01*
X213859048Y-92073333D01*
X213620952Y-92073333D01*
X213525714Y-92120952D01*
X213478095Y-92168571D01*
X213430476Y-92263810D01*
X213430476Y-92501905D01*
X213478095Y-92597143D01*
X213525714Y-92644762D01*
X213620952Y-92692381D01*
X213859048Y-92692381D01*
X213954286Y-92644762D01*
X214001905Y-92597143D01*
X212859048Y-92120952D02*
X212954286Y-92073333D01*
X213001905Y-92025714D01*
X213049524Y-91930476D01*
X213049524Y-91882857D01*
X213001905Y-91787619D01*
X212954286Y-91740000D01*
X212859048Y-91692381D01*
X212668571Y-91692381D01*
X212573333Y-91740000D01*
X212525714Y-91787619D01*
X212478095Y-91882857D01*
X212478095Y-91930476D01*
X212525714Y-92025714D01*
X212573333Y-92073333D01*
X212668571Y-92120952D01*
X212859048Y-92120952D01*
X212954286Y-92168571D01*
X213001905Y-92216190D01*
X213049524Y-92311429D01*
X213049524Y-92501905D01*
X213001905Y-92597143D01*
X212954286Y-92644762D01*
X212859048Y-92692381D01*
X212668571Y-92692381D01*
X212573333Y-92644762D01*
X212525714Y-92597143D01*
X212478095Y-92501905D01*
X212478095Y-92311429D01*
X212525714Y-92216190D01*
X212573333Y-92168571D01*
X212668571Y-92120952D01*
X219402857Y-73617143D02*
X219450476Y-73664762D01*
X219593333Y-73712381D01*
X219688571Y-73712381D01*
X219831429Y-73664762D01*
X219926667Y-73569524D01*
X219974286Y-73474286D01*
X220021905Y-73283810D01*
X220021905Y-73140952D01*
X219974286Y-72950476D01*
X219926667Y-72855238D01*
X219831429Y-72760000D01*
X219688571Y-72712381D01*
X219593333Y-72712381D01*
X219450476Y-72760000D01*
X219402857Y-72807619D01*
X218498095Y-72712381D02*
X218974286Y-72712381D01*
X219021905Y-73188571D01*
X218974286Y-73140952D01*
X218879048Y-73093333D01*
X218640952Y-73093333D01*
X218545714Y-73140952D01*
X218498095Y-73188571D01*
X218450476Y-73283810D01*
X218450476Y-73521905D01*
X218498095Y-73617143D01*
X218545714Y-73664762D01*
X218640952Y-73712381D01*
X218879048Y-73712381D01*
X218974286Y-73664762D01*
X219021905Y-73617143D01*
X217974286Y-73712381D02*
X217783810Y-73712381D01*
X217688571Y-73664762D01*
X217640952Y-73617143D01*
X217545714Y-73474286D01*
X217498095Y-73283810D01*
X217498095Y-72902857D01*
X217545714Y-72807619D01*
X217593333Y-72760000D01*
X217688571Y-72712381D01*
X217879048Y-72712381D01*
X217974286Y-72760000D01*
X218021905Y-72807619D01*
X218069524Y-72902857D01*
X218069524Y-73140952D01*
X218021905Y-73236190D01*
X217974286Y-73283810D01*
X217879048Y-73331429D01*
X217688571Y-73331429D01*
X217593333Y-73283810D01*
X217545714Y-73236190D01*
X217498095Y-73140952D01*
X239382857Y-92597143D02*
X239430476Y-92644762D01*
X239573333Y-92692381D01*
X239668571Y-92692381D01*
X239811429Y-92644762D01*
X239906667Y-92549524D01*
X239954286Y-92454286D01*
X240001905Y-92263810D01*
X240001905Y-92120952D01*
X239954286Y-91930476D01*
X239906667Y-91835238D01*
X239811429Y-91740000D01*
X239668571Y-91692381D01*
X239573333Y-91692381D01*
X239430476Y-91740000D01*
X239382857Y-91787619D01*
X238525714Y-91692381D02*
X238716191Y-91692381D01*
X238811429Y-91740000D01*
X238859048Y-91787619D01*
X238954286Y-91930476D01*
X239001905Y-92120952D01*
X239001905Y-92501905D01*
X238954286Y-92597143D01*
X238906667Y-92644762D01*
X238811429Y-92692381D01*
X238620952Y-92692381D01*
X238525714Y-92644762D01*
X238478095Y-92597143D01*
X238430476Y-92501905D01*
X238430476Y-92263810D01*
X238478095Y-92168571D01*
X238525714Y-92120952D01*
X238620952Y-92073333D01*
X238811429Y-92073333D01*
X238906667Y-92120952D01*
X238954286Y-92168571D01*
X239001905Y-92263810D01*
X237811429Y-91692381D02*
X237716190Y-91692381D01*
X237620952Y-91740000D01*
X237573333Y-91787619D01*
X237525714Y-91882857D01*
X237478095Y-92073333D01*
X237478095Y-92311429D01*
X237525714Y-92501905D01*
X237573333Y-92597143D01*
X237620952Y-92644762D01*
X237716190Y-92692381D01*
X237811429Y-92692381D01*
X237906667Y-92644762D01*
X237954286Y-92597143D01*
X238001905Y-92501905D01*
X238049524Y-92311429D01*
X238049524Y-92073333D01*
X238001905Y-91882857D01*
X237954286Y-91787619D01*
X237906667Y-91740000D01*
X237811429Y-91692381D01*
X244402857Y-73617143D02*
X244450476Y-73664762D01*
X244593333Y-73712381D01*
X244688571Y-73712381D01*
X244831429Y-73664762D01*
X244926667Y-73569524D01*
X244974286Y-73474286D01*
X245021905Y-73283810D01*
X245021905Y-73140952D01*
X244974286Y-72950476D01*
X244926667Y-72855238D01*
X244831429Y-72760000D01*
X244688571Y-72712381D01*
X244593333Y-72712381D01*
X244450476Y-72760000D01*
X244402857Y-72807619D01*
X243545714Y-72712381D02*
X243736191Y-72712381D01*
X243831429Y-72760000D01*
X243879048Y-72807619D01*
X243974286Y-72950476D01*
X244021905Y-73140952D01*
X244021905Y-73521905D01*
X243974286Y-73617143D01*
X243926667Y-73664762D01*
X243831429Y-73712381D01*
X243640952Y-73712381D01*
X243545714Y-73664762D01*
X243498095Y-73617143D01*
X243450476Y-73521905D01*
X243450476Y-73283810D01*
X243498095Y-73188571D01*
X243545714Y-73140952D01*
X243640952Y-73093333D01*
X243831429Y-73093333D01*
X243926667Y-73140952D01*
X243974286Y-73188571D01*
X244021905Y-73283810D01*
X242498095Y-73712381D02*
X243069524Y-73712381D01*
X242783810Y-73712381D02*
X242783810Y-72712381D01*
X242879048Y-72855238D01*
X242974286Y-72950476D01*
X243069524Y-72998095D01*
X264382857Y-92597143D02*
X264430476Y-92644762D01*
X264573333Y-92692381D01*
X264668571Y-92692381D01*
X264811429Y-92644762D01*
X264906667Y-92549524D01*
X264954286Y-92454286D01*
X265001905Y-92263810D01*
X265001905Y-92120952D01*
X264954286Y-91930476D01*
X264906667Y-91835238D01*
X264811429Y-91740000D01*
X264668571Y-91692381D01*
X264573333Y-91692381D01*
X264430476Y-91740000D01*
X264382857Y-91787619D01*
X263525714Y-91692381D02*
X263716191Y-91692381D01*
X263811429Y-91740000D01*
X263859048Y-91787619D01*
X263954286Y-91930476D01*
X264001905Y-92120952D01*
X264001905Y-92501905D01*
X263954286Y-92597143D01*
X263906667Y-92644762D01*
X263811429Y-92692381D01*
X263620952Y-92692381D01*
X263525714Y-92644762D01*
X263478095Y-92597143D01*
X263430476Y-92501905D01*
X263430476Y-92263810D01*
X263478095Y-92168571D01*
X263525714Y-92120952D01*
X263620952Y-92073333D01*
X263811429Y-92073333D01*
X263906667Y-92120952D01*
X263954286Y-92168571D01*
X264001905Y-92263810D01*
X263049524Y-91787619D02*
X263001905Y-91740000D01*
X262906667Y-91692381D01*
X262668571Y-91692381D01*
X262573333Y-91740000D01*
X262525714Y-91787619D01*
X262478095Y-91882857D01*
X262478095Y-91978095D01*
X262525714Y-92120952D01*
X263097143Y-92692381D01*
X262478095Y-92692381D01*
X269402857Y-73617143D02*
X269450476Y-73664762D01*
X269593333Y-73712381D01*
X269688571Y-73712381D01*
X269831429Y-73664762D01*
X269926667Y-73569524D01*
X269974286Y-73474286D01*
X270021905Y-73283810D01*
X270021905Y-73140952D01*
X269974286Y-72950476D01*
X269926667Y-72855238D01*
X269831429Y-72760000D01*
X269688571Y-72712381D01*
X269593333Y-72712381D01*
X269450476Y-72760000D01*
X269402857Y-72807619D01*
X268545714Y-72712381D02*
X268736191Y-72712381D01*
X268831429Y-72760000D01*
X268879048Y-72807619D01*
X268974286Y-72950476D01*
X269021905Y-73140952D01*
X269021905Y-73521905D01*
X268974286Y-73617143D01*
X268926667Y-73664762D01*
X268831429Y-73712381D01*
X268640952Y-73712381D01*
X268545714Y-73664762D01*
X268498095Y-73617143D01*
X268450476Y-73521905D01*
X268450476Y-73283810D01*
X268498095Y-73188571D01*
X268545714Y-73140952D01*
X268640952Y-73093333D01*
X268831429Y-73093333D01*
X268926667Y-73140952D01*
X268974286Y-73188571D01*
X269021905Y-73283810D01*
X268117143Y-72712381D02*
X267498095Y-72712381D01*
X267831429Y-73093333D01*
X267688571Y-73093333D01*
X267593333Y-73140952D01*
X267545714Y-73188571D01*
X267498095Y-73283810D01*
X267498095Y-73521905D01*
X267545714Y-73617143D01*
X267593333Y-73664762D01*
X267688571Y-73712381D01*
X267974286Y-73712381D01*
X268069524Y-73664762D01*
X268117143Y-73617143D01*
M02*
