G04 #@! TF.FileFunction,Soldermask,Top*
%FSLAX46Y46*%
G04 Gerber Fmt 4.6, Leading zero omitted, Abs format (unit mm)*
G04 Created by KiCad (PCBNEW 4.0.5) date 02/01/17 10:47:15*
%MOMM*%
%LPD*%
G01*
G04 APERTURE LIST*
%ADD10C,0.600000*%
%ADD11C,4.464000*%
%ADD12C,3.400000*%
%ADD13C,3.900000*%
%ADD14R,2.400000X3.000000*%
%ADD15O,2.400000X3.000000*%
%ADD16R,2.000000X4.000000*%
%ADD17C,2.800000*%
%ADD18O,2.800000X2.800000*%
G04 APERTURE END LIST*
D10*
D11*
X38100000Y-39370000D03*
X38100000Y-124460000D03*
X266700000Y-39370000D03*
X266700000Y-124460000D03*
D12*
X43600000Y-100680000D03*
X43600000Y-112680000D03*
X31400000Y-112680000D03*
X31400000Y-100680000D03*
X29400000Y-106680000D03*
X43600000Y-54960000D03*
X43600000Y-66960000D03*
X31400000Y-66960000D03*
X31400000Y-54960000D03*
X29400000Y-60960000D03*
X69000000Y-100680000D03*
X69000000Y-112680000D03*
X56800000Y-112680000D03*
X56800000Y-100680000D03*
X54800000Y-106680000D03*
X69000000Y-54960000D03*
X69000000Y-66960000D03*
X56800000Y-66960000D03*
X56800000Y-54960000D03*
X54800000Y-60960000D03*
X94400000Y-100680000D03*
X94400000Y-112680000D03*
X82200000Y-112680000D03*
X82200000Y-100680000D03*
X80200000Y-106680000D03*
X94400000Y-54960000D03*
X94400000Y-66960000D03*
X82200000Y-66960000D03*
X82200000Y-54960000D03*
X80200000Y-60960000D03*
X119800000Y-100680000D03*
X119800000Y-112680000D03*
X107600000Y-112680000D03*
X107600000Y-100680000D03*
X105600000Y-106680000D03*
X119800000Y-54960000D03*
X119800000Y-66960000D03*
X107600000Y-66960000D03*
X107600000Y-54960000D03*
X105600000Y-60960000D03*
X145200000Y-100680000D03*
X145200000Y-112680000D03*
X133000000Y-112680000D03*
X133000000Y-100680000D03*
X131000000Y-106680000D03*
X145200000Y-54960000D03*
X145200000Y-66960000D03*
X133000000Y-66960000D03*
X133000000Y-54960000D03*
X131000000Y-60960000D03*
X173140000Y-100680000D03*
X173140000Y-112680000D03*
X160940000Y-112680000D03*
X160940000Y-100680000D03*
X158940000Y-106680000D03*
X173140000Y-54960000D03*
X173140000Y-66960000D03*
X160940000Y-66960000D03*
X160940000Y-54960000D03*
X158940000Y-60960000D03*
X198540000Y-100680000D03*
X198540000Y-112680000D03*
X186340000Y-112680000D03*
X186340000Y-100680000D03*
X184340000Y-106680000D03*
X198540000Y-54960000D03*
X198540000Y-66960000D03*
X186340000Y-66960000D03*
X186340000Y-54960000D03*
X184340000Y-60960000D03*
X223940000Y-100680000D03*
X223940000Y-112680000D03*
X211740000Y-112680000D03*
X211740000Y-100680000D03*
X209740000Y-106680000D03*
X223940000Y-54960000D03*
X223940000Y-66960000D03*
X211740000Y-66960000D03*
X211740000Y-54960000D03*
X209740000Y-60960000D03*
X249340000Y-100680000D03*
X249340000Y-112680000D03*
X237140000Y-112680000D03*
X237140000Y-100680000D03*
X235140000Y-106680000D03*
X249340000Y-54960000D03*
X249340000Y-66960000D03*
X237140000Y-66960000D03*
X237140000Y-54960000D03*
X235140000Y-60960000D03*
X274740000Y-100680000D03*
X274740000Y-112680000D03*
X262540000Y-112680000D03*
X262540000Y-100680000D03*
X260540000Y-106680000D03*
X274740000Y-54960000D03*
X274740000Y-66960000D03*
X262540000Y-66960000D03*
X262540000Y-54960000D03*
X260540000Y-60960000D03*
D11*
X134620000Y-124460000D03*
X134620000Y-39370000D03*
X170180000Y-39370000D03*
X170180000Y-124460000D03*
D13*
X31100000Y-79820000D03*
X45100000Y-87820000D03*
X56500000Y-79820000D03*
X70500000Y-87820000D03*
X81900000Y-79820000D03*
X95900000Y-87820000D03*
X107300000Y-79820000D03*
X121300000Y-87820000D03*
X132700000Y-79820000D03*
X146700000Y-87820000D03*
X160640000Y-79820000D03*
X174640000Y-87820000D03*
X186040000Y-79820000D03*
X200040000Y-87820000D03*
X211440000Y-79820000D03*
X225440000Y-87820000D03*
X236840000Y-79820000D03*
X250840000Y-87820000D03*
X262240000Y-79820000D03*
X276240000Y-87820000D03*
D14*
X110490000Y-43180000D03*
D15*
X107950000Y-43180000D03*
X105410000Y-43180000D03*
X102870000Y-43180000D03*
X100330000Y-43180000D03*
X97790000Y-43180000D03*
X95250000Y-43180000D03*
X92710000Y-43180000D03*
D14*
X210820000Y-43180000D03*
D15*
X208280000Y-43180000D03*
X205740000Y-43180000D03*
X203200000Y-43180000D03*
X200660000Y-43180000D03*
D16*
X54785000Y-44450000D03*
X60785000Y-44450000D03*
D13*
X47680000Y-118110000D03*
X38680000Y-118110000D03*
X34870000Y-93980000D03*
X43870000Y-93980000D03*
X34870000Y-73660000D03*
X43870000Y-73660000D03*
X60270000Y-93980000D03*
X69270000Y-93980000D03*
X60270000Y-73660000D03*
X69270000Y-73660000D03*
X85670000Y-93980000D03*
X94670000Y-93980000D03*
X85670000Y-73660000D03*
X94670000Y-73660000D03*
X111070000Y-93980000D03*
X120070000Y-93980000D03*
X111070000Y-73660000D03*
X120070000Y-73660000D03*
X136470000Y-93980000D03*
X145470000Y-93980000D03*
X136470000Y-73660000D03*
X145470000Y-73660000D03*
X164410000Y-93980000D03*
X173410000Y-93980000D03*
X164410000Y-73660000D03*
X173410000Y-73660000D03*
X189810000Y-93980000D03*
X198810000Y-93980000D03*
X189810000Y-73660000D03*
X198810000Y-73660000D03*
X215210000Y-93980000D03*
X224210000Y-93980000D03*
X215210000Y-73660000D03*
X224210000Y-73660000D03*
X240610000Y-93980000D03*
X249610000Y-93980000D03*
X240610000Y-73660000D03*
X249610000Y-73660000D03*
X266010000Y-93980000D03*
X275010000Y-93980000D03*
X266010000Y-73660000D03*
X275010000Y-73660000D03*
D17*
X64770000Y-44450000D03*
D18*
X77470000Y-44450000D03*
M02*
