G04 #@! TF.FileFunction,Legend,Bot*
%FSLAX46Y46*%
G04 Gerber Fmt 4.6, Leading zero omitted, Abs format (unit mm)*
G04 Created by KiCad (PCBNEW 4.0.5) date 02/01/17 10:47:15*
%MOMM*%
%LPD*%
G01*
G04 APERTURE LIST*
%ADD10C,0.600000*%
%ADD11C,0.100000*%
%ADD12C,0.120000*%
%ADD13C,0.300000*%
%ADD14C,0.200000*%
%ADD15C,0.150000*%
G04 APERTURE END LIST*
D10*
D11*
X34330000Y-110260000D02*
X34330000Y-113260000D01*
X39330000Y-110260000D02*
X39330000Y-112760000D01*
X39330000Y-112760000D02*
X39330000Y-113260000D01*
X37830000Y-114260000D02*
X40330000Y-112260000D01*
X40330000Y-112260000D02*
X40330000Y-111260000D01*
X40330000Y-111260000D02*
X37830000Y-109260000D01*
X37830000Y-109260000D02*
X35830000Y-109260000D01*
X35830000Y-109260000D02*
X33330000Y-111260000D01*
X33330000Y-111260000D02*
X33330000Y-112260000D01*
X33330000Y-112260000D02*
X35830000Y-114260000D01*
X35830000Y-114260000D02*
X37830000Y-114260000D01*
X39066068Y-111760000D02*
G75*
G03X39066068Y-111760000I-2236068J0D01*
G01*
D12*
X38580000Y-61840000D02*
X38580000Y-57540000D01*
X38580000Y-57540000D02*
X45880000Y-57540000D01*
X38580000Y-61840000D02*
X45880000Y-61840000D01*
X31360000Y-98580000D02*
X27060000Y-98580000D01*
X27060000Y-98580000D02*
X27060000Y-91280000D01*
X31360000Y-98580000D02*
X31360000Y-91280000D01*
X63980000Y-61840000D02*
X63980000Y-57540000D01*
X63980000Y-57540000D02*
X71280000Y-57540000D01*
X63980000Y-61840000D02*
X71280000Y-61840000D01*
X56760000Y-98580000D02*
X52460000Y-98580000D01*
X52460000Y-98580000D02*
X52460000Y-91280000D01*
X56760000Y-98580000D02*
X56760000Y-91280000D01*
X89380000Y-61840000D02*
X89380000Y-57540000D01*
X89380000Y-57540000D02*
X96680000Y-57540000D01*
X89380000Y-61840000D02*
X96680000Y-61840000D01*
X82160000Y-98580000D02*
X77860000Y-98580000D01*
X77860000Y-98580000D02*
X77860000Y-91280000D01*
X82160000Y-98580000D02*
X82160000Y-91280000D01*
X114780000Y-61840000D02*
X114780000Y-57540000D01*
X114780000Y-57540000D02*
X122080000Y-57540000D01*
X114780000Y-61840000D02*
X122080000Y-61840000D01*
X107560000Y-98580000D02*
X103260000Y-98580000D01*
X103260000Y-98580000D02*
X103260000Y-91280000D01*
X107560000Y-98580000D02*
X107560000Y-91280000D01*
X140180000Y-61840000D02*
X140180000Y-57540000D01*
X140180000Y-57540000D02*
X147480000Y-57540000D01*
X140180000Y-61840000D02*
X147480000Y-61840000D01*
X132960000Y-97310000D02*
X128660000Y-97310000D01*
X128660000Y-97310000D02*
X128660000Y-90010000D01*
X132960000Y-97310000D02*
X132960000Y-90010000D01*
X168120000Y-61840000D02*
X168120000Y-57540000D01*
X168120000Y-57540000D02*
X175420000Y-57540000D01*
X168120000Y-61840000D02*
X175420000Y-61840000D01*
X160900000Y-98580000D02*
X156600000Y-98580000D01*
X156600000Y-98580000D02*
X156600000Y-91280000D01*
X160900000Y-98580000D02*
X160900000Y-91280000D01*
X193520000Y-61840000D02*
X193520000Y-57540000D01*
X193520000Y-57540000D02*
X200820000Y-57540000D01*
X193520000Y-61840000D02*
X200820000Y-61840000D01*
X186300000Y-98580000D02*
X182000000Y-98580000D01*
X182000000Y-98580000D02*
X182000000Y-91280000D01*
X186300000Y-98580000D02*
X186300000Y-91280000D01*
X218920000Y-61840000D02*
X218920000Y-57540000D01*
X218920000Y-57540000D02*
X226220000Y-57540000D01*
X218920000Y-61840000D02*
X226220000Y-61840000D01*
X211700000Y-98580000D02*
X207400000Y-98580000D01*
X207400000Y-98580000D02*
X207400000Y-91280000D01*
X211700000Y-98580000D02*
X211700000Y-91280000D01*
X244320000Y-61840000D02*
X244320000Y-57540000D01*
X244320000Y-57540000D02*
X251620000Y-57540000D01*
X244320000Y-61840000D02*
X251620000Y-61840000D01*
X237100000Y-98580000D02*
X232800000Y-98580000D01*
X232800000Y-98580000D02*
X232800000Y-91280000D01*
X237100000Y-98580000D02*
X237100000Y-91280000D01*
X269720000Y-61840000D02*
X269720000Y-57540000D01*
X269720000Y-57540000D02*
X277020000Y-57540000D01*
X269720000Y-61840000D02*
X277020000Y-61840000D01*
X262500000Y-98580000D02*
X258200000Y-98580000D01*
X258200000Y-98580000D02*
X258200000Y-91280000D01*
X262500000Y-98580000D02*
X262500000Y-91280000D01*
D13*
X30780000Y-117210000D02*
X30780000Y-118910000D01*
X30780000Y-118910000D02*
X29680000Y-118910000D01*
X29680000Y-118910000D02*
X29680000Y-117310000D01*
X29680000Y-117310000D02*
X30580000Y-117310000D01*
X30580000Y-117310000D02*
X30580000Y-118710000D01*
X30580000Y-118710000D02*
X29880000Y-118710000D01*
X29880000Y-118710000D02*
X29880000Y-117510000D01*
X29880000Y-117510000D02*
X30380000Y-117510000D01*
X30380000Y-117510000D02*
X30380000Y-118510000D01*
X30380000Y-118510000D02*
X30080000Y-118510000D01*
X30080000Y-118510000D02*
X30080000Y-117810000D01*
X30080000Y-117810000D02*
X30280000Y-117810000D01*
X30730000Y-118110000D02*
X29730000Y-118110000D01*
D10*
X30980000Y-118110000D02*
X32730000Y-118110000D01*
D14*
X25230000Y-120110000D02*
X24230000Y-120110000D01*
X25230000Y-116110000D02*
X24230000Y-116110000D01*
X29230000Y-116110000D02*
X25230000Y-116110000D01*
X25230000Y-116110000D02*
X25230000Y-120110000D01*
X25230000Y-120110000D02*
X29230000Y-120110000D01*
X30980000Y-119110000D02*
X30980000Y-117110000D01*
X30980000Y-117110000D02*
X29480000Y-117110000D01*
X29480000Y-117110000D02*
X29480000Y-119110000D01*
X29480000Y-119110000D02*
X30980000Y-119110000D01*
D13*
X32050000Y-49900000D02*
X32050000Y-51600000D01*
X32050000Y-51600000D02*
X30950000Y-51600000D01*
X30950000Y-51600000D02*
X30950000Y-50000000D01*
X30950000Y-50000000D02*
X31850000Y-50000000D01*
X31850000Y-50000000D02*
X31850000Y-51400000D01*
X31850000Y-51400000D02*
X31150000Y-51400000D01*
X31150000Y-51400000D02*
X31150000Y-50200000D01*
X31150000Y-50200000D02*
X31650000Y-50200000D01*
X31650000Y-50200000D02*
X31650000Y-51200000D01*
X31650000Y-51200000D02*
X31350000Y-51200000D01*
X31350000Y-51200000D02*
X31350000Y-50500000D01*
X31350000Y-50500000D02*
X31550000Y-50500000D01*
X32000000Y-50800000D02*
X31000000Y-50800000D01*
D10*
X32250000Y-50800000D02*
X34000000Y-50800000D01*
D14*
X26500000Y-52800000D02*
X25500000Y-52800000D01*
X26500000Y-48800000D02*
X25500000Y-48800000D01*
X30500000Y-48800000D02*
X26500000Y-48800000D01*
X26500000Y-48800000D02*
X26500000Y-52800000D01*
X26500000Y-52800000D02*
X30500000Y-52800000D01*
X32250000Y-51800000D02*
X32250000Y-49800000D01*
X32250000Y-49800000D02*
X30750000Y-49800000D01*
X30750000Y-49800000D02*
X30750000Y-51800000D01*
X30750000Y-51800000D02*
X32250000Y-51800000D01*
D13*
X276560000Y-51700000D02*
X276560000Y-50000000D01*
X276560000Y-50000000D02*
X277660000Y-50000000D01*
X277660000Y-50000000D02*
X277660000Y-51600000D01*
X277660000Y-51600000D02*
X276760000Y-51600000D01*
X276760000Y-51600000D02*
X276760000Y-50200000D01*
X276760000Y-50200000D02*
X277460000Y-50200000D01*
X277460000Y-50200000D02*
X277460000Y-51400000D01*
X277460000Y-51400000D02*
X276960000Y-51400000D01*
X276960000Y-51400000D02*
X276960000Y-50400000D01*
X276960000Y-50400000D02*
X277260000Y-50400000D01*
X277260000Y-50400000D02*
X277260000Y-51100000D01*
X277260000Y-51100000D02*
X277060000Y-51100000D01*
X276610000Y-50800000D02*
X277610000Y-50800000D01*
D10*
X276360000Y-50800000D02*
X274610000Y-50800000D01*
D14*
X282110000Y-48800000D02*
X283110000Y-48800000D01*
X282110000Y-52800000D02*
X283110000Y-52800000D01*
X278110000Y-52800000D02*
X282110000Y-52800000D01*
X282110000Y-52800000D02*
X282110000Y-48800000D01*
X282110000Y-48800000D02*
X278110000Y-48800000D01*
X276360000Y-49800000D02*
X276360000Y-51800000D01*
X276360000Y-51800000D02*
X277860000Y-51800000D01*
X277860000Y-51800000D02*
X277860000Y-49800000D01*
X277860000Y-49800000D02*
X276360000Y-49800000D01*
D13*
X276560000Y-119010000D02*
X276560000Y-117310000D01*
X276560000Y-117310000D02*
X277660000Y-117310000D01*
X277660000Y-117310000D02*
X277660000Y-118910000D01*
X277660000Y-118910000D02*
X276760000Y-118910000D01*
X276760000Y-118910000D02*
X276760000Y-117510000D01*
X276760000Y-117510000D02*
X277460000Y-117510000D01*
X277460000Y-117510000D02*
X277460000Y-118710000D01*
X277460000Y-118710000D02*
X276960000Y-118710000D01*
X276960000Y-118710000D02*
X276960000Y-117710000D01*
X276960000Y-117710000D02*
X277260000Y-117710000D01*
X277260000Y-117710000D02*
X277260000Y-118410000D01*
X277260000Y-118410000D02*
X277060000Y-118410000D01*
X276610000Y-118110000D02*
X277610000Y-118110000D01*
D10*
X276360000Y-118110000D02*
X274610000Y-118110000D01*
D14*
X282110000Y-116110000D02*
X283110000Y-116110000D01*
X282110000Y-120110000D02*
X283110000Y-120110000D01*
X278110000Y-120110000D02*
X282110000Y-120110000D01*
X282110000Y-120110000D02*
X282110000Y-116110000D01*
X282110000Y-116110000D02*
X278110000Y-116110000D01*
X276360000Y-117110000D02*
X276360000Y-119110000D01*
X276360000Y-119110000D02*
X277860000Y-119110000D01*
X277860000Y-119110000D02*
X277860000Y-117110000D01*
X277860000Y-117110000D02*
X276360000Y-117110000D01*
D13*
X143931472Y-121074264D02*
X145133553Y-119872183D01*
X145133553Y-119872183D02*
X145911371Y-120650000D01*
X145911371Y-120650000D02*
X144780000Y-121781371D01*
X144780000Y-121781371D02*
X144143604Y-121144975D01*
X144143604Y-121144975D02*
X145133553Y-120155025D01*
X145133553Y-120155025D02*
X145628528Y-120650000D01*
X145628528Y-120650000D02*
X144780000Y-121498528D01*
X144780000Y-121498528D02*
X144426447Y-121144975D01*
X144426447Y-121144975D02*
X145133553Y-120437868D01*
X145133553Y-120437868D02*
X145345685Y-120650000D01*
X145345685Y-120650000D02*
X144850711Y-121144975D01*
X144850711Y-121144975D02*
X144709289Y-121003553D01*
X144603223Y-120473223D02*
X145310330Y-121180330D01*
D10*
X144426447Y-120296447D02*
X143189010Y-119059010D01*
D14*
X149906524Y-122948097D02*
X150613631Y-123655204D01*
X147078097Y-125776524D02*
X147785204Y-126483631D01*
X144249670Y-122948097D02*
X147078097Y-125776524D01*
X147078097Y-125776524D02*
X149906524Y-122948097D01*
X149906524Y-122948097D02*
X147078097Y-120119670D01*
X145133553Y-119589340D02*
X143719340Y-121003553D01*
X143719340Y-121003553D02*
X144780000Y-122064214D01*
X144780000Y-122064214D02*
X146194214Y-120650000D01*
X146194214Y-120650000D02*
X145133553Y-119589340D01*
D13*
X160868528Y-47835736D02*
X159666447Y-49037817D01*
X159666447Y-49037817D02*
X158888629Y-48260000D01*
X158888629Y-48260000D02*
X160020000Y-47128629D01*
X160020000Y-47128629D02*
X160656396Y-47765025D01*
X160656396Y-47765025D02*
X159666447Y-48754975D01*
X159666447Y-48754975D02*
X159171472Y-48260000D01*
X159171472Y-48260000D02*
X160020000Y-47411472D01*
X160020000Y-47411472D02*
X160373553Y-47765025D01*
X160373553Y-47765025D02*
X159666447Y-48472132D01*
X159666447Y-48472132D02*
X159454315Y-48260000D01*
X159454315Y-48260000D02*
X159949289Y-47765025D01*
X159949289Y-47765025D02*
X160090711Y-47906447D01*
X160196777Y-48436777D02*
X159489670Y-47729670D01*
D10*
X160373553Y-48613553D02*
X161610990Y-49850990D01*
D14*
X154893476Y-45961903D02*
X154186369Y-45254796D01*
X157721903Y-43133476D02*
X157014796Y-42426369D01*
X160550330Y-45961903D02*
X157721903Y-43133476D01*
X157721903Y-43133476D02*
X154893476Y-45961903D01*
X154893476Y-45961903D02*
X157721903Y-48790330D01*
X159666447Y-49320660D02*
X161080660Y-47906447D01*
X161080660Y-47906447D02*
X160020000Y-46845786D01*
X160020000Y-46845786D02*
X158605786Y-48260000D01*
X158605786Y-48260000D02*
X159666447Y-49320660D01*
D13*
X147744264Y-49108528D02*
X146542183Y-47906447D01*
X146542183Y-47906447D02*
X147320000Y-47128629D01*
X147320000Y-47128629D02*
X148451371Y-48260000D01*
X148451371Y-48260000D02*
X147814975Y-48896396D01*
X147814975Y-48896396D02*
X146825025Y-47906447D01*
X146825025Y-47906447D02*
X147320000Y-47411472D01*
X147320000Y-47411472D02*
X148168528Y-48260000D01*
X148168528Y-48260000D02*
X147814975Y-48613553D01*
X147814975Y-48613553D02*
X147107868Y-47906447D01*
X147107868Y-47906447D02*
X147320000Y-47694315D01*
X147320000Y-47694315D02*
X147814975Y-48189289D01*
X147814975Y-48189289D02*
X147673553Y-48330711D01*
X147143223Y-48436777D02*
X147850330Y-47729670D01*
D10*
X146966447Y-48613553D02*
X145729010Y-49850990D01*
D14*
X149618097Y-43133476D02*
X150325204Y-42426369D01*
X152446524Y-45961903D02*
X153153631Y-45254796D01*
X149618097Y-48790330D02*
X152446524Y-45961903D01*
X152446524Y-45961903D02*
X149618097Y-43133476D01*
X149618097Y-43133476D02*
X146789670Y-45961903D01*
X146259340Y-47906447D02*
X147673553Y-49320660D01*
X147673553Y-49320660D02*
X148734214Y-48260000D01*
X148734214Y-48260000D02*
X147320000Y-46845786D01*
X147320000Y-46845786D02*
X146259340Y-47906447D01*
D13*
X159595736Y-119801472D02*
X160797817Y-121003553D01*
X160797817Y-121003553D02*
X160020000Y-121781371D01*
X160020000Y-121781371D02*
X158888629Y-120650000D01*
X158888629Y-120650000D02*
X159525025Y-120013604D01*
X159525025Y-120013604D02*
X160514975Y-121003553D01*
X160514975Y-121003553D02*
X160020000Y-121498528D01*
X160020000Y-121498528D02*
X159171472Y-120650000D01*
X159171472Y-120650000D02*
X159525025Y-120296447D01*
X159525025Y-120296447D02*
X160232132Y-121003553D01*
X160232132Y-121003553D02*
X160020000Y-121215685D01*
X160020000Y-121215685D02*
X159525025Y-120720711D01*
X159525025Y-120720711D02*
X159666447Y-120579289D01*
X160196777Y-120473223D02*
X159489670Y-121180330D01*
D10*
X160373553Y-120296447D02*
X161610990Y-119059010D01*
D14*
X157721903Y-125776524D02*
X157014796Y-126483631D01*
X154893476Y-122948097D02*
X154186369Y-123655204D01*
X157721903Y-120119670D02*
X154893476Y-122948097D01*
X154893476Y-122948097D02*
X157721903Y-125776524D01*
X157721903Y-125776524D02*
X160550330Y-122948097D01*
X161080660Y-121003553D02*
X159666447Y-119589340D01*
X159666447Y-119589340D02*
X158605786Y-120650000D01*
X158605786Y-120650000D02*
X160020000Y-122064214D01*
X160020000Y-122064214D02*
X161080660Y-121003553D01*
D12*
X37360000Y-91030000D02*
X33760000Y-91030000D01*
X33760000Y-84230000D02*
X37360000Y-84230000D01*
X38840000Y-75340000D02*
X42440000Y-75340000D01*
X42440000Y-82140000D02*
X38840000Y-82140000D01*
X62760000Y-91030000D02*
X59160000Y-91030000D01*
X59160000Y-84230000D02*
X62760000Y-84230000D01*
X64240000Y-75340000D02*
X67840000Y-75340000D01*
X67840000Y-82140000D02*
X64240000Y-82140000D01*
X88160000Y-91030000D02*
X84560000Y-91030000D01*
X84560000Y-84230000D02*
X88160000Y-84230000D01*
X89640000Y-75340000D02*
X93240000Y-75340000D01*
X93240000Y-82140000D02*
X89640000Y-82140000D01*
X113560000Y-91030000D02*
X109960000Y-91030000D01*
X109960000Y-84230000D02*
X113560000Y-84230000D01*
X115040000Y-75340000D02*
X118640000Y-75340000D01*
X118640000Y-82140000D02*
X115040000Y-82140000D01*
X138960000Y-91030000D02*
X135360000Y-91030000D01*
X135360000Y-84230000D02*
X138960000Y-84230000D01*
X140440000Y-75340000D02*
X144040000Y-75340000D01*
X144040000Y-82140000D02*
X140440000Y-82140000D01*
X166900000Y-91030000D02*
X163300000Y-91030000D01*
X163300000Y-84230000D02*
X166900000Y-84230000D01*
X168380000Y-75340000D02*
X171980000Y-75340000D01*
X171980000Y-82140000D02*
X168380000Y-82140000D01*
X192300000Y-91030000D02*
X188700000Y-91030000D01*
X188700000Y-84230000D02*
X192300000Y-84230000D01*
X193780000Y-75340000D02*
X197380000Y-75340000D01*
X197380000Y-82140000D02*
X193780000Y-82140000D01*
X217700000Y-91030000D02*
X214100000Y-91030000D01*
X214100000Y-84230000D02*
X217700000Y-84230000D01*
X219180000Y-75340000D02*
X222780000Y-75340000D01*
X222780000Y-82140000D02*
X219180000Y-82140000D01*
X243100000Y-91030000D02*
X239500000Y-91030000D01*
X239500000Y-84230000D02*
X243100000Y-84230000D01*
X244580000Y-75340000D02*
X248180000Y-75340000D01*
X248180000Y-82140000D02*
X244580000Y-82140000D01*
X268500000Y-91030000D02*
X264900000Y-91030000D01*
X264900000Y-84230000D02*
X268500000Y-84230000D01*
X269980000Y-75340000D02*
X273580000Y-75340000D01*
X273580000Y-82140000D02*
X269980000Y-82140000D01*
X37100000Y-53585000D02*
X39100000Y-53585000D01*
X39100000Y-55635000D02*
X37100000Y-55635000D01*
X53070000Y-101355000D02*
X51070000Y-101355000D01*
X51070000Y-99305000D02*
X53070000Y-99305000D01*
X87900000Y-53585000D02*
X89900000Y-53585000D01*
X89900000Y-55635000D02*
X87900000Y-55635000D01*
X113300000Y-53585000D02*
X115300000Y-53585000D01*
X115300000Y-55635000D02*
X113300000Y-55635000D01*
X138700000Y-53585000D02*
X140700000Y-53585000D01*
X140700000Y-55635000D02*
X138700000Y-55635000D01*
X166640000Y-53585000D02*
X168640000Y-53585000D01*
X168640000Y-55635000D02*
X166640000Y-55635000D01*
X192040000Y-53585000D02*
X194040000Y-53585000D01*
X194040000Y-55635000D02*
X192040000Y-55635000D01*
X217440000Y-53585000D02*
X219440000Y-53585000D01*
X219440000Y-55635000D02*
X217440000Y-55635000D01*
X242840000Y-53585000D02*
X244840000Y-53585000D01*
X244840000Y-55635000D02*
X242840000Y-55635000D01*
X268240000Y-53585000D02*
X270240000Y-53585000D01*
X270240000Y-55635000D02*
X268240000Y-55635000D01*
X38370000Y-49775000D02*
X40370000Y-49775000D01*
X40370000Y-51825000D02*
X38370000Y-51825000D01*
X27670000Y-101355000D02*
X25670000Y-101355000D01*
X25670000Y-99305000D02*
X27670000Y-99305000D01*
X62500000Y-53585000D02*
X64500000Y-53585000D01*
X64500000Y-55635000D02*
X62500000Y-55635000D01*
X78470000Y-101355000D02*
X76470000Y-101355000D01*
X76470000Y-99305000D02*
X78470000Y-99305000D01*
X103870000Y-101355000D02*
X101870000Y-101355000D01*
X101870000Y-99305000D02*
X103870000Y-99305000D01*
X129270000Y-101355000D02*
X127270000Y-101355000D01*
X127270000Y-99305000D02*
X129270000Y-99305000D01*
X157210000Y-101355000D02*
X155210000Y-101355000D01*
X155210000Y-99305000D02*
X157210000Y-99305000D01*
X182610000Y-101355000D02*
X180610000Y-101355000D01*
X180610000Y-99305000D02*
X182610000Y-99305000D01*
X208010000Y-101355000D02*
X206010000Y-101355000D01*
X206010000Y-99305000D02*
X208010000Y-99305000D01*
X233410000Y-101355000D02*
X231410000Y-101355000D01*
X231410000Y-99305000D02*
X233410000Y-99305000D01*
X258810000Y-101355000D02*
X256810000Y-101355000D01*
X256810000Y-99305000D02*
X258810000Y-99305000D01*
X68850000Y-43425000D02*
X70850000Y-43425000D01*
X70850000Y-45475000D02*
X68850000Y-45475000D01*
D15*
X37782381Y-111593334D02*
X37782381Y-111117143D01*
X36782381Y-111117143D01*
X37782381Y-112450477D02*
X37782381Y-111879048D01*
X37782381Y-112164762D02*
X36782381Y-112164762D01*
X36925238Y-112069524D01*
X37020476Y-111974286D01*
X37068095Y-111879048D01*
X43918095Y-63242381D02*
X43918095Y-62242381D01*
X43680000Y-62242381D01*
X43537142Y-62290000D01*
X43441904Y-62385238D01*
X43394285Y-62480476D01*
X43346666Y-62670952D01*
X43346666Y-62813810D01*
X43394285Y-63004286D01*
X43441904Y-63099524D01*
X43537142Y-63194762D01*
X43680000Y-63242381D01*
X43918095Y-63242381D01*
X42394285Y-63242381D02*
X42965714Y-63242381D01*
X42680000Y-63242381D02*
X42680000Y-62242381D01*
X42775238Y-62385238D01*
X42870476Y-62480476D01*
X42965714Y-62528095D01*
X32762381Y-93241905D02*
X31762381Y-93241905D01*
X31762381Y-93480000D01*
X31810000Y-93622858D01*
X31905238Y-93718096D01*
X32000476Y-93765715D01*
X32190952Y-93813334D01*
X32333810Y-93813334D01*
X32524286Y-93765715D01*
X32619524Y-93718096D01*
X32714762Y-93622858D01*
X32762381Y-93480000D01*
X32762381Y-93241905D01*
X31857619Y-94194286D02*
X31810000Y-94241905D01*
X31762381Y-94337143D01*
X31762381Y-94575239D01*
X31810000Y-94670477D01*
X31857619Y-94718096D01*
X31952857Y-94765715D01*
X32048095Y-94765715D01*
X32190952Y-94718096D01*
X32762381Y-94146667D01*
X32762381Y-94765715D01*
X69318095Y-63242381D02*
X69318095Y-62242381D01*
X69080000Y-62242381D01*
X68937142Y-62290000D01*
X68841904Y-62385238D01*
X68794285Y-62480476D01*
X68746666Y-62670952D01*
X68746666Y-62813810D01*
X68794285Y-63004286D01*
X68841904Y-63099524D01*
X68937142Y-63194762D01*
X69080000Y-63242381D01*
X69318095Y-63242381D01*
X68413333Y-62242381D02*
X67794285Y-62242381D01*
X68127619Y-62623333D01*
X67984761Y-62623333D01*
X67889523Y-62670952D01*
X67841904Y-62718571D01*
X67794285Y-62813810D01*
X67794285Y-63051905D01*
X67841904Y-63147143D01*
X67889523Y-63194762D01*
X67984761Y-63242381D01*
X68270476Y-63242381D01*
X68365714Y-63194762D01*
X68413333Y-63147143D01*
X58162381Y-93241905D02*
X57162381Y-93241905D01*
X57162381Y-93480000D01*
X57210000Y-93622858D01*
X57305238Y-93718096D01*
X57400476Y-93765715D01*
X57590952Y-93813334D01*
X57733810Y-93813334D01*
X57924286Y-93765715D01*
X58019524Y-93718096D01*
X58114762Y-93622858D01*
X58162381Y-93480000D01*
X58162381Y-93241905D01*
X57495714Y-94670477D02*
X58162381Y-94670477D01*
X57114762Y-94432381D02*
X57829048Y-94194286D01*
X57829048Y-94813334D01*
X94718095Y-63242381D02*
X94718095Y-62242381D01*
X94480000Y-62242381D01*
X94337142Y-62290000D01*
X94241904Y-62385238D01*
X94194285Y-62480476D01*
X94146666Y-62670952D01*
X94146666Y-62813810D01*
X94194285Y-63004286D01*
X94241904Y-63099524D01*
X94337142Y-63194762D01*
X94480000Y-63242381D01*
X94718095Y-63242381D01*
X93241904Y-62242381D02*
X93718095Y-62242381D01*
X93765714Y-62718571D01*
X93718095Y-62670952D01*
X93622857Y-62623333D01*
X93384761Y-62623333D01*
X93289523Y-62670952D01*
X93241904Y-62718571D01*
X93194285Y-62813810D01*
X93194285Y-63051905D01*
X93241904Y-63147143D01*
X93289523Y-63194762D01*
X93384761Y-63242381D01*
X93622857Y-63242381D01*
X93718095Y-63194762D01*
X93765714Y-63147143D01*
X83562381Y-93241905D02*
X82562381Y-93241905D01*
X82562381Y-93480000D01*
X82610000Y-93622858D01*
X82705238Y-93718096D01*
X82800476Y-93765715D01*
X82990952Y-93813334D01*
X83133810Y-93813334D01*
X83324286Y-93765715D01*
X83419524Y-93718096D01*
X83514762Y-93622858D01*
X83562381Y-93480000D01*
X83562381Y-93241905D01*
X82562381Y-94670477D02*
X82562381Y-94480000D01*
X82610000Y-94384762D01*
X82657619Y-94337143D01*
X82800476Y-94241905D01*
X82990952Y-94194286D01*
X83371905Y-94194286D01*
X83467143Y-94241905D01*
X83514762Y-94289524D01*
X83562381Y-94384762D01*
X83562381Y-94575239D01*
X83514762Y-94670477D01*
X83467143Y-94718096D01*
X83371905Y-94765715D01*
X83133810Y-94765715D01*
X83038571Y-94718096D01*
X82990952Y-94670477D01*
X82943333Y-94575239D01*
X82943333Y-94384762D01*
X82990952Y-94289524D01*
X83038571Y-94241905D01*
X83133810Y-94194286D01*
X120118095Y-63242381D02*
X120118095Y-62242381D01*
X119880000Y-62242381D01*
X119737142Y-62290000D01*
X119641904Y-62385238D01*
X119594285Y-62480476D01*
X119546666Y-62670952D01*
X119546666Y-62813810D01*
X119594285Y-63004286D01*
X119641904Y-63099524D01*
X119737142Y-63194762D01*
X119880000Y-63242381D01*
X120118095Y-63242381D01*
X119213333Y-62242381D02*
X118546666Y-62242381D01*
X118975238Y-63242381D01*
X108962381Y-93241905D02*
X107962381Y-93241905D01*
X107962381Y-93480000D01*
X108010000Y-93622858D01*
X108105238Y-93718096D01*
X108200476Y-93765715D01*
X108390952Y-93813334D01*
X108533810Y-93813334D01*
X108724286Y-93765715D01*
X108819524Y-93718096D01*
X108914762Y-93622858D01*
X108962381Y-93480000D01*
X108962381Y-93241905D01*
X108390952Y-94384762D02*
X108343333Y-94289524D01*
X108295714Y-94241905D01*
X108200476Y-94194286D01*
X108152857Y-94194286D01*
X108057619Y-94241905D01*
X108010000Y-94289524D01*
X107962381Y-94384762D01*
X107962381Y-94575239D01*
X108010000Y-94670477D01*
X108057619Y-94718096D01*
X108152857Y-94765715D01*
X108200476Y-94765715D01*
X108295714Y-94718096D01*
X108343333Y-94670477D01*
X108390952Y-94575239D01*
X108390952Y-94384762D01*
X108438571Y-94289524D01*
X108486190Y-94241905D01*
X108581429Y-94194286D01*
X108771905Y-94194286D01*
X108867143Y-94241905D01*
X108914762Y-94289524D01*
X108962381Y-94384762D01*
X108962381Y-94575239D01*
X108914762Y-94670477D01*
X108867143Y-94718096D01*
X108771905Y-94765715D01*
X108581429Y-94765715D01*
X108486190Y-94718096D01*
X108438571Y-94670477D01*
X108390952Y-94575239D01*
X145994286Y-63242381D02*
X145994286Y-62242381D01*
X145756191Y-62242381D01*
X145613333Y-62290000D01*
X145518095Y-62385238D01*
X145470476Y-62480476D01*
X145422857Y-62670952D01*
X145422857Y-62813810D01*
X145470476Y-63004286D01*
X145518095Y-63099524D01*
X145613333Y-63194762D01*
X145756191Y-63242381D01*
X145994286Y-63242381D01*
X144470476Y-63242381D02*
X145041905Y-63242381D01*
X144756191Y-63242381D02*
X144756191Y-62242381D01*
X144851429Y-62385238D01*
X144946667Y-62480476D01*
X145041905Y-62528095D01*
X143851429Y-62242381D02*
X143756190Y-62242381D01*
X143660952Y-62290000D01*
X143613333Y-62337619D01*
X143565714Y-62432857D01*
X143518095Y-62623333D01*
X143518095Y-62861429D01*
X143565714Y-63051905D01*
X143613333Y-63147143D01*
X143660952Y-63194762D01*
X143756190Y-63242381D01*
X143851429Y-63242381D01*
X143946667Y-63194762D01*
X143994286Y-63147143D01*
X144041905Y-63051905D01*
X144089524Y-62861429D01*
X144089524Y-62623333D01*
X144041905Y-62432857D01*
X143994286Y-62337619D01*
X143946667Y-62290000D01*
X143851429Y-62242381D01*
X134362381Y-91495714D02*
X133362381Y-91495714D01*
X133362381Y-91733809D01*
X133410000Y-91876667D01*
X133505238Y-91971905D01*
X133600476Y-92019524D01*
X133790952Y-92067143D01*
X133933810Y-92067143D01*
X134124286Y-92019524D01*
X134219524Y-91971905D01*
X134314762Y-91876667D01*
X134362381Y-91733809D01*
X134362381Y-91495714D01*
X134362381Y-93019524D02*
X134362381Y-92448095D01*
X134362381Y-92733809D02*
X133362381Y-92733809D01*
X133505238Y-92638571D01*
X133600476Y-92543333D01*
X133648095Y-92448095D01*
X134362381Y-93971905D02*
X134362381Y-93400476D01*
X134362381Y-93686190D02*
X133362381Y-93686190D01*
X133505238Y-93590952D01*
X133600476Y-93495714D01*
X133648095Y-93400476D01*
X173934286Y-63242381D02*
X173934286Y-62242381D01*
X173696191Y-62242381D01*
X173553333Y-62290000D01*
X173458095Y-62385238D01*
X173410476Y-62480476D01*
X173362857Y-62670952D01*
X173362857Y-62813810D01*
X173410476Y-63004286D01*
X173458095Y-63099524D01*
X173553333Y-63194762D01*
X173696191Y-63242381D01*
X173934286Y-63242381D01*
X172410476Y-63242381D02*
X172981905Y-63242381D01*
X172696191Y-63242381D02*
X172696191Y-62242381D01*
X172791429Y-62385238D01*
X172886667Y-62480476D01*
X172981905Y-62528095D01*
X172029524Y-62337619D02*
X171981905Y-62290000D01*
X171886667Y-62242381D01*
X171648571Y-62242381D01*
X171553333Y-62290000D01*
X171505714Y-62337619D01*
X171458095Y-62432857D01*
X171458095Y-62528095D01*
X171505714Y-62670952D01*
X172077143Y-63242381D01*
X171458095Y-63242381D01*
X162302381Y-92765714D02*
X161302381Y-92765714D01*
X161302381Y-93003809D01*
X161350000Y-93146667D01*
X161445238Y-93241905D01*
X161540476Y-93289524D01*
X161730952Y-93337143D01*
X161873810Y-93337143D01*
X162064286Y-93289524D01*
X162159524Y-93241905D01*
X162254762Y-93146667D01*
X162302381Y-93003809D01*
X162302381Y-92765714D01*
X162302381Y-94289524D02*
X162302381Y-93718095D01*
X162302381Y-94003809D02*
X161302381Y-94003809D01*
X161445238Y-93908571D01*
X161540476Y-93813333D01*
X161588095Y-93718095D01*
X161302381Y-94622857D02*
X161302381Y-95241905D01*
X161683333Y-94908571D01*
X161683333Y-95051429D01*
X161730952Y-95146667D01*
X161778571Y-95194286D01*
X161873810Y-95241905D01*
X162111905Y-95241905D01*
X162207143Y-95194286D01*
X162254762Y-95146667D01*
X162302381Y-95051429D01*
X162302381Y-94765714D01*
X162254762Y-94670476D01*
X162207143Y-94622857D01*
X199334286Y-63242381D02*
X199334286Y-62242381D01*
X199096191Y-62242381D01*
X198953333Y-62290000D01*
X198858095Y-62385238D01*
X198810476Y-62480476D01*
X198762857Y-62670952D01*
X198762857Y-62813810D01*
X198810476Y-63004286D01*
X198858095Y-63099524D01*
X198953333Y-63194762D01*
X199096191Y-63242381D01*
X199334286Y-63242381D01*
X197810476Y-63242381D02*
X198381905Y-63242381D01*
X198096191Y-63242381D02*
X198096191Y-62242381D01*
X198191429Y-62385238D01*
X198286667Y-62480476D01*
X198381905Y-62528095D01*
X196953333Y-62575714D02*
X196953333Y-63242381D01*
X197191429Y-62194762D02*
X197429524Y-62909048D01*
X196810476Y-62909048D01*
X187702381Y-92765714D02*
X186702381Y-92765714D01*
X186702381Y-93003809D01*
X186750000Y-93146667D01*
X186845238Y-93241905D01*
X186940476Y-93289524D01*
X187130952Y-93337143D01*
X187273810Y-93337143D01*
X187464286Y-93289524D01*
X187559524Y-93241905D01*
X187654762Y-93146667D01*
X187702381Y-93003809D01*
X187702381Y-92765714D01*
X187702381Y-94289524D02*
X187702381Y-93718095D01*
X187702381Y-94003809D02*
X186702381Y-94003809D01*
X186845238Y-93908571D01*
X186940476Y-93813333D01*
X186988095Y-93718095D01*
X186702381Y-95194286D02*
X186702381Y-94718095D01*
X187178571Y-94670476D01*
X187130952Y-94718095D01*
X187083333Y-94813333D01*
X187083333Y-95051429D01*
X187130952Y-95146667D01*
X187178571Y-95194286D01*
X187273810Y-95241905D01*
X187511905Y-95241905D01*
X187607143Y-95194286D01*
X187654762Y-95146667D01*
X187702381Y-95051429D01*
X187702381Y-94813333D01*
X187654762Y-94718095D01*
X187607143Y-94670476D01*
X224734286Y-63242381D02*
X224734286Y-62242381D01*
X224496191Y-62242381D01*
X224353333Y-62290000D01*
X224258095Y-62385238D01*
X224210476Y-62480476D01*
X224162857Y-62670952D01*
X224162857Y-62813810D01*
X224210476Y-63004286D01*
X224258095Y-63099524D01*
X224353333Y-63194762D01*
X224496191Y-63242381D01*
X224734286Y-63242381D01*
X223210476Y-63242381D02*
X223781905Y-63242381D01*
X223496191Y-63242381D02*
X223496191Y-62242381D01*
X223591429Y-62385238D01*
X223686667Y-62480476D01*
X223781905Y-62528095D01*
X222353333Y-62242381D02*
X222543810Y-62242381D01*
X222639048Y-62290000D01*
X222686667Y-62337619D01*
X222781905Y-62480476D01*
X222829524Y-62670952D01*
X222829524Y-63051905D01*
X222781905Y-63147143D01*
X222734286Y-63194762D01*
X222639048Y-63242381D01*
X222448571Y-63242381D01*
X222353333Y-63194762D01*
X222305714Y-63147143D01*
X222258095Y-63051905D01*
X222258095Y-62813810D01*
X222305714Y-62718571D01*
X222353333Y-62670952D01*
X222448571Y-62623333D01*
X222639048Y-62623333D01*
X222734286Y-62670952D01*
X222781905Y-62718571D01*
X222829524Y-62813810D01*
X213102381Y-92765714D02*
X212102381Y-92765714D01*
X212102381Y-93003809D01*
X212150000Y-93146667D01*
X212245238Y-93241905D01*
X212340476Y-93289524D01*
X212530952Y-93337143D01*
X212673810Y-93337143D01*
X212864286Y-93289524D01*
X212959524Y-93241905D01*
X213054762Y-93146667D01*
X213102381Y-93003809D01*
X213102381Y-92765714D01*
X213102381Y-94289524D02*
X213102381Y-93718095D01*
X213102381Y-94003809D02*
X212102381Y-94003809D01*
X212245238Y-93908571D01*
X212340476Y-93813333D01*
X212388095Y-93718095D01*
X212102381Y-94622857D02*
X212102381Y-95289524D01*
X213102381Y-94860952D01*
X250134286Y-63242381D02*
X250134286Y-62242381D01*
X249896191Y-62242381D01*
X249753333Y-62290000D01*
X249658095Y-62385238D01*
X249610476Y-62480476D01*
X249562857Y-62670952D01*
X249562857Y-62813810D01*
X249610476Y-63004286D01*
X249658095Y-63099524D01*
X249753333Y-63194762D01*
X249896191Y-63242381D01*
X250134286Y-63242381D01*
X248610476Y-63242381D02*
X249181905Y-63242381D01*
X248896191Y-63242381D02*
X248896191Y-62242381D01*
X248991429Y-62385238D01*
X249086667Y-62480476D01*
X249181905Y-62528095D01*
X248039048Y-62670952D02*
X248134286Y-62623333D01*
X248181905Y-62575714D01*
X248229524Y-62480476D01*
X248229524Y-62432857D01*
X248181905Y-62337619D01*
X248134286Y-62290000D01*
X248039048Y-62242381D01*
X247848571Y-62242381D01*
X247753333Y-62290000D01*
X247705714Y-62337619D01*
X247658095Y-62432857D01*
X247658095Y-62480476D01*
X247705714Y-62575714D01*
X247753333Y-62623333D01*
X247848571Y-62670952D01*
X248039048Y-62670952D01*
X248134286Y-62718571D01*
X248181905Y-62766190D01*
X248229524Y-62861429D01*
X248229524Y-63051905D01*
X248181905Y-63147143D01*
X248134286Y-63194762D01*
X248039048Y-63242381D01*
X247848571Y-63242381D01*
X247753333Y-63194762D01*
X247705714Y-63147143D01*
X247658095Y-63051905D01*
X247658095Y-62861429D01*
X247705714Y-62766190D01*
X247753333Y-62718571D01*
X247848571Y-62670952D01*
X238502381Y-92765714D02*
X237502381Y-92765714D01*
X237502381Y-93003809D01*
X237550000Y-93146667D01*
X237645238Y-93241905D01*
X237740476Y-93289524D01*
X237930952Y-93337143D01*
X238073810Y-93337143D01*
X238264286Y-93289524D01*
X238359524Y-93241905D01*
X238454762Y-93146667D01*
X238502381Y-93003809D01*
X238502381Y-92765714D01*
X238502381Y-94289524D02*
X238502381Y-93718095D01*
X238502381Y-94003809D02*
X237502381Y-94003809D01*
X237645238Y-93908571D01*
X237740476Y-93813333D01*
X237788095Y-93718095D01*
X238502381Y-94765714D02*
X238502381Y-94956190D01*
X238454762Y-95051429D01*
X238407143Y-95099048D01*
X238264286Y-95194286D01*
X238073810Y-95241905D01*
X237692857Y-95241905D01*
X237597619Y-95194286D01*
X237550000Y-95146667D01*
X237502381Y-95051429D01*
X237502381Y-94860952D01*
X237550000Y-94765714D01*
X237597619Y-94718095D01*
X237692857Y-94670476D01*
X237930952Y-94670476D01*
X238026190Y-94718095D01*
X238073810Y-94765714D01*
X238121429Y-94860952D01*
X238121429Y-95051429D01*
X238073810Y-95146667D01*
X238026190Y-95194286D01*
X237930952Y-95241905D01*
X275534286Y-63242381D02*
X275534286Y-62242381D01*
X275296191Y-62242381D01*
X275153333Y-62290000D01*
X275058095Y-62385238D01*
X275010476Y-62480476D01*
X274962857Y-62670952D01*
X274962857Y-62813810D01*
X275010476Y-63004286D01*
X275058095Y-63099524D01*
X275153333Y-63194762D01*
X275296191Y-63242381D01*
X275534286Y-63242381D01*
X274581905Y-62337619D02*
X274534286Y-62290000D01*
X274439048Y-62242381D01*
X274200952Y-62242381D01*
X274105714Y-62290000D01*
X274058095Y-62337619D01*
X274010476Y-62432857D01*
X274010476Y-62528095D01*
X274058095Y-62670952D01*
X274629524Y-63242381D01*
X274010476Y-63242381D01*
X273391429Y-62242381D02*
X273296190Y-62242381D01*
X273200952Y-62290000D01*
X273153333Y-62337619D01*
X273105714Y-62432857D01*
X273058095Y-62623333D01*
X273058095Y-62861429D01*
X273105714Y-63051905D01*
X273153333Y-63147143D01*
X273200952Y-63194762D01*
X273296190Y-63242381D01*
X273391429Y-63242381D01*
X273486667Y-63194762D01*
X273534286Y-63147143D01*
X273581905Y-63051905D01*
X273629524Y-62861429D01*
X273629524Y-62623333D01*
X273581905Y-62432857D01*
X273534286Y-62337619D01*
X273486667Y-62290000D01*
X273391429Y-62242381D01*
X263902381Y-92765714D02*
X262902381Y-92765714D01*
X262902381Y-93003809D01*
X262950000Y-93146667D01*
X263045238Y-93241905D01*
X263140476Y-93289524D01*
X263330952Y-93337143D01*
X263473810Y-93337143D01*
X263664286Y-93289524D01*
X263759524Y-93241905D01*
X263854762Y-93146667D01*
X263902381Y-93003809D01*
X263902381Y-92765714D01*
X262997619Y-93718095D02*
X262950000Y-93765714D01*
X262902381Y-93860952D01*
X262902381Y-94099048D01*
X262950000Y-94194286D01*
X262997619Y-94241905D01*
X263092857Y-94289524D01*
X263188095Y-94289524D01*
X263330952Y-94241905D01*
X263902381Y-93670476D01*
X263902381Y-94289524D01*
X263902381Y-95241905D02*
X263902381Y-94670476D01*
X263902381Y-94956190D02*
X262902381Y-94956190D01*
X263045238Y-94860952D01*
X263140476Y-94765714D01*
X263188095Y-94670476D01*
X31218095Y-121562381D02*
X31218095Y-120562381D01*
X30837142Y-120562381D01*
X30741904Y-120610000D01*
X30694285Y-120657619D01*
X30646666Y-120752857D01*
X30646666Y-120895714D01*
X30694285Y-120990952D01*
X30741904Y-121038571D01*
X30837142Y-121086190D01*
X31218095Y-121086190D01*
X29694285Y-121562381D02*
X30265714Y-121562381D01*
X29980000Y-121562381D02*
X29980000Y-120562381D01*
X30075238Y-120705238D01*
X30170476Y-120800476D01*
X30265714Y-120848095D01*
X32488095Y-54252381D02*
X32488095Y-53252381D01*
X32107142Y-53252381D01*
X32011904Y-53300000D01*
X31964285Y-53347619D01*
X31916666Y-53442857D01*
X31916666Y-53585714D01*
X31964285Y-53680952D01*
X32011904Y-53728571D01*
X32107142Y-53776190D01*
X32488095Y-53776190D01*
X31535714Y-53347619D02*
X31488095Y-53300000D01*
X31392857Y-53252381D01*
X31154761Y-53252381D01*
X31059523Y-53300000D01*
X31011904Y-53347619D01*
X30964285Y-53442857D01*
X30964285Y-53538095D01*
X31011904Y-53680952D01*
X31583333Y-54252381D01*
X30964285Y-54252381D01*
X277598095Y-48252381D02*
X277598095Y-47252381D01*
X277217142Y-47252381D01*
X277121904Y-47300000D01*
X277074285Y-47347619D01*
X277026666Y-47442857D01*
X277026666Y-47585714D01*
X277074285Y-47680952D01*
X277121904Y-47728571D01*
X277217142Y-47776190D01*
X277598095Y-47776190D01*
X276550476Y-48252381D02*
X276360000Y-48252381D01*
X276264761Y-48204762D01*
X276217142Y-48157143D01*
X276121904Y-48014286D01*
X276074285Y-47823810D01*
X276074285Y-47442857D01*
X276121904Y-47347619D01*
X276169523Y-47300000D01*
X276264761Y-47252381D01*
X276455238Y-47252381D01*
X276550476Y-47300000D01*
X276598095Y-47347619D01*
X276645714Y-47442857D01*
X276645714Y-47680952D01*
X276598095Y-47776190D01*
X276550476Y-47823810D01*
X276455238Y-47871429D01*
X276264761Y-47871429D01*
X276169523Y-47823810D01*
X276121904Y-47776190D01*
X276074285Y-47680952D01*
X278074286Y-115562381D02*
X278074286Y-114562381D01*
X277693333Y-114562381D01*
X277598095Y-114610000D01*
X277550476Y-114657619D01*
X277502857Y-114752857D01*
X277502857Y-114895714D01*
X277550476Y-114990952D01*
X277598095Y-115038571D01*
X277693333Y-115086190D01*
X278074286Y-115086190D01*
X276550476Y-115562381D02*
X277121905Y-115562381D01*
X276836191Y-115562381D02*
X276836191Y-114562381D01*
X276931429Y-114705238D01*
X277026667Y-114800476D01*
X277121905Y-114848095D01*
X275931429Y-114562381D02*
X275836190Y-114562381D01*
X275740952Y-114610000D01*
X275693333Y-114657619D01*
X275645714Y-114752857D01*
X275598095Y-114943333D01*
X275598095Y-115181429D01*
X275645714Y-115371905D01*
X275693333Y-115467143D01*
X275740952Y-115514762D01*
X275836190Y-115562381D01*
X275931429Y-115562381D01*
X276026667Y-115514762D01*
X276074286Y-115467143D01*
X276121905Y-115371905D01*
X276169524Y-115181429D01*
X276169524Y-114943333D01*
X276121905Y-114752857D01*
X276074286Y-114657619D01*
X276026667Y-114610000D01*
X275931429Y-114562381D01*
X147440068Y-119707192D02*
X148147175Y-119000085D01*
X147877801Y-118730710D01*
X147776785Y-118697039D01*
X147709442Y-118697039D01*
X147608427Y-118730710D01*
X147507412Y-118831725D01*
X147473740Y-118932741D01*
X147473740Y-119000084D01*
X147507412Y-119101099D01*
X147776786Y-119370474D01*
X146362572Y-118629695D02*
X146766633Y-119033756D01*
X146564603Y-118831726D02*
X147271710Y-118124619D01*
X147238038Y-118292978D01*
X147238038Y-118427665D01*
X147271710Y-118528680D01*
X145689137Y-117956260D02*
X146093198Y-118360321D01*
X145891168Y-118158291D02*
X146598275Y-117451184D01*
X146564603Y-117619543D01*
X146564603Y-117754230D01*
X146598275Y-117855245D01*
X158437428Y-51559832D02*
X159144535Y-50852725D01*
X158875161Y-50583350D01*
X158774145Y-50549679D01*
X158706802Y-50549679D01*
X158605787Y-50583350D01*
X158504772Y-50684365D01*
X158471100Y-50785381D01*
X158471100Y-50852724D01*
X158504772Y-50953739D01*
X158774146Y-51223114D01*
X157359932Y-50482335D02*
X157763993Y-50886396D01*
X157561963Y-50684366D02*
X158269070Y-49977259D01*
X158235398Y-50145618D01*
X158235398Y-50280305D01*
X158269070Y-50381320D01*
X157730321Y-49573198D02*
X157730321Y-49505855D01*
X157696650Y-49404839D01*
X157528290Y-49236480D01*
X157427275Y-49202808D01*
X157359932Y-49202808D01*
X157258917Y-49236480D01*
X157191573Y-49303824D01*
X157124230Y-49438510D01*
X157124230Y-50246633D01*
X156686497Y-49808900D01*
X146377192Y-45599932D02*
X145670085Y-44892825D01*
X145400710Y-45162199D01*
X145367039Y-45263215D01*
X145367039Y-45330558D01*
X145400710Y-45431573D01*
X145501725Y-45532588D01*
X145602741Y-45566260D01*
X145670084Y-45566260D01*
X145771099Y-45532588D01*
X146040474Y-45263214D01*
X145299695Y-46677428D02*
X145703756Y-46273367D01*
X145501726Y-46475397D02*
X144794619Y-45768290D01*
X144962978Y-45801962D01*
X145097665Y-45801962D01*
X145198680Y-45768290D01*
X144356886Y-46206023D02*
X143919153Y-46643756D01*
X144424230Y-46677427D01*
X144323214Y-46778443D01*
X144289542Y-46879458D01*
X144289542Y-46946802D01*
X144323215Y-47047818D01*
X144491573Y-47216176D01*
X144592588Y-47249848D01*
X144659932Y-47249848D01*
X144760947Y-47216176D01*
X144962978Y-47014145D01*
X144996650Y-46913130D01*
X144996650Y-46845787D01*
X163319832Y-122232572D02*
X162612725Y-121525465D01*
X162343350Y-121794839D01*
X162309679Y-121895855D01*
X162309679Y-121963198D01*
X162343350Y-122064213D01*
X162444365Y-122165228D01*
X162545381Y-122198900D01*
X162612724Y-122198900D01*
X162713739Y-122165228D01*
X162983114Y-121895854D01*
X162242335Y-123310068D02*
X162646396Y-122906007D01*
X162444366Y-123108037D02*
X161737259Y-122400930D01*
X161905618Y-122434602D01*
X162040305Y-122434602D01*
X162141320Y-122400930D01*
X161164839Y-123444755D02*
X161636244Y-123916160D01*
X161063824Y-123007022D02*
X161737259Y-123343740D01*
X161299526Y-123781473D01*
X36202857Y-92687143D02*
X36250476Y-92734762D01*
X36393333Y-92782381D01*
X36488571Y-92782381D01*
X36631429Y-92734762D01*
X36726667Y-92639524D01*
X36774286Y-92544286D01*
X36821905Y-92353810D01*
X36821905Y-92210952D01*
X36774286Y-92020476D01*
X36726667Y-91925238D01*
X36631429Y-91830000D01*
X36488571Y-91782381D01*
X36393333Y-91782381D01*
X36250476Y-91830000D01*
X36202857Y-91877619D01*
X35345714Y-92115714D02*
X35345714Y-92782381D01*
X35583810Y-91734762D02*
X35821905Y-92449048D01*
X35202857Y-92449048D01*
X34869524Y-91877619D02*
X34821905Y-91830000D01*
X34726667Y-91782381D01*
X34488571Y-91782381D01*
X34393333Y-91830000D01*
X34345714Y-91877619D01*
X34298095Y-91972857D01*
X34298095Y-92068095D01*
X34345714Y-92210952D01*
X34917143Y-92782381D01*
X34298095Y-92782381D01*
X41282857Y-74397143D02*
X41330476Y-74444762D01*
X41473333Y-74492381D01*
X41568571Y-74492381D01*
X41711429Y-74444762D01*
X41806667Y-74349524D01*
X41854286Y-74254286D01*
X41901905Y-74063810D01*
X41901905Y-73920952D01*
X41854286Y-73730476D01*
X41806667Y-73635238D01*
X41711429Y-73540000D01*
X41568571Y-73492381D01*
X41473333Y-73492381D01*
X41330476Y-73540000D01*
X41282857Y-73587619D01*
X40425714Y-73825714D02*
X40425714Y-74492381D01*
X40663810Y-73444762D02*
X40901905Y-74159048D01*
X40282857Y-74159048D01*
X39425714Y-73492381D02*
X39901905Y-73492381D01*
X39949524Y-73968571D01*
X39901905Y-73920952D01*
X39806667Y-73873333D01*
X39568571Y-73873333D01*
X39473333Y-73920952D01*
X39425714Y-73968571D01*
X39378095Y-74063810D01*
X39378095Y-74301905D01*
X39425714Y-74397143D01*
X39473333Y-74444762D01*
X39568571Y-74492381D01*
X39806667Y-74492381D01*
X39901905Y-74444762D01*
X39949524Y-74397143D01*
X61602857Y-92687143D02*
X61650476Y-92734762D01*
X61793333Y-92782381D01*
X61888571Y-92782381D01*
X62031429Y-92734762D01*
X62126667Y-92639524D01*
X62174286Y-92544286D01*
X62221905Y-92353810D01*
X62221905Y-92210952D01*
X62174286Y-92020476D01*
X62126667Y-91925238D01*
X62031429Y-91830000D01*
X61888571Y-91782381D01*
X61793333Y-91782381D01*
X61650476Y-91830000D01*
X61602857Y-91877619D01*
X60745714Y-92115714D02*
X60745714Y-92782381D01*
X60983810Y-91734762D02*
X61221905Y-92449048D01*
X60602857Y-92449048D01*
X59793333Y-91782381D02*
X59983810Y-91782381D01*
X60079048Y-91830000D01*
X60126667Y-91877619D01*
X60221905Y-92020476D01*
X60269524Y-92210952D01*
X60269524Y-92591905D01*
X60221905Y-92687143D01*
X60174286Y-92734762D01*
X60079048Y-92782381D01*
X59888571Y-92782381D01*
X59793333Y-92734762D01*
X59745714Y-92687143D01*
X59698095Y-92591905D01*
X59698095Y-92353810D01*
X59745714Y-92258571D01*
X59793333Y-92210952D01*
X59888571Y-92163333D01*
X60079048Y-92163333D01*
X60174286Y-92210952D01*
X60221905Y-92258571D01*
X60269524Y-92353810D01*
X66682857Y-74397143D02*
X66730476Y-74444762D01*
X66873333Y-74492381D01*
X66968571Y-74492381D01*
X67111429Y-74444762D01*
X67206667Y-74349524D01*
X67254286Y-74254286D01*
X67301905Y-74063810D01*
X67301905Y-73920952D01*
X67254286Y-73730476D01*
X67206667Y-73635238D01*
X67111429Y-73540000D01*
X66968571Y-73492381D01*
X66873333Y-73492381D01*
X66730476Y-73540000D01*
X66682857Y-73587619D01*
X65825714Y-73825714D02*
X65825714Y-74492381D01*
X66063810Y-73444762D02*
X66301905Y-74159048D01*
X65682857Y-74159048D01*
X65397143Y-73492381D02*
X64730476Y-73492381D01*
X65159048Y-74492381D01*
X87002857Y-92687143D02*
X87050476Y-92734762D01*
X87193333Y-92782381D01*
X87288571Y-92782381D01*
X87431429Y-92734762D01*
X87526667Y-92639524D01*
X87574286Y-92544286D01*
X87621905Y-92353810D01*
X87621905Y-92210952D01*
X87574286Y-92020476D01*
X87526667Y-91925238D01*
X87431429Y-91830000D01*
X87288571Y-91782381D01*
X87193333Y-91782381D01*
X87050476Y-91830000D01*
X87002857Y-91877619D01*
X86145714Y-92115714D02*
X86145714Y-92782381D01*
X86383810Y-91734762D02*
X86621905Y-92449048D01*
X86002857Y-92449048D01*
X85479048Y-92210952D02*
X85574286Y-92163333D01*
X85621905Y-92115714D01*
X85669524Y-92020476D01*
X85669524Y-91972857D01*
X85621905Y-91877619D01*
X85574286Y-91830000D01*
X85479048Y-91782381D01*
X85288571Y-91782381D01*
X85193333Y-91830000D01*
X85145714Y-91877619D01*
X85098095Y-91972857D01*
X85098095Y-92020476D01*
X85145714Y-92115714D01*
X85193333Y-92163333D01*
X85288571Y-92210952D01*
X85479048Y-92210952D01*
X85574286Y-92258571D01*
X85621905Y-92306190D01*
X85669524Y-92401429D01*
X85669524Y-92591905D01*
X85621905Y-92687143D01*
X85574286Y-92734762D01*
X85479048Y-92782381D01*
X85288571Y-92782381D01*
X85193333Y-92734762D01*
X85145714Y-92687143D01*
X85098095Y-92591905D01*
X85098095Y-92401429D01*
X85145714Y-92306190D01*
X85193333Y-92258571D01*
X85288571Y-92210952D01*
X92082857Y-74397143D02*
X92130476Y-74444762D01*
X92273333Y-74492381D01*
X92368571Y-74492381D01*
X92511429Y-74444762D01*
X92606667Y-74349524D01*
X92654286Y-74254286D01*
X92701905Y-74063810D01*
X92701905Y-73920952D01*
X92654286Y-73730476D01*
X92606667Y-73635238D01*
X92511429Y-73540000D01*
X92368571Y-73492381D01*
X92273333Y-73492381D01*
X92130476Y-73540000D01*
X92082857Y-73587619D01*
X91225714Y-73825714D02*
X91225714Y-74492381D01*
X91463810Y-73444762D02*
X91701905Y-74159048D01*
X91082857Y-74159048D01*
X90654286Y-74492381D02*
X90463810Y-74492381D01*
X90368571Y-74444762D01*
X90320952Y-74397143D01*
X90225714Y-74254286D01*
X90178095Y-74063810D01*
X90178095Y-73682857D01*
X90225714Y-73587619D01*
X90273333Y-73540000D01*
X90368571Y-73492381D01*
X90559048Y-73492381D01*
X90654286Y-73540000D01*
X90701905Y-73587619D01*
X90749524Y-73682857D01*
X90749524Y-73920952D01*
X90701905Y-74016190D01*
X90654286Y-74063810D01*
X90559048Y-74111429D01*
X90368571Y-74111429D01*
X90273333Y-74063810D01*
X90225714Y-74016190D01*
X90178095Y-73920952D01*
X112402857Y-92687143D02*
X112450476Y-92734762D01*
X112593333Y-92782381D01*
X112688571Y-92782381D01*
X112831429Y-92734762D01*
X112926667Y-92639524D01*
X112974286Y-92544286D01*
X113021905Y-92353810D01*
X113021905Y-92210952D01*
X112974286Y-92020476D01*
X112926667Y-91925238D01*
X112831429Y-91830000D01*
X112688571Y-91782381D01*
X112593333Y-91782381D01*
X112450476Y-91830000D01*
X112402857Y-91877619D01*
X111498095Y-91782381D02*
X111974286Y-91782381D01*
X112021905Y-92258571D01*
X111974286Y-92210952D01*
X111879048Y-92163333D01*
X111640952Y-92163333D01*
X111545714Y-92210952D01*
X111498095Y-92258571D01*
X111450476Y-92353810D01*
X111450476Y-92591905D01*
X111498095Y-92687143D01*
X111545714Y-92734762D01*
X111640952Y-92782381D01*
X111879048Y-92782381D01*
X111974286Y-92734762D01*
X112021905Y-92687143D01*
X110831429Y-91782381D02*
X110736190Y-91782381D01*
X110640952Y-91830000D01*
X110593333Y-91877619D01*
X110545714Y-91972857D01*
X110498095Y-92163333D01*
X110498095Y-92401429D01*
X110545714Y-92591905D01*
X110593333Y-92687143D01*
X110640952Y-92734762D01*
X110736190Y-92782381D01*
X110831429Y-92782381D01*
X110926667Y-92734762D01*
X110974286Y-92687143D01*
X111021905Y-92591905D01*
X111069524Y-92401429D01*
X111069524Y-92163333D01*
X111021905Y-91972857D01*
X110974286Y-91877619D01*
X110926667Y-91830000D01*
X110831429Y-91782381D01*
X117482857Y-74397143D02*
X117530476Y-74444762D01*
X117673333Y-74492381D01*
X117768571Y-74492381D01*
X117911429Y-74444762D01*
X118006667Y-74349524D01*
X118054286Y-74254286D01*
X118101905Y-74063810D01*
X118101905Y-73920952D01*
X118054286Y-73730476D01*
X118006667Y-73635238D01*
X117911429Y-73540000D01*
X117768571Y-73492381D01*
X117673333Y-73492381D01*
X117530476Y-73540000D01*
X117482857Y-73587619D01*
X116578095Y-73492381D02*
X117054286Y-73492381D01*
X117101905Y-73968571D01*
X117054286Y-73920952D01*
X116959048Y-73873333D01*
X116720952Y-73873333D01*
X116625714Y-73920952D01*
X116578095Y-73968571D01*
X116530476Y-74063810D01*
X116530476Y-74301905D01*
X116578095Y-74397143D01*
X116625714Y-74444762D01*
X116720952Y-74492381D01*
X116959048Y-74492381D01*
X117054286Y-74444762D01*
X117101905Y-74397143D01*
X115578095Y-74492381D02*
X116149524Y-74492381D01*
X115863810Y-74492381D02*
X115863810Y-73492381D01*
X115959048Y-73635238D01*
X116054286Y-73730476D01*
X116149524Y-73778095D01*
X137802857Y-92687143D02*
X137850476Y-92734762D01*
X137993333Y-92782381D01*
X138088571Y-92782381D01*
X138231429Y-92734762D01*
X138326667Y-92639524D01*
X138374286Y-92544286D01*
X138421905Y-92353810D01*
X138421905Y-92210952D01*
X138374286Y-92020476D01*
X138326667Y-91925238D01*
X138231429Y-91830000D01*
X138088571Y-91782381D01*
X137993333Y-91782381D01*
X137850476Y-91830000D01*
X137802857Y-91877619D01*
X136898095Y-91782381D02*
X137374286Y-91782381D01*
X137421905Y-92258571D01*
X137374286Y-92210952D01*
X137279048Y-92163333D01*
X137040952Y-92163333D01*
X136945714Y-92210952D01*
X136898095Y-92258571D01*
X136850476Y-92353810D01*
X136850476Y-92591905D01*
X136898095Y-92687143D01*
X136945714Y-92734762D01*
X137040952Y-92782381D01*
X137279048Y-92782381D01*
X137374286Y-92734762D01*
X137421905Y-92687143D01*
X136469524Y-91877619D02*
X136421905Y-91830000D01*
X136326667Y-91782381D01*
X136088571Y-91782381D01*
X135993333Y-91830000D01*
X135945714Y-91877619D01*
X135898095Y-91972857D01*
X135898095Y-92068095D01*
X135945714Y-92210952D01*
X136517143Y-92782381D01*
X135898095Y-92782381D01*
X142882857Y-74397143D02*
X142930476Y-74444762D01*
X143073333Y-74492381D01*
X143168571Y-74492381D01*
X143311429Y-74444762D01*
X143406667Y-74349524D01*
X143454286Y-74254286D01*
X143501905Y-74063810D01*
X143501905Y-73920952D01*
X143454286Y-73730476D01*
X143406667Y-73635238D01*
X143311429Y-73540000D01*
X143168571Y-73492381D01*
X143073333Y-73492381D01*
X142930476Y-73540000D01*
X142882857Y-73587619D01*
X141978095Y-73492381D02*
X142454286Y-73492381D01*
X142501905Y-73968571D01*
X142454286Y-73920952D01*
X142359048Y-73873333D01*
X142120952Y-73873333D01*
X142025714Y-73920952D01*
X141978095Y-73968571D01*
X141930476Y-74063810D01*
X141930476Y-74301905D01*
X141978095Y-74397143D01*
X142025714Y-74444762D01*
X142120952Y-74492381D01*
X142359048Y-74492381D01*
X142454286Y-74444762D01*
X142501905Y-74397143D01*
X141597143Y-73492381D02*
X140978095Y-73492381D01*
X141311429Y-73873333D01*
X141168571Y-73873333D01*
X141073333Y-73920952D01*
X141025714Y-73968571D01*
X140978095Y-74063810D01*
X140978095Y-74301905D01*
X141025714Y-74397143D01*
X141073333Y-74444762D01*
X141168571Y-74492381D01*
X141454286Y-74492381D01*
X141549524Y-74444762D01*
X141597143Y-74397143D01*
X165742857Y-92687143D02*
X165790476Y-92734762D01*
X165933333Y-92782381D01*
X166028571Y-92782381D01*
X166171429Y-92734762D01*
X166266667Y-92639524D01*
X166314286Y-92544286D01*
X166361905Y-92353810D01*
X166361905Y-92210952D01*
X166314286Y-92020476D01*
X166266667Y-91925238D01*
X166171429Y-91830000D01*
X166028571Y-91782381D01*
X165933333Y-91782381D01*
X165790476Y-91830000D01*
X165742857Y-91877619D01*
X164838095Y-91782381D02*
X165314286Y-91782381D01*
X165361905Y-92258571D01*
X165314286Y-92210952D01*
X165219048Y-92163333D01*
X164980952Y-92163333D01*
X164885714Y-92210952D01*
X164838095Y-92258571D01*
X164790476Y-92353810D01*
X164790476Y-92591905D01*
X164838095Y-92687143D01*
X164885714Y-92734762D01*
X164980952Y-92782381D01*
X165219048Y-92782381D01*
X165314286Y-92734762D01*
X165361905Y-92687143D01*
X163933333Y-92115714D02*
X163933333Y-92782381D01*
X164171429Y-91734762D02*
X164409524Y-92449048D01*
X163790476Y-92449048D01*
X170822857Y-74397143D02*
X170870476Y-74444762D01*
X171013333Y-74492381D01*
X171108571Y-74492381D01*
X171251429Y-74444762D01*
X171346667Y-74349524D01*
X171394286Y-74254286D01*
X171441905Y-74063810D01*
X171441905Y-73920952D01*
X171394286Y-73730476D01*
X171346667Y-73635238D01*
X171251429Y-73540000D01*
X171108571Y-73492381D01*
X171013333Y-73492381D01*
X170870476Y-73540000D01*
X170822857Y-73587619D01*
X169918095Y-73492381D02*
X170394286Y-73492381D01*
X170441905Y-73968571D01*
X170394286Y-73920952D01*
X170299048Y-73873333D01*
X170060952Y-73873333D01*
X169965714Y-73920952D01*
X169918095Y-73968571D01*
X169870476Y-74063810D01*
X169870476Y-74301905D01*
X169918095Y-74397143D01*
X169965714Y-74444762D01*
X170060952Y-74492381D01*
X170299048Y-74492381D01*
X170394286Y-74444762D01*
X170441905Y-74397143D01*
X168965714Y-73492381D02*
X169441905Y-73492381D01*
X169489524Y-73968571D01*
X169441905Y-73920952D01*
X169346667Y-73873333D01*
X169108571Y-73873333D01*
X169013333Y-73920952D01*
X168965714Y-73968571D01*
X168918095Y-74063810D01*
X168918095Y-74301905D01*
X168965714Y-74397143D01*
X169013333Y-74444762D01*
X169108571Y-74492381D01*
X169346667Y-74492381D01*
X169441905Y-74444762D01*
X169489524Y-74397143D01*
X191142857Y-92687143D02*
X191190476Y-92734762D01*
X191333333Y-92782381D01*
X191428571Y-92782381D01*
X191571429Y-92734762D01*
X191666667Y-92639524D01*
X191714286Y-92544286D01*
X191761905Y-92353810D01*
X191761905Y-92210952D01*
X191714286Y-92020476D01*
X191666667Y-91925238D01*
X191571429Y-91830000D01*
X191428571Y-91782381D01*
X191333333Y-91782381D01*
X191190476Y-91830000D01*
X191142857Y-91877619D01*
X190238095Y-91782381D02*
X190714286Y-91782381D01*
X190761905Y-92258571D01*
X190714286Y-92210952D01*
X190619048Y-92163333D01*
X190380952Y-92163333D01*
X190285714Y-92210952D01*
X190238095Y-92258571D01*
X190190476Y-92353810D01*
X190190476Y-92591905D01*
X190238095Y-92687143D01*
X190285714Y-92734762D01*
X190380952Y-92782381D01*
X190619048Y-92782381D01*
X190714286Y-92734762D01*
X190761905Y-92687143D01*
X189333333Y-91782381D02*
X189523810Y-91782381D01*
X189619048Y-91830000D01*
X189666667Y-91877619D01*
X189761905Y-92020476D01*
X189809524Y-92210952D01*
X189809524Y-92591905D01*
X189761905Y-92687143D01*
X189714286Y-92734762D01*
X189619048Y-92782381D01*
X189428571Y-92782381D01*
X189333333Y-92734762D01*
X189285714Y-92687143D01*
X189238095Y-92591905D01*
X189238095Y-92353810D01*
X189285714Y-92258571D01*
X189333333Y-92210952D01*
X189428571Y-92163333D01*
X189619048Y-92163333D01*
X189714286Y-92210952D01*
X189761905Y-92258571D01*
X189809524Y-92353810D01*
X196222857Y-74397143D02*
X196270476Y-74444762D01*
X196413333Y-74492381D01*
X196508571Y-74492381D01*
X196651429Y-74444762D01*
X196746667Y-74349524D01*
X196794286Y-74254286D01*
X196841905Y-74063810D01*
X196841905Y-73920952D01*
X196794286Y-73730476D01*
X196746667Y-73635238D01*
X196651429Y-73540000D01*
X196508571Y-73492381D01*
X196413333Y-73492381D01*
X196270476Y-73540000D01*
X196222857Y-73587619D01*
X195318095Y-73492381D02*
X195794286Y-73492381D01*
X195841905Y-73968571D01*
X195794286Y-73920952D01*
X195699048Y-73873333D01*
X195460952Y-73873333D01*
X195365714Y-73920952D01*
X195318095Y-73968571D01*
X195270476Y-74063810D01*
X195270476Y-74301905D01*
X195318095Y-74397143D01*
X195365714Y-74444762D01*
X195460952Y-74492381D01*
X195699048Y-74492381D01*
X195794286Y-74444762D01*
X195841905Y-74397143D01*
X194937143Y-73492381D02*
X194270476Y-73492381D01*
X194699048Y-74492381D01*
X216542857Y-92687143D02*
X216590476Y-92734762D01*
X216733333Y-92782381D01*
X216828571Y-92782381D01*
X216971429Y-92734762D01*
X217066667Y-92639524D01*
X217114286Y-92544286D01*
X217161905Y-92353810D01*
X217161905Y-92210952D01*
X217114286Y-92020476D01*
X217066667Y-91925238D01*
X216971429Y-91830000D01*
X216828571Y-91782381D01*
X216733333Y-91782381D01*
X216590476Y-91830000D01*
X216542857Y-91877619D01*
X215638095Y-91782381D02*
X216114286Y-91782381D01*
X216161905Y-92258571D01*
X216114286Y-92210952D01*
X216019048Y-92163333D01*
X215780952Y-92163333D01*
X215685714Y-92210952D01*
X215638095Y-92258571D01*
X215590476Y-92353810D01*
X215590476Y-92591905D01*
X215638095Y-92687143D01*
X215685714Y-92734762D01*
X215780952Y-92782381D01*
X216019048Y-92782381D01*
X216114286Y-92734762D01*
X216161905Y-92687143D01*
X215019048Y-92210952D02*
X215114286Y-92163333D01*
X215161905Y-92115714D01*
X215209524Y-92020476D01*
X215209524Y-91972857D01*
X215161905Y-91877619D01*
X215114286Y-91830000D01*
X215019048Y-91782381D01*
X214828571Y-91782381D01*
X214733333Y-91830000D01*
X214685714Y-91877619D01*
X214638095Y-91972857D01*
X214638095Y-92020476D01*
X214685714Y-92115714D01*
X214733333Y-92163333D01*
X214828571Y-92210952D01*
X215019048Y-92210952D01*
X215114286Y-92258571D01*
X215161905Y-92306190D01*
X215209524Y-92401429D01*
X215209524Y-92591905D01*
X215161905Y-92687143D01*
X215114286Y-92734762D01*
X215019048Y-92782381D01*
X214828571Y-92782381D01*
X214733333Y-92734762D01*
X214685714Y-92687143D01*
X214638095Y-92591905D01*
X214638095Y-92401429D01*
X214685714Y-92306190D01*
X214733333Y-92258571D01*
X214828571Y-92210952D01*
X221622857Y-74397143D02*
X221670476Y-74444762D01*
X221813333Y-74492381D01*
X221908571Y-74492381D01*
X222051429Y-74444762D01*
X222146667Y-74349524D01*
X222194286Y-74254286D01*
X222241905Y-74063810D01*
X222241905Y-73920952D01*
X222194286Y-73730476D01*
X222146667Y-73635238D01*
X222051429Y-73540000D01*
X221908571Y-73492381D01*
X221813333Y-73492381D01*
X221670476Y-73540000D01*
X221622857Y-73587619D01*
X220718095Y-73492381D02*
X221194286Y-73492381D01*
X221241905Y-73968571D01*
X221194286Y-73920952D01*
X221099048Y-73873333D01*
X220860952Y-73873333D01*
X220765714Y-73920952D01*
X220718095Y-73968571D01*
X220670476Y-74063810D01*
X220670476Y-74301905D01*
X220718095Y-74397143D01*
X220765714Y-74444762D01*
X220860952Y-74492381D01*
X221099048Y-74492381D01*
X221194286Y-74444762D01*
X221241905Y-74397143D01*
X220194286Y-74492381D02*
X220003810Y-74492381D01*
X219908571Y-74444762D01*
X219860952Y-74397143D01*
X219765714Y-74254286D01*
X219718095Y-74063810D01*
X219718095Y-73682857D01*
X219765714Y-73587619D01*
X219813333Y-73540000D01*
X219908571Y-73492381D01*
X220099048Y-73492381D01*
X220194286Y-73540000D01*
X220241905Y-73587619D01*
X220289524Y-73682857D01*
X220289524Y-73920952D01*
X220241905Y-74016190D01*
X220194286Y-74063810D01*
X220099048Y-74111429D01*
X219908571Y-74111429D01*
X219813333Y-74063810D01*
X219765714Y-74016190D01*
X219718095Y-73920952D01*
X241942857Y-92687143D02*
X241990476Y-92734762D01*
X242133333Y-92782381D01*
X242228571Y-92782381D01*
X242371429Y-92734762D01*
X242466667Y-92639524D01*
X242514286Y-92544286D01*
X242561905Y-92353810D01*
X242561905Y-92210952D01*
X242514286Y-92020476D01*
X242466667Y-91925238D01*
X242371429Y-91830000D01*
X242228571Y-91782381D01*
X242133333Y-91782381D01*
X241990476Y-91830000D01*
X241942857Y-91877619D01*
X241085714Y-91782381D02*
X241276191Y-91782381D01*
X241371429Y-91830000D01*
X241419048Y-91877619D01*
X241514286Y-92020476D01*
X241561905Y-92210952D01*
X241561905Y-92591905D01*
X241514286Y-92687143D01*
X241466667Y-92734762D01*
X241371429Y-92782381D01*
X241180952Y-92782381D01*
X241085714Y-92734762D01*
X241038095Y-92687143D01*
X240990476Y-92591905D01*
X240990476Y-92353810D01*
X241038095Y-92258571D01*
X241085714Y-92210952D01*
X241180952Y-92163333D01*
X241371429Y-92163333D01*
X241466667Y-92210952D01*
X241514286Y-92258571D01*
X241561905Y-92353810D01*
X240371429Y-91782381D02*
X240276190Y-91782381D01*
X240180952Y-91830000D01*
X240133333Y-91877619D01*
X240085714Y-91972857D01*
X240038095Y-92163333D01*
X240038095Y-92401429D01*
X240085714Y-92591905D01*
X240133333Y-92687143D01*
X240180952Y-92734762D01*
X240276190Y-92782381D01*
X240371429Y-92782381D01*
X240466667Y-92734762D01*
X240514286Y-92687143D01*
X240561905Y-92591905D01*
X240609524Y-92401429D01*
X240609524Y-92163333D01*
X240561905Y-91972857D01*
X240514286Y-91877619D01*
X240466667Y-91830000D01*
X240371429Y-91782381D01*
X247022857Y-74397143D02*
X247070476Y-74444762D01*
X247213333Y-74492381D01*
X247308571Y-74492381D01*
X247451429Y-74444762D01*
X247546667Y-74349524D01*
X247594286Y-74254286D01*
X247641905Y-74063810D01*
X247641905Y-73920952D01*
X247594286Y-73730476D01*
X247546667Y-73635238D01*
X247451429Y-73540000D01*
X247308571Y-73492381D01*
X247213333Y-73492381D01*
X247070476Y-73540000D01*
X247022857Y-73587619D01*
X246165714Y-73492381D02*
X246356191Y-73492381D01*
X246451429Y-73540000D01*
X246499048Y-73587619D01*
X246594286Y-73730476D01*
X246641905Y-73920952D01*
X246641905Y-74301905D01*
X246594286Y-74397143D01*
X246546667Y-74444762D01*
X246451429Y-74492381D01*
X246260952Y-74492381D01*
X246165714Y-74444762D01*
X246118095Y-74397143D01*
X246070476Y-74301905D01*
X246070476Y-74063810D01*
X246118095Y-73968571D01*
X246165714Y-73920952D01*
X246260952Y-73873333D01*
X246451429Y-73873333D01*
X246546667Y-73920952D01*
X246594286Y-73968571D01*
X246641905Y-74063810D01*
X245118095Y-74492381D02*
X245689524Y-74492381D01*
X245403810Y-74492381D02*
X245403810Y-73492381D01*
X245499048Y-73635238D01*
X245594286Y-73730476D01*
X245689524Y-73778095D01*
X267342857Y-92687143D02*
X267390476Y-92734762D01*
X267533333Y-92782381D01*
X267628571Y-92782381D01*
X267771429Y-92734762D01*
X267866667Y-92639524D01*
X267914286Y-92544286D01*
X267961905Y-92353810D01*
X267961905Y-92210952D01*
X267914286Y-92020476D01*
X267866667Y-91925238D01*
X267771429Y-91830000D01*
X267628571Y-91782381D01*
X267533333Y-91782381D01*
X267390476Y-91830000D01*
X267342857Y-91877619D01*
X266485714Y-91782381D02*
X266676191Y-91782381D01*
X266771429Y-91830000D01*
X266819048Y-91877619D01*
X266914286Y-92020476D01*
X266961905Y-92210952D01*
X266961905Y-92591905D01*
X266914286Y-92687143D01*
X266866667Y-92734762D01*
X266771429Y-92782381D01*
X266580952Y-92782381D01*
X266485714Y-92734762D01*
X266438095Y-92687143D01*
X266390476Y-92591905D01*
X266390476Y-92353810D01*
X266438095Y-92258571D01*
X266485714Y-92210952D01*
X266580952Y-92163333D01*
X266771429Y-92163333D01*
X266866667Y-92210952D01*
X266914286Y-92258571D01*
X266961905Y-92353810D01*
X266009524Y-91877619D02*
X265961905Y-91830000D01*
X265866667Y-91782381D01*
X265628571Y-91782381D01*
X265533333Y-91830000D01*
X265485714Y-91877619D01*
X265438095Y-91972857D01*
X265438095Y-92068095D01*
X265485714Y-92210952D01*
X266057143Y-92782381D01*
X265438095Y-92782381D01*
X272422857Y-74397143D02*
X272470476Y-74444762D01*
X272613333Y-74492381D01*
X272708571Y-74492381D01*
X272851429Y-74444762D01*
X272946667Y-74349524D01*
X272994286Y-74254286D01*
X273041905Y-74063810D01*
X273041905Y-73920952D01*
X272994286Y-73730476D01*
X272946667Y-73635238D01*
X272851429Y-73540000D01*
X272708571Y-73492381D01*
X272613333Y-73492381D01*
X272470476Y-73540000D01*
X272422857Y-73587619D01*
X271565714Y-73492381D02*
X271756191Y-73492381D01*
X271851429Y-73540000D01*
X271899048Y-73587619D01*
X271994286Y-73730476D01*
X272041905Y-73920952D01*
X272041905Y-74301905D01*
X271994286Y-74397143D01*
X271946667Y-74444762D01*
X271851429Y-74492381D01*
X271660952Y-74492381D01*
X271565714Y-74444762D01*
X271518095Y-74397143D01*
X271470476Y-74301905D01*
X271470476Y-74063810D01*
X271518095Y-73968571D01*
X271565714Y-73920952D01*
X271660952Y-73873333D01*
X271851429Y-73873333D01*
X271946667Y-73920952D01*
X271994286Y-73968571D01*
X272041905Y-74063810D01*
X271137143Y-73492381D02*
X270518095Y-73492381D01*
X270851429Y-73873333D01*
X270708571Y-73873333D01*
X270613333Y-73920952D01*
X270565714Y-73968571D01*
X270518095Y-74063810D01*
X270518095Y-74301905D01*
X270565714Y-74397143D01*
X270613333Y-74444762D01*
X270708571Y-74492381D01*
X270994286Y-74492381D01*
X271089524Y-74444762D01*
X271137143Y-74397143D01*
X38742857Y-52667143D02*
X38790476Y-52714762D01*
X38933333Y-52762381D01*
X39028571Y-52762381D01*
X39171429Y-52714762D01*
X39266667Y-52619524D01*
X39314286Y-52524286D01*
X39361905Y-52333810D01*
X39361905Y-52190952D01*
X39314286Y-52000476D01*
X39266667Y-51905238D01*
X39171429Y-51810000D01*
X39028571Y-51762381D01*
X38933333Y-51762381D01*
X38790476Y-51810000D01*
X38742857Y-51857619D01*
X38361905Y-51857619D02*
X38314286Y-51810000D01*
X38219048Y-51762381D01*
X37980952Y-51762381D01*
X37885714Y-51810000D01*
X37838095Y-51857619D01*
X37790476Y-51952857D01*
X37790476Y-52048095D01*
X37838095Y-52190952D01*
X38409524Y-52762381D01*
X37790476Y-52762381D01*
X37457143Y-51762381D02*
X36838095Y-51762381D01*
X37171429Y-52143333D01*
X37028571Y-52143333D01*
X36933333Y-52190952D01*
X36885714Y-52238571D01*
X36838095Y-52333810D01*
X36838095Y-52571905D01*
X36885714Y-52667143D01*
X36933333Y-52714762D01*
X37028571Y-52762381D01*
X37314286Y-52762381D01*
X37409524Y-52714762D01*
X37457143Y-52667143D01*
X52712857Y-102987143D02*
X52760476Y-103034762D01*
X52903333Y-103082381D01*
X52998571Y-103082381D01*
X53141429Y-103034762D01*
X53236667Y-102939524D01*
X53284286Y-102844286D01*
X53331905Y-102653810D01*
X53331905Y-102510952D01*
X53284286Y-102320476D01*
X53236667Y-102225238D01*
X53141429Y-102130000D01*
X52998571Y-102082381D01*
X52903333Y-102082381D01*
X52760476Y-102130000D01*
X52712857Y-102177619D01*
X52331905Y-102177619D02*
X52284286Y-102130000D01*
X52189048Y-102082381D01*
X51950952Y-102082381D01*
X51855714Y-102130000D01*
X51808095Y-102177619D01*
X51760476Y-102272857D01*
X51760476Y-102368095D01*
X51808095Y-102510952D01*
X52379524Y-103082381D01*
X51760476Y-103082381D01*
X50903333Y-102415714D02*
X50903333Y-103082381D01*
X51141429Y-102034762D02*
X51379524Y-102749048D01*
X50760476Y-102749048D01*
X89542857Y-52667143D02*
X89590476Y-52714762D01*
X89733333Y-52762381D01*
X89828571Y-52762381D01*
X89971429Y-52714762D01*
X90066667Y-52619524D01*
X90114286Y-52524286D01*
X90161905Y-52333810D01*
X90161905Y-52190952D01*
X90114286Y-52000476D01*
X90066667Y-51905238D01*
X89971429Y-51810000D01*
X89828571Y-51762381D01*
X89733333Y-51762381D01*
X89590476Y-51810000D01*
X89542857Y-51857619D01*
X89161905Y-51857619D02*
X89114286Y-51810000D01*
X89019048Y-51762381D01*
X88780952Y-51762381D01*
X88685714Y-51810000D01*
X88638095Y-51857619D01*
X88590476Y-51952857D01*
X88590476Y-52048095D01*
X88638095Y-52190952D01*
X89209524Y-52762381D01*
X88590476Y-52762381D01*
X87685714Y-51762381D02*
X88161905Y-51762381D01*
X88209524Y-52238571D01*
X88161905Y-52190952D01*
X88066667Y-52143333D01*
X87828571Y-52143333D01*
X87733333Y-52190952D01*
X87685714Y-52238571D01*
X87638095Y-52333810D01*
X87638095Y-52571905D01*
X87685714Y-52667143D01*
X87733333Y-52714762D01*
X87828571Y-52762381D01*
X88066667Y-52762381D01*
X88161905Y-52714762D01*
X88209524Y-52667143D01*
X114942857Y-52667143D02*
X114990476Y-52714762D01*
X115133333Y-52762381D01*
X115228571Y-52762381D01*
X115371429Y-52714762D01*
X115466667Y-52619524D01*
X115514286Y-52524286D01*
X115561905Y-52333810D01*
X115561905Y-52190952D01*
X115514286Y-52000476D01*
X115466667Y-51905238D01*
X115371429Y-51810000D01*
X115228571Y-51762381D01*
X115133333Y-51762381D01*
X114990476Y-51810000D01*
X114942857Y-51857619D01*
X114561905Y-51857619D02*
X114514286Y-51810000D01*
X114419048Y-51762381D01*
X114180952Y-51762381D01*
X114085714Y-51810000D01*
X114038095Y-51857619D01*
X113990476Y-51952857D01*
X113990476Y-52048095D01*
X114038095Y-52190952D01*
X114609524Y-52762381D01*
X113990476Y-52762381D01*
X113133333Y-51762381D02*
X113323810Y-51762381D01*
X113419048Y-51810000D01*
X113466667Y-51857619D01*
X113561905Y-52000476D01*
X113609524Y-52190952D01*
X113609524Y-52571905D01*
X113561905Y-52667143D01*
X113514286Y-52714762D01*
X113419048Y-52762381D01*
X113228571Y-52762381D01*
X113133333Y-52714762D01*
X113085714Y-52667143D01*
X113038095Y-52571905D01*
X113038095Y-52333810D01*
X113085714Y-52238571D01*
X113133333Y-52190952D01*
X113228571Y-52143333D01*
X113419048Y-52143333D01*
X113514286Y-52190952D01*
X113561905Y-52238571D01*
X113609524Y-52333810D01*
X140342857Y-52667143D02*
X140390476Y-52714762D01*
X140533333Y-52762381D01*
X140628571Y-52762381D01*
X140771429Y-52714762D01*
X140866667Y-52619524D01*
X140914286Y-52524286D01*
X140961905Y-52333810D01*
X140961905Y-52190952D01*
X140914286Y-52000476D01*
X140866667Y-51905238D01*
X140771429Y-51810000D01*
X140628571Y-51762381D01*
X140533333Y-51762381D01*
X140390476Y-51810000D01*
X140342857Y-51857619D01*
X139961905Y-51857619D02*
X139914286Y-51810000D01*
X139819048Y-51762381D01*
X139580952Y-51762381D01*
X139485714Y-51810000D01*
X139438095Y-51857619D01*
X139390476Y-51952857D01*
X139390476Y-52048095D01*
X139438095Y-52190952D01*
X140009524Y-52762381D01*
X139390476Y-52762381D01*
X139057143Y-51762381D02*
X138390476Y-51762381D01*
X138819048Y-52762381D01*
X168282857Y-52667143D02*
X168330476Y-52714762D01*
X168473333Y-52762381D01*
X168568571Y-52762381D01*
X168711429Y-52714762D01*
X168806667Y-52619524D01*
X168854286Y-52524286D01*
X168901905Y-52333810D01*
X168901905Y-52190952D01*
X168854286Y-52000476D01*
X168806667Y-51905238D01*
X168711429Y-51810000D01*
X168568571Y-51762381D01*
X168473333Y-51762381D01*
X168330476Y-51810000D01*
X168282857Y-51857619D01*
X167901905Y-51857619D02*
X167854286Y-51810000D01*
X167759048Y-51762381D01*
X167520952Y-51762381D01*
X167425714Y-51810000D01*
X167378095Y-51857619D01*
X167330476Y-51952857D01*
X167330476Y-52048095D01*
X167378095Y-52190952D01*
X167949524Y-52762381D01*
X167330476Y-52762381D01*
X166759048Y-52190952D02*
X166854286Y-52143333D01*
X166901905Y-52095714D01*
X166949524Y-52000476D01*
X166949524Y-51952857D01*
X166901905Y-51857619D01*
X166854286Y-51810000D01*
X166759048Y-51762381D01*
X166568571Y-51762381D01*
X166473333Y-51810000D01*
X166425714Y-51857619D01*
X166378095Y-51952857D01*
X166378095Y-52000476D01*
X166425714Y-52095714D01*
X166473333Y-52143333D01*
X166568571Y-52190952D01*
X166759048Y-52190952D01*
X166854286Y-52238571D01*
X166901905Y-52286190D01*
X166949524Y-52381429D01*
X166949524Y-52571905D01*
X166901905Y-52667143D01*
X166854286Y-52714762D01*
X166759048Y-52762381D01*
X166568571Y-52762381D01*
X166473333Y-52714762D01*
X166425714Y-52667143D01*
X166378095Y-52571905D01*
X166378095Y-52381429D01*
X166425714Y-52286190D01*
X166473333Y-52238571D01*
X166568571Y-52190952D01*
X193682857Y-52667143D02*
X193730476Y-52714762D01*
X193873333Y-52762381D01*
X193968571Y-52762381D01*
X194111429Y-52714762D01*
X194206667Y-52619524D01*
X194254286Y-52524286D01*
X194301905Y-52333810D01*
X194301905Y-52190952D01*
X194254286Y-52000476D01*
X194206667Y-51905238D01*
X194111429Y-51810000D01*
X193968571Y-51762381D01*
X193873333Y-51762381D01*
X193730476Y-51810000D01*
X193682857Y-51857619D01*
X193301905Y-51857619D02*
X193254286Y-51810000D01*
X193159048Y-51762381D01*
X192920952Y-51762381D01*
X192825714Y-51810000D01*
X192778095Y-51857619D01*
X192730476Y-51952857D01*
X192730476Y-52048095D01*
X192778095Y-52190952D01*
X193349524Y-52762381D01*
X192730476Y-52762381D01*
X192254286Y-52762381D02*
X192063810Y-52762381D01*
X191968571Y-52714762D01*
X191920952Y-52667143D01*
X191825714Y-52524286D01*
X191778095Y-52333810D01*
X191778095Y-51952857D01*
X191825714Y-51857619D01*
X191873333Y-51810000D01*
X191968571Y-51762381D01*
X192159048Y-51762381D01*
X192254286Y-51810000D01*
X192301905Y-51857619D01*
X192349524Y-51952857D01*
X192349524Y-52190952D01*
X192301905Y-52286190D01*
X192254286Y-52333810D01*
X192159048Y-52381429D01*
X191968571Y-52381429D01*
X191873333Y-52333810D01*
X191825714Y-52286190D01*
X191778095Y-52190952D01*
X219082857Y-52667143D02*
X219130476Y-52714762D01*
X219273333Y-52762381D01*
X219368571Y-52762381D01*
X219511429Y-52714762D01*
X219606667Y-52619524D01*
X219654286Y-52524286D01*
X219701905Y-52333810D01*
X219701905Y-52190952D01*
X219654286Y-52000476D01*
X219606667Y-51905238D01*
X219511429Y-51810000D01*
X219368571Y-51762381D01*
X219273333Y-51762381D01*
X219130476Y-51810000D01*
X219082857Y-51857619D01*
X218749524Y-51762381D02*
X218130476Y-51762381D01*
X218463810Y-52143333D01*
X218320952Y-52143333D01*
X218225714Y-52190952D01*
X218178095Y-52238571D01*
X218130476Y-52333810D01*
X218130476Y-52571905D01*
X218178095Y-52667143D01*
X218225714Y-52714762D01*
X218320952Y-52762381D01*
X218606667Y-52762381D01*
X218701905Y-52714762D01*
X218749524Y-52667143D01*
X217511429Y-51762381D02*
X217416190Y-51762381D01*
X217320952Y-51810000D01*
X217273333Y-51857619D01*
X217225714Y-51952857D01*
X217178095Y-52143333D01*
X217178095Y-52381429D01*
X217225714Y-52571905D01*
X217273333Y-52667143D01*
X217320952Y-52714762D01*
X217416190Y-52762381D01*
X217511429Y-52762381D01*
X217606667Y-52714762D01*
X217654286Y-52667143D01*
X217701905Y-52571905D01*
X217749524Y-52381429D01*
X217749524Y-52143333D01*
X217701905Y-51952857D01*
X217654286Y-51857619D01*
X217606667Y-51810000D01*
X217511429Y-51762381D01*
X244482857Y-52667143D02*
X244530476Y-52714762D01*
X244673333Y-52762381D01*
X244768571Y-52762381D01*
X244911429Y-52714762D01*
X245006667Y-52619524D01*
X245054286Y-52524286D01*
X245101905Y-52333810D01*
X245101905Y-52190952D01*
X245054286Y-52000476D01*
X245006667Y-51905238D01*
X244911429Y-51810000D01*
X244768571Y-51762381D01*
X244673333Y-51762381D01*
X244530476Y-51810000D01*
X244482857Y-51857619D01*
X244149524Y-51762381D02*
X243530476Y-51762381D01*
X243863810Y-52143333D01*
X243720952Y-52143333D01*
X243625714Y-52190952D01*
X243578095Y-52238571D01*
X243530476Y-52333810D01*
X243530476Y-52571905D01*
X243578095Y-52667143D01*
X243625714Y-52714762D01*
X243720952Y-52762381D01*
X244006667Y-52762381D01*
X244101905Y-52714762D01*
X244149524Y-52667143D01*
X242578095Y-52762381D02*
X243149524Y-52762381D01*
X242863810Y-52762381D02*
X242863810Y-51762381D01*
X242959048Y-51905238D01*
X243054286Y-52000476D01*
X243149524Y-52048095D01*
X269882857Y-52667143D02*
X269930476Y-52714762D01*
X270073333Y-52762381D01*
X270168571Y-52762381D01*
X270311429Y-52714762D01*
X270406667Y-52619524D01*
X270454286Y-52524286D01*
X270501905Y-52333810D01*
X270501905Y-52190952D01*
X270454286Y-52000476D01*
X270406667Y-51905238D01*
X270311429Y-51810000D01*
X270168571Y-51762381D01*
X270073333Y-51762381D01*
X269930476Y-51810000D01*
X269882857Y-51857619D01*
X269549524Y-51762381D02*
X268930476Y-51762381D01*
X269263810Y-52143333D01*
X269120952Y-52143333D01*
X269025714Y-52190952D01*
X268978095Y-52238571D01*
X268930476Y-52333810D01*
X268930476Y-52571905D01*
X268978095Y-52667143D01*
X269025714Y-52714762D01*
X269120952Y-52762381D01*
X269406667Y-52762381D01*
X269501905Y-52714762D01*
X269549524Y-52667143D01*
X268549524Y-51857619D02*
X268501905Y-51810000D01*
X268406667Y-51762381D01*
X268168571Y-51762381D01*
X268073333Y-51810000D01*
X268025714Y-51857619D01*
X267978095Y-51952857D01*
X267978095Y-52048095D01*
X268025714Y-52190952D01*
X268597143Y-52762381D01*
X267978095Y-52762381D01*
X40012857Y-48857143D02*
X40060476Y-48904762D01*
X40203333Y-48952381D01*
X40298571Y-48952381D01*
X40441429Y-48904762D01*
X40536667Y-48809524D01*
X40584286Y-48714286D01*
X40631905Y-48523810D01*
X40631905Y-48380952D01*
X40584286Y-48190476D01*
X40536667Y-48095238D01*
X40441429Y-48000000D01*
X40298571Y-47952381D01*
X40203333Y-47952381D01*
X40060476Y-48000000D01*
X40012857Y-48047619D01*
X39679524Y-47952381D02*
X39060476Y-47952381D01*
X39393810Y-48333333D01*
X39250952Y-48333333D01*
X39155714Y-48380952D01*
X39108095Y-48428571D01*
X39060476Y-48523810D01*
X39060476Y-48761905D01*
X39108095Y-48857143D01*
X39155714Y-48904762D01*
X39250952Y-48952381D01*
X39536667Y-48952381D01*
X39631905Y-48904762D01*
X39679524Y-48857143D01*
X38727143Y-47952381D02*
X38108095Y-47952381D01*
X38441429Y-48333333D01*
X38298571Y-48333333D01*
X38203333Y-48380952D01*
X38155714Y-48428571D01*
X38108095Y-48523810D01*
X38108095Y-48761905D01*
X38155714Y-48857143D01*
X38203333Y-48904762D01*
X38298571Y-48952381D01*
X38584286Y-48952381D01*
X38679524Y-48904762D01*
X38727143Y-48857143D01*
X27312857Y-102987143D02*
X27360476Y-103034762D01*
X27503333Y-103082381D01*
X27598571Y-103082381D01*
X27741429Y-103034762D01*
X27836667Y-102939524D01*
X27884286Y-102844286D01*
X27931905Y-102653810D01*
X27931905Y-102510952D01*
X27884286Y-102320476D01*
X27836667Y-102225238D01*
X27741429Y-102130000D01*
X27598571Y-102082381D01*
X27503333Y-102082381D01*
X27360476Y-102130000D01*
X27312857Y-102177619D01*
X26979524Y-102082381D02*
X26360476Y-102082381D01*
X26693810Y-102463333D01*
X26550952Y-102463333D01*
X26455714Y-102510952D01*
X26408095Y-102558571D01*
X26360476Y-102653810D01*
X26360476Y-102891905D01*
X26408095Y-102987143D01*
X26455714Y-103034762D01*
X26550952Y-103082381D01*
X26836667Y-103082381D01*
X26931905Y-103034762D01*
X26979524Y-102987143D01*
X25503333Y-102415714D02*
X25503333Y-103082381D01*
X25741429Y-102034762D02*
X25979524Y-102749048D01*
X25360476Y-102749048D01*
X64142857Y-52667143D02*
X64190476Y-52714762D01*
X64333333Y-52762381D01*
X64428571Y-52762381D01*
X64571429Y-52714762D01*
X64666667Y-52619524D01*
X64714286Y-52524286D01*
X64761905Y-52333810D01*
X64761905Y-52190952D01*
X64714286Y-52000476D01*
X64666667Y-51905238D01*
X64571429Y-51810000D01*
X64428571Y-51762381D01*
X64333333Y-51762381D01*
X64190476Y-51810000D01*
X64142857Y-51857619D01*
X63809524Y-51762381D02*
X63190476Y-51762381D01*
X63523810Y-52143333D01*
X63380952Y-52143333D01*
X63285714Y-52190952D01*
X63238095Y-52238571D01*
X63190476Y-52333810D01*
X63190476Y-52571905D01*
X63238095Y-52667143D01*
X63285714Y-52714762D01*
X63380952Y-52762381D01*
X63666667Y-52762381D01*
X63761905Y-52714762D01*
X63809524Y-52667143D01*
X62285714Y-51762381D02*
X62761905Y-51762381D01*
X62809524Y-52238571D01*
X62761905Y-52190952D01*
X62666667Y-52143333D01*
X62428571Y-52143333D01*
X62333333Y-52190952D01*
X62285714Y-52238571D01*
X62238095Y-52333810D01*
X62238095Y-52571905D01*
X62285714Y-52667143D01*
X62333333Y-52714762D01*
X62428571Y-52762381D01*
X62666667Y-52762381D01*
X62761905Y-52714762D01*
X62809524Y-52667143D01*
X78112857Y-102987143D02*
X78160476Y-103034762D01*
X78303333Y-103082381D01*
X78398571Y-103082381D01*
X78541429Y-103034762D01*
X78636667Y-102939524D01*
X78684286Y-102844286D01*
X78731905Y-102653810D01*
X78731905Y-102510952D01*
X78684286Y-102320476D01*
X78636667Y-102225238D01*
X78541429Y-102130000D01*
X78398571Y-102082381D01*
X78303333Y-102082381D01*
X78160476Y-102130000D01*
X78112857Y-102177619D01*
X77779524Y-102082381D02*
X77160476Y-102082381D01*
X77493810Y-102463333D01*
X77350952Y-102463333D01*
X77255714Y-102510952D01*
X77208095Y-102558571D01*
X77160476Y-102653810D01*
X77160476Y-102891905D01*
X77208095Y-102987143D01*
X77255714Y-103034762D01*
X77350952Y-103082381D01*
X77636667Y-103082381D01*
X77731905Y-103034762D01*
X77779524Y-102987143D01*
X76303333Y-102082381D02*
X76493810Y-102082381D01*
X76589048Y-102130000D01*
X76636667Y-102177619D01*
X76731905Y-102320476D01*
X76779524Y-102510952D01*
X76779524Y-102891905D01*
X76731905Y-102987143D01*
X76684286Y-103034762D01*
X76589048Y-103082381D01*
X76398571Y-103082381D01*
X76303333Y-103034762D01*
X76255714Y-102987143D01*
X76208095Y-102891905D01*
X76208095Y-102653810D01*
X76255714Y-102558571D01*
X76303333Y-102510952D01*
X76398571Y-102463333D01*
X76589048Y-102463333D01*
X76684286Y-102510952D01*
X76731905Y-102558571D01*
X76779524Y-102653810D01*
X103512857Y-102987143D02*
X103560476Y-103034762D01*
X103703333Y-103082381D01*
X103798571Y-103082381D01*
X103941429Y-103034762D01*
X104036667Y-102939524D01*
X104084286Y-102844286D01*
X104131905Y-102653810D01*
X104131905Y-102510952D01*
X104084286Y-102320476D01*
X104036667Y-102225238D01*
X103941429Y-102130000D01*
X103798571Y-102082381D01*
X103703333Y-102082381D01*
X103560476Y-102130000D01*
X103512857Y-102177619D01*
X103179524Y-102082381D02*
X102560476Y-102082381D01*
X102893810Y-102463333D01*
X102750952Y-102463333D01*
X102655714Y-102510952D01*
X102608095Y-102558571D01*
X102560476Y-102653810D01*
X102560476Y-102891905D01*
X102608095Y-102987143D01*
X102655714Y-103034762D01*
X102750952Y-103082381D01*
X103036667Y-103082381D01*
X103131905Y-103034762D01*
X103179524Y-102987143D01*
X102227143Y-102082381D02*
X101560476Y-102082381D01*
X101989048Y-103082381D01*
X128912857Y-102987143D02*
X128960476Y-103034762D01*
X129103333Y-103082381D01*
X129198571Y-103082381D01*
X129341429Y-103034762D01*
X129436667Y-102939524D01*
X129484286Y-102844286D01*
X129531905Y-102653810D01*
X129531905Y-102510952D01*
X129484286Y-102320476D01*
X129436667Y-102225238D01*
X129341429Y-102130000D01*
X129198571Y-102082381D01*
X129103333Y-102082381D01*
X128960476Y-102130000D01*
X128912857Y-102177619D01*
X128579524Y-102082381D02*
X127960476Y-102082381D01*
X128293810Y-102463333D01*
X128150952Y-102463333D01*
X128055714Y-102510952D01*
X128008095Y-102558571D01*
X127960476Y-102653810D01*
X127960476Y-102891905D01*
X128008095Y-102987143D01*
X128055714Y-103034762D01*
X128150952Y-103082381D01*
X128436667Y-103082381D01*
X128531905Y-103034762D01*
X128579524Y-102987143D01*
X127389048Y-102510952D02*
X127484286Y-102463333D01*
X127531905Y-102415714D01*
X127579524Y-102320476D01*
X127579524Y-102272857D01*
X127531905Y-102177619D01*
X127484286Y-102130000D01*
X127389048Y-102082381D01*
X127198571Y-102082381D01*
X127103333Y-102130000D01*
X127055714Y-102177619D01*
X127008095Y-102272857D01*
X127008095Y-102320476D01*
X127055714Y-102415714D01*
X127103333Y-102463333D01*
X127198571Y-102510952D01*
X127389048Y-102510952D01*
X127484286Y-102558571D01*
X127531905Y-102606190D01*
X127579524Y-102701429D01*
X127579524Y-102891905D01*
X127531905Y-102987143D01*
X127484286Y-103034762D01*
X127389048Y-103082381D01*
X127198571Y-103082381D01*
X127103333Y-103034762D01*
X127055714Y-102987143D01*
X127008095Y-102891905D01*
X127008095Y-102701429D01*
X127055714Y-102606190D01*
X127103333Y-102558571D01*
X127198571Y-102510952D01*
X156852857Y-102987143D02*
X156900476Y-103034762D01*
X157043333Y-103082381D01*
X157138571Y-103082381D01*
X157281429Y-103034762D01*
X157376667Y-102939524D01*
X157424286Y-102844286D01*
X157471905Y-102653810D01*
X157471905Y-102510952D01*
X157424286Y-102320476D01*
X157376667Y-102225238D01*
X157281429Y-102130000D01*
X157138571Y-102082381D01*
X157043333Y-102082381D01*
X156900476Y-102130000D01*
X156852857Y-102177619D01*
X156519524Y-102082381D02*
X155900476Y-102082381D01*
X156233810Y-102463333D01*
X156090952Y-102463333D01*
X155995714Y-102510952D01*
X155948095Y-102558571D01*
X155900476Y-102653810D01*
X155900476Y-102891905D01*
X155948095Y-102987143D01*
X155995714Y-103034762D01*
X156090952Y-103082381D01*
X156376667Y-103082381D01*
X156471905Y-103034762D01*
X156519524Y-102987143D01*
X155424286Y-103082381D02*
X155233810Y-103082381D01*
X155138571Y-103034762D01*
X155090952Y-102987143D01*
X154995714Y-102844286D01*
X154948095Y-102653810D01*
X154948095Y-102272857D01*
X154995714Y-102177619D01*
X155043333Y-102130000D01*
X155138571Y-102082381D01*
X155329048Y-102082381D01*
X155424286Y-102130000D01*
X155471905Y-102177619D01*
X155519524Y-102272857D01*
X155519524Y-102510952D01*
X155471905Y-102606190D01*
X155424286Y-102653810D01*
X155329048Y-102701429D01*
X155138571Y-102701429D01*
X155043333Y-102653810D01*
X154995714Y-102606190D01*
X154948095Y-102510952D01*
X182252857Y-102987143D02*
X182300476Y-103034762D01*
X182443333Y-103082381D01*
X182538571Y-103082381D01*
X182681429Y-103034762D01*
X182776667Y-102939524D01*
X182824286Y-102844286D01*
X182871905Y-102653810D01*
X182871905Y-102510952D01*
X182824286Y-102320476D01*
X182776667Y-102225238D01*
X182681429Y-102130000D01*
X182538571Y-102082381D01*
X182443333Y-102082381D01*
X182300476Y-102130000D01*
X182252857Y-102177619D01*
X181395714Y-102415714D02*
X181395714Y-103082381D01*
X181633810Y-102034762D02*
X181871905Y-102749048D01*
X181252857Y-102749048D01*
X180681429Y-102082381D02*
X180586190Y-102082381D01*
X180490952Y-102130000D01*
X180443333Y-102177619D01*
X180395714Y-102272857D01*
X180348095Y-102463333D01*
X180348095Y-102701429D01*
X180395714Y-102891905D01*
X180443333Y-102987143D01*
X180490952Y-103034762D01*
X180586190Y-103082381D01*
X180681429Y-103082381D01*
X180776667Y-103034762D01*
X180824286Y-102987143D01*
X180871905Y-102891905D01*
X180919524Y-102701429D01*
X180919524Y-102463333D01*
X180871905Y-102272857D01*
X180824286Y-102177619D01*
X180776667Y-102130000D01*
X180681429Y-102082381D01*
X207652857Y-102987143D02*
X207700476Y-103034762D01*
X207843333Y-103082381D01*
X207938571Y-103082381D01*
X208081429Y-103034762D01*
X208176667Y-102939524D01*
X208224286Y-102844286D01*
X208271905Y-102653810D01*
X208271905Y-102510952D01*
X208224286Y-102320476D01*
X208176667Y-102225238D01*
X208081429Y-102130000D01*
X207938571Y-102082381D01*
X207843333Y-102082381D01*
X207700476Y-102130000D01*
X207652857Y-102177619D01*
X206795714Y-102415714D02*
X206795714Y-103082381D01*
X207033810Y-102034762D02*
X207271905Y-102749048D01*
X206652857Y-102749048D01*
X205748095Y-103082381D02*
X206319524Y-103082381D01*
X206033810Y-103082381D02*
X206033810Y-102082381D01*
X206129048Y-102225238D01*
X206224286Y-102320476D01*
X206319524Y-102368095D01*
X233052857Y-102987143D02*
X233100476Y-103034762D01*
X233243333Y-103082381D01*
X233338571Y-103082381D01*
X233481429Y-103034762D01*
X233576667Y-102939524D01*
X233624286Y-102844286D01*
X233671905Y-102653810D01*
X233671905Y-102510952D01*
X233624286Y-102320476D01*
X233576667Y-102225238D01*
X233481429Y-102130000D01*
X233338571Y-102082381D01*
X233243333Y-102082381D01*
X233100476Y-102130000D01*
X233052857Y-102177619D01*
X232195714Y-102415714D02*
X232195714Y-103082381D01*
X232433810Y-102034762D02*
X232671905Y-102749048D01*
X232052857Y-102749048D01*
X231767143Y-102082381D02*
X231148095Y-102082381D01*
X231481429Y-102463333D01*
X231338571Y-102463333D01*
X231243333Y-102510952D01*
X231195714Y-102558571D01*
X231148095Y-102653810D01*
X231148095Y-102891905D01*
X231195714Y-102987143D01*
X231243333Y-103034762D01*
X231338571Y-103082381D01*
X231624286Y-103082381D01*
X231719524Y-103034762D01*
X231767143Y-102987143D01*
X258452857Y-102987143D02*
X258500476Y-103034762D01*
X258643333Y-103082381D01*
X258738571Y-103082381D01*
X258881429Y-103034762D01*
X258976667Y-102939524D01*
X259024286Y-102844286D01*
X259071905Y-102653810D01*
X259071905Y-102510952D01*
X259024286Y-102320476D01*
X258976667Y-102225238D01*
X258881429Y-102130000D01*
X258738571Y-102082381D01*
X258643333Y-102082381D01*
X258500476Y-102130000D01*
X258452857Y-102177619D01*
X257595714Y-102415714D02*
X257595714Y-103082381D01*
X257833810Y-102034762D02*
X258071905Y-102749048D01*
X257452857Y-102749048D01*
X256643333Y-102415714D02*
X256643333Y-103082381D01*
X256881429Y-102034762D02*
X257119524Y-102749048D01*
X256500476Y-102749048D01*
X70016666Y-42507143D02*
X70064285Y-42554762D01*
X70207142Y-42602381D01*
X70302380Y-42602381D01*
X70445238Y-42554762D01*
X70540476Y-42459524D01*
X70588095Y-42364286D01*
X70635714Y-42173810D01*
X70635714Y-42030952D01*
X70588095Y-41840476D01*
X70540476Y-41745238D01*
X70445238Y-41650000D01*
X70302380Y-41602381D01*
X70207142Y-41602381D01*
X70064285Y-41650000D01*
X70016666Y-41697619D01*
X69159523Y-41935714D02*
X69159523Y-42602381D01*
X69397619Y-41554762D02*
X69635714Y-42269048D01*
X69016666Y-42269048D01*
M02*
