M48
INCH,TZ
T1C0.016
T2C0.040
T3C0.047
T4C0.051
T5C0.059
T6C0.063
T7C0.120
%
G90
G05
T1
X18000Y-15000
X20000Y-17500
X22000Y-15000
X27000Y-15000
X32000Y-15000
X37000Y-15000
X42000Y-15000
X47000Y-15000
X51000Y-15000
X55118Y-15748
X57087Y-49213
X59055Y-15748
X61024Y-49213
X62992Y-15748
X64961Y-49213
X70866Y-15748
X70866Y-49213
X74803Y-15748
X74803Y-49213
X78740Y-15748
X78740Y-49213
X82677Y-15748
X82677Y-49213
X86614Y-15748
X86614Y-49213
X90551Y-15748
X90551Y-49213
X94488Y-15748
X94488Y-49213
X98425Y-15748
X98425Y-49213
X102362Y-15748
X102362Y-49213
X106299Y-15748
X106299Y-49213
X110236Y-17717
X110236Y-21654
X110236Y-25591
X110236Y-29528
X110236Y-33465
X110236Y-37402
X110236Y-41339
X110236Y-45276
T2
X36461Y-17058
X37461Y-17058
X38461Y-17058
X39461Y-17058
X40461Y-17058
X41461Y-17058
X42461Y-17058
X43461Y-17058
X79004Y-17156
X80004Y-17156
X81004Y-17156
X82004Y-17156
X83004Y-17156
T3
X25500Y-17500
X30500Y-17500
T4
X13728Y-29000
X13728Y-37000
X15228Y-46500
X17272Y-29000
X17272Y-37000
X18772Y-46500
X23728Y-29000
X23728Y-37000
X27272Y-29000
X27272Y-37000
X33728Y-29000
X33728Y-37000
X37272Y-29000
X37272Y-37000
X43728Y-29000
X43728Y-37000
X47272Y-29000
X47272Y-37000
X53728Y-29000
X53728Y-37000
X57272Y-29000
X57272Y-37000
X64728Y-29000
X64728Y-37000
X68272Y-29000
X68272Y-37000
X74728Y-29000
X74728Y-37000
X78272Y-29000
X78272Y-37000
X84728Y-29000
X84728Y-37000
X88272Y-29000
X88272Y-37000
X94728Y-29000
X94728Y-37000
X98272Y-29000
X98272Y-37000
X104728Y-29000
X104728Y-37000
X108272Y-29000
X108272Y-37000
T5
X11339Y-42323
X11535Y-24016
X12126Y-39961
X12126Y-44685
X12323Y-21654
X12323Y-26378
X16929Y-39961
X16929Y-44685
X17126Y-21654
X17126Y-26378
X21181Y-42323
X21378Y-24016
X21969Y-39961
X21969Y-44685
X22165Y-21654
X22165Y-26378
X26772Y-39961
X26772Y-44685
X26969Y-21654
X26969Y-26378
X31024Y-42323
X31220Y-24016
X31811Y-39961
X31811Y-44685
X32008Y-21654
X32008Y-26378
X36614Y-39961
X36614Y-44685
X36811Y-21654
X36811Y-26378
X40866Y-42323
X41063Y-24016
X41654Y-39961
X41654Y-44685
X41850Y-21654
X41850Y-26378
X46457Y-39961
X46457Y-44685
X46654Y-21654
X46654Y-26378
X50709Y-42323
X50906Y-24016
X51496Y-39961
X51496Y-44685
X51693Y-21654
X51693Y-26378
X56299Y-39961
X56299Y-44685
X56496Y-21654
X56496Y-26378
X62520Y-42323
X62717Y-24016
X63307Y-39961
X63307Y-44685
X63504Y-21654
X63504Y-26378
X68110Y-39961
X68110Y-44685
X68307Y-21654
X68307Y-26378
X72362Y-42323
X72559Y-24016
X73150Y-39961
X73150Y-44685
X73346Y-21654
X73346Y-26378
X77953Y-39961
X77953Y-44685
X78150Y-21654
X78150Y-26378
X82205Y-42323
X82402Y-24016
X82992Y-39961
X82992Y-44685
X83189Y-21654
X83189Y-26378
X87795Y-39961
X87795Y-44685
X87992Y-21654
X87992Y-26378
X92047Y-42323
X92244Y-24016
X92835Y-39961
X92835Y-44685
X93031Y-21654
X93031Y-26378
X97638Y-39961
X97638Y-44685
X97835Y-21654
X97835Y-26378
X101890Y-42323
X102087Y-24016
X102677Y-39961
X102677Y-44685
X102874Y-21654
X102874Y-26378
X107480Y-39961
X107480Y-44685
X107677Y-21654
X107677Y-26378
T6
X12244Y-31425
X17756Y-34575
X22244Y-31425
X27756Y-34575
X32244Y-31425
X37756Y-34575
X42244Y-31425
X47756Y-34575
X52244Y-31425
X57756Y-34575
X63244Y-31425
X68756Y-34575
X73244Y-31425
X78756Y-34575
X83244Y-31425
X88756Y-34575
X93244Y-31425
X98756Y-34575
X103244Y-31425
X108756Y-34575
T7
X15000Y-15500
X15000Y-49000
X53000Y-15500
X53000Y-49000
X67000Y-15500
X67000Y-49000
X105000Y-15500
X105000Y-49000
T0
M30
