G04 #@! TF.FileFunction,Soldermask,Bot*
%FSLAX46Y46*%
G04 Gerber Fmt 4.6, Leading zero omitted, Abs format (unit mm)*
G04 Created by KiCad (PCBNEW 4.0.6) date 04/17/17 17:22:29*
%MOMM*%
%LPD*%
G01*
G04 APERTURE LIST*
%ADD10C,0.100000*%
%ADD11C,4.464000*%
%ADD12C,3.400000*%
%ADD13C,3.900000*%
%ADD14R,2.400000X3.000000*%
%ADD15O,2.400000X3.000000*%
%ADD16R,2.000000X4.000000*%
%ADD17R,3.900000X2.700000*%
%ADD18R,2.700000X3.900000*%
%ADD19R,4.400000X2.900000*%
%ADD20R,3.400000X1.700000*%
%ADD21R,2.600000X6.750000*%
%ADD22R,2.400000X2.000000*%
%ADD23C,2.800000*%
%ADD24O,2.800000X2.800000*%
%ADD25C,0.254000*%
G04 APERTURE END LIST*
D10*
D11*
X38100000Y-39370000D03*
X38100000Y-124460000D03*
X266700000Y-39370000D03*
X266700000Y-124460000D03*
D12*
X43600000Y-100680000D03*
X43600000Y-112680000D03*
X31400000Y-112680000D03*
X31400000Y-100680000D03*
X29400000Y-106680000D03*
X43600000Y-54960000D03*
X43600000Y-66960000D03*
X31400000Y-66960000D03*
X31400000Y-54960000D03*
X29400000Y-60960000D03*
X69000000Y-100680000D03*
X69000000Y-112680000D03*
X56800000Y-112680000D03*
X56800000Y-100680000D03*
X54800000Y-106680000D03*
X69000000Y-54960000D03*
X69000000Y-66960000D03*
X56800000Y-66960000D03*
X56800000Y-54960000D03*
X54800000Y-60960000D03*
X94400000Y-100680000D03*
X94400000Y-112680000D03*
X82200000Y-112680000D03*
X82200000Y-100680000D03*
X80200000Y-106680000D03*
X94400000Y-54960000D03*
X94400000Y-66960000D03*
X82200000Y-66960000D03*
X82200000Y-54960000D03*
X80200000Y-60960000D03*
X119800000Y-100680000D03*
X119800000Y-112680000D03*
X107600000Y-112680000D03*
X107600000Y-100680000D03*
X105600000Y-106680000D03*
X119800000Y-54960000D03*
X119800000Y-66960000D03*
X107600000Y-66960000D03*
X107600000Y-54960000D03*
X105600000Y-60960000D03*
X145200000Y-100680000D03*
X145200000Y-112680000D03*
X133000000Y-112680000D03*
X133000000Y-100680000D03*
X131000000Y-106680000D03*
X145200000Y-54960000D03*
X145200000Y-66960000D03*
X133000000Y-66960000D03*
X133000000Y-54960000D03*
X131000000Y-60960000D03*
X173140000Y-100680000D03*
X173140000Y-112680000D03*
X160940000Y-112680000D03*
X160940000Y-100680000D03*
X158940000Y-106680000D03*
X173140000Y-54960000D03*
X173140000Y-66960000D03*
X160940000Y-66960000D03*
X160940000Y-54960000D03*
X158940000Y-60960000D03*
X198540000Y-100680000D03*
X198540000Y-112680000D03*
X186340000Y-112680000D03*
X186340000Y-100680000D03*
X184340000Y-106680000D03*
X198540000Y-54960000D03*
X198540000Y-66960000D03*
X186340000Y-66960000D03*
X186340000Y-54960000D03*
X184340000Y-60960000D03*
X223940000Y-100680000D03*
X223940000Y-112680000D03*
X211740000Y-112680000D03*
X211740000Y-100680000D03*
X209740000Y-106680000D03*
X223940000Y-54960000D03*
X223940000Y-66960000D03*
X211740000Y-66960000D03*
X211740000Y-54960000D03*
X209740000Y-60960000D03*
X249340000Y-100680000D03*
X249340000Y-112680000D03*
X237140000Y-112680000D03*
X237140000Y-100680000D03*
X235140000Y-106680000D03*
X249340000Y-54960000D03*
X249340000Y-66960000D03*
X237140000Y-66960000D03*
X237140000Y-54960000D03*
X235140000Y-60960000D03*
X274740000Y-100680000D03*
X274740000Y-112680000D03*
X262540000Y-112680000D03*
X262540000Y-100680000D03*
X260540000Y-106680000D03*
X274740000Y-54960000D03*
X274740000Y-66960000D03*
X262540000Y-66960000D03*
X262540000Y-54960000D03*
X260540000Y-60960000D03*
D11*
X134620000Y-124460000D03*
X134620000Y-39370000D03*
X170180000Y-39370000D03*
X170180000Y-124460000D03*
D13*
X31100000Y-79820000D03*
X45100000Y-87820000D03*
X56500000Y-79820000D03*
X70500000Y-87820000D03*
X81900000Y-79820000D03*
X95900000Y-87820000D03*
X107300000Y-79820000D03*
X121300000Y-87820000D03*
X132700000Y-79820000D03*
X146700000Y-87820000D03*
X160640000Y-79820000D03*
X174640000Y-87820000D03*
X186040000Y-79820000D03*
X200040000Y-87820000D03*
X211440000Y-79820000D03*
X225440000Y-87820000D03*
X236840000Y-79820000D03*
X250840000Y-87820000D03*
X262240000Y-79820000D03*
X276240000Y-87820000D03*
D14*
X110490000Y-43180000D03*
D15*
X107950000Y-43180000D03*
X105410000Y-43180000D03*
X102870000Y-43180000D03*
X100330000Y-43180000D03*
X97790000Y-43180000D03*
X95250000Y-43180000D03*
X92710000Y-43180000D03*
D14*
X210820000Y-43180000D03*
D15*
X208280000Y-43180000D03*
X205740000Y-43180000D03*
X203200000Y-43180000D03*
X200660000Y-43180000D03*
D16*
X33830000Y-111760000D03*
X39830000Y-111760000D03*
D17*
X40480000Y-59690000D03*
X45880000Y-59690000D03*
D18*
X29210000Y-96680000D03*
X29210000Y-91280000D03*
D17*
X65880000Y-59690000D03*
X71280000Y-59690000D03*
D18*
X54610000Y-96680000D03*
X54610000Y-91280000D03*
D17*
X91280000Y-59690000D03*
X96680000Y-59690000D03*
D18*
X80010000Y-96680000D03*
X80010000Y-91280000D03*
D17*
X116680000Y-59690000D03*
X122080000Y-59690000D03*
D18*
X105410000Y-96680000D03*
X105410000Y-91280000D03*
D17*
X142080000Y-59690000D03*
X147480000Y-59690000D03*
D18*
X130810000Y-95410000D03*
X130810000Y-90010000D03*
D17*
X170020000Y-59690000D03*
X175420000Y-59690000D03*
D18*
X158750000Y-96680000D03*
X158750000Y-91280000D03*
D17*
X195420000Y-59690000D03*
X200820000Y-59690000D03*
D18*
X184150000Y-96680000D03*
X184150000Y-91280000D03*
D17*
X220820000Y-59690000D03*
X226220000Y-59690000D03*
D18*
X209550000Y-96680000D03*
X209550000Y-91280000D03*
D17*
X246220000Y-59690000D03*
X251620000Y-59690000D03*
D18*
X234950000Y-96680000D03*
X234950000Y-91280000D03*
D17*
X271620000Y-59690000D03*
X277020000Y-59690000D03*
D18*
X260350000Y-96680000D03*
X260350000Y-91280000D03*
D19*
X27480000Y-118110000D03*
D20*
X32480000Y-118110000D03*
D19*
X28750000Y-50800000D03*
D20*
X33750000Y-50800000D03*
D19*
X279860000Y-50800000D03*
D20*
X274860000Y-50800000D03*
D19*
X279860000Y-118110000D03*
D20*
X274860000Y-118110000D03*
D10*
G36*
X144320380Y-122240990D02*
X146370990Y-120190380D01*
X149482260Y-123301650D01*
X147431650Y-125352260D01*
X144320380Y-122240990D01*
X144320380Y-122240990D01*
G37*
G36*
X141562664Y-118634745D02*
X142764745Y-117432664D01*
X145168908Y-119836827D01*
X143966827Y-121038908D01*
X141562664Y-118634745D01*
X141562664Y-118634745D01*
G37*
G36*
X160479620Y-46669010D02*
X158429010Y-48719620D01*
X155317740Y-45608350D01*
X157368350Y-43557740D01*
X160479620Y-46669010D01*
X160479620Y-46669010D01*
G37*
G36*
X163237336Y-50275255D02*
X162035255Y-51477336D01*
X159631092Y-49073173D01*
X160833173Y-47871092D01*
X163237336Y-50275255D01*
X163237336Y-50275255D01*
G37*
G36*
X148910990Y-48719620D02*
X146860380Y-46669010D01*
X149971650Y-43557740D01*
X152022260Y-45608350D01*
X148910990Y-48719620D01*
X148910990Y-48719620D01*
G37*
G36*
X145304745Y-51477336D02*
X144102664Y-50275255D01*
X146506827Y-47871092D01*
X147708908Y-49073173D01*
X145304745Y-51477336D01*
X145304745Y-51477336D01*
G37*
G36*
X158429010Y-120190380D02*
X160479620Y-122240990D01*
X157368350Y-125352260D01*
X155317740Y-123301650D01*
X158429010Y-120190380D01*
X158429010Y-120190380D01*
G37*
G36*
X162035255Y-117432664D02*
X163237336Y-118634745D01*
X160833173Y-121038908D01*
X159631092Y-119836827D01*
X162035255Y-117432664D01*
X162035255Y-117432664D01*
G37*
D21*
X32660000Y-87630000D03*
X38460000Y-87630000D03*
X43540000Y-78740000D03*
X37740000Y-78740000D03*
X58060000Y-87630000D03*
X63860000Y-87630000D03*
X68940000Y-78740000D03*
X63140000Y-78740000D03*
X83460000Y-87630000D03*
X89260000Y-87630000D03*
X94340000Y-78740000D03*
X88540000Y-78740000D03*
X108860000Y-87630000D03*
X114660000Y-87630000D03*
X119740000Y-78740000D03*
X113940000Y-78740000D03*
X134260000Y-87630000D03*
X140060000Y-87630000D03*
X145140000Y-78740000D03*
X139340000Y-78740000D03*
X162200000Y-87630000D03*
X168000000Y-87630000D03*
X173080000Y-78740000D03*
X167280000Y-78740000D03*
X187600000Y-87630000D03*
X193400000Y-87630000D03*
X198480000Y-78740000D03*
X192680000Y-78740000D03*
X213000000Y-87630000D03*
X218800000Y-87630000D03*
X223880000Y-78740000D03*
X218080000Y-78740000D03*
X238400000Y-87630000D03*
X244200000Y-87630000D03*
X249280000Y-78740000D03*
X243480000Y-78740000D03*
X263800000Y-87630000D03*
X269600000Y-87630000D03*
X274680000Y-78740000D03*
X268880000Y-78740000D03*
D22*
X40100000Y-54610000D03*
X36100000Y-54610000D03*
X50070000Y-100330000D03*
X54070000Y-100330000D03*
X90900000Y-54610000D03*
X86900000Y-54610000D03*
X116300000Y-54610000D03*
X112300000Y-54610000D03*
X141700000Y-54610000D03*
X137700000Y-54610000D03*
X169640000Y-54610000D03*
X165640000Y-54610000D03*
X195040000Y-54610000D03*
X191040000Y-54610000D03*
X220440000Y-54610000D03*
X216440000Y-54610000D03*
X245840000Y-54610000D03*
X241840000Y-54610000D03*
X271240000Y-54610000D03*
X267240000Y-54610000D03*
X41370000Y-50800000D03*
X37370000Y-50800000D03*
X24670000Y-100330000D03*
X28670000Y-100330000D03*
X65500000Y-54610000D03*
X61500000Y-54610000D03*
X75470000Y-100330000D03*
X79470000Y-100330000D03*
X100870000Y-100330000D03*
X104870000Y-100330000D03*
X126270000Y-100330000D03*
X130270000Y-100330000D03*
X154210000Y-100330000D03*
X158210000Y-100330000D03*
X179610000Y-100330000D03*
X183610000Y-100330000D03*
X205010000Y-100330000D03*
X209010000Y-100330000D03*
X230410000Y-100330000D03*
X234410000Y-100330000D03*
X255810000Y-100330000D03*
X259810000Y-100330000D03*
D13*
X47680000Y-118110000D03*
X38680000Y-118110000D03*
X34870000Y-93980000D03*
X43870000Y-93980000D03*
X34870000Y-73660000D03*
X43870000Y-73660000D03*
X60270000Y-93980000D03*
X69270000Y-93980000D03*
X60270000Y-73660000D03*
X69270000Y-73660000D03*
X85670000Y-93980000D03*
X94670000Y-93980000D03*
X85670000Y-73660000D03*
X94670000Y-73660000D03*
X111070000Y-93980000D03*
X120070000Y-93980000D03*
X111070000Y-73660000D03*
X120070000Y-73660000D03*
X136470000Y-93980000D03*
X145470000Y-93980000D03*
X136470000Y-73660000D03*
X145470000Y-73660000D03*
X164410000Y-93980000D03*
X173410000Y-93980000D03*
X164410000Y-73660000D03*
X173410000Y-73660000D03*
X189810000Y-93980000D03*
X198810000Y-93980000D03*
X189810000Y-73660000D03*
X198810000Y-73660000D03*
X215210000Y-93980000D03*
X224210000Y-93980000D03*
X215210000Y-73660000D03*
X224210000Y-73660000D03*
X240610000Y-93980000D03*
X249610000Y-93980000D03*
X240610000Y-73660000D03*
X249610000Y-73660000D03*
X266010000Y-93980000D03*
X275010000Y-93980000D03*
X266010000Y-73660000D03*
X275010000Y-73660000D03*
D22*
X71850000Y-44450000D03*
X67850000Y-44450000D03*
D23*
X64770000Y-44450000D03*
D24*
X77470000Y-44450000D03*
D25*
G36*
X283873000Y-127873000D02*
X21127000Y-127873000D01*
X21127000Y-38000000D01*
X22873000Y-38000000D01*
X22873000Y-126000000D01*
X22883006Y-126049410D01*
X22911447Y-126091035D01*
X22953841Y-126118315D01*
X23000000Y-126127000D01*
X282000000Y-126127000D01*
X282049410Y-126116994D01*
X282091035Y-126088553D01*
X282118315Y-126046159D01*
X282127000Y-126000000D01*
X282127000Y-38000000D01*
X282116994Y-37950590D01*
X282088553Y-37908965D01*
X282046159Y-37881685D01*
X282000000Y-37873000D01*
X23000000Y-37873000D01*
X22950590Y-37883006D01*
X22908965Y-37911447D01*
X22881685Y-37953841D01*
X22873000Y-38000000D01*
X21127000Y-38000000D01*
X21127000Y-36127000D01*
X283873000Y-36127000D01*
X283873000Y-127873000D01*
X283873000Y-127873000D01*
G37*
X283873000Y-127873000D02*
X21127000Y-127873000D01*
X21127000Y-38000000D01*
X22873000Y-38000000D01*
X22873000Y-126000000D01*
X22883006Y-126049410D01*
X22911447Y-126091035D01*
X22953841Y-126118315D01*
X23000000Y-126127000D01*
X282000000Y-126127000D01*
X282049410Y-126116994D01*
X282091035Y-126088553D01*
X282118315Y-126046159D01*
X282127000Y-126000000D01*
X282127000Y-38000000D01*
X282116994Y-37950590D01*
X282088553Y-37908965D01*
X282046159Y-37881685D01*
X282000000Y-37873000D01*
X23000000Y-37873000D01*
X22950590Y-37883006D01*
X22908965Y-37911447D01*
X22881685Y-37953841D01*
X22873000Y-38000000D01*
X21127000Y-38000000D01*
X21127000Y-36127000D01*
X283873000Y-36127000D01*
X283873000Y-127873000D01*
G36*
X263373000Y-119873000D02*
X54627000Y-119873000D01*
X54627000Y-116626697D01*
X263373000Y-116127305D01*
X263373000Y-119873000D01*
X263373000Y-119873000D01*
G37*
X263373000Y-119873000D02*
X54627000Y-119873000D01*
X54627000Y-116626697D01*
X263373000Y-116127305D01*
X263373000Y-119873000D01*
G36*
X273373000Y-52872718D02*
X48127000Y-52373281D01*
X48127000Y-49127000D01*
X273373000Y-49127000D01*
X273373000Y-52872718D01*
X273373000Y-52872718D01*
G37*
X273373000Y-52872718D02*
X48127000Y-52373281D01*
X48127000Y-49127000D01*
X273373000Y-49127000D01*
X273373000Y-52872718D01*
M02*
