G04 #@! TF.FileFunction,Legend,Bot*
%FSLAX46Y46*%
G04 Gerber Fmt 4.6, Leading zero omitted, Abs format (unit mm)*
G04 Created by KiCad (PCBNEW 4.0.6) date 04/17/17 17:22:29*
%MOMM*%
%LPD*%
G01*
G04 APERTURE LIST*
%ADD10C,0.100000*%
%ADD11C,0.120000*%
%ADD12C,0.300000*%
%ADD13C,0.600000*%
%ADD14C,0.200000*%
%ADD15C,0.150000*%
G04 APERTURE END LIST*
D10*
X34330000Y-110260000D02*
X34330000Y-113260000D01*
X39330000Y-110260000D02*
X39330000Y-112760000D01*
X39330000Y-112760000D02*
X39330000Y-113260000D01*
X37830000Y-114260000D02*
X40330000Y-112260000D01*
X40330000Y-112260000D02*
X40330000Y-111260000D01*
X40330000Y-111260000D02*
X37830000Y-109260000D01*
X37830000Y-109260000D02*
X35830000Y-109260000D01*
X35830000Y-109260000D02*
X33330000Y-111260000D01*
X33330000Y-111260000D02*
X33330000Y-112260000D01*
X33330000Y-112260000D02*
X35830000Y-114260000D01*
X35830000Y-114260000D02*
X37830000Y-114260000D01*
X39066068Y-111760000D02*
G75*
G03X39066068Y-111760000I-2236068J0D01*
G01*
D11*
X38580000Y-61840000D02*
X38580000Y-57540000D01*
X38580000Y-57540000D02*
X45880000Y-57540000D01*
X38580000Y-61840000D02*
X45880000Y-61840000D01*
X31360000Y-98580000D02*
X27060000Y-98580000D01*
X27060000Y-98580000D02*
X27060000Y-91280000D01*
X31360000Y-98580000D02*
X31360000Y-91280000D01*
X63980000Y-61840000D02*
X63980000Y-57540000D01*
X63980000Y-57540000D02*
X71280000Y-57540000D01*
X63980000Y-61840000D02*
X71280000Y-61840000D01*
X56760000Y-98580000D02*
X52460000Y-98580000D01*
X52460000Y-98580000D02*
X52460000Y-91280000D01*
X56760000Y-98580000D02*
X56760000Y-91280000D01*
X89380000Y-61840000D02*
X89380000Y-57540000D01*
X89380000Y-57540000D02*
X96680000Y-57540000D01*
X89380000Y-61840000D02*
X96680000Y-61840000D01*
X82160000Y-98580000D02*
X77860000Y-98580000D01*
X77860000Y-98580000D02*
X77860000Y-91280000D01*
X82160000Y-98580000D02*
X82160000Y-91280000D01*
X114780000Y-61840000D02*
X114780000Y-57540000D01*
X114780000Y-57540000D02*
X122080000Y-57540000D01*
X114780000Y-61840000D02*
X122080000Y-61840000D01*
X107560000Y-98580000D02*
X103260000Y-98580000D01*
X103260000Y-98580000D02*
X103260000Y-91280000D01*
X107560000Y-98580000D02*
X107560000Y-91280000D01*
X140180000Y-61840000D02*
X140180000Y-57540000D01*
X140180000Y-57540000D02*
X147480000Y-57540000D01*
X140180000Y-61840000D02*
X147480000Y-61840000D01*
X132960000Y-97310000D02*
X128660000Y-97310000D01*
X128660000Y-97310000D02*
X128660000Y-90010000D01*
X132960000Y-97310000D02*
X132960000Y-90010000D01*
X168120000Y-61840000D02*
X168120000Y-57540000D01*
X168120000Y-57540000D02*
X175420000Y-57540000D01*
X168120000Y-61840000D02*
X175420000Y-61840000D01*
X160900000Y-98580000D02*
X156600000Y-98580000D01*
X156600000Y-98580000D02*
X156600000Y-91280000D01*
X160900000Y-98580000D02*
X160900000Y-91280000D01*
X193520000Y-61840000D02*
X193520000Y-57540000D01*
X193520000Y-57540000D02*
X200820000Y-57540000D01*
X193520000Y-61840000D02*
X200820000Y-61840000D01*
X186300000Y-98580000D02*
X182000000Y-98580000D01*
X182000000Y-98580000D02*
X182000000Y-91280000D01*
X186300000Y-98580000D02*
X186300000Y-91280000D01*
X218920000Y-61840000D02*
X218920000Y-57540000D01*
X218920000Y-57540000D02*
X226220000Y-57540000D01*
X218920000Y-61840000D02*
X226220000Y-61840000D01*
X211700000Y-98580000D02*
X207400000Y-98580000D01*
X207400000Y-98580000D02*
X207400000Y-91280000D01*
X211700000Y-98580000D02*
X211700000Y-91280000D01*
X244320000Y-61840000D02*
X244320000Y-57540000D01*
X244320000Y-57540000D02*
X251620000Y-57540000D01*
X244320000Y-61840000D02*
X251620000Y-61840000D01*
X237100000Y-98580000D02*
X232800000Y-98580000D01*
X232800000Y-98580000D02*
X232800000Y-91280000D01*
X237100000Y-98580000D02*
X237100000Y-91280000D01*
X269720000Y-61840000D02*
X269720000Y-57540000D01*
X269720000Y-57540000D02*
X277020000Y-57540000D01*
X269720000Y-61840000D02*
X277020000Y-61840000D01*
X262500000Y-98580000D02*
X258200000Y-98580000D01*
X258200000Y-98580000D02*
X258200000Y-91280000D01*
X262500000Y-98580000D02*
X262500000Y-91280000D01*
D12*
X30780000Y-117210000D02*
X30780000Y-118910000D01*
X30780000Y-118910000D02*
X29680000Y-118910000D01*
X29680000Y-118910000D02*
X29680000Y-117310000D01*
X29680000Y-117310000D02*
X30580000Y-117310000D01*
X30580000Y-117310000D02*
X30580000Y-118710000D01*
X30580000Y-118710000D02*
X29880000Y-118710000D01*
X29880000Y-118710000D02*
X29880000Y-117510000D01*
X29880000Y-117510000D02*
X30380000Y-117510000D01*
X30380000Y-117510000D02*
X30380000Y-118510000D01*
X30380000Y-118510000D02*
X30080000Y-118510000D01*
X30080000Y-118510000D02*
X30080000Y-117810000D01*
X30080000Y-117810000D02*
X30280000Y-117810000D01*
X30730000Y-118110000D02*
X29730000Y-118110000D01*
D13*
X30980000Y-118110000D02*
X32730000Y-118110000D01*
D14*
X25230000Y-120110000D02*
X24230000Y-120110000D01*
X25230000Y-116110000D02*
X24230000Y-116110000D01*
X29230000Y-116110000D02*
X25230000Y-116110000D01*
X25230000Y-116110000D02*
X25230000Y-120110000D01*
X25230000Y-120110000D02*
X29230000Y-120110000D01*
X30980000Y-119110000D02*
X30980000Y-117110000D01*
X30980000Y-117110000D02*
X29480000Y-117110000D01*
X29480000Y-117110000D02*
X29480000Y-119110000D01*
X29480000Y-119110000D02*
X30980000Y-119110000D01*
D12*
X32050000Y-49900000D02*
X32050000Y-51600000D01*
X32050000Y-51600000D02*
X30950000Y-51600000D01*
X30950000Y-51600000D02*
X30950000Y-50000000D01*
X30950000Y-50000000D02*
X31850000Y-50000000D01*
X31850000Y-50000000D02*
X31850000Y-51400000D01*
X31850000Y-51400000D02*
X31150000Y-51400000D01*
X31150000Y-51400000D02*
X31150000Y-50200000D01*
X31150000Y-50200000D02*
X31650000Y-50200000D01*
X31650000Y-50200000D02*
X31650000Y-51200000D01*
X31650000Y-51200000D02*
X31350000Y-51200000D01*
X31350000Y-51200000D02*
X31350000Y-50500000D01*
X31350000Y-50500000D02*
X31550000Y-50500000D01*
X32000000Y-50800000D02*
X31000000Y-50800000D01*
D13*
X32250000Y-50800000D02*
X34000000Y-50800000D01*
D14*
X26500000Y-52800000D02*
X25500000Y-52800000D01*
X26500000Y-48800000D02*
X25500000Y-48800000D01*
X30500000Y-48800000D02*
X26500000Y-48800000D01*
X26500000Y-48800000D02*
X26500000Y-52800000D01*
X26500000Y-52800000D02*
X30500000Y-52800000D01*
X32250000Y-51800000D02*
X32250000Y-49800000D01*
X32250000Y-49800000D02*
X30750000Y-49800000D01*
X30750000Y-49800000D02*
X30750000Y-51800000D01*
X30750000Y-51800000D02*
X32250000Y-51800000D01*
D12*
X276560000Y-51700000D02*
X276560000Y-50000000D01*
X276560000Y-50000000D02*
X277660000Y-50000000D01*
X277660000Y-50000000D02*
X277660000Y-51600000D01*
X277660000Y-51600000D02*
X276760000Y-51600000D01*
X276760000Y-51600000D02*
X276760000Y-50200000D01*
X276760000Y-50200000D02*
X277460000Y-50200000D01*
X277460000Y-50200000D02*
X277460000Y-51400000D01*
X277460000Y-51400000D02*
X276960000Y-51400000D01*
X276960000Y-51400000D02*
X276960000Y-50400000D01*
X276960000Y-50400000D02*
X277260000Y-50400000D01*
X277260000Y-50400000D02*
X277260000Y-51100000D01*
X277260000Y-51100000D02*
X277060000Y-51100000D01*
X276610000Y-50800000D02*
X277610000Y-50800000D01*
D13*
X276360000Y-50800000D02*
X274610000Y-50800000D01*
D14*
X282110000Y-48800000D02*
X283110000Y-48800000D01*
X282110000Y-52800000D02*
X283110000Y-52800000D01*
X278110000Y-52800000D02*
X282110000Y-52800000D01*
X282110000Y-52800000D02*
X282110000Y-48800000D01*
X282110000Y-48800000D02*
X278110000Y-48800000D01*
X276360000Y-49800000D02*
X276360000Y-51800000D01*
X276360000Y-51800000D02*
X277860000Y-51800000D01*
X277860000Y-51800000D02*
X277860000Y-49800000D01*
X277860000Y-49800000D02*
X276360000Y-49800000D01*
D12*
X276560000Y-119010000D02*
X276560000Y-117310000D01*
X276560000Y-117310000D02*
X277660000Y-117310000D01*
X277660000Y-117310000D02*
X277660000Y-118910000D01*
X277660000Y-118910000D02*
X276760000Y-118910000D01*
X276760000Y-118910000D02*
X276760000Y-117510000D01*
X276760000Y-117510000D02*
X277460000Y-117510000D01*
X277460000Y-117510000D02*
X277460000Y-118710000D01*
X277460000Y-118710000D02*
X276960000Y-118710000D01*
X276960000Y-118710000D02*
X276960000Y-117710000D01*
X276960000Y-117710000D02*
X277260000Y-117710000D01*
X277260000Y-117710000D02*
X277260000Y-118410000D01*
X277260000Y-118410000D02*
X277060000Y-118410000D01*
X276610000Y-118110000D02*
X277610000Y-118110000D01*
D13*
X276360000Y-118110000D02*
X274610000Y-118110000D01*
D14*
X282110000Y-116110000D02*
X283110000Y-116110000D01*
X282110000Y-120110000D02*
X283110000Y-120110000D01*
X278110000Y-120110000D02*
X282110000Y-120110000D01*
X282110000Y-120110000D02*
X282110000Y-116110000D01*
X282110000Y-116110000D02*
X278110000Y-116110000D01*
X276360000Y-117110000D02*
X276360000Y-119110000D01*
X276360000Y-119110000D02*
X277860000Y-119110000D01*
X277860000Y-119110000D02*
X277860000Y-117110000D01*
X277860000Y-117110000D02*
X276360000Y-117110000D01*
D12*
X143931472Y-121074264D02*
X145133553Y-119872183D01*
X145133553Y-119872183D02*
X145911371Y-120650000D01*
X145911371Y-120650000D02*
X144780000Y-121781371D01*
X144780000Y-121781371D02*
X144143604Y-121144975D01*
X144143604Y-121144975D02*
X145133553Y-120155025D01*
X145133553Y-120155025D02*
X145628528Y-120650000D01*
X145628528Y-120650000D02*
X144780000Y-121498528D01*
X144780000Y-121498528D02*
X144426447Y-121144975D01*
X144426447Y-121144975D02*
X145133553Y-120437868D01*
X145133553Y-120437868D02*
X145345685Y-120650000D01*
X145345685Y-120650000D02*
X144850711Y-121144975D01*
X144850711Y-121144975D02*
X144709289Y-121003553D01*
X144603223Y-120473223D02*
X145310330Y-121180330D01*
D13*
X144426447Y-120296447D02*
X143189010Y-119059010D01*
D14*
X149906524Y-122948097D02*
X150613631Y-123655204D01*
X147078097Y-125776524D02*
X147785204Y-126483631D01*
X144249670Y-122948097D02*
X147078097Y-125776524D01*
X147078097Y-125776524D02*
X149906524Y-122948097D01*
X149906524Y-122948097D02*
X147078097Y-120119670D01*
X145133553Y-119589340D02*
X143719340Y-121003553D01*
X143719340Y-121003553D02*
X144780000Y-122064214D01*
X144780000Y-122064214D02*
X146194214Y-120650000D01*
X146194214Y-120650000D02*
X145133553Y-119589340D01*
D12*
X160868528Y-47835736D02*
X159666447Y-49037817D01*
X159666447Y-49037817D02*
X158888629Y-48260000D01*
X158888629Y-48260000D02*
X160020000Y-47128629D01*
X160020000Y-47128629D02*
X160656396Y-47765025D01*
X160656396Y-47765025D02*
X159666447Y-48754975D01*
X159666447Y-48754975D02*
X159171472Y-48260000D01*
X159171472Y-48260000D02*
X160020000Y-47411472D01*
X160020000Y-47411472D02*
X160373553Y-47765025D01*
X160373553Y-47765025D02*
X159666447Y-48472132D01*
X159666447Y-48472132D02*
X159454315Y-48260000D01*
X159454315Y-48260000D02*
X159949289Y-47765025D01*
X159949289Y-47765025D02*
X160090711Y-47906447D01*
X160196777Y-48436777D02*
X159489670Y-47729670D01*
D13*
X160373553Y-48613553D02*
X161610990Y-49850990D01*
D14*
X154893476Y-45961903D02*
X154186369Y-45254796D01*
X157721903Y-43133476D02*
X157014796Y-42426369D01*
X160550330Y-45961903D02*
X157721903Y-43133476D01*
X157721903Y-43133476D02*
X154893476Y-45961903D01*
X154893476Y-45961903D02*
X157721903Y-48790330D01*
X159666447Y-49320660D02*
X161080660Y-47906447D01*
X161080660Y-47906447D02*
X160020000Y-46845786D01*
X160020000Y-46845786D02*
X158605786Y-48260000D01*
X158605786Y-48260000D02*
X159666447Y-49320660D01*
D12*
X147744264Y-49108528D02*
X146542183Y-47906447D01*
X146542183Y-47906447D02*
X147320000Y-47128629D01*
X147320000Y-47128629D02*
X148451371Y-48260000D01*
X148451371Y-48260000D02*
X147814975Y-48896396D01*
X147814975Y-48896396D02*
X146825025Y-47906447D01*
X146825025Y-47906447D02*
X147320000Y-47411472D01*
X147320000Y-47411472D02*
X148168528Y-48260000D01*
X148168528Y-48260000D02*
X147814975Y-48613553D01*
X147814975Y-48613553D02*
X147107868Y-47906447D01*
X147107868Y-47906447D02*
X147320000Y-47694315D01*
X147320000Y-47694315D02*
X147814975Y-48189289D01*
X147814975Y-48189289D02*
X147673553Y-48330711D01*
X147143223Y-48436777D02*
X147850330Y-47729670D01*
D13*
X146966447Y-48613553D02*
X145729010Y-49850990D01*
D14*
X149618097Y-43133476D02*
X150325204Y-42426369D01*
X152446524Y-45961903D02*
X153153631Y-45254796D01*
X149618097Y-48790330D02*
X152446524Y-45961903D01*
X152446524Y-45961903D02*
X149618097Y-43133476D01*
X149618097Y-43133476D02*
X146789670Y-45961903D01*
X146259340Y-47906447D02*
X147673553Y-49320660D01*
X147673553Y-49320660D02*
X148734214Y-48260000D01*
X148734214Y-48260000D02*
X147320000Y-46845786D01*
X147320000Y-46845786D02*
X146259340Y-47906447D01*
D12*
X159595736Y-119801472D02*
X160797817Y-121003553D01*
X160797817Y-121003553D02*
X160020000Y-121781371D01*
X160020000Y-121781371D02*
X158888629Y-120650000D01*
X158888629Y-120650000D02*
X159525025Y-120013604D01*
X159525025Y-120013604D02*
X160514975Y-121003553D01*
X160514975Y-121003553D02*
X160020000Y-121498528D01*
X160020000Y-121498528D02*
X159171472Y-120650000D01*
X159171472Y-120650000D02*
X159525025Y-120296447D01*
X159525025Y-120296447D02*
X160232132Y-121003553D01*
X160232132Y-121003553D02*
X160020000Y-121215685D01*
X160020000Y-121215685D02*
X159525025Y-120720711D01*
X159525025Y-120720711D02*
X159666447Y-120579289D01*
X160196777Y-120473223D02*
X159489670Y-121180330D01*
D13*
X160373553Y-120296447D02*
X161610990Y-119059010D01*
D14*
X157721903Y-125776524D02*
X157014796Y-126483631D01*
X154893476Y-122948097D02*
X154186369Y-123655204D01*
X157721903Y-120119670D02*
X154893476Y-122948097D01*
X154893476Y-122948097D02*
X157721903Y-125776524D01*
X157721903Y-125776524D02*
X160550330Y-122948097D01*
X161080660Y-121003553D02*
X159666447Y-119589340D01*
X159666447Y-119589340D02*
X158605786Y-120650000D01*
X158605786Y-120650000D02*
X160020000Y-122064214D01*
X160020000Y-122064214D02*
X161080660Y-121003553D01*
D11*
X37360000Y-91030000D02*
X33760000Y-91030000D01*
X33760000Y-84230000D02*
X37360000Y-84230000D01*
X38840000Y-75340000D02*
X42440000Y-75340000D01*
X42440000Y-82140000D02*
X38840000Y-82140000D01*
X62760000Y-91030000D02*
X59160000Y-91030000D01*
X59160000Y-84230000D02*
X62760000Y-84230000D01*
X64240000Y-75340000D02*
X67840000Y-75340000D01*
X67840000Y-82140000D02*
X64240000Y-82140000D01*
X88160000Y-91030000D02*
X84560000Y-91030000D01*
X84560000Y-84230000D02*
X88160000Y-84230000D01*
X89640000Y-75340000D02*
X93240000Y-75340000D01*
X93240000Y-82140000D02*
X89640000Y-82140000D01*
X113560000Y-91030000D02*
X109960000Y-91030000D01*
X109960000Y-84230000D02*
X113560000Y-84230000D01*
X115040000Y-75340000D02*
X118640000Y-75340000D01*
X118640000Y-82140000D02*
X115040000Y-82140000D01*
X138960000Y-91030000D02*
X135360000Y-91030000D01*
X135360000Y-84230000D02*
X138960000Y-84230000D01*
X140440000Y-75340000D02*
X144040000Y-75340000D01*
X144040000Y-82140000D02*
X140440000Y-82140000D01*
X166900000Y-91030000D02*
X163300000Y-91030000D01*
X163300000Y-84230000D02*
X166900000Y-84230000D01*
X168380000Y-75340000D02*
X171980000Y-75340000D01*
X171980000Y-82140000D02*
X168380000Y-82140000D01*
X192300000Y-91030000D02*
X188700000Y-91030000D01*
X188700000Y-84230000D02*
X192300000Y-84230000D01*
X193780000Y-75340000D02*
X197380000Y-75340000D01*
X197380000Y-82140000D02*
X193780000Y-82140000D01*
X217700000Y-91030000D02*
X214100000Y-91030000D01*
X214100000Y-84230000D02*
X217700000Y-84230000D01*
X219180000Y-75340000D02*
X222780000Y-75340000D01*
X222780000Y-82140000D02*
X219180000Y-82140000D01*
X243100000Y-91030000D02*
X239500000Y-91030000D01*
X239500000Y-84230000D02*
X243100000Y-84230000D01*
X244580000Y-75340000D02*
X248180000Y-75340000D01*
X248180000Y-82140000D02*
X244580000Y-82140000D01*
X268500000Y-91030000D02*
X264900000Y-91030000D01*
X264900000Y-84230000D02*
X268500000Y-84230000D01*
X269980000Y-75340000D02*
X273580000Y-75340000D01*
X273580000Y-82140000D02*
X269980000Y-82140000D01*
X37100000Y-53585000D02*
X39100000Y-53585000D01*
X39100000Y-55635000D02*
X37100000Y-55635000D01*
X53070000Y-101355000D02*
X51070000Y-101355000D01*
X51070000Y-99305000D02*
X53070000Y-99305000D01*
X87900000Y-53585000D02*
X89900000Y-53585000D01*
X89900000Y-55635000D02*
X87900000Y-55635000D01*
X113300000Y-53585000D02*
X115300000Y-53585000D01*
X115300000Y-55635000D02*
X113300000Y-55635000D01*
X138700000Y-53585000D02*
X140700000Y-53585000D01*
X140700000Y-55635000D02*
X138700000Y-55635000D01*
X166640000Y-53585000D02*
X168640000Y-53585000D01*
X168640000Y-55635000D02*
X166640000Y-55635000D01*
X192040000Y-53585000D02*
X194040000Y-53585000D01*
X194040000Y-55635000D02*
X192040000Y-55635000D01*
X217440000Y-53585000D02*
X219440000Y-53585000D01*
X219440000Y-55635000D02*
X217440000Y-55635000D01*
X242840000Y-53585000D02*
X244840000Y-53585000D01*
X244840000Y-55635000D02*
X242840000Y-55635000D01*
X268240000Y-53585000D02*
X270240000Y-53585000D01*
X270240000Y-55635000D02*
X268240000Y-55635000D01*
X38370000Y-49775000D02*
X40370000Y-49775000D01*
X40370000Y-51825000D02*
X38370000Y-51825000D01*
X27670000Y-101355000D02*
X25670000Y-101355000D01*
X25670000Y-99305000D02*
X27670000Y-99305000D01*
X62500000Y-53585000D02*
X64500000Y-53585000D01*
X64500000Y-55635000D02*
X62500000Y-55635000D01*
X78470000Y-101355000D02*
X76470000Y-101355000D01*
X76470000Y-99305000D02*
X78470000Y-99305000D01*
X103870000Y-101355000D02*
X101870000Y-101355000D01*
X101870000Y-99305000D02*
X103870000Y-99305000D01*
X129270000Y-101355000D02*
X127270000Y-101355000D01*
X127270000Y-99305000D02*
X129270000Y-99305000D01*
X157210000Y-101355000D02*
X155210000Y-101355000D01*
X155210000Y-99305000D02*
X157210000Y-99305000D01*
X182610000Y-101355000D02*
X180610000Y-101355000D01*
X180610000Y-99305000D02*
X182610000Y-99305000D01*
X208010000Y-101355000D02*
X206010000Y-101355000D01*
X206010000Y-99305000D02*
X208010000Y-99305000D01*
X233410000Y-101355000D02*
X231410000Y-101355000D01*
X231410000Y-99305000D02*
X233410000Y-99305000D01*
X258810000Y-101355000D02*
X256810000Y-101355000D01*
X256810000Y-99305000D02*
X258810000Y-99305000D01*
X68850000Y-43425000D02*
X70850000Y-43425000D01*
X70850000Y-45475000D02*
X68850000Y-45475000D01*
D15*
X36166666Y-108452381D02*
X36642857Y-108452381D01*
X36642857Y-107452381D01*
X35309523Y-108452381D02*
X35880952Y-108452381D01*
X35595238Y-108452381D02*
X35595238Y-107452381D01*
X35690476Y-107595238D01*
X35785714Y-107690476D01*
X35880952Y-107738095D01*
X43918095Y-63242381D02*
X43918095Y-62242381D01*
X43680000Y-62242381D01*
X43537142Y-62290000D01*
X43441904Y-62385238D01*
X43394285Y-62480476D01*
X43346666Y-62670952D01*
X43346666Y-62813810D01*
X43394285Y-63004286D01*
X43441904Y-63099524D01*
X43537142Y-63194762D01*
X43680000Y-63242381D01*
X43918095Y-63242381D01*
X42394285Y-63242381D02*
X42965714Y-63242381D01*
X42680000Y-63242381D02*
X42680000Y-62242381D01*
X42775238Y-62385238D01*
X42870476Y-62480476D01*
X42965714Y-62528095D01*
X26452381Y-93161905D02*
X25452381Y-93161905D01*
X25452381Y-93400000D01*
X25500000Y-93542858D01*
X25595238Y-93638096D01*
X25690476Y-93685715D01*
X25880952Y-93733334D01*
X26023810Y-93733334D01*
X26214286Y-93685715D01*
X26309524Y-93638096D01*
X26404762Y-93542858D01*
X26452381Y-93400000D01*
X26452381Y-93161905D01*
X25547619Y-94114286D02*
X25500000Y-94161905D01*
X25452381Y-94257143D01*
X25452381Y-94495239D01*
X25500000Y-94590477D01*
X25547619Y-94638096D01*
X25642857Y-94685715D01*
X25738095Y-94685715D01*
X25880952Y-94638096D01*
X26452381Y-94066667D01*
X26452381Y-94685715D01*
X69318095Y-63242381D02*
X69318095Y-62242381D01*
X69080000Y-62242381D01*
X68937142Y-62290000D01*
X68841904Y-62385238D01*
X68794285Y-62480476D01*
X68746666Y-62670952D01*
X68746666Y-62813810D01*
X68794285Y-63004286D01*
X68841904Y-63099524D01*
X68937142Y-63194762D01*
X69080000Y-63242381D01*
X69318095Y-63242381D01*
X68413333Y-62242381D02*
X67794285Y-62242381D01*
X68127619Y-62623333D01*
X67984761Y-62623333D01*
X67889523Y-62670952D01*
X67841904Y-62718571D01*
X67794285Y-62813810D01*
X67794285Y-63051905D01*
X67841904Y-63147143D01*
X67889523Y-63194762D01*
X67984761Y-63242381D01*
X68270476Y-63242381D01*
X68365714Y-63194762D01*
X68413333Y-63147143D01*
X51952381Y-93261905D02*
X50952381Y-93261905D01*
X50952381Y-93500000D01*
X51000000Y-93642858D01*
X51095238Y-93738096D01*
X51190476Y-93785715D01*
X51380952Y-93833334D01*
X51523810Y-93833334D01*
X51714286Y-93785715D01*
X51809524Y-93738096D01*
X51904762Y-93642858D01*
X51952381Y-93500000D01*
X51952381Y-93261905D01*
X51285714Y-94690477D02*
X51952381Y-94690477D01*
X50904762Y-94452381D02*
X51619048Y-94214286D01*
X51619048Y-94833334D01*
X94718095Y-63242381D02*
X94718095Y-62242381D01*
X94480000Y-62242381D01*
X94337142Y-62290000D01*
X94241904Y-62385238D01*
X94194285Y-62480476D01*
X94146666Y-62670952D01*
X94146666Y-62813810D01*
X94194285Y-63004286D01*
X94241904Y-63099524D01*
X94337142Y-63194762D01*
X94480000Y-63242381D01*
X94718095Y-63242381D01*
X93241904Y-62242381D02*
X93718095Y-62242381D01*
X93765714Y-62718571D01*
X93718095Y-62670952D01*
X93622857Y-62623333D01*
X93384761Y-62623333D01*
X93289523Y-62670952D01*
X93241904Y-62718571D01*
X93194285Y-62813810D01*
X93194285Y-63051905D01*
X93241904Y-63147143D01*
X93289523Y-63194762D01*
X93384761Y-63242381D01*
X93622857Y-63242381D01*
X93718095Y-63194762D01*
X93765714Y-63147143D01*
X77352381Y-93161905D02*
X76352381Y-93161905D01*
X76352381Y-93400000D01*
X76400000Y-93542858D01*
X76495238Y-93638096D01*
X76590476Y-93685715D01*
X76780952Y-93733334D01*
X76923810Y-93733334D01*
X77114286Y-93685715D01*
X77209524Y-93638096D01*
X77304762Y-93542858D01*
X77352381Y-93400000D01*
X77352381Y-93161905D01*
X76352381Y-94590477D02*
X76352381Y-94400000D01*
X76400000Y-94304762D01*
X76447619Y-94257143D01*
X76590476Y-94161905D01*
X76780952Y-94114286D01*
X77161905Y-94114286D01*
X77257143Y-94161905D01*
X77304762Y-94209524D01*
X77352381Y-94304762D01*
X77352381Y-94495239D01*
X77304762Y-94590477D01*
X77257143Y-94638096D01*
X77161905Y-94685715D01*
X76923810Y-94685715D01*
X76828571Y-94638096D01*
X76780952Y-94590477D01*
X76733333Y-94495239D01*
X76733333Y-94304762D01*
X76780952Y-94209524D01*
X76828571Y-94161905D01*
X76923810Y-94114286D01*
X120118095Y-63242381D02*
X120118095Y-62242381D01*
X119880000Y-62242381D01*
X119737142Y-62290000D01*
X119641904Y-62385238D01*
X119594285Y-62480476D01*
X119546666Y-62670952D01*
X119546666Y-62813810D01*
X119594285Y-63004286D01*
X119641904Y-63099524D01*
X119737142Y-63194762D01*
X119880000Y-63242381D01*
X120118095Y-63242381D01*
X119213333Y-62242381D02*
X118546666Y-62242381D01*
X118975238Y-63242381D01*
X102752381Y-93361905D02*
X101752381Y-93361905D01*
X101752381Y-93600000D01*
X101800000Y-93742858D01*
X101895238Y-93838096D01*
X101990476Y-93885715D01*
X102180952Y-93933334D01*
X102323810Y-93933334D01*
X102514286Y-93885715D01*
X102609524Y-93838096D01*
X102704762Y-93742858D01*
X102752381Y-93600000D01*
X102752381Y-93361905D01*
X102180952Y-94504762D02*
X102133333Y-94409524D01*
X102085714Y-94361905D01*
X101990476Y-94314286D01*
X101942857Y-94314286D01*
X101847619Y-94361905D01*
X101800000Y-94409524D01*
X101752381Y-94504762D01*
X101752381Y-94695239D01*
X101800000Y-94790477D01*
X101847619Y-94838096D01*
X101942857Y-94885715D01*
X101990476Y-94885715D01*
X102085714Y-94838096D01*
X102133333Y-94790477D01*
X102180952Y-94695239D01*
X102180952Y-94504762D01*
X102228571Y-94409524D01*
X102276190Y-94361905D01*
X102371429Y-94314286D01*
X102561905Y-94314286D01*
X102657143Y-94361905D01*
X102704762Y-94409524D01*
X102752381Y-94504762D01*
X102752381Y-94695239D01*
X102704762Y-94790477D01*
X102657143Y-94838096D01*
X102561905Y-94885715D01*
X102371429Y-94885715D01*
X102276190Y-94838096D01*
X102228571Y-94790477D01*
X102180952Y-94695239D01*
X145994286Y-63242381D02*
X145994286Y-62242381D01*
X145756191Y-62242381D01*
X145613333Y-62290000D01*
X145518095Y-62385238D01*
X145470476Y-62480476D01*
X145422857Y-62670952D01*
X145422857Y-62813810D01*
X145470476Y-63004286D01*
X145518095Y-63099524D01*
X145613333Y-63194762D01*
X145756191Y-63242381D01*
X145994286Y-63242381D01*
X144470476Y-63242381D02*
X145041905Y-63242381D01*
X144756191Y-63242381D02*
X144756191Y-62242381D01*
X144851429Y-62385238D01*
X144946667Y-62480476D01*
X145041905Y-62528095D01*
X143851429Y-62242381D02*
X143756190Y-62242381D01*
X143660952Y-62290000D01*
X143613333Y-62337619D01*
X143565714Y-62432857D01*
X143518095Y-62623333D01*
X143518095Y-62861429D01*
X143565714Y-63051905D01*
X143613333Y-63147143D01*
X143660952Y-63194762D01*
X143756190Y-63242381D01*
X143851429Y-63242381D01*
X143946667Y-63194762D01*
X143994286Y-63147143D01*
X144041905Y-63051905D01*
X144089524Y-62861429D01*
X144089524Y-62623333D01*
X144041905Y-62432857D01*
X143994286Y-62337619D01*
X143946667Y-62290000D01*
X143851429Y-62242381D01*
X128052381Y-91485714D02*
X127052381Y-91485714D01*
X127052381Y-91723809D01*
X127100000Y-91866667D01*
X127195238Y-91961905D01*
X127290476Y-92009524D01*
X127480952Y-92057143D01*
X127623810Y-92057143D01*
X127814286Y-92009524D01*
X127909524Y-91961905D01*
X128004762Y-91866667D01*
X128052381Y-91723809D01*
X128052381Y-91485714D01*
X128052381Y-93009524D02*
X128052381Y-92438095D01*
X128052381Y-92723809D02*
X127052381Y-92723809D01*
X127195238Y-92628571D01*
X127290476Y-92533333D01*
X127338095Y-92438095D01*
X128052381Y-93961905D02*
X128052381Y-93390476D01*
X128052381Y-93676190D02*
X127052381Y-93676190D01*
X127195238Y-93580952D01*
X127290476Y-93485714D01*
X127338095Y-93390476D01*
X173934286Y-63242381D02*
X173934286Y-62242381D01*
X173696191Y-62242381D01*
X173553333Y-62290000D01*
X173458095Y-62385238D01*
X173410476Y-62480476D01*
X173362857Y-62670952D01*
X173362857Y-62813810D01*
X173410476Y-63004286D01*
X173458095Y-63099524D01*
X173553333Y-63194762D01*
X173696191Y-63242381D01*
X173934286Y-63242381D01*
X172410476Y-63242381D02*
X172981905Y-63242381D01*
X172696191Y-63242381D02*
X172696191Y-62242381D01*
X172791429Y-62385238D01*
X172886667Y-62480476D01*
X172981905Y-62528095D01*
X172029524Y-62337619D02*
X171981905Y-62290000D01*
X171886667Y-62242381D01*
X171648571Y-62242381D01*
X171553333Y-62290000D01*
X171505714Y-62337619D01*
X171458095Y-62432857D01*
X171458095Y-62528095D01*
X171505714Y-62670952D01*
X172077143Y-63242381D01*
X171458095Y-63242381D01*
X155952381Y-92685714D02*
X154952381Y-92685714D01*
X154952381Y-92923809D01*
X155000000Y-93066667D01*
X155095238Y-93161905D01*
X155190476Y-93209524D01*
X155380952Y-93257143D01*
X155523810Y-93257143D01*
X155714286Y-93209524D01*
X155809524Y-93161905D01*
X155904762Y-93066667D01*
X155952381Y-92923809D01*
X155952381Y-92685714D01*
X155952381Y-94209524D02*
X155952381Y-93638095D01*
X155952381Y-93923809D02*
X154952381Y-93923809D01*
X155095238Y-93828571D01*
X155190476Y-93733333D01*
X155238095Y-93638095D01*
X154952381Y-94542857D02*
X154952381Y-95161905D01*
X155333333Y-94828571D01*
X155333333Y-94971429D01*
X155380952Y-95066667D01*
X155428571Y-95114286D01*
X155523810Y-95161905D01*
X155761905Y-95161905D01*
X155857143Y-95114286D01*
X155904762Y-95066667D01*
X155952381Y-94971429D01*
X155952381Y-94685714D01*
X155904762Y-94590476D01*
X155857143Y-94542857D01*
X199334286Y-63242381D02*
X199334286Y-62242381D01*
X199096191Y-62242381D01*
X198953333Y-62290000D01*
X198858095Y-62385238D01*
X198810476Y-62480476D01*
X198762857Y-62670952D01*
X198762857Y-62813810D01*
X198810476Y-63004286D01*
X198858095Y-63099524D01*
X198953333Y-63194762D01*
X199096191Y-63242381D01*
X199334286Y-63242381D01*
X197810476Y-63242381D02*
X198381905Y-63242381D01*
X198096191Y-63242381D02*
X198096191Y-62242381D01*
X198191429Y-62385238D01*
X198286667Y-62480476D01*
X198381905Y-62528095D01*
X196953333Y-62575714D02*
X196953333Y-63242381D01*
X197191429Y-62194762D02*
X197429524Y-62909048D01*
X196810476Y-62909048D01*
X181652381Y-92885714D02*
X180652381Y-92885714D01*
X180652381Y-93123809D01*
X180700000Y-93266667D01*
X180795238Y-93361905D01*
X180890476Y-93409524D01*
X181080952Y-93457143D01*
X181223810Y-93457143D01*
X181414286Y-93409524D01*
X181509524Y-93361905D01*
X181604762Y-93266667D01*
X181652381Y-93123809D01*
X181652381Y-92885714D01*
X181652381Y-94409524D02*
X181652381Y-93838095D01*
X181652381Y-94123809D02*
X180652381Y-94123809D01*
X180795238Y-94028571D01*
X180890476Y-93933333D01*
X180938095Y-93838095D01*
X180652381Y-95314286D02*
X180652381Y-94838095D01*
X181128571Y-94790476D01*
X181080952Y-94838095D01*
X181033333Y-94933333D01*
X181033333Y-95171429D01*
X181080952Y-95266667D01*
X181128571Y-95314286D01*
X181223810Y-95361905D01*
X181461905Y-95361905D01*
X181557143Y-95314286D01*
X181604762Y-95266667D01*
X181652381Y-95171429D01*
X181652381Y-94933333D01*
X181604762Y-94838095D01*
X181557143Y-94790476D01*
X224734286Y-63242381D02*
X224734286Y-62242381D01*
X224496191Y-62242381D01*
X224353333Y-62290000D01*
X224258095Y-62385238D01*
X224210476Y-62480476D01*
X224162857Y-62670952D01*
X224162857Y-62813810D01*
X224210476Y-63004286D01*
X224258095Y-63099524D01*
X224353333Y-63194762D01*
X224496191Y-63242381D01*
X224734286Y-63242381D01*
X223210476Y-63242381D02*
X223781905Y-63242381D01*
X223496191Y-63242381D02*
X223496191Y-62242381D01*
X223591429Y-62385238D01*
X223686667Y-62480476D01*
X223781905Y-62528095D01*
X222353333Y-62242381D02*
X222543810Y-62242381D01*
X222639048Y-62290000D01*
X222686667Y-62337619D01*
X222781905Y-62480476D01*
X222829524Y-62670952D01*
X222829524Y-63051905D01*
X222781905Y-63147143D01*
X222734286Y-63194762D01*
X222639048Y-63242381D01*
X222448571Y-63242381D01*
X222353333Y-63194762D01*
X222305714Y-63147143D01*
X222258095Y-63051905D01*
X222258095Y-62813810D01*
X222305714Y-62718571D01*
X222353333Y-62670952D01*
X222448571Y-62623333D01*
X222639048Y-62623333D01*
X222734286Y-62670952D01*
X222781905Y-62718571D01*
X222829524Y-62813810D01*
X206952381Y-92985714D02*
X205952381Y-92985714D01*
X205952381Y-93223809D01*
X206000000Y-93366667D01*
X206095238Y-93461905D01*
X206190476Y-93509524D01*
X206380952Y-93557143D01*
X206523810Y-93557143D01*
X206714286Y-93509524D01*
X206809524Y-93461905D01*
X206904762Y-93366667D01*
X206952381Y-93223809D01*
X206952381Y-92985714D01*
X206952381Y-94509524D02*
X206952381Y-93938095D01*
X206952381Y-94223809D02*
X205952381Y-94223809D01*
X206095238Y-94128571D01*
X206190476Y-94033333D01*
X206238095Y-93938095D01*
X205952381Y-94842857D02*
X205952381Y-95509524D01*
X206952381Y-95080952D01*
X250134286Y-63242381D02*
X250134286Y-62242381D01*
X249896191Y-62242381D01*
X249753333Y-62290000D01*
X249658095Y-62385238D01*
X249610476Y-62480476D01*
X249562857Y-62670952D01*
X249562857Y-62813810D01*
X249610476Y-63004286D01*
X249658095Y-63099524D01*
X249753333Y-63194762D01*
X249896191Y-63242381D01*
X250134286Y-63242381D01*
X248610476Y-63242381D02*
X249181905Y-63242381D01*
X248896191Y-63242381D02*
X248896191Y-62242381D01*
X248991429Y-62385238D01*
X249086667Y-62480476D01*
X249181905Y-62528095D01*
X248039048Y-62670952D02*
X248134286Y-62623333D01*
X248181905Y-62575714D01*
X248229524Y-62480476D01*
X248229524Y-62432857D01*
X248181905Y-62337619D01*
X248134286Y-62290000D01*
X248039048Y-62242381D01*
X247848571Y-62242381D01*
X247753333Y-62290000D01*
X247705714Y-62337619D01*
X247658095Y-62432857D01*
X247658095Y-62480476D01*
X247705714Y-62575714D01*
X247753333Y-62623333D01*
X247848571Y-62670952D01*
X248039048Y-62670952D01*
X248134286Y-62718571D01*
X248181905Y-62766190D01*
X248229524Y-62861429D01*
X248229524Y-63051905D01*
X248181905Y-63147143D01*
X248134286Y-63194762D01*
X248039048Y-63242381D01*
X247848571Y-63242381D01*
X247753333Y-63194762D01*
X247705714Y-63147143D01*
X247658095Y-63051905D01*
X247658095Y-62861429D01*
X247705714Y-62766190D01*
X247753333Y-62718571D01*
X247848571Y-62670952D01*
X232152381Y-92785714D02*
X231152381Y-92785714D01*
X231152381Y-93023809D01*
X231200000Y-93166667D01*
X231295238Y-93261905D01*
X231390476Y-93309524D01*
X231580952Y-93357143D01*
X231723810Y-93357143D01*
X231914286Y-93309524D01*
X232009524Y-93261905D01*
X232104762Y-93166667D01*
X232152381Y-93023809D01*
X232152381Y-92785714D01*
X232152381Y-94309524D02*
X232152381Y-93738095D01*
X232152381Y-94023809D02*
X231152381Y-94023809D01*
X231295238Y-93928571D01*
X231390476Y-93833333D01*
X231438095Y-93738095D01*
X232152381Y-94785714D02*
X232152381Y-94976190D01*
X232104762Y-95071429D01*
X232057143Y-95119048D01*
X231914286Y-95214286D01*
X231723810Y-95261905D01*
X231342857Y-95261905D01*
X231247619Y-95214286D01*
X231200000Y-95166667D01*
X231152381Y-95071429D01*
X231152381Y-94880952D01*
X231200000Y-94785714D01*
X231247619Y-94738095D01*
X231342857Y-94690476D01*
X231580952Y-94690476D01*
X231676190Y-94738095D01*
X231723810Y-94785714D01*
X231771429Y-94880952D01*
X231771429Y-95071429D01*
X231723810Y-95166667D01*
X231676190Y-95214286D01*
X231580952Y-95261905D01*
X275534286Y-63242381D02*
X275534286Y-62242381D01*
X275296191Y-62242381D01*
X275153333Y-62290000D01*
X275058095Y-62385238D01*
X275010476Y-62480476D01*
X274962857Y-62670952D01*
X274962857Y-62813810D01*
X275010476Y-63004286D01*
X275058095Y-63099524D01*
X275153333Y-63194762D01*
X275296191Y-63242381D01*
X275534286Y-63242381D01*
X274581905Y-62337619D02*
X274534286Y-62290000D01*
X274439048Y-62242381D01*
X274200952Y-62242381D01*
X274105714Y-62290000D01*
X274058095Y-62337619D01*
X274010476Y-62432857D01*
X274010476Y-62528095D01*
X274058095Y-62670952D01*
X274629524Y-63242381D01*
X274010476Y-63242381D01*
X273391429Y-62242381D02*
X273296190Y-62242381D01*
X273200952Y-62290000D01*
X273153333Y-62337619D01*
X273105714Y-62432857D01*
X273058095Y-62623333D01*
X273058095Y-62861429D01*
X273105714Y-63051905D01*
X273153333Y-63147143D01*
X273200952Y-63194762D01*
X273296190Y-63242381D01*
X273391429Y-63242381D01*
X273486667Y-63194762D01*
X273534286Y-63147143D01*
X273581905Y-63051905D01*
X273629524Y-62861429D01*
X273629524Y-62623333D01*
X273581905Y-62432857D01*
X273534286Y-62337619D01*
X273486667Y-62290000D01*
X273391429Y-62242381D01*
X257552381Y-92985714D02*
X256552381Y-92985714D01*
X256552381Y-93223809D01*
X256600000Y-93366667D01*
X256695238Y-93461905D01*
X256790476Y-93509524D01*
X256980952Y-93557143D01*
X257123810Y-93557143D01*
X257314286Y-93509524D01*
X257409524Y-93461905D01*
X257504762Y-93366667D01*
X257552381Y-93223809D01*
X257552381Y-92985714D01*
X256647619Y-93938095D02*
X256600000Y-93985714D01*
X256552381Y-94080952D01*
X256552381Y-94319048D01*
X256600000Y-94414286D01*
X256647619Y-94461905D01*
X256742857Y-94509524D01*
X256838095Y-94509524D01*
X256980952Y-94461905D01*
X257552381Y-93890476D01*
X257552381Y-94509524D01*
X257552381Y-95461905D02*
X257552381Y-94890476D01*
X257552381Y-95176190D02*
X256552381Y-95176190D01*
X256695238Y-95080952D01*
X256790476Y-94985714D01*
X256838095Y-94890476D01*
X27038095Y-121552381D02*
X27038095Y-120552381D01*
X26657142Y-120552381D01*
X26561904Y-120600000D01*
X26514285Y-120647619D01*
X26466666Y-120742857D01*
X26466666Y-120885714D01*
X26514285Y-120980952D01*
X26561904Y-121028571D01*
X26657142Y-121076190D01*
X27038095Y-121076190D01*
X25514285Y-121552381D02*
X26085714Y-121552381D01*
X25800000Y-121552381D02*
X25800000Y-120552381D01*
X25895238Y-120695238D01*
X25990476Y-120790476D01*
X26085714Y-120838095D01*
X29238095Y-48452381D02*
X29238095Y-47452381D01*
X28857142Y-47452381D01*
X28761904Y-47500000D01*
X28714285Y-47547619D01*
X28666666Y-47642857D01*
X28666666Y-47785714D01*
X28714285Y-47880952D01*
X28761904Y-47928571D01*
X28857142Y-47976190D01*
X29238095Y-47976190D01*
X28285714Y-47547619D02*
X28238095Y-47500000D01*
X28142857Y-47452381D01*
X27904761Y-47452381D01*
X27809523Y-47500000D01*
X27761904Y-47547619D01*
X27714285Y-47642857D01*
X27714285Y-47738095D01*
X27761904Y-47880952D01*
X28333333Y-48452381D01*
X27714285Y-48452381D01*
X279738095Y-48452381D02*
X279738095Y-47452381D01*
X279357142Y-47452381D01*
X279261904Y-47500000D01*
X279214285Y-47547619D01*
X279166666Y-47642857D01*
X279166666Y-47785714D01*
X279214285Y-47880952D01*
X279261904Y-47928571D01*
X279357142Y-47976190D01*
X279738095Y-47976190D01*
X278690476Y-48452381D02*
X278500000Y-48452381D01*
X278404761Y-48404762D01*
X278357142Y-48357143D01*
X278261904Y-48214286D01*
X278214285Y-48023810D01*
X278214285Y-47642857D01*
X278261904Y-47547619D01*
X278309523Y-47500000D01*
X278404761Y-47452381D01*
X278595238Y-47452381D01*
X278690476Y-47500000D01*
X278738095Y-47547619D01*
X278785714Y-47642857D01*
X278785714Y-47880952D01*
X278738095Y-47976190D01*
X278690476Y-48023810D01*
X278595238Y-48071429D01*
X278404761Y-48071429D01*
X278309523Y-48023810D01*
X278261904Y-47976190D01*
X278214285Y-47880952D01*
X281214286Y-121952381D02*
X281214286Y-120952381D01*
X280833333Y-120952381D01*
X280738095Y-121000000D01*
X280690476Y-121047619D01*
X280642857Y-121142857D01*
X280642857Y-121285714D01*
X280690476Y-121380952D01*
X280738095Y-121428571D01*
X280833333Y-121476190D01*
X281214286Y-121476190D01*
X279690476Y-121952381D02*
X280261905Y-121952381D01*
X279976191Y-121952381D02*
X279976191Y-120952381D01*
X280071429Y-121095238D01*
X280166667Y-121190476D01*
X280261905Y-121238095D01*
X279071429Y-120952381D02*
X278976190Y-120952381D01*
X278880952Y-121000000D01*
X278833333Y-121047619D01*
X278785714Y-121142857D01*
X278738095Y-121333333D01*
X278738095Y-121571429D01*
X278785714Y-121761905D01*
X278833333Y-121857143D01*
X278880952Y-121904762D01*
X278976190Y-121952381D01*
X279071429Y-121952381D01*
X279166667Y-121904762D01*
X279214286Y-121857143D01*
X279261905Y-121761905D01*
X279309524Y-121571429D01*
X279309524Y-121333333D01*
X279261905Y-121142857D01*
X279214286Y-121047619D01*
X279166667Y-121000000D01*
X279071429Y-120952381D01*
X144038748Y-124678512D02*
X144745855Y-123971405D01*
X144476481Y-123702030D01*
X144375465Y-123668359D01*
X144308122Y-123668359D01*
X144207107Y-123702030D01*
X144106092Y-123803045D01*
X144072420Y-123904061D01*
X144072420Y-123971404D01*
X144106092Y-124072419D01*
X144375466Y-124341794D01*
X142961252Y-123601015D02*
X143365313Y-124005076D01*
X143163283Y-123803046D02*
X143870390Y-123095939D01*
X143836718Y-123264298D01*
X143836718Y-123398985D01*
X143870390Y-123500000D01*
X142287817Y-122927580D02*
X142691878Y-123331641D01*
X142489848Y-123129611D02*
X143196955Y-122422504D01*
X143163283Y-122590863D01*
X143163283Y-122725550D01*
X143196955Y-122826565D01*
X160338748Y-44678512D02*
X161045855Y-43971405D01*
X160776481Y-43702030D01*
X160675465Y-43668359D01*
X160608122Y-43668359D01*
X160507107Y-43702030D01*
X160406092Y-43803045D01*
X160372420Y-43904061D01*
X160372420Y-43971404D01*
X160406092Y-44072419D01*
X160675466Y-44341794D01*
X159261252Y-43601015D02*
X159665313Y-44005076D01*
X159463283Y-43803046D02*
X160170390Y-43095939D01*
X160136718Y-43264298D01*
X160136718Y-43398985D01*
X160170390Y-43500000D01*
X159631641Y-42691878D02*
X159631641Y-42624535D01*
X159597970Y-42523519D01*
X159429610Y-42355160D01*
X159328595Y-42321488D01*
X159261252Y-42321488D01*
X159160237Y-42355160D01*
X159092893Y-42422504D01*
X159025550Y-42557190D01*
X159025550Y-43365313D01*
X158587817Y-42927580D01*
X148578512Y-43461253D02*
X147871405Y-42754146D01*
X147602030Y-43023520D01*
X147568359Y-43124536D01*
X147568359Y-43191879D01*
X147602030Y-43292894D01*
X147703045Y-43393909D01*
X147804061Y-43427581D01*
X147871404Y-43427581D01*
X147972419Y-43393909D01*
X148241794Y-43124535D01*
X147501015Y-44538749D02*
X147905076Y-44134688D01*
X147703046Y-44336718D02*
X146995939Y-43629611D01*
X147164298Y-43663283D01*
X147298985Y-43663283D01*
X147400000Y-43629611D01*
X146558206Y-44067344D02*
X146120473Y-44505077D01*
X146625550Y-44538748D01*
X146524534Y-44639764D01*
X146490862Y-44740779D01*
X146490862Y-44808123D01*
X146524535Y-44909139D01*
X146692893Y-45077497D01*
X146793908Y-45111169D01*
X146861252Y-45111169D01*
X146962267Y-45077497D01*
X147164298Y-44875466D01*
X147197970Y-44774451D01*
X147197970Y-44707108D01*
X161878512Y-123861252D02*
X161171405Y-123154145D01*
X160902030Y-123423519D01*
X160868359Y-123524535D01*
X160868359Y-123591878D01*
X160902030Y-123692893D01*
X161003045Y-123793908D01*
X161104061Y-123827580D01*
X161171404Y-123827580D01*
X161272419Y-123793908D01*
X161541794Y-123524534D01*
X160801015Y-124938748D02*
X161205076Y-124534687D01*
X161003046Y-124736717D02*
X160295939Y-124029610D01*
X160464298Y-124063282D01*
X160598985Y-124063282D01*
X160700000Y-124029610D01*
X159723519Y-125073435D02*
X160194924Y-125544840D01*
X159622504Y-124635702D02*
X160295939Y-124972420D01*
X159858206Y-125410153D01*
X30657143Y-85657143D02*
X30704762Y-85609524D01*
X30752381Y-85466667D01*
X30752381Y-85371429D01*
X30704762Y-85228571D01*
X30609524Y-85133333D01*
X30514286Y-85085714D01*
X30323810Y-85038095D01*
X30180952Y-85038095D01*
X29990476Y-85085714D01*
X29895238Y-85133333D01*
X29800000Y-85228571D01*
X29752381Y-85371429D01*
X29752381Y-85466667D01*
X29800000Y-85609524D01*
X29847619Y-85657143D01*
X30085714Y-86514286D02*
X30752381Y-86514286D01*
X29704762Y-86276190D02*
X30419048Y-86038095D01*
X30419048Y-86657143D01*
X29847619Y-86990476D02*
X29800000Y-87038095D01*
X29752381Y-87133333D01*
X29752381Y-87371429D01*
X29800000Y-87466667D01*
X29847619Y-87514286D01*
X29942857Y-87561905D01*
X30038095Y-87561905D01*
X30180952Y-87514286D01*
X30752381Y-86942857D01*
X30752381Y-87561905D01*
X40642857Y-74357143D02*
X40690476Y-74404762D01*
X40833333Y-74452381D01*
X40928571Y-74452381D01*
X41071429Y-74404762D01*
X41166667Y-74309524D01*
X41214286Y-74214286D01*
X41261905Y-74023810D01*
X41261905Y-73880952D01*
X41214286Y-73690476D01*
X41166667Y-73595238D01*
X41071429Y-73500000D01*
X40928571Y-73452381D01*
X40833333Y-73452381D01*
X40690476Y-73500000D01*
X40642857Y-73547619D01*
X39785714Y-73785714D02*
X39785714Y-74452381D01*
X40023810Y-73404762D02*
X40261905Y-74119048D01*
X39642857Y-74119048D01*
X38785714Y-73452381D02*
X39261905Y-73452381D01*
X39309524Y-73928571D01*
X39261905Y-73880952D01*
X39166667Y-73833333D01*
X38928571Y-73833333D01*
X38833333Y-73880952D01*
X38785714Y-73928571D01*
X38738095Y-74023810D01*
X38738095Y-74261905D01*
X38785714Y-74357143D01*
X38833333Y-74404762D01*
X38928571Y-74452381D01*
X39166667Y-74452381D01*
X39261905Y-74404762D01*
X39309524Y-74357143D01*
X56057143Y-85457143D02*
X56104762Y-85409524D01*
X56152381Y-85266667D01*
X56152381Y-85171429D01*
X56104762Y-85028571D01*
X56009524Y-84933333D01*
X55914286Y-84885714D01*
X55723810Y-84838095D01*
X55580952Y-84838095D01*
X55390476Y-84885714D01*
X55295238Y-84933333D01*
X55200000Y-85028571D01*
X55152381Y-85171429D01*
X55152381Y-85266667D01*
X55200000Y-85409524D01*
X55247619Y-85457143D01*
X55485714Y-86314286D02*
X56152381Y-86314286D01*
X55104762Y-86076190D02*
X55819048Y-85838095D01*
X55819048Y-86457143D01*
X55152381Y-87266667D02*
X55152381Y-87076190D01*
X55200000Y-86980952D01*
X55247619Y-86933333D01*
X55390476Y-86838095D01*
X55580952Y-86790476D01*
X55961905Y-86790476D01*
X56057143Y-86838095D01*
X56104762Y-86885714D01*
X56152381Y-86980952D01*
X56152381Y-87171429D01*
X56104762Y-87266667D01*
X56057143Y-87314286D01*
X55961905Y-87361905D01*
X55723810Y-87361905D01*
X55628571Y-87314286D01*
X55580952Y-87266667D01*
X55533333Y-87171429D01*
X55533333Y-86980952D01*
X55580952Y-86885714D01*
X55628571Y-86838095D01*
X55723810Y-86790476D01*
X65642857Y-74357143D02*
X65690476Y-74404762D01*
X65833333Y-74452381D01*
X65928571Y-74452381D01*
X66071429Y-74404762D01*
X66166667Y-74309524D01*
X66214286Y-74214286D01*
X66261905Y-74023810D01*
X66261905Y-73880952D01*
X66214286Y-73690476D01*
X66166667Y-73595238D01*
X66071429Y-73500000D01*
X65928571Y-73452381D01*
X65833333Y-73452381D01*
X65690476Y-73500000D01*
X65642857Y-73547619D01*
X64785714Y-73785714D02*
X64785714Y-74452381D01*
X65023810Y-73404762D02*
X65261905Y-74119048D01*
X64642857Y-74119048D01*
X64357143Y-73452381D02*
X63690476Y-73452381D01*
X64119048Y-74452381D01*
X80957143Y-85557143D02*
X81004762Y-85509524D01*
X81052381Y-85366667D01*
X81052381Y-85271429D01*
X81004762Y-85128571D01*
X80909524Y-85033333D01*
X80814286Y-84985714D01*
X80623810Y-84938095D01*
X80480952Y-84938095D01*
X80290476Y-84985714D01*
X80195238Y-85033333D01*
X80100000Y-85128571D01*
X80052381Y-85271429D01*
X80052381Y-85366667D01*
X80100000Y-85509524D01*
X80147619Y-85557143D01*
X80385714Y-86414286D02*
X81052381Y-86414286D01*
X80004762Y-86176190D02*
X80719048Y-85938095D01*
X80719048Y-86557143D01*
X80480952Y-87080952D02*
X80433333Y-86985714D01*
X80385714Y-86938095D01*
X80290476Y-86890476D01*
X80242857Y-86890476D01*
X80147619Y-86938095D01*
X80100000Y-86985714D01*
X80052381Y-87080952D01*
X80052381Y-87271429D01*
X80100000Y-87366667D01*
X80147619Y-87414286D01*
X80242857Y-87461905D01*
X80290476Y-87461905D01*
X80385714Y-87414286D01*
X80433333Y-87366667D01*
X80480952Y-87271429D01*
X80480952Y-87080952D01*
X80528571Y-86985714D01*
X80576190Y-86938095D01*
X80671429Y-86890476D01*
X80861905Y-86890476D01*
X80957143Y-86938095D01*
X81004762Y-86985714D01*
X81052381Y-87080952D01*
X81052381Y-87271429D01*
X81004762Y-87366667D01*
X80957143Y-87414286D01*
X80861905Y-87461905D01*
X80671429Y-87461905D01*
X80576190Y-87414286D01*
X80528571Y-87366667D01*
X80480952Y-87271429D01*
X90642857Y-74357143D02*
X90690476Y-74404762D01*
X90833333Y-74452381D01*
X90928571Y-74452381D01*
X91071429Y-74404762D01*
X91166667Y-74309524D01*
X91214286Y-74214286D01*
X91261905Y-74023810D01*
X91261905Y-73880952D01*
X91214286Y-73690476D01*
X91166667Y-73595238D01*
X91071429Y-73500000D01*
X90928571Y-73452381D01*
X90833333Y-73452381D01*
X90690476Y-73500000D01*
X90642857Y-73547619D01*
X89785714Y-73785714D02*
X89785714Y-74452381D01*
X90023810Y-73404762D02*
X90261905Y-74119048D01*
X89642857Y-74119048D01*
X89214286Y-74452381D02*
X89023810Y-74452381D01*
X88928571Y-74404762D01*
X88880952Y-74357143D01*
X88785714Y-74214286D01*
X88738095Y-74023810D01*
X88738095Y-73642857D01*
X88785714Y-73547619D01*
X88833333Y-73500000D01*
X88928571Y-73452381D01*
X89119048Y-73452381D01*
X89214286Y-73500000D01*
X89261905Y-73547619D01*
X89309524Y-73642857D01*
X89309524Y-73880952D01*
X89261905Y-73976190D01*
X89214286Y-74023810D01*
X89119048Y-74071429D01*
X88928571Y-74071429D01*
X88833333Y-74023810D01*
X88785714Y-73976190D01*
X88738095Y-73880952D01*
X106757143Y-85457143D02*
X106804762Y-85409524D01*
X106852381Y-85266667D01*
X106852381Y-85171429D01*
X106804762Y-85028571D01*
X106709524Y-84933333D01*
X106614286Y-84885714D01*
X106423810Y-84838095D01*
X106280952Y-84838095D01*
X106090476Y-84885714D01*
X105995238Y-84933333D01*
X105900000Y-85028571D01*
X105852381Y-85171429D01*
X105852381Y-85266667D01*
X105900000Y-85409524D01*
X105947619Y-85457143D01*
X105852381Y-86361905D02*
X105852381Y-85885714D01*
X106328571Y-85838095D01*
X106280952Y-85885714D01*
X106233333Y-85980952D01*
X106233333Y-86219048D01*
X106280952Y-86314286D01*
X106328571Y-86361905D01*
X106423810Y-86409524D01*
X106661905Y-86409524D01*
X106757143Y-86361905D01*
X106804762Y-86314286D01*
X106852381Y-86219048D01*
X106852381Y-85980952D01*
X106804762Y-85885714D01*
X106757143Y-85838095D01*
X105852381Y-87028571D02*
X105852381Y-87123810D01*
X105900000Y-87219048D01*
X105947619Y-87266667D01*
X106042857Y-87314286D01*
X106233333Y-87361905D01*
X106471429Y-87361905D01*
X106661905Y-87314286D01*
X106757143Y-87266667D01*
X106804762Y-87219048D01*
X106852381Y-87123810D01*
X106852381Y-87028571D01*
X106804762Y-86933333D01*
X106757143Y-86885714D01*
X106661905Y-86838095D01*
X106471429Y-86790476D01*
X106233333Y-86790476D01*
X106042857Y-86838095D01*
X105947619Y-86885714D01*
X105900000Y-86933333D01*
X105852381Y-87028571D01*
X116642857Y-74357143D02*
X116690476Y-74404762D01*
X116833333Y-74452381D01*
X116928571Y-74452381D01*
X117071429Y-74404762D01*
X117166667Y-74309524D01*
X117214286Y-74214286D01*
X117261905Y-74023810D01*
X117261905Y-73880952D01*
X117214286Y-73690476D01*
X117166667Y-73595238D01*
X117071429Y-73500000D01*
X116928571Y-73452381D01*
X116833333Y-73452381D01*
X116690476Y-73500000D01*
X116642857Y-73547619D01*
X115738095Y-73452381D02*
X116214286Y-73452381D01*
X116261905Y-73928571D01*
X116214286Y-73880952D01*
X116119048Y-73833333D01*
X115880952Y-73833333D01*
X115785714Y-73880952D01*
X115738095Y-73928571D01*
X115690476Y-74023810D01*
X115690476Y-74261905D01*
X115738095Y-74357143D01*
X115785714Y-74404762D01*
X115880952Y-74452381D01*
X116119048Y-74452381D01*
X116214286Y-74404762D01*
X116261905Y-74357143D01*
X114738095Y-74452381D02*
X115309524Y-74452381D01*
X115023810Y-74452381D02*
X115023810Y-73452381D01*
X115119048Y-73595238D01*
X115214286Y-73690476D01*
X115309524Y-73738095D01*
X132257143Y-85357143D02*
X132304762Y-85309524D01*
X132352381Y-85166667D01*
X132352381Y-85071429D01*
X132304762Y-84928571D01*
X132209524Y-84833333D01*
X132114286Y-84785714D01*
X131923810Y-84738095D01*
X131780952Y-84738095D01*
X131590476Y-84785714D01*
X131495238Y-84833333D01*
X131400000Y-84928571D01*
X131352381Y-85071429D01*
X131352381Y-85166667D01*
X131400000Y-85309524D01*
X131447619Y-85357143D01*
X131352381Y-86261905D02*
X131352381Y-85785714D01*
X131828571Y-85738095D01*
X131780952Y-85785714D01*
X131733333Y-85880952D01*
X131733333Y-86119048D01*
X131780952Y-86214286D01*
X131828571Y-86261905D01*
X131923810Y-86309524D01*
X132161905Y-86309524D01*
X132257143Y-86261905D01*
X132304762Y-86214286D01*
X132352381Y-86119048D01*
X132352381Y-85880952D01*
X132304762Y-85785714D01*
X132257143Y-85738095D01*
X131447619Y-86690476D02*
X131400000Y-86738095D01*
X131352381Y-86833333D01*
X131352381Y-87071429D01*
X131400000Y-87166667D01*
X131447619Y-87214286D01*
X131542857Y-87261905D01*
X131638095Y-87261905D01*
X131780952Y-87214286D01*
X132352381Y-86642857D01*
X132352381Y-87261905D01*
X141642857Y-74357143D02*
X141690476Y-74404762D01*
X141833333Y-74452381D01*
X141928571Y-74452381D01*
X142071429Y-74404762D01*
X142166667Y-74309524D01*
X142214286Y-74214286D01*
X142261905Y-74023810D01*
X142261905Y-73880952D01*
X142214286Y-73690476D01*
X142166667Y-73595238D01*
X142071429Y-73500000D01*
X141928571Y-73452381D01*
X141833333Y-73452381D01*
X141690476Y-73500000D01*
X141642857Y-73547619D01*
X140738095Y-73452381D02*
X141214286Y-73452381D01*
X141261905Y-73928571D01*
X141214286Y-73880952D01*
X141119048Y-73833333D01*
X140880952Y-73833333D01*
X140785714Y-73880952D01*
X140738095Y-73928571D01*
X140690476Y-74023810D01*
X140690476Y-74261905D01*
X140738095Y-74357143D01*
X140785714Y-74404762D01*
X140880952Y-74452381D01*
X141119048Y-74452381D01*
X141214286Y-74404762D01*
X141261905Y-74357143D01*
X140357143Y-73452381D02*
X139738095Y-73452381D01*
X140071429Y-73833333D01*
X139928571Y-73833333D01*
X139833333Y-73880952D01*
X139785714Y-73928571D01*
X139738095Y-74023810D01*
X139738095Y-74261905D01*
X139785714Y-74357143D01*
X139833333Y-74404762D01*
X139928571Y-74452381D01*
X140214286Y-74452381D01*
X140309524Y-74404762D01*
X140357143Y-74357143D01*
X159857143Y-85357143D02*
X159904762Y-85309524D01*
X159952381Y-85166667D01*
X159952381Y-85071429D01*
X159904762Y-84928571D01*
X159809524Y-84833333D01*
X159714286Y-84785714D01*
X159523810Y-84738095D01*
X159380952Y-84738095D01*
X159190476Y-84785714D01*
X159095238Y-84833333D01*
X159000000Y-84928571D01*
X158952381Y-85071429D01*
X158952381Y-85166667D01*
X159000000Y-85309524D01*
X159047619Y-85357143D01*
X158952381Y-86261905D02*
X158952381Y-85785714D01*
X159428571Y-85738095D01*
X159380952Y-85785714D01*
X159333333Y-85880952D01*
X159333333Y-86119048D01*
X159380952Y-86214286D01*
X159428571Y-86261905D01*
X159523810Y-86309524D01*
X159761905Y-86309524D01*
X159857143Y-86261905D01*
X159904762Y-86214286D01*
X159952381Y-86119048D01*
X159952381Y-85880952D01*
X159904762Y-85785714D01*
X159857143Y-85738095D01*
X159285714Y-87166667D02*
X159952381Y-87166667D01*
X158904762Y-86928571D02*
X159619048Y-86690476D01*
X159619048Y-87309524D01*
X169642857Y-74357143D02*
X169690476Y-74404762D01*
X169833333Y-74452381D01*
X169928571Y-74452381D01*
X170071429Y-74404762D01*
X170166667Y-74309524D01*
X170214286Y-74214286D01*
X170261905Y-74023810D01*
X170261905Y-73880952D01*
X170214286Y-73690476D01*
X170166667Y-73595238D01*
X170071429Y-73500000D01*
X169928571Y-73452381D01*
X169833333Y-73452381D01*
X169690476Y-73500000D01*
X169642857Y-73547619D01*
X168738095Y-73452381D02*
X169214286Y-73452381D01*
X169261905Y-73928571D01*
X169214286Y-73880952D01*
X169119048Y-73833333D01*
X168880952Y-73833333D01*
X168785714Y-73880952D01*
X168738095Y-73928571D01*
X168690476Y-74023810D01*
X168690476Y-74261905D01*
X168738095Y-74357143D01*
X168785714Y-74404762D01*
X168880952Y-74452381D01*
X169119048Y-74452381D01*
X169214286Y-74404762D01*
X169261905Y-74357143D01*
X167785714Y-73452381D02*
X168261905Y-73452381D01*
X168309524Y-73928571D01*
X168261905Y-73880952D01*
X168166667Y-73833333D01*
X167928571Y-73833333D01*
X167833333Y-73880952D01*
X167785714Y-73928571D01*
X167738095Y-74023810D01*
X167738095Y-74261905D01*
X167785714Y-74357143D01*
X167833333Y-74404762D01*
X167928571Y-74452381D01*
X168166667Y-74452381D01*
X168261905Y-74404762D01*
X168309524Y-74357143D01*
X185457143Y-85057143D02*
X185504762Y-85009524D01*
X185552381Y-84866667D01*
X185552381Y-84771429D01*
X185504762Y-84628571D01*
X185409524Y-84533333D01*
X185314286Y-84485714D01*
X185123810Y-84438095D01*
X184980952Y-84438095D01*
X184790476Y-84485714D01*
X184695238Y-84533333D01*
X184600000Y-84628571D01*
X184552381Y-84771429D01*
X184552381Y-84866667D01*
X184600000Y-85009524D01*
X184647619Y-85057143D01*
X184552381Y-85961905D02*
X184552381Y-85485714D01*
X185028571Y-85438095D01*
X184980952Y-85485714D01*
X184933333Y-85580952D01*
X184933333Y-85819048D01*
X184980952Y-85914286D01*
X185028571Y-85961905D01*
X185123810Y-86009524D01*
X185361905Y-86009524D01*
X185457143Y-85961905D01*
X185504762Y-85914286D01*
X185552381Y-85819048D01*
X185552381Y-85580952D01*
X185504762Y-85485714D01*
X185457143Y-85438095D01*
X184552381Y-86866667D02*
X184552381Y-86676190D01*
X184600000Y-86580952D01*
X184647619Y-86533333D01*
X184790476Y-86438095D01*
X184980952Y-86390476D01*
X185361905Y-86390476D01*
X185457143Y-86438095D01*
X185504762Y-86485714D01*
X185552381Y-86580952D01*
X185552381Y-86771429D01*
X185504762Y-86866667D01*
X185457143Y-86914286D01*
X185361905Y-86961905D01*
X185123810Y-86961905D01*
X185028571Y-86914286D01*
X184980952Y-86866667D01*
X184933333Y-86771429D01*
X184933333Y-86580952D01*
X184980952Y-86485714D01*
X185028571Y-86438095D01*
X185123810Y-86390476D01*
X194642857Y-74357143D02*
X194690476Y-74404762D01*
X194833333Y-74452381D01*
X194928571Y-74452381D01*
X195071429Y-74404762D01*
X195166667Y-74309524D01*
X195214286Y-74214286D01*
X195261905Y-74023810D01*
X195261905Y-73880952D01*
X195214286Y-73690476D01*
X195166667Y-73595238D01*
X195071429Y-73500000D01*
X194928571Y-73452381D01*
X194833333Y-73452381D01*
X194690476Y-73500000D01*
X194642857Y-73547619D01*
X193738095Y-73452381D02*
X194214286Y-73452381D01*
X194261905Y-73928571D01*
X194214286Y-73880952D01*
X194119048Y-73833333D01*
X193880952Y-73833333D01*
X193785714Y-73880952D01*
X193738095Y-73928571D01*
X193690476Y-74023810D01*
X193690476Y-74261905D01*
X193738095Y-74357143D01*
X193785714Y-74404762D01*
X193880952Y-74452381D01*
X194119048Y-74452381D01*
X194214286Y-74404762D01*
X194261905Y-74357143D01*
X193357143Y-73452381D02*
X192690476Y-73452381D01*
X193119048Y-74452381D01*
X210857143Y-85257143D02*
X210904762Y-85209524D01*
X210952381Y-85066667D01*
X210952381Y-84971429D01*
X210904762Y-84828571D01*
X210809524Y-84733333D01*
X210714286Y-84685714D01*
X210523810Y-84638095D01*
X210380952Y-84638095D01*
X210190476Y-84685714D01*
X210095238Y-84733333D01*
X210000000Y-84828571D01*
X209952381Y-84971429D01*
X209952381Y-85066667D01*
X210000000Y-85209524D01*
X210047619Y-85257143D01*
X209952381Y-86161905D02*
X209952381Y-85685714D01*
X210428571Y-85638095D01*
X210380952Y-85685714D01*
X210333333Y-85780952D01*
X210333333Y-86019048D01*
X210380952Y-86114286D01*
X210428571Y-86161905D01*
X210523810Y-86209524D01*
X210761905Y-86209524D01*
X210857143Y-86161905D01*
X210904762Y-86114286D01*
X210952381Y-86019048D01*
X210952381Y-85780952D01*
X210904762Y-85685714D01*
X210857143Y-85638095D01*
X210380952Y-86780952D02*
X210333333Y-86685714D01*
X210285714Y-86638095D01*
X210190476Y-86590476D01*
X210142857Y-86590476D01*
X210047619Y-86638095D01*
X210000000Y-86685714D01*
X209952381Y-86780952D01*
X209952381Y-86971429D01*
X210000000Y-87066667D01*
X210047619Y-87114286D01*
X210142857Y-87161905D01*
X210190476Y-87161905D01*
X210285714Y-87114286D01*
X210333333Y-87066667D01*
X210380952Y-86971429D01*
X210380952Y-86780952D01*
X210428571Y-86685714D01*
X210476190Y-86638095D01*
X210571429Y-86590476D01*
X210761905Y-86590476D01*
X210857143Y-86638095D01*
X210904762Y-86685714D01*
X210952381Y-86780952D01*
X210952381Y-86971429D01*
X210904762Y-87066667D01*
X210857143Y-87114286D01*
X210761905Y-87161905D01*
X210571429Y-87161905D01*
X210476190Y-87114286D01*
X210428571Y-87066667D01*
X210380952Y-86971429D01*
X220642857Y-74357143D02*
X220690476Y-74404762D01*
X220833333Y-74452381D01*
X220928571Y-74452381D01*
X221071429Y-74404762D01*
X221166667Y-74309524D01*
X221214286Y-74214286D01*
X221261905Y-74023810D01*
X221261905Y-73880952D01*
X221214286Y-73690476D01*
X221166667Y-73595238D01*
X221071429Y-73500000D01*
X220928571Y-73452381D01*
X220833333Y-73452381D01*
X220690476Y-73500000D01*
X220642857Y-73547619D01*
X219738095Y-73452381D02*
X220214286Y-73452381D01*
X220261905Y-73928571D01*
X220214286Y-73880952D01*
X220119048Y-73833333D01*
X219880952Y-73833333D01*
X219785714Y-73880952D01*
X219738095Y-73928571D01*
X219690476Y-74023810D01*
X219690476Y-74261905D01*
X219738095Y-74357143D01*
X219785714Y-74404762D01*
X219880952Y-74452381D01*
X220119048Y-74452381D01*
X220214286Y-74404762D01*
X220261905Y-74357143D01*
X219214286Y-74452381D02*
X219023810Y-74452381D01*
X218928571Y-74404762D01*
X218880952Y-74357143D01*
X218785714Y-74214286D01*
X218738095Y-74023810D01*
X218738095Y-73642857D01*
X218785714Y-73547619D01*
X218833333Y-73500000D01*
X218928571Y-73452381D01*
X219119048Y-73452381D01*
X219214286Y-73500000D01*
X219261905Y-73547619D01*
X219309524Y-73642857D01*
X219309524Y-73880952D01*
X219261905Y-73976190D01*
X219214286Y-74023810D01*
X219119048Y-74071429D01*
X218928571Y-74071429D01*
X218833333Y-74023810D01*
X218785714Y-73976190D01*
X218738095Y-73880952D01*
X236057143Y-85557143D02*
X236104762Y-85509524D01*
X236152381Y-85366667D01*
X236152381Y-85271429D01*
X236104762Y-85128571D01*
X236009524Y-85033333D01*
X235914286Y-84985714D01*
X235723810Y-84938095D01*
X235580952Y-84938095D01*
X235390476Y-84985714D01*
X235295238Y-85033333D01*
X235200000Y-85128571D01*
X235152381Y-85271429D01*
X235152381Y-85366667D01*
X235200000Y-85509524D01*
X235247619Y-85557143D01*
X235152381Y-86414286D02*
X235152381Y-86223809D01*
X235200000Y-86128571D01*
X235247619Y-86080952D01*
X235390476Y-85985714D01*
X235580952Y-85938095D01*
X235961905Y-85938095D01*
X236057143Y-85985714D01*
X236104762Y-86033333D01*
X236152381Y-86128571D01*
X236152381Y-86319048D01*
X236104762Y-86414286D01*
X236057143Y-86461905D01*
X235961905Y-86509524D01*
X235723810Y-86509524D01*
X235628571Y-86461905D01*
X235580952Y-86414286D01*
X235533333Y-86319048D01*
X235533333Y-86128571D01*
X235580952Y-86033333D01*
X235628571Y-85985714D01*
X235723810Y-85938095D01*
X235152381Y-87128571D02*
X235152381Y-87223810D01*
X235200000Y-87319048D01*
X235247619Y-87366667D01*
X235342857Y-87414286D01*
X235533333Y-87461905D01*
X235771429Y-87461905D01*
X235961905Y-87414286D01*
X236057143Y-87366667D01*
X236104762Y-87319048D01*
X236152381Y-87223810D01*
X236152381Y-87128571D01*
X236104762Y-87033333D01*
X236057143Y-86985714D01*
X235961905Y-86938095D01*
X235771429Y-86890476D01*
X235533333Y-86890476D01*
X235342857Y-86938095D01*
X235247619Y-86985714D01*
X235200000Y-87033333D01*
X235152381Y-87128571D01*
X245642857Y-74357143D02*
X245690476Y-74404762D01*
X245833333Y-74452381D01*
X245928571Y-74452381D01*
X246071429Y-74404762D01*
X246166667Y-74309524D01*
X246214286Y-74214286D01*
X246261905Y-74023810D01*
X246261905Y-73880952D01*
X246214286Y-73690476D01*
X246166667Y-73595238D01*
X246071429Y-73500000D01*
X245928571Y-73452381D01*
X245833333Y-73452381D01*
X245690476Y-73500000D01*
X245642857Y-73547619D01*
X244785714Y-73452381D02*
X244976191Y-73452381D01*
X245071429Y-73500000D01*
X245119048Y-73547619D01*
X245214286Y-73690476D01*
X245261905Y-73880952D01*
X245261905Y-74261905D01*
X245214286Y-74357143D01*
X245166667Y-74404762D01*
X245071429Y-74452381D01*
X244880952Y-74452381D01*
X244785714Y-74404762D01*
X244738095Y-74357143D01*
X244690476Y-74261905D01*
X244690476Y-74023810D01*
X244738095Y-73928571D01*
X244785714Y-73880952D01*
X244880952Y-73833333D01*
X245071429Y-73833333D01*
X245166667Y-73880952D01*
X245214286Y-73928571D01*
X245261905Y-74023810D01*
X243738095Y-74452381D02*
X244309524Y-74452381D01*
X244023810Y-74452381D02*
X244023810Y-73452381D01*
X244119048Y-73595238D01*
X244214286Y-73690476D01*
X244309524Y-73738095D01*
X261357143Y-85657143D02*
X261404762Y-85609524D01*
X261452381Y-85466667D01*
X261452381Y-85371429D01*
X261404762Y-85228571D01*
X261309524Y-85133333D01*
X261214286Y-85085714D01*
X261023810Y-85038095D01*
X260880952Y-85038095D01*
X260690476Y-85085714D01*
X260595238Y-85133333D01*
X260500000Y-85228571D01*
X260452381Y-85371429D01*
X260452381Y-85466667D01*
X260500000Y-85609524D01*
X260547619Y-85657143D01*
X260452381Y-86514286D02*
X260452381Y-86323809D01*
X260500000Y-86228571D01*
X260547619Y-86180952D01*
X260690476Y-86085714D01*
X260880952Y-86038095D01*
X261261905Y-86038095D01*
X261357143Y-86085714D01*
X261404762Y-86133333D01*
X261452381Y-86228571D01*
X261452381Y-86419048D01*
X261404762Y-86514286D01*
X261357143Y-86561905D01*
X261261905Y-86609524D01*
X261023810Y-86609524D01*
X260928571Y-86561905D01*
X260880952Y-86514286D01*
X260833333Y-86419048D01*
X260833333Y-86228571D01*
X260880952Y-86133333D01*
X260928571Y-86085714D01*
X261023810Y-86038095D01*
X260547619Y-86990476D02*
X260500000Y-87038095D01*
X260452381Y-87133333D01*
X260452381Y-87371429D01*
X260500000Y-87466667D01*
X260547619Y-87514286D01*
X260642857Y-87561905D01*
X260738095Y-87561905D01*
X260880952Y-87514286D01*
X261452381Y-86942857D01*
X261452381Y-87561905D01*
X271642857Y-74357143D02*
X271690476Y-74404762D01*
X271833333Y-74452381D01*
X271928571Y-74452381D01*
X272071429Y-74404762D01*
X272166667Y-74309524D01*
X272214286Y-74214286D01*
X272261905Y-74023810D01*
X272261905Y-73880952D01*
X272214286Y-73690476D01*
X272166667Y-73595238D01*
X272071429Y-73500000D01*
X271928571Y-73452381D01*
X271833333Y-73452381D01*
X271690476Y-73500000D01*
X271642857Y-73547619D01*
X270785714Y-73452381D02*
X270976191Y-73452381D01*
X271071429Y-73500000D01*
X271119048Y-73547619D01*
X271214286Y-73690476D01*
X271261905Y-73880952D01*
X271261905Y-74261905D01*
X271214286Y-74357143D01*
X271166667Y-74404762D01*
X271071429Y-74452381D01*
X270880952Y-74452381D01*
X270785714Y-74404762D01*
X270738095Y-74357143D01*
X270690476Y-74261905D01*
X270690476Y-74023810D01*
X270738095Y-73928571D01*
X270785714Y-73880952D01*
X270880952Y-73833333D01*
X271071429Y-73833333D01*
X271166667Y-73880952D01*
X271214286Y-73928571D01*
X271261905Y-74023810D01*
X270357143Y-73452381D02*
X269738095Y-73452381D01*
X270071429Y-73833333D01*
X269928571Y-73833333D01*
X269833333Y-73880952D01*
X269785714Y-73928571D01*
X269738095Y-74023810D01*
X269738095Y-74261905D01*
X269785714Y-74357143D01*
X269833333Y-74404762D01*
X269928571Y-74452381D01*
X270214286Y-74452381D01*
X270309524Y-74404762D01*
X270357143Y-74357143D01*
X38642857Y-56857143D02*
X38690476Y-56904762D01*
X38833333Y-56952381D01*
X38928571Y-56952381D01*
X39071429Y-56904762D01*
X39166667Y-56809524D01*
X39214286Y-56714286D01*
X39261905Y-56523810D01*
X39261905Y-56380952D01*
X39214286Y-56190476D01*
X39166667Y-56095238D01*
X39071429Y-56000000D01*
X38928571Y-55952381D01*
X38833333Y-55952381D01*
X38690476Y-56000000D01*
X38642857Y-56047619D01*
X38261905Y-56047619D02*
X38214286Y-56000000D01*
X38119048Y-55952381D01*
X37880952Y-55952381D01*
X37785714Y-56000000D01*
X37738095Y-56047619D01*
X37690476Y-56142857D01*
X37690476Y-56238095D01*
X37738095Y-56380952D01*
X38309524Y-56952381D01*
X37690476Y-56952381D01*
X37357143Y-55952381D02*
X36738095Y-55952381D01*
X37071429Y-56333333D01*
X36928571Y-56333333D01*
X36833333Y-56380952D01*
X36785714Y-56428571D01*
X36738095Y-56523810D01*
X36738095Y-56761905D01*
X36785714Y-56857143D01*
X36833333Y-56904762D01*
X36928571Y-56952381D01*
X37214286Y-56952381D01*
X37309524Y-56904762D01*
X37357143Y-56857143D01*
X52712857Y-102987143D02*
X52760476Y-103034762D01*
X52903333Y-103082381D01*
X52998571Y-103082381D01*
X53141429Y-103034762D01*
X53236667Y-102939524D01*
X53284286Y-102844286D01*
X53331905Y-102653810D01*
X53331905Y-102510952D01*
X53284286Y-102320476D01*
X53236667Y-102225238D01*
X53141429Y-102130000D01*
X52998571Y-102082381D01*
X52903333Y-102082381D01*
X52760476Y-102130000D01*
X52712857Y-102177619D01*
X52331905Y-102177619D02*
X52284286Y-102130000D01*
X52189048Y-102082381D01*
X51950952Y-102082381D01*
X51855714Y-102130000D01*
X51808095Y-102177619D01*
X51760476Y-102272857D01*
X51760476Y-102368095D01*
X51808095Y-102510952D01*
X52379524Y-103082381D01*
X51760476Y-103082381D01*
X50903333Y-102415714D02*
X50903333Y-103082381D01*
X51141429Y-102034762D02*
X51379524Y-102749048D01*
X50760476Y-102749048D01*
X89642857Y-56857143D02*
X89690476Y-56904762D01*
X89833333Y-56952381D01*
X89928571Y-56952381D01*
X90071429Y-56904762D01*
X90166667Y-56809524D01*
X90214286Y-56714286D01*
X90261905Y-56523810D01*
X90261905Y-56380952D01*
X90214286Y-56190476D01*
X90166667Y-56095238D01*
X90071429Y-56000000D01*
X89928571Y-55952381D01*
X89833333Y-55952381D01*
X89690476Y-56000000D01*
X89642857Y-56047619D01*
X89261905Y-56047619D02*
X89214286Y-56000000D01*
X89119048Y-55952381D01*
X88880952Y-55952381D01*
X88785714Y-56000000D01*
X88738095Y-56047619D01*
X88690476Y-56142857D01*
X88690476Y-56238095D01*
X88738095Y-56380952D01*
X89309524Y-56952381D01*
X88690476Y-56952381D01*
X87785714Y-55952381D02*
X88261905Y-55952381D01*
X88309524Y-56428571D01*
X88261905Y-56380952D01*
X88166667Y-56333333D01*
X87928571Y-56333333D01*
X87833333Y-56380952D01*
X87785714Y-56428571D01*
X87738095Y-56523810D01*
X87738095Y-56761905D01*
X87785714Y-56857143D01*
X87833333Y-56904762D01*
X87928571Y-56952381D01*
X88166667Y-56952381D01*
X88261905Y-56904762D01*
X88309524Y-56857143D01*
X115142857Y-56857143D02*
X115190476Y-56904762D01*
X115333333Y-56952381D01*
X115428571Y-56952381D01*
X115571429Y-56904762D01*
X115666667Y-56809524D01*
X115714286Y-56714286D01*
X115761905Y-56523810D01*
X115761905Y-56380952D01*
X115714286Y-56190476D01*
X115666667Y-56095238D01*
X115571429Y-56000000D01*
X115428571Y-55952381D01*
X115333333Y-55952381D01*
X115190476Y-56000000D01*
X115142857Y-56047619D01*
X114761905Y-56047619D02*
X114714286Y-56000000D01*
X114619048Y-55952381D01*
X114380952Y-55952381D01*
X114285714Y-56000000D01*
X114238095Y-56047619D01*
X114190476Y-56142857D01*
X114190476Y-56238095D01*
X114238095Y-56380952D01*
X114809524Y-56952381D01*
X114190476Y-56952381D01*
X113333333Y-55952381D02*
X113523810Y-55952381D01*
X113619048Y-56000000D01*
X113666667Y-56047619D01*
X113761905Y-56190476D01*
X113809524Y-56380952D01*
X113809524Y-56761905D01*
X113761905Y-56857143D01*
X113714286Y-56904762D01*
X113619048Y-56952381D01*
X113428571Y-56952381D01*
X113333333Y-56904762D01*
X113285714Y-56857143D01*
X113238095Y-56761905D01*
X113238095Y-56523810D01*
X113285714Y-56428571D01*
X113333333Y-56380952D01*
X113428571Y-56333333D01*
X113619048Y-56333333D01*
X113714286Y-56380952D01*
X113761905Y-56428571D01*
X113809524Y-56523810D01*
X140642857Y-56857143D02*
X140690476Y-56904762D01*
X140833333Y-56952381D01*
X140928571Y-56952381D01*
X141071429Y-56904762D01*
X141166667Y-56809524D01*
X141214286Y-56714286D01*
X141261905Y-56523810D01*
X141261905Y-56380952D01*
X141214286Y-56190476D01*
X141166667Y-56095238D01*
X141071429Y-56000000D01*
X140928571Y-55952381D01*
X140833333Y-55952381D01*
X140690476Y-56000000D01*
X140642857Y-56047619D01*
X140261905Y-56047619D02*
X140214286Y-56000000D01*
X140119048Y-55952381D01*
X139880952Y-55952381D01*
X139785714Y-56000000D01*
X139738095Y-56047619D01*
X139690476Y-56142857D01*
X139690476Y-56238095D01*
X139738095Y-56380952D01*
X140309524Y-56952381D01*
X139690476Y-56952381D01*
X139357143Y-55952381D02*
X138690476Y-55952381D01*
X139119048Y-56952381D01*
X168142857Y-56857143D02*
X168190476Y-56904762D01*
X168333333Y-56952381D01*
X168428571Y-56952381D01*
X168571429Y-56904762D01*
X168666667Y-56809524D01*
X168714286Y-56714286D01*
X168761905Y-56523810D01*
X168761905Y-56380952D01*
X168714286Y-56190476D01*
X168666667Y-56095238D01*
X168571429Y-56000000D01*
X168428571Y-55952381D01*
X168333333Y-55952381D01*
X168190476Y-56000000D01*
X168142857Y-56047619D01*
X167761905Y-56047619D02*
X167714286Y-56000000D01*
X167619048Y-55952381D01*
X167380952Y-55952381D01*
X167285714Y-56000000D01*
X167238095Y-56047619D01*
X167190476Y-56142857D01*
X167190476Y-56238095D01*
X167238095Y-56380952D01*
X167809524Y-56952381D01*
X167190476Y-56952381D01*
X166619048Y-56380952D02*
X166714286Y-56333333D01*
X166761905Y-56285714D01*
X166809524Y-56190476D01*
X166809524Y-56142857D01*
X166761905Y-56047619D01*
X166714286Y-56000000D01*
X166619048Y-55952381D01*
X166428571Y-55952381D01*
X166333333Y-56000000D01*
X166285714Y-56047619D01*
X166238095Y-56142857D01*
X166238095Y-56190476D01*
X166285714Y-56285714D01*
X166333333Y-56333333D01*
X166428571Y-56380952D01*
X166619048Y-56380952D01*
X166714286Y-56428571D01*
X166761905Y-56476190D01*
X166809524Y-56571429D01*
X166809524Y-56761905D01*
X166761905Y-56857143D01*
X166714286Y-56904762D01*
X166619048Y-56952381D01*
X166428571Y-56952381D01*
X166333333Y-56904762D01*
X166285714Y-56857143D01*
X166238095Y-56761905D01*
X166238095Y-56571429D01*
X166285714Y-56476190D01*
X166333333Y-56428571D01*
X166428571Y-56380952D01*
X193642857Y-56857143D02*
X193690476Y-56904762D01*
X193833333Y-56952381D01*
X193928571Y-56952381D01*
X194071429Y-56904762D01*
X194166667Y-56809524D01*
X194214286Y-56714286D01*
X194261905Y-56523810D01*
X194261905Y-56380952D01*
X194214286Y-56190476D01*
X194166667Y-56095238D01*
X194071429Y-56000000D01*
X193928571Y-55952381D01*
X193833333Y-55952381D01*
X193690476Y-56000000D01*
X193642857Y-56047619D01*
X193261905Y-56047619D02*
X193214286Y-56000000D01*
X193119048Y-55952381D01*
X192880952Y-55952381D01*
X192785714Y-56000000D01*
X192738095Y-56047619D01*
X192690476Y-56142857D01*
X192690476Y-56238095D01*
X192738095Y-56380952D01*
X193309524Y-56952381D01*
X192690476Y-56952381D01*
X192214286Y-56952381D02*
X192023810Y-56952381D01*
X191928571Y-56904762D01*
X191880952Y-56857143D01*
X191785714Y-56714286D01*
X191738095Y-56523810D01*
X191738095Y-56142857D01*
X191785714Y-56047619D01*
X191833333Y-56000000D01*
X191928571Y-55952381D01*
X192119048Y-55952381D01*
X192214286Y-56000000D01*
X192261905Y-56047619D01*
X192309524Y-56142857D01*
X192309524Y-56380952D01*
X192261905Y-56476190D01*
X192214286Y-56523810D01*
X192119048Y-56571429D01*
X191928571Y-56571429D01*
X191833333Y-56523810D01*
X191785714Y-56476190D01*
X191738095Y-56380952D01*
X219142857Y-56857143D02*
X219190476Y-56904762D01*
X219333333Y-56952381D01*
X219428571Y-56952381D01*
X219571429Y-56904762D01*
X219666667Y-56809524D01*
X219714286Y-56714286D01*
X219761905Y-56523810D01*
X219761905Y-56380952D01*
X219714286Y-56190476D01*
X219666667Y-56095238D01*
X219571429Y-56000000D01*
X219428571Y-55952381D01*
X219333333Y-55952381D01*
X219190476Y-56000000D01*
X219142857Y-56047619D01*
X218809524Y-55952381D02*
X218190476Y-55952381D01*
X218523810Y-56333333D01*
X218380952Y-56333333D01*
X218285714Y-56380952D01*
X218238095Y-56428571D01*
X218190476Y-56523810D01*
X218190476Y-56761905D01*
X218238095Y-56857143D01*
X218285714Y-56904762D01*
X218380952Y-56952381D01*
X218666667Y-56952381D01*
X218761905Y-56904762D01*
X218809524Y-56857143D01*
X217571429Y-55952381D02*
X217476190Y-55952381D01*
X217380952Y-56000000D01*
X217333333Y-56047619D01*
X217285714Y-56142857D01*
X217238095Y-56333333D01*
X217238095Y-56571429D01*
X217285714Y-56761905D01*
X217333333Y-56857143D01*
X217380952Y-56904762D01*
X217476190Y-56952381D01*
X217571429Y-56952381D01*
X217666667Y-56904762D01*
X217714286Y-56857143D01*
X217761905Y-56761905D01*
X217809524Y-56571429D01*
X217809524Y-56333333D01*
X217761905Y-56142857D01*
X217714286Y-56047619D01*
X217666667Y-56000000D01*
X217571429Y-55952381D01*
X244642857Y-56857143D02*
X244690476Y-56904762D01*
X244833333Y-56952381D01*
X244928571Y-56952381D01*
X245071429Y-56904762D01*
X245166667Y-56809524D01*
X245214286Y-56714286D01*
X245261905Y-56523810D01*
X245261905Y-56380952D01*
X245214286Y-56190476D01*
X245166667Y-56095238D01*
X245071429Y-56000000D01*
X244928571Y-55952381D01*
X244833333Y-55952381D01*
X244690476Y-56000000D01*
X244642857Y-56047619D01*
X244309524Y-55952381D02*
X243690476Y-55952381D01*
X244023810Y-56333333D01*
X243880952Y-56333333D01*
X243785714Y-56380952D01*
X243738095Y-56428571D01*
X243690476Y-56523810D01*
X243690476Y-56761905D01*
X243738095Y-56857143D01*
X243785714Y-56904762D01*
X243880952Y-56952381D01*
X244166667Y-56952381D01*
X244261905Y-56904762D01*
X244309524Y-56857143D01*
X242738095Y-56952381D02*
X243309524Y-56952381D01*
X243023810Y-56952381D02*
X243023810Y-55952381D01*
X243119048Y-56095238D01*
X243214286Y-56190476D01*
X243309524Y-56238095D01*
X269642857Y-56857143D02*
X269690476Y-56904762D01*
X269833333Y-56952381D01*
X269928571Y-56952381D01*
X270071429Y-56904762D01*
X270166667Y-56809524D01*
X270214286Y-56714286D01*
X270261905Y-56523810D01*
X270261905Y-56380952D01*
X270214286Y-56190476D01*
X270166667Y-56095238D01*
X270071429Y-56000000D01*
X269928571Y-55952381D01*
X269833333Y-55952381D01*
X269690476Y-56000000D01*
X269642857Y-56047619D01*
X269309524Y-55952381D02*
X268690476Y-55952381D01*
X269023810Y-56333333D01*
X268880952Y-56333333D01*
X268785714Y-56380952D01*
X268738095Y-56428571D01*
X268690476Y-56523810D01*
X268690476Y-56761905D01*
X268738095Y-56857143D01*
X268785714Y-56904762D01*
X268880952Y-56952381D01*
X269166667Y-56952381D01*
X269261905Y-56904762D01*
X269309524Y-56857143D01*
X268309524Y-56047619D02*
X268261905Y-56000000D01*
X268166667Y-55952381D01*
X267928571Y-55952381D01*
X267833333Y-56000000D01*
X267785714Y-56047619D01*
X267738095Y-56142857D01*
X267738095Y-56238095D01*
X267785714Y-56380952D01*
X268357143Y-56952381D01*
X267738095Y-56952381D01*
X44357143Y-49857143D02*
X44404762Y-49809524D01*
X44452381Y-49666667D01*
X44452381Y-49571429D01*
X44404762Y-49428571D01*
X44309524Y-49333333D01*
X44214286Y-49285714D01*
X44023810Y-49238095D01*
X43880952Y-49238095D01*
X43690476Y-49285714D01*
X43595238Y-49333333D01*
X43500000Y-49428571D01*
X43452381Y-49571429D01*
X43452381Y-49666667D01*
X43500000Y-49809524D01*
X43547619Y-49857143D01*
X43452381Y-50190476D02*
X43452381Y-50809524D01*
X43833333Y-50476190D01*
X43833333Y-50619048D01*
X43880952Y-50714286D01*
X43928571Y-50761905D01*
X44023810Y-50809524D01*
X44261905Y-50809524D01*
X44357143Y-50761905D01*
X44404762Y-50714286D01*
X44452381Y-50619048D01*
X44452381Y-50333333D01*
X44404762Y-50238095D01*
X44357143Y-50190476D01*
X43452381Y-51142857D02*
X43452381Y-51761905D01*
X43833333Y-51428571D01*
X43833333Y-51571429D01*
X43880952Y-51666667D01*
X43928571Y-51714286D01*
X44023810Y-51761905D01*
X44261905Y-51761905D01*
X44357143Y-51714286D01*
X44404762Y-51666667D01*
X44452381Y-51571429D01*
X44452381Y-51285714D01*
X44404762Y-51190476D01*
X44357143Y-51142857D01*
X27312857Y-102987143D02*
X27360476Y-103034762D01*
X27503333Y-103082381D01*
X27598571Y-103082381D01*
X27741429Y-103034762D01*
X27836667Y-102939524D01*
X27884286Y-102844286D01*
X27931905Y-102653810D01*
X27931905Y-102510952D01*
X27884286Y-102320476D01*
X27836667Y-102225238D01*
X27741429Y-102130000D01*
X27598571Y-102082381D01*
X27503333Y-102082381D01*
X27360476Y-102130000D01*
X27312857Y-102177619D01*
X26979524Y-102082381D02*
X26360476Y-102082381D01*
X26693810Y-102463333D01*
X26550952Y-102463333D01*
X26455714Y-102510952D01*
X26408095Y-102558571D01*
X26360476Y-102653810D01*
X26360476Y-102891905D01*
X26408095Y-102987143D01*
X26455714Y-103034762D01*
X26550952Y-103082381D01*
X26836667Y-103082381D01*
X26931905Y-103034762D01*
X26979524Y-102987143D01*
X25503333Y-102415714D02*
X25503333Y-103082381D01*
X25741429Y-102034762D02*
X25979524Y-102749048D01*
X25360476Y-102749048D01*
X64142857Y-56857143D02*
X64190476Y-56904762D01*
X64333333Y-56952381D01*
X64428571Y-56952381D01*
X64571429Y-56904762D01*
X64666667Y-56809524D01*
X64714286Y-56714286D01*
X64761905Y-56523810D01*
X64761905Y-56380952D01*
X64714286Y-56190476D01*
X64666667Y-56095238D01*
X64571429Y-56000000D01*
X64428571Y-55952381D01*
X64333333Y-55952381D01*
X64190476Y-56000000D01*
X64142857Y-56047619D01*
X63809524Y-55952381D02*
X63190476Y-55952381D01*
X63523810Y-56333333D01*
X63380952Y-56333333D01*
X63285714Y-56380952D01*
X63238095Y-56428571D01*
X63190476Y-56523810D01*
X63190476Y-56761905D01*
X63238095Y-56857143D01*
X63285714Y-56904762D01*
X63380952Y-56952381D01*
X63666667Y-56952381D01*
X63761905Y-56904762D01*
X63809524Y-56857143D01*
X62285714Y-55952381D02*
X62761905Y-55952381D01*
X62809524Y-56428571D01*
X62761905Y-56380952D01*
X62666667Y-56333333D01*
X62428571Y-56333333D01*
X62333333Y-56380952D01*
X62285714Y-56428571D01*
X62238095Y-56523810D01*
X62238095Y-56761905D01*
X62285714Y-56857143D01*
X62333333Y-56904762D01*
X62428571Y-56952381D01*
X62666667Y-56952381D01*
X62761905Y-56904762D01*
X62809524Y-56857143D01*
X78112857Y-102987143D02*
X78160476Y-103034762D01*
X78303333Y-103082381D01*
X78398571Y-103082381D01*
X78541429Y-103034762D01*
X78636667Y-102939524D01*
X78684286Y-102844286D01*
X78731905Y-102653810D01*
X78731905Y-102510952D01*
X78684286Y-102320476D01*
X78636667Y-102225238D01*
X78541429Y-102130000D01*
X78398571Y-102082381D01*
X78303333Y-102082381D01*
X78160476Y-102130000D01*
X78112857Y-102177619D01*
X77779524Y-102082381D02*
X77160476Y-102082381D01*
X77493810Y-102463333D01*
X77350952Y-102463333D01*
X77255714Y-102510952D01*
X77208095Y-102558571D01*
X77160476Y-102653810D01*
X77160476Y-102891905D01*
X77208095Y-102987143D01*
X77255714Y-103034762D01*
X77350952Y-103082381D01*
X77636667Y-103082381D01*
X77731905Y-103034762D01*
X77779524Y-102987143D01*
X76303333Y-102082381D02*
X76493810Y-102082381D01*
X76589048Y-102130000D01*
X76636667Y-102177619D01*
X76731905Y-102320476D01*
X76779524Y-102510952D01*
X76779524Y-102891905D01*
X76731905Y-102987143D01*
X76684286Y-103034762D01*
X76589048Y-103082381D01*
X76398571Y-103082381D01*
X76303333Y-103034762D01*
X76255714Y-102987143D01*
X76208095Y-102891905D01*
X76208095Y-102653810D01*
X76255714Y-102558571D01*
X76303333Y-102510952D01*
X76398571Y-102463333D01*
X76589048Y-102463333D01*
X76684286Y-102510952D01*
X76731905Y-102558571D01*
X76779524Y-102653810D01*
X103512857Y-102987143D02*
X103560476Y-103034762D01*
X103703333Y-103082381D01*
X103798571Y-103082381D01*
X103941429Y-103034762D01*
X104036667Y-102939524D01*
X104084286Y-102844286D01*
X104131905Y-102653810D01*
X104131905Y-102510952D01*
X104084286Y-102320476D01*
X104036667Y-102225238D01*
X103941429Y-102130000D01*
X103798571Y-102082381D01*
X103703333Y-102082381D01*
X103560476Y-102130000D01*
X103512857Y-102177619D01*
X103179524Y-102082381D02*
X102560476Y-102082381D01*
X102893810Y-102463333D01*
X102750952Y-102463333D01*
X102655714Y-102510952D01*
X102608095Y-102558571D01*
X102560476Y-102653810D01*
X102560476Y-102891905D01*
X102608095Y-102987143D01*
X102655714Y-103034762D01*
X102750952Y-103082381D01*
X103036667Y-103082381D01*
X103131905Y-103034762D01*
X103179524Y-102987143D01*
X102227143Y-102082381D02*
X101560476Y-102082381D01*
X101989048Y-103082381D01*
X128912857Y-102987143D02*
X128960476Y-103034762D01*
X129103333Y-103082381D01*
X129198571Y-103082381D01*
X129341429Y-103034762D01*
X129436667Y-102939524D01*
X129484286Y-102844286D01*
X129531905Y-102653810D01*
X129531905Y-102510952D01*
X129484286Y-102320476D01*
X129436667Y-102225238D01*
X129341429Y-102130000D01*
X129198571Y-102082381D01*
X129103333Y-102082381D01*
X128960476Y-102130000D01*
X128912857Y-102177619D01*
X128579524Y-102082381D02*
X127960476Y-102082381D01*
X128293810Y-102463333D01*
X128150952Y-102463333D01*
X128055714Y-102510952D01*
X128008095Y-102558571D01*
X127960476Y-102653810D01*
X127960476Y-102891905D01*
X128008095Y-102987143D01*
X128055714Y-103034762D01*
X128150952Y-103082381D01*
X128436667Y-103082381D01*
X128531905Y-103034762D01*
X128579524Y-102987143D01*
X127389048Y-102510952D02*
X127484286Y-102463333D01*
X127531905Y-102415714D01*
X127579524Y-102320476D01*
X127579524Y-102272857D01*
X127531905Y-102177619D01*
X127484286Y-102130000D01*
X127389048Y-102082381D01*
X127198571Y-102082381D01*
X127103333Y-102130000D01*
X127055714Y-102177619D01*
X127008095Y-102272857D01*
X127008095Y-102320476D01*
X127055714Y-102415714D01*
X127103333Y-102463333D01*
X127198571Y-102510952D01*
X127389048Y-102510952D01*
X127484286Y-102558571D01*
X127531905Y-102606190D01*
X127579524Y-102701429D01*
X127579524Y-102891905D01*
X127531905Y-102987143D01*
X127484286Y-103034762D01*
X127389048Y-103082381D01*
X127198571Y-103082381D01*
X127103333Y-103034762D01*
X127055714Y-102987143D01*
X127008095Y-102891905D01*
X127008095Y-102701429D01*
X127055714Y-102606190D01*
X127103333Y-102558571D01*
X127198571Y-102510952D01*
X156852857Y-102987143D02*
X156900476Y-103034762D01*
X157043333Y-103082381D01*
X157138571Y-103082381D01*
X157281429Y-103034762D01*
X157376667Y-102939524D01*
X157424286Y-102844286D01*
X157471905Y-102653810D01*
X157471905Y-102510952D01*
X157424286Y-102320476D01*
X157376667Y-102225238D01*
X157281429Y-102130000D01*
X157138571Y-102082381D01*
X157043333Y-102082381D01*
X156900476Y-102130000D01*
X156852857Y-102177619D01*
X156519524Y-102082381D02*
X155900476Y-102082381D01*
X156233810Y-102463333D01*
X156090952Y-102463333D01*
X155995714Y-102510952D01*
X155948095Y-102558571D01*
X155900476Y-102653810D01*
X155900476Y-102891905D01*
X155948095Y-102987143D01*
X155995714Y-103034762D01*
X156090952Y-103082381D01*
X156376667Y-103082381D01*
X156471905Y-103034762D01*
X156519524Y-102987143D01*
X155424286Y-103082381D02*
X155233810Y-103082381D01*
X155138571Y-103034762D01*
X155090952Y-102987143D01*
X154995714Y-102844286D01*
X154948095Y-102653810D01*
X154948095Y-102272857D01*
X154995714Y-102177619D01*
X155043333Y-102130000D01*
X155138571Y-102082381D01*
X155329048Y-102082381D01*
X155424286Y-102130000D01*
X155471905Y-102177619D01*
X155519524Y-102272857D01*
X155519524Y-102510952D01*
X155471905Y-102606190D01*
X155424286Y-102653810D01*
X155329048Y-102701429D01*
X155138571Y-102701429D01*
X155043333Y-102653810D01*
X154995714Y-102606190D01*
X154948095Y-102510952D01*
X182252857Y-102987143D02*
X182300476Y-103034762D01*
X182443333Y-103082381D01*
X182538571Y-103082381D01*
X182681429Y-103034762D01*
X182776667Y-102939524D01*
X182824286Y-102844286D01*
X182871905Y-102653810D01*
X182871905Y-102510952D01*
X182824286Y-102320476D01*
X182776667Y-102225238D01*
X182681429Y-102130000D01*
X182538571Y-102082381D01*
X182443333Y-102082381D01*
X182300476Y-102130000D01*
X182252857Y-102177619D01*
X181395714Y-102415714D02*
X181395714Y-103082381D01*
X181633810Y-102034762D02*
X181871905Y-102749048D01*
X181252857Y-102749048D01*
X180681429Y-102082381D02*
X180586190Y-102082381D01*
X180490952Y-102130000D01*
X180443333Y-102177619D01*
X180395714Y-102272857D01*
X180348095Y-102463333D01*
X180348095Y-102701429D01*
X180395714Y-102891905D01*
X180443333Y-102987143D01*
X180490952Y-103034762D01*
X180586190Y-103082381D01*
X180681429Y-103082381D01*
X180776667Y-103034762D01*
X180824286Y-102987143D01*
X180871905Y-102891905D01*
X180919524Y-102701429D01*
X180919524Y-102463333D01*
X180871905Y-102272857D01*
X180824286Y-102177619D01*
X180776667Y-102130000D01*
X180681429Y-102082381D01*
X207652857Y-102987143D02*
X207700476Y-103034762D01*
X207843333Y-103082381D01*
X207938571Y-103082381D01*
X208081429Y-103034762D01*
X208176667Y-102939524D01*
X208224286Y-102844286D01*
X208271905Y-102653810D01*
X208271905Y-102510952D01*
X208224286Y-102320476D01*
X208176667Y-102225238D01*
X208081429Y-102130000D01*
X207938571Y-102082381D01*
X207843333Y-102082381D01*
X207700476Y-102130000D01*
X207652857Y-102177619D01*
X206795714Y-102415714D02*
X206795714Y-103082381D01*
X207033810Y-102034762D02*
X207271905Y-102749048D01*
X206652857Y-102749048D01*
X205748095Y-103082381D02*
X206319524Y-103082381D01*
X206033810Y-103082381D02*
X206033810Y-102082381D01*
X206129048Y-102225238D01*
X206224286Y-102320476D01*
X206319524Y-102368095D01*
X233052857Y-102987143D02*
X233100476Y-103034762D01*
X233243333Y-103082381D01*
X233338571Y-103082381D01*
X233481429Y-103034762D01*
X233576667Y-102939524D01*
X233624286Y-102844286D01*
X233671905Y-102653810D01*
X233671905Y-102510952D01*
X233624286Y-102320476D01*
X233576667Y-102225238D01*
X233481429Y-102130000D01*
X233338571Y-102082381D01*
X233243333Y-102082381D01*
X233100476Y-102130000D01*
X233052857Y-102177619D01*
X232195714Y-102415714D02*
X232195714Y-103082381D01*
X232433810Y-102034762D02*
X232671905Y-102749048D01*
X232052857Y-102749048D01*
X231767143Y-102082381D02*
X231148095Y-102082381D01*
X231481429Y-102463333D01*
X231338571Y-102463333D01*
X231243333Y-102510952D01*
X231195714Y-102558571D01*
X231148095Y-102653810D01*
X231148095Y-102891905D01*
X231195714Y-102987143D01*
X231243333Y-103034762D01*
X231338571Y-103082381D01*
X231624286Y-103082381D01*
X231719524Y-103034762D01*
X231767143Y-102987143D01*
X258452857Y-102987143D02*
X258500476Y-103034762D01*
X258643333Y-103082381D01*
X258738571Y-103082381D01*
X258881429Y-103034762D01*
X258976667Y-102939524D01*
X259024286Y-102844286D01*
X259071905Y-102653810D01*
X259071905Y-102510952D01*
X259024286Y-102320476D01*
X258976667Y-102225238D01*
X258881429Y-102130000D01*
X258738571Y-102082381D01*
X258643333Y-102082381D01*
X258500476Y-102130000D01*
X258452857Y-102177619D01*
X257595714Y-102415714D02*
X257595714Y-103082381D01*
X257833810Y-102034762D02*
X258071905Y-102749048D01*
X257452857Y-102749048D01*
X256643333Y-102415714D02*
X256643333Y-103082381D01*
X256881429Y-102034762D02*
X257119524Y-102749048D01*
X256500476Y-102749048D01*
X70016666Y-42507143D02*
X70064285Y-42554762D01*
X70207142Y-42602381D01*
X70302380Y-42602381D01*
X70445238Y-42554762D01*
X70540476Y-42459524D01*
X70588095Y-42364286D01*
X70635714Y-42173810D01*
X70635714Y-42030952D01*
X70588095Y-41840476D01*
X70540476Y-41745238D01*
X70445238Y-41650000D01*
X70302380Y-41602381D01*
X70207142Y-41602381D01*
X70064285Y-41650000D01*
X70016666Y-41697619D01*
X69159523Y-41935714D02*
X69159523Y-42602381D01*
X69397619Y-41554762D02*
X69635714Y-42269048D01*
X69016666Y-42269048D01*
M02*
