G04 #@! TF.FileFunction,Paste,Bot*
%FSLAX46Y46*%
G04 Gerber Fmt 4.6, Leading zero omitted, Abs format (unit mm)*
G04 Created by KiCad (PCBNEW 4.0.6) date 08/11/17 10:43:16*
%MOMM*%
%LPD*%
G01*
G04 APERTURE LIST*
%ADD10C,0.100000*%
%ADD11R,2.300000X3.500000*%
%ADD12R,3.500000X2.300000*%
%ADD13R,4.000000X2.500000*%
%ADD14R,3.000000X1.300000*%
%ADD15R,1.600000X2.000000*%
%ADD16R,2.000000X1.600000*%
%ADD17R,2.200000X6.350000*%
G04 APERTURE END LIST*
D10*
D11*
X27000000Y-67300000D03*
X27000000Y-72700000D03*
D12*
X40300000Y-109000000D03*
X45700000Y-109000000D03*
D11*
X52000000Y-67300000D03*
X52000000Y-72700000D03*
D12*
X65300000Y-109000000D03*
X70700000Y-109000000D03*
D11*
X77000000Y-67300000D03*
X77000000Y-72700000D03*
D12*
X90300000Y-109000000D03*
X95700000Y-109000000D03*
D11*
X102000000Y-67300000D03*
X102000000Y-72700000D03*
D12*
X115300000Y-109000000D03*
X120700000Y-109000000D03*
D11*
X127000000Y-67300000D03*
X127000000Y-72700000D03*
D12*
X141300000Y-109000000D03*
X146700000Y-109000000D03*
D11*
X157000000Y-67300000D03*
X157000000Y-72700000D03*
D12*
X170300000Y-109000000D03*
X175700000Y-109000000D03*
D11*
X182000000Y-67300000D03*
X182000000Y-72700000D03*
D12*
X195300000Y-109000000D03*
X200700000Y-109000000D03*
D11*
X207000000Y-66300000D03*
X207000000Y-71700000D03*
D12*
X220300000Y-109000000D03*
X225700000Y-109000000D03*
D11*
X232000000Y-66300000D03*
X232000000Y-71700000D03*
D12*
X245300000Y-109000000D03*
X250700000Y-109000000D03*
D11*
X257000000Y-67300000D03*
X257000000Y-72700000D03*
D12*
X271300000Y-109000000D03*
X276700000Y-109000000D03*
D13*
X27480000Y-118110000D03*
D14*
X32480000Y-118110000D03*
D13*
X28750000Y-50800000D03*
D14*
X33750000Y-50800000D03*
D13*
X279860000Y-50800000D03*
D14*
X274860000Y-50800000D03*
D13*
X279860000Y-118110000D03*
D14*
X274860000Y-118110000D03*
D10*
G36*
X144603223Y-122240990D02*
X146370990Y-120473223D01*
X149199417Y-123301650D01*
X147431650Y-125069417D01*
X144603223Y-122240990D01*
X144603223Y-122240990D01*
G37*
G36*
X141845506Y-118634745D02*
X142764745Y-117715506D01*
X144886066Y-119836827D01*
X143966827Y-120756066D01*
X141845506Y-118634745D01*
X141845506Y-118634745D01*
G37*
G36*
X160196777Y-46669010D02*
X158429010Y-48436777D01*
X155600583Y-45608350D01*
X157368350Y-43840583D01*
X160196777Y-46669010D01*
X160196777Y-46669010D01*
G37*
G36*
X162954494Y-50275255D02*
X162035255Y-51194494D01*
X159913934Y-49073173D01*
X160833173Y-48153934D01*
X162954494Y-50275255D01*
X162954494Y-50275255D01*
G37*
G36*
X148910990Y-48436777D02*
X147143223Y-46669010D01*
X149971650Y-43840583D01*
X151739417Y-45608350D01*
X148910990Y-48436777D01*
X148910990Y-48436777D01*
G37*
G36*
X145304745Y-51194494D02*
X144385506Y-50275255D01*
X146506827Y-48153934D01*
X147426066Y-49073173D01*
X145304745Y-51194494D01*
X145304745Y-51194494D01*
G37*
G36*
X158429010Y-120473223D02*
X160196777Y-122240990D01*
X157368350Y-125069417D01*
X155600583Y-123301650D01*
X158429010Y-120473223D01*
X158429010Y-120473223D01*
G37*
G36*
X162035255Y-117715506D02*
X162954494Y-118634745D01*
X160833173Y-120756066D01*
X159913934Y-119836827D01*
X162035255Y-117715506D01*
X162035255Y-117715506D01*
G37*
D15*
X31000000Y-74000000D03*
X31000000Y-70000000D03*
D16*
X69000000Y-105000000D03*
X65000000Y-105000000D03*
D15*
X81000000Y-74000000D03*
X81000000Y-70000000D03*
X106000000Y-74000000D03*
X106000000Y-70000000D03*
X131000000Y-74000000D03*
X131000000Y-70000000D03*
X161000000Y-74000000D03*
X161000000Y-70000000D03*
X186000000Y-74000000D03*
X186000000Y-70000000D03*
X211000000Y-74000000D03*
X211000000Y-70000000D03*
X236000000Y-74000000D03*
X236000000Y-70000000D03*
X261000000Y-74000000D03*
X261000000Y-70000000D03*
D16*
X41370000Y-50800000D03*
X37370000Y-50800000D03*
X44000000Y-105000000D03*
X40000000Y-105000000D03*
D15*
X56000000Y-74000000D03*
X56000000Y-70000000D03*
D16*
X94000000Y-105000000D03*
X90000000Y-105000000D03*
X119000000Y-105000000D03*
X115000000Y-105000000D03*
X145000000Y-105000000D03*
X141000000Y-105000000D03*
X174000000Y-105000000D03*
X170000000Y-105000000D03*
X199000000Y-105000000D03*
X195000000Y-105000000D03*
X224000000Y-105000000D03*
X220000000Y-105000000D03*
X249000000Y-105000000D03*
X245000000Y-105000000D03*
X275000000Y-105000000D03*
X271000000Y-105000000D03*
X71850000Y-44450000D03*
X67850000Y-44450000D03*
D17*
X30500000Y-87500000D03*
X34500000Y-87500000D03*
X41000000Y-78000000D03*
X37000000Y-78000000D03*
X55500000Y-87500000D03*
X59500000Y-87500000D03*
X67000000Y-78000000D03*
X63000000Y-78000000D03*
X80500000Y-87500000D03*
X84500000Y-87500000D03*
X92000000Y-78000000D03*
X88000000Y-78000000D03*
X105500000Y-87500000D03*
X109500000Y-87500000D03*
X118000000Y-78000000D03*
X114000000Y-78000000D03*
X130500000Y-87500000D03*
X134500000Y-87500000D03*
X143000000Y-78000000D03*
X139000000Y-78000000D03*
X160500000Y-87500000D03*
X164500000Y-87500000D03*
X171000000Y-78000000D03*
X167000000Y-78000000D03*
X185500000Y-87500000D03*
X189500000Y-87500000D03*
X196000000Y-78000000D03*
X192000000Y-78000000D03*
X210500000Y-87500000D03*
X214500000Y-87500000D03*
X222000000Y-78000000D03*
X218000000Y-78000000D03*
X235500000Y-87500000D03*
X239500000Y-87500000D03*
X247000000Y-78000000D03*
X243000000Y-78000000D03*
X260500000Y-87500000D03*
X264500000Y-87500000D03*
X272000000Y-78000000D03*
X268000000Y-78000000D03*
M02*
