M48
;DRILL file {KiCad 4.0.5} date 02/01/17 10:47:20
;FORMAT={-:-/ absolute / metric / decimal}
FMAT,2
METRIC,TZ
T1C0.400
T2C1.200
T3C1.300
T4C1.500
T5C1.600
T6C3.048
%
G90
G05
M71
T1
X22.5Y-50.
X22.5Y-60.
X22.5Y-70.
X22.5Y-80.
X22.5Y-90.
X22.5Y-100.
X22.5Y-110.
X22.5Y-120.
X26.67Y-39.37
X31.75Y-39.37
X35.Y-125.
X37.5Y-100.
X37.5Y-107.5
X45.Y-125.
X45.72Y-38.1
X47.5Y-62.5
X47.5Y-70.
X47.5Y-77.5
X50.8Y-44.45
X55.Y-125.
X55.88Y-38.1
X65.Y-100.
X65.Y-107.5
X65.Y-125.
X68.58Y-38.1
X72.5Y-62.5
X72.5Y-70.
X72.5Y-77.5
X75.Y-125.
X81.28Y-38.1
X85.Y-125.
X90.Y-100.
X90.Y-107.5
X93.98Y-38.1
X95.Y-125.
X97.5Y-62.5
X97.5Y-70.
X97.5Y-77.5
X105.Y-125.
X106.68Y-38.1
X115.Y-100.
X115.Y-107.5
X115.Y-125.
X119.38Y-38.1
X122.5Y-62.5
X122.5Y-70.
X122.5Y-77.5
X125.Y-125.
X129.54Y-38.1
X140.Y-40.
X140.Y-100.
X140.Y-105.
X145.Y-125.
X150.Y-40.
X150.Y-62.5
X150.Y-70.
X150.Y-77.5
X155.Y-125.
X160.Y-40.
X165.Y-125.
X167.5Y-100.
X167.5Y-107.5
X177.5Y-62.5
X177.5Y-70.
X177.5Y-77.5
X180.Y-40.
X180.Y-125.
X190.Y-40.
X190.Y-125.
X195.Y-100.
X195.Y-107.5
X200.Y-40.
X200.Y-125.
X202.5Y-62.5
X202.5Y-70.
X202.5Y-77.5
X210.Y-40.
X210.Y-125.
X220.Y-40.
X220.Y-100.
X220.Y-107.5
X220.Y-125.
X227.5Y-62.5
X227.5Y-70.
X227.5Y-77.5
X230.Y-40.
X230.Y-125.
X240.Y-40.
X240.Y-125.
X245.Y-100.
X245.Y-107.5
X250.Y-40.
X250.Y-125.
X252.5Y-62.5
X252.5Y-70.
X252.5Y-77.5
X260.Y-40.
X260.Y-125.
X270.Y-40.
X270.Y-100.
X270.Y-107.5
X270.Y-125.
X277.5Y-62.5
X277.5Y-70.
X277.5Y-77.5
X280.Y-45.
X280.Y-55.
X280.Y-65.
X280.Y-75.
X280.Y-85.
X280.Y-95.
X280.Y-105.
X280.Y-115.
T2
X64.77Y-44.45
X77.47Y-44.45
X92.71Y-43.18
X95.25Y-43.18
X97.79Y-43.18
X100.33Y-43.18
X102.87Y-43.18
X105.41Y-43.18
X107.95Y-43.18
X110.49Y-43.18
X200.66Y-43.18
X203.2Y-43.18
X205.74Y-43.18
X208.28Y-43.18
X210.82Y-43.18
T3
X34.87Y-73.66
X34.87Y-93.98
X38.68Y-118.11
X43.87Y-73.66
X43.87Y-93.98
X47.68Y-118.11
X60.27Y-73.66
X60.27Y-93.98
X69.27Y-73.66
X69.27Y-93.98
X85.67Y-73.66
X85.67Y-93.98
X94.67Y-73.66
X94.67Y-93.98
X111.07Y-73.66
X111.07Y-93.98
X120.07Y-73.66
X120.07Y-93.98
X136.47Y-73.66
X136.47Y-93.98
X145.47Y-73.66
X145.47Y-93.98
X164.41Y-73.66
X164.41Y-93.98
X173.41Y-73.66
X173.41Y-93.98
X189.81Y-73.66
X189.81Y-93.98
X198.81Y-73.66
X198.81Y-93.98
X215.21Y-73.66
X215.21Y-93.98
X224.21Y-73.66
X224.21Y-93.98
X240.61Y-73.66
X240.61Y-93.98
X249.61Y-73.66
X249.61Y-93.98
X266.01Y-73.66
X266.01Y-93.98
X275.01Y-73.66
X275.01Y-93.98
T4
X29.4Y-60.96
X29.4Y-106.68
X31.4Y-54.96
X31.4Y-66.96
X31.4Y-100.68
X31.4Y-112.68
X43.6Y-54.96
X43.6Y-66.96
X43.6Y-100.68
X43.6Y-112.68
X54.8Y-60.96
X54.8Y-106.68
X56.8Y-54.96
X56.8Y-66.96
X56.8Y-100.68
X56.8Y-112.68
X69.Y-54.96
X69.Y-66.96
X69.Y-100.68
X69.Y-112.68
X80.2Y-60.96
X80.2Y-106.68
X82.2Y-54.96
X82.2Y-66.96
X82.2Y-100.68
X82.2Y-112.68
X94.4Y-54.96
X94.4Y-66.96
X94.4Y-100.68
X94.4Y-112.68
X105.6Y-60.96
X105.6Y-106.68
X107.6Y-54.96
X107.6Y-66.96
X107.6Y-100.68
X107.6Y-112.68
X119.8Y-54.96
X119.8Y-66.96
X119.8Y-100.68
X119.8Y-112.68
X131.Y-60.96
X131.Y-106.68
X133.Y-54.96
X133.Y-66.96
X133.Y-100.68
X133.Y-112.68
X145.2Y-54.96
X145.2Y-66.96
X145.2Y-100.68
X145.2Y-112.68
X158.94Y-60.96
X158.94Y-106.68
X160.94Y-54.96
X160.94Y-66.96
X160.94Y-100.68
X160.94Y-112.68
X173.14Y-54.96
X173.14Y-66.96
X173.14Y-100.68
X173.14Y-112.68
X184.34Y-60.96
X184.34Y-106.68
X186.34Y-54.96
X186.34Y-66.96
X186.34Y-100.68
X186.34Y-112.68
X198.54Y-54.96
X198.54Y-66.96
X198.54Y-100.68
X198.54Y-112.68
X209.74Y-60.96
X209.74Y-106.68
X211.74Y-54.96
X211.74Y-66.96
X211.74Y-100.68
X211.74Y-112.68
X223.94Y-54.96
X223.94Y-66.96
X223.94Y-100.68
X223.94Y-112.68
X235.14Y-60.96
X235.14Y-106.68
X237.14Y-54.96
X237.14Y-66.96
X237.14Y-100.68
X237.14Y-112.68
X249.34Y-54.96
X249.34Y-66.96
X249.34Y-100.68
X249.34Y-112.68
X260.54Y-60.96
X260.54Y-106.68
X262.54Y-54.96
X262.54Y-66.96
X262.54Y-100.68
X262.54Y-112.68
X274.74Y-54.96
X274.74Y-66.96
X274.74Y-100.68
X274.74Y-112.68
T5
X31.1Y-79.82
X45.1Y-87.82
X56.5Y-79.82
X70.5Y-87.82
X81.9Y-79.82
X95.9Y-87.82
X107.3Y-79.82
X121.3Y-87.82
X132.7Y-79.82
X146.7Y-87.82
X160.64Y-79.82
X174.64Y-87.82
X186.04Y-79.82
X200.04Y-87.82
X211.44Y-79.82
X225.44Y-87.82
X236.84Y-79.82
X250.84Y-87.82
X262.24Y-79.82
X276.24Y-87.82
T6
X38.1Y-39.37
X38.1Y-124.46
X134.62Y-39.37
X134.62Y-124.46
X170.18Y-39.37
X170.18Y-124.46
X266.7Y-39.37
X266.7Y-124.46
T0
M30
