G04 #@! TF.FileFunction,Legend,Top*
%FSLAX46Y46*%
G04 Gerber Fmt 4.6, Leading zero omitted, Abs format (unit mm)*
G04 Created by KiCad (PCBNEW 4.0.6) date 08/11/17 10:43:16*
%MOMM*%
%LPD*%
G01*
G04 APERTURE LIST*
%ADD10C,0.100000*%
%ADD11C,0.300000*%
%ADD12C,1.000000*%
%ADD13C,0.120000*%
%ADD14C,0.600000*%
%ADD15C,0.254000*%
%ADD16C,0.150000*%
%ADD17C,0.304800*%
G04 APERTURE END LIST*
D10*
D11*
X59642857Y-123678571D02*
X59642857Y-122178571D01*
X60000000Y-122178571D01*
X60214285Y-122250000D01*
X60357143Y-122392857D01*
X60428571Y-122535714D01*
X60500000Y-122821429D01*
X60500000Y-123035714D01*
X60428571Y-123321429D01*
X60357143Y-123464286D01*
X60214285Y-123607143D01*
X60000000Y-123678571D01*
X59642857Y-123678571D01*
X61714285Y-123607143D02*
X61571428Y-123678571D01*
X61285714Y-123678571D01*
X61142857Y-123607143D01*
X61071428Y-123464286D01*
X61071428Y-122892857D01*
X61142857Y-122750000D01*
X61285714Y-122678571D01*
X61571428Y-122678571D01*
X61714285Y-122750000D01*
X61785714Y-122892857D01*
X61785714Y-123035714D01*
X61071428Y-123178571D01*
X62357142Y-123607143D02*
X62499999Y-123678571D01*
X62785714Y-123678571D01*
X62928571Y-123607143D01*
X62999999Y-123464286D01*
X62999999Y-123392857D01*
X62928571Y-123250000D01*
X62785714Y-123178571D01*
X62571428Y-123178571D01*
X62428571Y-123107143D01*
X62357142Y-122964286D01*
X62357142Y-122892857D01*
X62428571Y-122750000D01*
X62571428Y-122678571D01*
X62785714Y-122678571D01*
X62928571Y-122750000D01*
X63642857Y-123678571D02*
X63642857Y-122678571D01*
X63642857Y-122178571D02*
X63571428Y-122250000D01*
X63642857Y-122321429D01*
X63714285Y-122250000D01*
X63642857Y-122178571D01*
X63642857Y-122321429D01*
X65000000Y-122678571D02*
X65000000Y-123892857D01*
X64928571Y-124035714D01*
X64857143Y-124107143D01*
X64714286Y-124178571D01*
X64500000Y-124178571D01*
X64357143Y-124107143D01*
X65000000Y-123607143D02*
X64857143Y-123678571D01*
X64571429Y-123678571D01*
X64428571Y-123607143D01*
X64357143Y-123535714D01*
X64285714Y-123392857D01*
X64285714Y-122964286D01*
X64357143Y-122821429D01*
X64428571Y-122750000D01*
X64571429Y-122678571D01*
X64857143Y-122678571D01*
X65000000Y-122750000D01*
X65714286Y-122678571D02*
X65714286Y-123678571D01*
X65714286Y-122821429D02*
X65785714Y-122750000D01*
X65928572Y-122678571D01*
X66142857Y-122678571D01*
X66285714Y-122750000D01*
X66357143Y-122892857D01*
X66357143Y-123678571D01*
X68000000Y-122678571D02*
X68571429Y-122678571D01*
X68214286Y-123678571D02*
X68214286Y-122392857D01*
X68285714Y-122250000D01*
X68428572Y-122178571D01*
X68571429Y-122178571D01*
X69714286Y-122178571D02*
X69428572Y-122178571D01*
X69285715Y-122250000D01*
X69214286Y-122321429D01*
X69071429Y-122535714D01*
X69000000Y-122821429D01*
X69000000Y-123392857D01*
X69071429Y-123535714D01*
X69142857Y-123607143D01*
X69285715Y-123678571D01*
X69571429Y-123678571D01*
X69714286Y-123607143D01*
X69785715Y-123535714D01*
X69857143Y-123392857D01*
X69857143Y-123035714D01*
X69785715Y-122892857D01*
X69714286Y-122821429D01*
X69571429Y-122750000D01*
X69285715Y-122750000D01*
X69142857Y-122821429D01*
X69071429Y-122892857D01*
X69000000Y-123035714D01*
X70500000Y-123678571D02*
X70500000Y-122678571D01*
X70500000Y-122178571D02*
X70428571Y-122250000D01*
X70500000Y-122321429D01*
X70571428Y-122250000D01*
X70500000Y-122178571D01*
X70500000Y-122321429D01*
X71000000Y-122678571D02*
X71571429Y-122678571D01*
X71214286Y-122178571D02*
X71214286Y-123464286D01*
X71285714Y-123607143D01*
X71428572Y-123678571D01*
X71571429Y-123678571D01*
X72714286Y-122678571D02*
X72714286Y-123678571D01*
X72071429Y-122678571D02*
X72071429Y-123464286D01*
X72142857Y-123607143D01*
X72285715Y-123678571D01*
X72500000Y-123678571D01*
X72642857Y-123607143D01*
X72714286Y-123535714D01*
X74500000Y-122107143D02*
X73214286Y-124035714D01*
X74785715Y-122678571D02*
X75357144Y-122678571D01*
X75000001Y-123678571D02*
X75000001Y-122392857D01*
X75071429Y-122250000D01*
X75214287Y-122178571D01*
X75357144Y-122178571D01*
X76642858Y-123678571D02*
X75785715Y-123678571D01*
X76214287Y-123678571D02*
X76214287Y-122178571D01*
X76071430Y-122392857D01*
X75928572Y-122535714D01*
X75785715Y-122607143D01*
X77071429Y-122678571D02*
X77642858Y-122678571D01*
X77285715Y-123678571D02*
X77285715Y-122392857D01*
X77357143Y-122250000D01*
X77500001Y-122178571D01*
X77642858Y-122178571D01*
X78357144Y-123678571D02*
X78214286Y-123607143D01*
X78142858Y-123464286D01*
X78142858Y-122178571D01*
X78785715Y-122678571D02*
X79142858Y-123678571D01*
X79500000Y-122678571D02*
X79142858Y-123678571D01*
X79000000Y-124035714D01*
X78928572Y-124107143D01*
X78785715Y-124178571D01*
D12*
X232000000Y-109500000D02*
X231000000Y-109500000D01*
X232000000Y-105500000D02*
X231000000Y-105500000D01*
X232000000Y-105500000D02*
X232000000Y-109500000D01*
X254000000Y-99000000D02*
X231000000Y-99000000D01*
X231000000Y-99000000D02*
X231000000Y-116000000D01*
X231000000Y-116000000D02*
X254000000Y-116000000D01*
X254000000Y-116000000D02*
X254000000Y-99000000D01*
X157500000Y-63000000D02*
X156500000Y-63000000D01*
X157500000Y-59000000D02*
X156500000Y-59000000D01*
X157500000Y-59000000D02*
X157500000Y-63000000D01*
X179500000Y-52500000D02*
X156500000Y-52500000D01*
X156500000Y-52500000D02*
X156500000Y-69500000D01*
X156500000Y-69500000D02*
X179500000Y-69500000D01*
X179500000Y-69500000D02*
X179500000Y-52500000D01*
D13*
X40386000Y-39370000D02*
G75*
G03X40386000Y-39370000I-2286000J0D01*
G01*
X40386000Y-124460000D02*
G75*
G03X40386000Y-124460000I-2286000J0D01*
G01*
X268986000Y-39370000D02*
G75*
G03X268986000Y-39370000I-2286000J0D01*
G01*
X268986000Y-124460000D02*
G75*
G03X268986000Y-124460000I-2286000J0D01*
G01*
X136906000Y-124460000D02*
G75*
G03X136906000Y-124460000I-2286000J0D01*
G01*
X136906000Y-39370000D02*
G75*
G03X136906000Y-39370000I-2286000J0D01*
G01*
X172466000Y-39370000D02*
G75*
G03X172466000Y-39370000I-2286000J0D01*
G01*
X172466000Y-124460000D02*
G75*
G03X172466000Y-124460000I-2286000J0D01*
G01*
D14*
X45100000Y-89820000D02*
X48100000Y-82820000D01*
X46100000Y-77820000D02*
X42100000Y-89820000D01*
X43100000Y-77820000D02*
X39100000Y-89820000D01*
X31100000Y-77820000D02*
X28100000Y-85820000D01*
X34100000Y-77820000D02*
X30100000Y-89820000D01*
X37100000Y-77820000D02*
X33100000Y-89820000D01*
X40100000Y-77820000D02*
X36100000Y-89820000D01*
D10*
X48100000Y-89820000D02*
X28100000Y-89820000D01*
X28100000Y-89820000D02*
X28100000Y-77820000D01*
X48100000Y-77820000D02*
X48100000Y-89820000D01*
X28100000Y-77820000D02*
X48100000Y-77820000D01*
D14*
X70500000Y-89820000D02*
X73500000Y-82820000D01*
X71500000Y-77820000D02*
X67500000Y-89820000D01*
X68500000Y-77820000D02*
X64500000Y-89820000D01*
X56500000Y-77820000D02*
X53500000Y-85820000D01*
X59500000Y-77820000D02*
X55500000Y-89820000D01*
X62500000Y-77820000D02*
X58500000Y-89820000D01*
X65500000Y-77820000D02*
X61500000Y-89820000D01*
D10*
X73500000Y-89820000D02*
X53500000Y-89820000D01*
X53500000Y-89820000D02*
X53500000Y-77820000D01*
X73500000Y-77820000D02*
X73500000Y-89820000D01*
X53500000Y-77820000D02*
X73500000Y-77820000D01*
D14*
X95900000Y-89820000D02*
X98900000Y-82820000D01*
X96900000Y-77820000D02*
X92900000Y-89820000D01*
X93900000Y-77820000D02*
X89900000Y-89820000D01*
X81900000Y-77820000D02*
X78900000Y-85820000D01*
X84900000Y-77820000D02*
X80900000Y-89820000D01*
X87900000Y-77820000D02*
X83900000Y-89820000D01*
X90900000Y-77820000D02*
X86900000Y-89820000D01*
D10*
X98900000Y-89820000D02*
X78900000Y-89820000D01*
X78900000Y-89820000D02*
X78900000Y-77820000D01*
X98900000Y-77820000D02*
X98900000Y-89820000D01*
X78900000Y-77820000D02*
X98900000Y-77820000D01*
D14*
X121300000Y-89820000D02*
X124300000Y-82820000D01*
X122300000Y-77820000D02*
X118300000Y-89820000D01*
X119300000Y-77820000D02*
X115300000Y-89820000D01*
X107300000Y-77820000D02*
X104300000Y-85820000D01*
X110300000Y-77820000D02*
X106300000Y-89820000D01*
X113300000Y-77820000D02*
X109300000Y-89820000D01*
X116300000Y-77820000D02*
X112300000Y-89820000D01*
D10*
X124300000Y-89820000D02*
X104300000Y-89820000D01*
X104300000Y-89820000D02*
X104300000Y-77820000D01*
X124300000Y-77820000D02*
X124300000Y-89820000D01*
X104300000Y-77820000D02*
X124300000Y-77820000D01*
D14*
X146700000Y-89820000D02*
X149700000Y-82820000D01*
X147700000Y-77820000D02*
X143700000Y-89820000D01*
X144700000Y-77820000D02*
X140700000Y-89820000D01*
X132700000Y-77820000D02*
X129700000Y-85820000D01*
X135700000Y-77820000D02*
X131700000Y-89820000D01*
X138700000Y-77820000D02*
X134700000Y-89820000D01*
X141700000Y-77820000D02*
X137700000Y-89820000D01*
D10*
X149700000Y-89820000D02*
X129700000Y-89820000D01*
X129700000Y-89820000D02*
X129700000Y-77820000D01*
X149700000Y-77820000D02*
X149700000Y-89820000D01*
X129700000Y-77820000D02*
X149700000Y-77820000D01*
D14*
X174640000Y-89820000D02*
X177640000Y-82820000D01*
X175640000Y-77820000D02*
X171640000Y-89820000D01*
X172640000Y-77820000D02*
X168640000Y-89820000D01*
X160640000Y-77820000D02*
X157640000Y-85820000D01*
X163640000Y-77820000D02*
X159640000Y-89820000D01*
X166640000Y-77820000D02*
X162640000Y-89820000D01*
X169640000Y-77820000D02*
X165640000Y-89820000D01*
D10*
X177640000Y-89820000D02*
X157640000Y-89820000D01*
X157640000Y-89820000D02*
X157640000Y-77820000D01*
X177640000Y-77820000D02*
X177640000Y-89820000D01*
X157640000Y-77820000D02*
X177640000Y-77820000D01*
D14*
X200040000Y-89820000D02*
X203040000Y-82820000D01*
X201040000Y-77820000D02*
X197040000Y-89820000D01*
X198040000Y-77820000D02*
X194040000Y-89820000D01*
X186040000Y-77820000D02*
X183040000Y-85820000D01*
X189040000Y-77820000D02*
X185040000Y-89820000D01*
X192040000Y-77820000D02*
X188040000Y-89820000D01*
X195040000Y-77820000D02*
X191040000Y-89820000D01*
D10*
X203040000Y-89820000D02*
X183040000Y-89820000D01*
X183040000Y-89820000D02*
X183040000Y-77820000D01*
X203040000Y-77820000D02*
X203040000Y-89820000D01*
X183040000Y-77820000D02*
X203040000Y-77820000D01*
D14*
X225440000Y-89820000D02*
X228440000Y-82820000D01*
X226440000Y-77820000D02*
X222440000Y-89820000D01*
X223440000Y-77820000D02*
X219440000Y-89820000D01*
X211440000Y-77820000D02*
X208440000Y-85820000D01*
X214440000Y-77820000D02*
X210440000Y-89820000D01*
X217440000Y-77820000D02*
X213440000Y-89820000D01*
X220440000Y-77820000D02*
X216440000Y-89820000D01*
D10*
X228440000Y-89820000D02*
X208440000Y-89820000D01*
X208440000Y-89820000D02*
X208440000Y-77820000D01*
X228440000Y-77820000D02*
X228440000Y-89820000D01*
X208440000Y-77820000D02*
X228440000Y-77820000D01*
D14*
X250840000Y-89820000D02*
X253840000Y-82820000D01*
X251840000Y-77820000D02*
X247840000Y-89820000D01*
X248840000Y-77820000D02*
X244840000Y-89820000D01*
X236840000Y-77820000D02*
X233840000Y-85820000D01*
X239840000Y-77820000D02*
X235840000Y-89820000D01*
X242840000Y-77820000D02*
X238840000Y-89820000D01*
X245840000Y-77820000D02*
X241840000Y-89820000D01*
D10*
X253840000Y-89820000D02*
X233840000Y-89820000D01*
X233840000Y-89820000D02*
X233840000Y-77820000D01*
X253840000Y-77820000D02*
X253840000Y-89820000D01*
X233840000Y-77820000D02*
X253840000Y-77820000D01*
D14*
X276240000Y-89820000D02*
X279240000Y-82820000D01*
X277240000Y-77820000D02*
X273240000Y-89820000D01*
X274240000Y-77820000D02*
X270240000Y-89820000D01*
X262240000Y-77820000D02*
X259240000Y-85820000D01*
X265240000Y-77820000D02*
X261240000Y-89820000D01*
X268240000Y-77820000D02*
X264240000Y-89820000D01*
X271240000Y-77820000D02*
X267240000Y-89820000D01*
D10*
X279240000Y-89820000D02*
X259240000Y-89820000D01*
X259240000Y-89820000D02*
X259240000Y-77820000D01*
X279240000Y-77820000D02*
X279240000Y-89820000D01*
X259240000Y-77820000D02*
X279240000Y-77820000D01*
X56500000Y-121500000D02*
X56500000Y-124500000D01*
X51500000Y-121500000D02*
X51500000Y-124000000D01*
X51500000Y-124000000D02*
X51500000Y-124500000D01*
X53000000Y-125500000D02*
X50500000Y-123500000D01*
X50500000Y-123500000D02*
X50500000Y-122500000D01*
X50500000Y-122500000D02*
X53000000Y-120500000D01*
X53000000Y-120500000D02*
X55000000Y-120500000D01*
X55000000Y-120500000D02*
X57500000Y-122500000D01*
X57500000Y-122500000D02*
X57500000Y-123500000D01*
X57500000Y-123500000D02*
X55000000Y-125500000D01*
X55000000Y-125500000D02*
X53000000Y-125500000D01*
X56236068Y-123000000D02*
G75*
G03X56236068Y-123000000I-2236068J0D01*
G01*
X55285000Y-45950000D02*
X55285000Y-42950000D01*
X60285000Y-45950000D02*
X60285000Y-43450000D01*
X60285000Y-43450000D02*
X60285000Y-42950000D01*
X58785000Y-41950000D02*
X61285000Y-43950000D01*
X61285000Y-43950000D02*
X61285000Y-44950000D01*
X61285000Y-44950000D02*
X58785000Y-46950000D01*
X58785000Y-46950000D02*
X56785000Y-46950000D01*
X56785000Y-46950000D02*
X54285000Y-44950000D01*
X54285000Y-44950000D02*
X54285000Y-43950000D01*
X54285000Y-43950000D02*
X56785000Y-41950000D01*
X56785000Y-41950000D02*
X58785000Y-41950000D01*
X60021068Y-44450000D02*
G75*
G03X60021068Y-44450000I-2236068J0D01*
G01*
D12*
X44180000Y-117110000D02*
X42180000Y-117110000D01*
X44180000Y-119110000D02*
X42180000Y-119110000D01*
X44180000Y-118110000D02*
X42180000Y-118110000D01*
X43180000Y-119110000D02*
X43180000Y-117110000D01*
X50180000Y-118110000D02*
G75*
G03X50180000Y-118110000I-3000000J0D01*
G01*
X42180000Y-118110000D02*
G75*
G03X42180000Y-118110000I-3000000J0D01*
G01*
X41180000Y-116110000D02*
G75*
G03X45180000Y-116110000I2000000J2000000D01*
G01*
X45180000Y-120110000D02*
G75*
G03X41180000Y-120110000I-2000000J-2000000D01*
G01*
X38370000Y-94980000D02*
X40370000Y-94980000D01*
X38370000Y-92980000D02*
X40370000Y-92980000D01*
X38370000Y-93980000D02*
X40370000Y-93980000D01*
X39370000Y-92980000D02*
X39370000Y-94980000D01*
X38370000Y-93980000D02*
G75*
G03X38370000Y-93980000I-3000000J0D01*
G01*
X46370000Y-93980000D02*
G75*
G03X46370000Y-93980000I-3000000J0D01*
G01*
X41370000Y-95980000D02*
G75*
G03X37370000Y-95980000I-2000000J-2000000D01*
G01*
X37370000Y-91980000D02*
G75*
G03X41370000Y-91980000I2000000J2000000D01*
G01*
X38370000Y-74660000D02*
X40370000Y-74660000D01*
X38370000Y-72660000D02*
X40370000Y-72660000D01*
X38370000Y-73660000D02*
X40370000Y-73660000D01*
X39370000Y-72660000D02*
X39370000Y-74660000D01*
X38370000Y-73660000D02*
G75*
G03X38370000Y-73660000I-3000000J0D01*
G01*
X46370000Y-73660000D02*
G75*
G03X46370000Y-73660000I-3000000J0D01*
G01*
X41370000Y-75660000D02*
G75*
G03X37370000Y-75660000I-2000000J-2000000D01*
G01*
X37370000Y-71660000D02*
G75*
G03X41370000Y-71660000I2000000J2000000D01*
G01*
X63770000Y-94980000D02*
X65770000Y-94980000D01*
X63770000Y-92980000D02*
X65770000Y-92980000D01*
X63770000Y-93980000D02*
X65770000Y-93980000D01*
X64770000Y-92980000D02*
X64770000Y-94980000D01*
X63770000Y-93980000D02*
G75*
G03X63770000Y-93980000I-3000000J0D01*
G01*
X71770000Y-93980000D02*
G75*
G03X71770000Y-93980000I-3000000J0D01*
G01*
X66770000Y-95980000D02*
G75*
G03X62770000Y-95980000I-2000000J-2000000D01*
G01*
X62770000Y-91980000D02*
G75*
G03X66770000Y-91980000I2000000J2000000D01*
G01*
X63770000Y-74660000D02*
X65770000Y-74660000D01*
X63770000Y-72660000D02*
X65770000Y-72660000D01*
X63770000Y-73660000D02*
X65770000Y-73660000D01*
X64770000Y-72660000D02*
X64770000Y-74660000D01*
X63770000Y-73660000D02*
G75*
G03X63770000Y-73660000I-3000000J0D01*
G01*
X71770000Y-73660000D02*
G75*
G03X71770000Y-73660000I-3000000J0D01*
G01*
X66770000Y-75660000D02*
G75*
G03X62770000Y-75660000I-2000000J-2000000D01*
G01*
X62770000Y-71660000D02*
G75*
G03X66770000Y-71660000I2000000J2000000D01*
G01*
X89170000Y-94980000D02*
X91170000Y-94980000D01*
X89170000Y-92980000D02*
X91170000Y-92980000D01*
X89170000Y-93980000D02*
X91170000Y-93980000D01*
X90170000Y-92980000D02*
X90170000Y-94980000D01*
X89170000Y-93980000D02*
G75*
G03X89170000Y-93980000I-3000000J0D01*
G01*
X97170000Y-93980000D02*
G75*
G03X97170000Y-93980000I-3000000J0D01*
G01*
X92170000Y-95980000D02*
G75*
G03X88170000Y-95980000I-2000000J-2000000D01*
G01*
X88170000Y-91980000D02*
G75*
G03X92170000Y-91980000I2000000J2000000D01*
G01*
X89170000Y-74660000D02*
X91170000Y-74660000D01*
X89170000Y-72660000D02*
X91170000Y-72660000D01*
X89170000Y-73660000D02*
X91170000Y-73660000D01*
X90170000Y-72660000D02*
X90170000Y-74660000D01*
X89170000Y-73660000D02*
G75*
G03X89170000Y-73660000I-3000000J0D01*
G01*
X97170000Y-73660000D02*
G75*
G03X97170000Y-73660000I-3000000J0D01*
G01*
X92170000Y-75660000D02*
G75*
G03X88170000Y-75660000I-2000000J-2000000D01*
G01*
X88170000Y-71660000D02*
G75*
G03X92170000Y-71660000I2000000J2000000D01*
G01*
X114570000Y-94980000D02*
X116570000Y-94980000D01*
X114570000Y-92980000D02*
X116570000Y-92980000D01*
X114570000Y-93980000D02*
X116570000Y-93980000D01*
X115570000Y-92980000D02*
X115570000Y-94980000D01*
X114570000Y-93980000D02*
G75*
G03X114570000Y-93980000I-3000000J0D01*
G01*
X122570000Y-93980000D02*
G75*
G03X122570000Y-93980000I-3000000J0D01*
G01*
X117570000Y-95980000D02*
G75*
G03X113570000Y-95980000I-2000000J-2000000D01*
G01*
X113570000Y-91980000D02*
G75*
G03X117570000Y-91980000I2000000J2000000D01*
G01*
X114570000Y-74660000D02*
X116570000Y-74660000D01*
X114570000Y-72660000D02*
X116570000Y-72660000D01*
X114570000Y-73660000D02*
X116570000Y-73660000D01*
X115570000Y-72660000D02*
X115570000Y-74660000D01*
X114570000Y-73660000D02*
G75*
G03X114570000Y-73660000I-3000000J0D01*
G01*
X122570000Y-73660000D02*
G75*
G03X122570000Y-73660000I-3000000J0D01*
G01*
X117570000Y-75660000D02*
G75*
G03X113570000Y-75660000I-2000000J-2000000D01*
G01*
X113570000Y-71660000D02*
G75*
G03X117570000Y-71660000I2000000J2000000D01*
G01*
X139970000Y-94980000D02*
X141970000Y-94980000D01*
X139970000Y-92980000D02*
X141970000Y-92980000D01*
X139970000Y-93980000D02*
X141970000Y-93980000D01*
X140970000Y-92980000D02*
X140970000Y-94980000D01*
X139970000Y-93980000D02*
G75*
G03X139970000Y-93980000I-3000000J0D01*
G01*
X147970000Y-93980000D02*
G75*
G03X147970000Y-93980000I-3000000J0D01*
G01*
X142970000Y-95980000D02*
G75*
G03X138970000Y-95980000I-2000000J-2000000D01*
G01*
X138970000Y-91980000D02*
G75*
G03X142970000Y-91980000I2000000J2000000D01*
G01*
X139970000Y-74660000D02*
X141970000Y-74660000D01*
X139970000Y-72660000D02*
X141970000Y-72660000D01*
X139970000Y-73660000D02*
X141970000Y-73660000D01*
X140970000Y-72660000D02*
X140970000Y-74660000D01*
X139970000Y-73660000D02*
G75*
G03X139970000Y-73660000I-3000000J0D01*
G01*
X147970000Y-73660000D02*
G75*
G03X147970000Y-73660000I-3000000J0D01*
G01*
X142970000Y-75660000D02*
G75*
G03X138970000Y-75660000I-2000000J-2000000D01*
G01*
X138970000Y-71660000D02*
G75*
G03X142970000Y-71660000I2000000J2000000D01*
G01*
X167910000Y-94980000D02*
X169910000Y-94980000D01*
X167910000Y-92980000D02*
X169910000Y-92980000D01*
X167910000Y-93980000D02*
X169910000Y-93980000D01*
X168910000Y-92980000D02*
X168910000Y-94980000D01*
X167910000Y-93980000D02*
G75*
G03X167910000Y-93980000I-3000000J0D01*
G01*
X175910000Y-93980000D02*
G75*
G03X175910000Y-93980000I-3000000J0D01*
G01*
X170910000Y-95980000D02*
G75*
G03X166910000Y-95980000I-2000000J-2000000D01*
G01*
X166910000Y-91980000D02*
G75*
G03X170910000Y-91980000I2000000J2000000D01*
G01*
X167910000Y-74660000D02*
X169910000Y-74660000D01*
X167910000Y-72660000D02*
X169910000Y-72660000D01*
X167910000Y-73660000D02*
X169910000Y-73660000D01*
X168910000Y-72660000D02*
X168910000Y-74660000D01*
X167910000Y-73660000D02*
G75*
G03X167910000Y-73660000I-3000000J0D01*
G01*
X175910000Y-73660000D02*
G75*
G03X175910000Y-73660000I-3000000J0D01*
G01*
X170910000Y-75660000D02*
G75*
G03X166910000Y-75660000I-2000000J-2000000D01*
G01*
X166910000Y-71660000D02*
G75*
G03X170910000Y-71660000I2000000J2000000D01*
G01*
X193310000Y-94980000D02*
X195310000Y-94980000D01*
X193310000Y-92980000D02*
X195310000Y-92980000D01*
X193310000Y-93980000D02*
X195310000Y-93980000D01*
X194310000Y-92980000D02*
X194310000Y-94980000D01*
X193310000Y-93980000D02*
G75*
G03X193310000Y-93980000I-3000000J0D01*
G01*
X201310000Y-93980000D02*
G75*
G03X201310000Y-93980000I-3000000J0D01*
G01*
X196310000Y-95980000D02*
G75*
G03X192310000Y-95980000I-2000000J-2000000D01*
G01*
X192310000Y-91980000D02*
G75*
G03X196310000Y-91980000I2000000J2000000D01*
G01*
X193310000Y-74660000D02*
X195310000Y-74660000D01*
X193310000Y-72660000D02*
X195310000Y-72660000D01*
X193310000Y-73660000D02*
X195310000Y-73660000D01*
X194310000Y-72660000D02*
X194310000Y-74660000D01*
X193310000Y-73660000D02*
G75*
G03X193310000Y-73660000I-3000000J0D01*
G01*
X201310000Y-73660000D02*
G75*
G03X201310000Y-73660000I-3000000J0D01*
G01*
X196310000Y-75660000D02*
G75*
G03X192310000Y-75660000I-2000000J-2000000D01*
G01*
X192310000Y-71660000D02*
G75*
G03X196310000Y-71660000I2000000J2000000D01*
G01*
X218710000Y-94980000D02*
X220710000Y-94980000D01*
X218710000Y-92980000D02*
X220710000Y-92980000D01*
X218710000Y-93980000D02*
X220710000Y-93980000D01*
X219710000Y-92980000D02*
X219710000Y-94980000D01*
X218710000Y-93980000D02*
G75*
G03X218710000Y-93980000I-3000000J0D01*
G01*
X226710000Y-93980000D02*
G75*
G03X226710000Y-93980000I-3000000J0D01*
G01*
X221710000Y-95980000D02*
G75*
G03X217710000Y-95980000I-2000000J-2000000D01*
G01*
X217710000Y-91980000D02*
G75*
G03X221710000Y-91980000I2000000J2000000D01*
G01*
X218710000Y-74660000D02*
X220710000Y-74660000D01*
X218710000Y-72660000D02*
X220710000Y-72660000D01*
X218710000Y-73660000D02*
X220710000Y-73660000D01*
X219710000Y-72660000D02*
X219710000Y-74660000D01*
X218710000Y-73660000D02*
G75*
G03X218710000Y-73660000I-3000000J0D01*
G01*
X226710000Y-73660000D02*
G75*
G03X226710000Y-73660000I-3000000J0D01*
G01*
X221710000Y-75660000D02*
G75*
G03X217710000Y-75660000I-2000000J-2000000D01*
G01*
X217710000Y-71660000D02*
G75*
G03X221710000Y-71660000I2000000J2000000D01*
G01*
X244110000Y-94980000D02*
X246110000Y-94980000D01*
X244110000Y-92980000D02*
X246110000Y-92980000D01*
X244110000Y-93980000D02*
X246110000Y-93980000D01*
X245110000Y-92980000D02*
X245110000Y-94980000D01*
X244110000Y-93980000D02*
G75*
G03X244110000Y-93980000I-3000000J0D01*
G01*
X252110000Y-93980000D02*
G75*
G03X252110000Y-93980000I-3000000J0D01*
G01*
X247110000Y-95980000D02*
G75*
G03X243110000Y-95980000I-2000000J-2000000D01*
G01*
X243110000Y-91980000D02*
G75*
G03X247110000Y-91980000I2000000J2000000D01*
G01*
X244110000Y-74660000D02*
X246110000Y-74660000D01*
X244110000Y-72660000D02*
X246110000Y-72660000D01*
X244110000Y-73660000D02*
X246110000Y-73660000D01*
X245110000Y-72660000D02*
X245110000Y-74660000D01*
X244110000Y-73660000D02*
G75*
G03X244110000Y-73660000I-3000000J0D01*
G01*
X252110000Y-73660000D02*
G75*
G03X252110000Y-73660000I-3000000J0D01*
G01*
X247110000Y-75660000D02*
G75*
G03X243110000Y-75660000I-2000000J-2000000D01*
G01*
X243110000Y-71660000D02*
G75*
G03X247110000Y-71660000I2000000J2000000D01*
G01*
X269510000Y-94980000D02*
X271510000Y-94980000D01*
X269510000Y-92980000D02*
X271510000Y-92980000D01*
X269510000Y-93980000D02*
X271510000Y-93980000D01*
X270510000Y-92980000D02*
X270510000Y-94980000D01*
X269510000Y-93980000D02*
G75*
G03X269510000Y-93980000I-3000000J0D01*
G01*
X277510000Y-93980000D02*
G75*
G03X277510000Y-93980000I-3000000J0D01*
G01*
X272510000Y-95980000D02*
G75*
G03X268510000Y-95980000I-2000000J-2000000D01*
G01*
X268510000Y-91980000D02*
G75*
G03X272510000Y-91980000I2000000J2000000D01*
G01*
X269510000Y-74660000D02*
X271510000Y-74660000D01*
X269510000Y-72660000D02*
X271510000Y-72660000D01*
X269510000Y-73660000D02*
X271510000Y-73660000D01*
X270510000Y-72660000D02*
X270510000Y-74660000D01*
X269510000Y-73660000D02*
G75*
G03X269510000Y-73660000I-3000000J0D01*
G01*
X277510000Y-73660000D02*
G75*
G03X277510000Y-73660000I-3000000J0D01*
G01*
X272510000Y-75660000D02*
G75*
G03X268510000Y-75660000I-2000000J-2000000D01*
G01*
X268510000Y-71660000D02*
G75*
G03X272510000Y-71660000I2000000J2000000D01*
G01*
D13*
X66110000Y-43070000D02*
X66110000Y-42590000D01*
X66110000Y-42590000D02*
X76130000Y-42590000D01*
X76130000Y-42590000D02*
X76130000Y-43070000D01*
X66110000Y-45830000D02*
X66110000Y-46310000D01*
X66110000Y-46310000D02*
X76130000Y-46310000D01*
X76130000Y-46310000D02*
X76130000Y-45830000D01*
D15*
X101246000Y-46044000D02*
X91594000Y-46044000D01*
X101246000Y-45536000D02*
X91594000Y-45536000D01*
X105818000Y-40075000D02*
X94642000Y-40075000D01*
X91340000Y-46425000D02*
X111660000Y-46425000D01*
X101754000Y-46044000D02*
X111406000Y-46044000D01*
X101754000Y-45536000D02*
X111406000Y-45536000D01*
X111406000Y-45536000D02*
X111406000Y-46425000D01*
X91594000Y-45536000D02*
X91594000Y-46425000D01*
X101246000Y-45536000D02*
X101246000Y-46425000D01*
X101754000Y-45536000D02*
X101754000Y-46425000D01*
X107342000Y-40075000D02*
X111660000Y-40075000D01*
X94388000Y-40329000D02*
X93372000Y-40329000D01*
X94388000Y-40329000D02*
X94642000Y-40075000D01*
X93372000Y-40329000D02*
X93118000Y-40075000D01*
X93118000Y-40075000D02*
X91340000Y-40075000D01*
X106072000Y-40329000D02*
X105818000Y-40075000D01*
X107088000Y-40329000D02*
X107342000Y-40075000D01*
X107088000Y-40329000D02*
X106072000Y-40329000D01*
X91340000Y-46425000D02*
X91340000Y-40075000D01*
X111660000Y-40075000D02*
X111660000Y-46425000D01*
X199654000Y-46294000D02*
X211846000Y-46294000D01*
X211846000Y-45786000D02*
X199654000Y-45786000D01*
X199654000Y-45786000D02*
X199654000Y-46675000D01*
X211846000Y-45786000D02*
X211846000Y-46675000D01*
X212100000Y-46675000D02*
X199400000Y-46675000D01*
X206258000Y-40325000D02*
X202702000Y-40325000D01*
X207782000Y-40325000D02*
X212100000Y-40325000D01*
X202448000Y-40579000D02*
X201432000Y-40579000D01*
X202448000Y-40579000D02*
X202702000Y-40325000D01*
X201432000Y-40579000D02*
X201178000Y-40325000D01*
X201178000Y-40325000D02*
X199400000Y-40325000D01*
X206512000Y-40579000D02*
X206258000Y-40325000D01*
X207528000Y-40579000D02*
X207782000Y-40325000D01*
X207528000Y-40579000D02*
X206512000Y-40579000D01*
X199400000Y-46675000D02*
X199400000Y-40325000D01*
X212100000Y-40325000D02*
X212100000Y-46675000D01*
D12*
X27000000Y-109500000D02*
X26000000Y-109500000D01*
X27000000Y-105500000D02*
X26000000Y-105500000D01*
X27000000Y-105500000D02*
X27000000Y-109500000D01*
X49000000Y-99000000D02*
X26000000Y-99000000D01*
X26000000Y-99000000D02*
X26000000Y-116000000D01*
X26000000Y-116000000D02*
X49000000Y-116000000D01*
X49000000Y-116000000D02*
X49000000Y-99000000D01*
X27500000Y-63000000D02*
X26500000Y-63000000D01*
X27500000Y-59000000D02*
X26500000Y-59000000D01*
X27500000Y-59000000D02*
X27500000Y-63000000D01*
X49500000Y-52500000D02*
X26500000Y-52500000D01*
X26500000Y-52500000D02*
X26500000Y-69500000D01*
X26500000Y-69500000D02*
X49500000Y-69500000D01*
X49500000Y-69500000D02*
X49500000Y-52500000D01*
X52000000Y-109500000D02*
X51000000Y-109500000D01*
X52000000Y-105500000D02*
X51000000Y-105500000D01*
X52000000Y-105500000D02*
X52000000Y-109500000D01*
X74000000Y-99000000D02*
X51000000Y-99000000D01*
X51000000Y-99000000D02*
X51000000Y-116000000D01*
X51000000Y-116000000D02*
X74000000Y-116000000D01*
X74000000Y-116000000D02*
X74000000Y-99000000D01*
X52500000Y-63000000D02*
X51500000Y-63000000D01*
X52500000Y-59000000D02*
X51500000Y-59000000D01*
X52500000Y-59000000D02*
X52500000Y-63000000D01*
X74500000Y-52500000D02*
X51500000Y-52500000D01*
X51500000Y-52500000D02*
X51500000Y-69500000D01*
X51500000Y-69500000D02*
X74500000Y-69500000D01*
X74500000Y-69500000D02*
X74500000Y-52500000D01*
X77000000Y-109500000D02*
X76000000Y-109500000D01*
X77000000Y-105500000D02*
X76000000Y-105500000D01*
X77000000Y-105500000D02*
X77000000Y-109500000D01*
X99000000Y-99000000D02*
X76000000Y-99000000D01*
X76000000Y-99000000D02*
X76000000Y-116000000D01*
X76000000Y-116000000D02*
X99000000Y-116000000D01*
X99000000Y-116000000D02*
X99000000Y-99000000D01*
X77500000Y-63000000D02*
X76500000Y-63000000D01*
X77500000Y-59000000D02*
X76500000Y-59000000D01*
X77500000Y-59000000D02*
X77500000Y-63000000D01*
X99500000Y-52500000D02*
X76500000Y-52500000D01*
X76500000Y-52500000D02*
X76500000Y-69500000D01*
X76500000Y-69500000D02*
X99500000Y-69500000D01*
X99500000Y-69500000D02*
X99500000Y-52500000D01*
X102000000Y-109500000D02*
X101000000Y-109500000D01*
X102000000Y-105500000D02*
X101000000Y-105500000D01*
X102000000Y-105500000D02*
X102000000Y-109500000D01*
X124000000Y-99000000D02*
X101000000Y-99000000D01*
X101000000Y-99000000D02*
X101000000Y-116000000D01*
X101000000Y-116000000D02*
X124000000Y-116000000D01*
X124000000Y-116000000D02*
X124000000Y-99000000D01*
X102500000Y-63000000D02*
X101500000Y-63000000D01*
X102500000Y-59000000D02*
X101500000Y-59000000D01*
X102500000Y-59000000D02*
X102500000Y-63000000D01*
X124500000Y-52500000D02*
X101500000Y-52500000D01*
X101500000Y-52500000D02*
X101500000Y-69500000D01*
X101500000Y-69500000D02*
X124500000Y-69500000D01*
X124500000Y-69500000D02*
X124500000Y-52500000D01*
X127000000Y-109500000D02*
X126000000Y-109500000D01*
X127000000Y-105500000D02*
X126000000Y-105500000D01*
X127000000Y-105500000D02*
X127000000Y-109500000D01*
X149000000Y-99000000D02*
X126000000Y-99000000D01*
X126000000Y-99000000D02*
X126000000Y-116000000D01*
X126000000Y-116000000D02*
X149000000Y-116000000D01*
X149000000Y-116000000D02*
X149000000Y-99000000D01*
X127500000Y-63000000D02*
X126500000Y-63000000D01*
X127500000Y-59000000D02*
X126500000Y-59000000D01*
X127500000Y-59000000D02*
X127500000Y-63000000D01*
X149500000Y-52500000D02*
X126500000Y-52500000D01*
X126500000Y-52500000D02*
X126500000Y-69500000D01*
X126500000Y-69500000D02*
X149500000Y-69500000D01*
X149500000Y-69500000D02*
X149500000Y-52500000D01*
X157000000Y-109500000D02*
X156000000Y-109500000D01*
X157000000Y-105500000D02*
X156000000Y-105500000D01*
X157000000Y-105500000D02*
X157000000Y-109500000D01*
X179000000Y-99000000D02*
X156000000Y-99000000D01*
X156000000Y-99000000D02*
X156000000Y-116000000D01*
X156000000Y-116000000D02*
X179000000Y-116000000D01*
X179000000Y-116000000D02*
X179000000Y-99000000D01*
X182000000Y-109500000D02*
X181000000Y-109500000D01*
X182000000Y-105500000D02*
X181000000Y-105500000D01*
X182000000Y-105500000D02*
X182000000Y-109500000D01*
X204000000Y-99000000D02*
X181000000Y-99000000D01*
X181000000Y-99000000D02*
X181000000Y-116000000D01*
X181000000Y-116000000D02*
X204000000Y-116000000D01*
X204000000Y-116000000D02*
X204000000Y-99000000D01*
X182500000Y-63000000D02*
X181500000Y-63000000D01*
X182500000Y-59000000D02*
X181500000Y-59000000D01*
X182500000Y-59000000D02*
X182500000Y-63000000D01*
X204500000Y-52500000D02*
X181500000Y-52500000D01*
X181500000Y-52500000D02*
X181500000Y-69500000D01*
X181500000Y-69500000D02*
X204500000Y-69500000D01*
X204500000Y-69500000D02*
X204500000Y-52500000D01*
X207000000Y-109500000D02*
X206000000Y-109500000D01*
X207000000Y-105500000D02*
X206000000Y-105500000D01*
X207000000Y-105500000D02*
X207000000Y-109500000D01*
X229000000Y-99000000D02*
X206000000Y-99000000D01*
X206000000Y-99000000D02*
X206000000Y-116000000D01*
X206000000Y-116000000D02*
X229000000Y-116000000D01*
X229000000Y-116000000D02*
X229000000Y-99000000D01*
X207500000Y-63000000D02*
X206500000Y-63000000D01*
X207500000Y-59000000D02*
X206500000Y-59000000D01*
X207500000Y-59000000D02*
X207500000Y-63000000D01*
X229500000Y-52500000D02*
X206500000Y-52500000D01*
X206500000Y-52500000D02*
X206500000Y-69500000D01*
X206500000Y-69500000D02*
X229500000Y-69500000D01*
X229500000Y-69500000D02*
X229500000Y-52500000D01*
X232500000Y-63000000D02*
X231500000Y-63000000D01*
X232500000Y-59000000D02*
X231500000Y-59000000D01*
X232500000Y-59000000D02*
X232500000Y-63000000D01*
X254500000Y-52500000D02*
X231500000Y-52500000D01*
X231500000Y-52500000D02*
X231500000Y-69500000D01*
X231500000Y-69500000D02*
X254500000Y-69500000D01*
X254500000Y-69500000D02*
X254500000Y-52500000D01*
X257000000Y-109500000D02*
X256000000Y-109500000D01*
X257000000Y-105500000D02*
X256000000Y-105500000D01*
X257000000Y-105500000D02*
X257000000Y-109500000D01*
X279000000Y-99000000D02*
X256000000Y-99000000D01*
X256000000Y-99000000D02*
X256000000Y-116000000D01*
X256000000Y-116000000D02*
X279000000Y-116000000D01*
X279000000Y-116000000D02*
X279000000Y-99000000D01*
X257500000Y-63000000D02*
X256500000Y-63000000D01*
X257500000Y-59000000D02*
X256500000Y-59000000D01*
X257500000Y-59000000D02*
X257500000Y-63000000D01*
X279500000Y-52500000D02*
X256500000Y-52500000D01*
X256500000Y-52500000D02*
X256500000Y-69500000D01*
X256500000Y-69500000D02*
X279500000Y-69500000D01*
X279500000Y-69500000D02*
X279500000Y-52500000D01*
D16*
X243452381Y-108547619D02*
X242976190Y-108880953D01*
X243452381Y-109119048D02*
X242452381Y-109119048D01*
X242452381Y-108738095D01*
X242500000Y-108642857D01*
X242547619Y-108595238D01*
X242642857Y-108547619D01*
X242785714Y-108547619D01*
X242880952Y-108595238D01*
X242928571Y-108642857D01*
X242976190Y-108738095D01*
X242976190Y-109119048D01*
X243452381Y-107642857D02*
X243452381Y-108119048D01*
X242452381Y-108119048D01*
X243452381Y-106785714D02*
X243452381Y-107357143D01*
X243452381Y-107071429D02*
X242452381Y-107071429D01*
X242595238Y-107166667D01*
X242690476Y-107261905D01*
X242738095Y-107357143D01*
X242452381Y-106452381D02*
X242452381Y-105785714D01*
X243452381Y-106214286D01*
X168952381Y-62047619D02*
X168476190Y-62380953D01*
X168952381Y-62619048D02*
X167952381Y-62619048D01*
X167952381Y-62238095D01*
X168000000Y-62142857D01*
X168047619Y-62095238D01*
X168142857Y-62047619D01*
X168285714Y-62047619D01*
X168380952Y-62095238D01*
X168428571Y-62142857D01*
X168476190Y-62238095D01*
X168476190Y-62619048D01*
X168952381Y-61142857D02*
X168952381Y-61619048D01*
X167952381Y-61619048D01*
X168952381Y-60285714D02*
X168952381Y-60857143D01*
X168952381Y-60571429D02*
X167952381Y-60571429D01*
X168095238Y-60666667D01*
X168190476Y-60761905D01*
X168238095Y-60857143D01*
X168047619Y-59904762D02*
X168000000Y-59857143D01*
X167952381Y-59761905D01*
X167952381Y-59523809D01*
X168000000Y-59428571D01*
X168047619Y-59380952D01*
X168142857Y-59333333D01*
X168238095Y-59333333D01*
X168380952Y-59380952D01*
X168952381Y-59952381D01*
X168952381Y-59333333D01*
X37361905Y-36774381D02*
X37361905Y-35774381D01*
X37742858Y-35774381D01*
X37838096Y-35822000D01*
X37885715Y-35869619D01*
X37933334Y-35964857D01*
X37933334Y-36107714D01*
X37885715Y-36202952D01*
X37838096Y-36250571D01*
X37742858Y-36298190D01*
X37361905Y-36298190D01*
X38790477Y-36107714D02*
X38790477Y-36774381D01*
X38552381Y-35726762D02*
X38314286Y-36441048D01*
X38933334Y-36441048D01*
X37361905Y-121864381D02*
X37361905Y-120864381D01*
X37742858Y-120864381D01*
X37838096Y-120912000D01*
X37885715Y-120959619D01*
X37933334Y-121054857D01*
X37933334Y-121197714D01*
X37885715Y-121292952D01*
X37838096Y-121340571D01*
X37742858Y-121388190D01*
X37361905Y-121388190D01*
X38838096Y-120864381D02*
X38361905Y-120864381D01*
X38314286Y-121340571D01*
X38361905Y-121292952D01*
X38457143Y-121245333D01*
X38695239Y-121245333D01*
X38790477Y-121292952D01*
X38838096Y-121340571D01*
X38885715Y-121435810D01*
X38885715Y-121673905D01*
X38838096Y-121769143D01*
X38790477Y-121816762D01*
X38695239Y-121864381D01*
X38457143Y-121864381D01*
X38361905Y-121816762D01*
X38314286Y-121769143D01*
X265961905Y-36774381D02*
X265961905Y-35774381D01*
X266342858Y-35774381D01*
X266438096Y-35822000D01*
X266485715Y-35869619D01*
X266533334Y-35964857D01*
X266533334Y-36107714D01*
X266485715Y-36202952D01*
X266438096Y-36250571D01*
X266342858Y-36298190D01*
X265961905Y-36298190D01*
X267390477Y-35774381D02*
X267200000Y-35774381D01*
X267104762Y-35822000D01*
X267057143Y-35869619D01*
X266961905Y-36012476D01*
X266914286Y-36202952D01*
X266914286Y-36583905D01*
X266961905Y-36679143D01*
X267009524Y-36726762D01*
X267104762Y-36774381D01*
X267295239Y-36774381D01*
X267390477Y-36726762D01*
X267438096Y-36679143D01*
X267485715Y-36583905D01*
X267485715Y-36345810D01*
X267438096Y-36250571D01*
X267390477Y-36202952D01*
X267295239Y-36155333D01*
X267104762Y-36155333D01*
X267009524Y-36202952D01*
X266961905Y-36250571D01*
X266914286Y-36345810D01*
X265961905Y-121864381D02*
X265961905Y-120864381D01*
X266342858Y-120864381D01*
X266438096Y-120912000D01*
X266485715Y-120959619D01*
X266533334Y-121054857D01*
X266533334Y-121197714D01*
X266485715Y-121292952D01*
X266438096Y-121340571D01*
X266342858Y-121388190D01*
X265961905Y-121388190D01*
X266866667Y-120864381D02*
X267533334Y-120864381D01*
X267104762Y-121864381D01*
X133405714Y-121864381D02*
X133405714Y-120864381D01*
X133786667Y-120864381D01*
X133881905Y-120912000D01*
X133929524Y-120959619D01*
X133977143Y-121054857D01*
X133977143Y-121197714D01*
X133929524Y-121292952D01*
X133881905Y-121340571D01*
X133786667Y-121388190D01*
X133405714Y-121388190D01*
X134929524Y-121864381D02*
X134358095Y-121864381D01*
X134643809Y-121864381D02*
X134643809Y-120864381D01*
X134548571Y-121007238D01*
X134453333Y-121102476D01*
X134358095Y-121150095D01*
X135262857Y-120864381D02*
X135929524Y-120864381D01*
X135500952Y-121864381D01*
X133405714Y-36774381D02*
X133405714Y-35774381D01*
X133786667Y-35774381D01*
X133881905Y-35822000D01*
X133929524Y-35869619D01*
X133977143Y-35964857D01*
X133977143Y-36107714D01*
X133929524Y-36202952D01*
X133881905Y-36250571D01*
X133786667Y-36298190D01*
X133405714Y-36298190D01*
X134929524Y-36774381D02*
X134358095Y-36774381D01*
X134643809Y-36774381D02*
X134643809Y-35774381D01*
X134548571Y-35917238D01*
X134453333Y-36012476D01*
X134358095Y-36060095D01*
X135500952Y-36202952D02*
X135405714Y-36155333D01*
X135358095Y-36107714D01*
X135310476Y-36012476D01*
X135310476Y-35964857D01*
X135358095Y-35869619D01*
X135405714Y-35822000D01*
X135500952Y-35774381D01*
X135691429Y-35774381D01*
X135786667Y-35822000D01*
X135834286Y-35869619D01*
X135881905Y-35964857D01*
X135881905Y-36012476D01*
X135834286Y-36107714D01*
X135786667Y-36155333D01*
X135691429Y-36202952D01*
X135500952Y-36202952D01*
X135405714Y-36250571D01*
X135358095Y-36298190D01*
X135310476Y-36393429D01*
X135310476Y-36583905D01*
X135358095Y-36679143D01*
X135405714Y-36726762D01*
X135500952Y-36774381D01*
X135691429Y-36774381D01*
X135786667Y-36726762D01*
X135834286Y-36679143D01*
X135881905Y-36583905D01*
X135881905Y-36393429D01*
X135834286Y-36298190D01*
X135786667Y-36250571D01*
X135691429Y-36202952D01*
X168965714Y-36774381D02*
X168965714Y-35774381D01*
X169346667Y-35774381D01*
X169441905Y-35822000D01*
X169489524Y-35869619D01*
X169537143Y-35964857D01*
X169537143Y-36107714D01*
X169489524Y-36202952D01*
X169441905Y-36250571D01*
X169346667Y-36298190D01*
X168965714Y-36298190D01*
X170489524Y-36774381D02*
X169918095Y-36774381D01*
X170203809Y-36774381D02*
X170203809Y-35774381D01*
X170108571Y-35917238D01*
X170013333Y-36012476D01*
X169918095Y-36060095D01*
X170965714Y-36774381D02*
X171156190Y-36774381D01*
X171251429Y-36726762D01*
X171299048Y-36679143D01*
X171394286Y-36536286D01*
X171441905Y-36345810D01*
X171441905Y-35964857D01*
X171394286Y-35869619D01*
X171346667Y-35822000D01*
X171251429Y-35774381D01*
X171060952Y-35774381D01*
X170965714Y-35822000D01*
X170918095Y-35869619D01*
X170870476Y-35964857D01*
X170870476Y-36202952D01*
X170918095Y-36298190D01*
X170965714Y-36345810D01*
X171060952Y-36393429D01*
X171251429Y-36393429D01*
X171346667Y-36345810D01*
X171394286Y-36298190D01*
X171441905Y-36202952D01*
X168965714Y-121864381D02*
X168965714Y-120864381D01*
X169346667Y-120864381D01*
X169441905Y-120912000D01*
X169489524Y-120959619D01*
X169537143Y-121054857D01*
X169537143Y-121197714D01*
X169489524Y-121292952D01*
X169441905Y-121340571D01*
X169346667Y-121388190D01*
X168965714Y-121388190D01*
X169918095Y-120959619D02*
X169965714Y-120912000D01*
X170060952Y-120864381D01*
X170299048Y-120864381D01*
X170394286Y-120912000D01*
X170441905Y-120959619D01*
X170489524Y-121054857D01*
X170489524Y-121150095D01*
X170441905Y-121292952D01*
X169870476Y-121864381D01*
X170489524Y-121864381D01*
X171108571Y-120864381D02*
X171203810Y-120864381D01*
X171299048Y-120912000D01*
X171346667Y-120959619D01*
X171394286Y-121054857D01*
X171441905Y-121245333D01*
X171441905Y-121483429D01*
X171394286Y-121673905D01*
X171346667Y-121769143D01*
X171299048Y-121816762D01*
X171203810Y-121864381D01*
X171108571Y-121864381D01*
X171013333Y-121816762D01*
X170965714Y-121769143D01*
X170918095Y-121673905D01*
X170870476Y-121483429D01*
X170870476Y-121245333D01*
X170918095Y-121054857D01*
X170965714Y-120959619D01*
X171013333Y-120912000D01*
X171108571Y-120864381D01*
X39533334Y-83952381D02*
X39057143Y-83952381D01*
X39057143Y-82952381D01*
X39771429Y-82952381D02*
X40390477Y-82952381D01*
X40057143Y-83333333D01*
X40200001Y-83333333D01*
X40295239Y-83380952D01*
X40342858Y-83428571D01*
X40390477Y-83523810D01*
X40390477Y-83761905D01*
X40342858Y-83857143D01*
X40295239Y-83904762D01*
X40200001Y-83952381D01*
X39914286Y-83952381D01*
X39819048Y-83904762D01*
X39771429Y-83857143D01*
X65033334Y-83752381D02*
X64557143Y-83752381D01*
X64557143Y-82752381D01*
X65795239Y-83085714D02*
X65795239Y-83752381D01*
X65557143Y-82704762D02*
X65319048Y-83419048D01*
X65938096Y-83419048D01*
X90533334Y-83752381D02*
X90057143Y-83752381D01*
X90057143Y-82752381D01*
X91342858Y-82752381D02*
X90866667Y-82752381D01*
X90819048Y-83228571D01*
X90866667Y-83180952D01*
X90961905Y-83133333D01*
X91200001Y-83133333D01*
X91295239Y-83180952D01*
X91342858Y-83228571D01*
X91390477Y-83323810D01*
X91390477Y-83561905D01*
X91342858Y-83657143D01*
X91295239Y-83704762D01*
X91200001Y-83752381D01*
X90961905Y-83752381D01*
X90866667Y-83704762D01*
X90819048Y-83657143D01*
X116033334Y-83752381D02*
X115557143Y-83752381D01*
X115557143Y-82752381D01*
X116795239Y-82752381D02*
X116604762Y-82752381D01*
X116509524Y-82800000D01*
X116461905Y-82847619D01*
X116366667Y-82990476D01*
X116319048Y-83180952D01*
X116319048Y-83561905D01*
X116366667Y-83657143D01*
X116414286Y-83704762D01*
X116509524Y-83752381D01*
X116700001Y-83752381D01*
X116795239Y-83704762D01*
X116842858Y-83657143D01*
X116890477Y-83561905D01*
X116890477Y-83323810D01*
X116842858Y-83228571D01*
X116795239Y-83180952D01*
X116700001Y-83133333D01*
X116509524Y-83133333D01*
X116414286Y-83180952D01*
X116366667Y-83228571D01*
X116319048Y-83323810D01*
X141333334Y-83852381D02*
X140857143Y-83852381D01*
X140857143Y-82852381D01*
X141571429Y-82852381D02*
X142238096Y-82852381D01*
X141809524Y-83852381D01*
X169333334Y-83752381D02*
X168857143Y-83752381D01*
X168857143Y-82752381D01*
X169809524Y-83180952D02*
X169714286Y-83133333D01*
X169666667Y-83085714D01*
X169619048Y-82990476D01*
X169619048Y-82942857D01*
X169666667Y-82847619D01*
X169714286Y-82800000D01*
X169809524Y-82752381D01*
X170000001Y-82752381D01*
X170095239Y-82800000D01*
X170142858Y-82847619D01*
X170190477Y-82942857D01*
X170190477Y-82990476D01*
X170142858Y-83085714D01*
X170095239Y-83133333D01*
X170000001Y-83180952D01*
X169809524Y-83180952D01*
X169714286Y-83228571D01*
X169666667Y-83276190D01*
X169619048Y-83371429D01*
X169619048Y-83561905D01*
X169666667Y-83657143D01*
X169714286Y-83704762D01*
X169809524Y-83752381D01*
X170000001Y-83752381D01*
X170095239Y-83704762D01*
X170142858Y-83657143D01*
X170190477Y-83561905D01*
X170190477Y-83371429D01*
X170142858Y-83276190D01*
X170095239Y-83228571D01*
X170000001Y-83180952D01*
X194833334Y-83752381D02*
X194357143Y-83752381D01*
X194357143Y-82752381D01*
X195214286Y-83752381D02*
X195404762Y-83752381D01*
X195500001Y-83704762D01*
X195547620Y-83657143D01*
X195642858Y-83514286D01*
X195690477Y-83323810D01*
X195690477Y-82942857D01*
X195642858Y-82847619D01*
X195595239Y-82800000D01*
X195500001Y-82752381D01*
X195309524Y-82752381D01*
X195214286Y-82800000D01*
X195166667Y-82847619D01*
X195119048Y-82942857D01*
X195119048Y-83180952D01*
X195166667Y-83276190D01*
X195214286Y-83323810D01*
X195309524Y-83371429D01*
X195500001Y-83371429D01*
X195595239Y-83323810D01*
X195642858Y-83276190D01*
X195690477Y-83180952D01*
X219457143Y-83752381D02*
X218980952Y-83752381D01*
X218980952Y-82752381D01*
X220314286Y-83752381D02*
X219742857Y-83752381D01*
X220028571Y-83752381D02*
X220028571Y-82752381D01*
X219933333Y-82895238D01*
X219838095Y-82990476D01*
X219742857Y-83038095D01*
X220933333Y-82752381D02*
X221028572Y-82752381D01*
X221123810Y-82800000D01*
X221171429Y-82847619D01*
X221219048Y-82942857D01*
X221266667Y-83133333D01*
X221266667Y-83371429D01*
X221219048Y-83561905D01*
X221171429Y-83657143D01*
X221123810Y-83704762D01*
X221028572Y-83752381D01*
X220933333Y-83752381D01*
X220838095Y-83704762D01*
X220790476Y-83657143D01*
X220742857Y-83561905D01*
X220695238Y-83371429D01*
X220695238Y-83133333D01*
X220742857Y-82942857D01*
X220790476Y-82847619D01*
X220838095Y-82800000D01*
X220933333Y-82752381D01*
X244857143Y-83752381D02*
X244380952Y-83752381D01*
X244380952Y-82752381D01*
X245714286Y-83752381D02*
X245142857Y-83752381D01*
X245428571Y-83752381D02*
X245428571Y-82752381D01*
X245333333Y-82895238D01*
X245238095Y-82990476D01*
X245142857Y-83038095D01*
X246666667Y-83752381D02*
X246095238Y-83752381D01*
X246380952Y-83752381D02*
X246380952Y-82752381D01*
X246285714Y-82895238D01*
X246190476Y-82990476D01*
X246095238Y-83038095D01*
X270057143Y-83752381D02*
X269580952Y-83752381D01*
X269580952Y-82752381D01*
X270914286Y-83752381D02*
X270342857Y-83752381D01*
X270628571Y-83752381D02*
X270628571Y-82752381D01*
X270533333Y-82895238D01*
X270438095Y-82990476D01*
X270342857Y-83038095D01*
X271295238Y-82847619D02*
X271342857Y-82800000D01*
X271438095Y-82752381D01*
X271676191Y-82752381D01*
X271771429Y-82800000D01*
X271819048Y-82847619D01*
X271866667Y-82942857D01*
X271866667Y-83038095D01*
X271819048Y-83180952D01*
X271247619Y-83752381D01*
X271866667Y-83752381D01*
X54663334Y-119692381D02*
X54187143Y-119692381D01*
X54187143Y-118692381D01*
X55520477Y-119692381D02*
X54949048Y-119692381D01*
X55234762Y-119692381D02*
X55234762Y-118692381D01*
X55139524Y-118835238D01*
X55044286Y-118930476D01*
X54949048Y-118978095D01*
X57933334Y-41252381D02*
X57457143Y-41252381D01*
X57457143Y-40252381D01*
X58219048Y-40347619D02*
X58266667Y-40300000D01*
X58361905Y-40252381D01*
X58600001Y-40252381D01*
X58695239Y-40300000D01*
X58742858Y-40347619D01*
X58790477Y-40442857D01*
X58790477Y-40538095D01*
X58742858Y-40680952D01*
X58171429Y-41252381D01*
X58790477Y-41252381D01*
X43333334Y-121357143D02*
X43285715Y-121404762D01*
X43142858Y-121452381D01*
X43047620Y-121452381D01*
X42904762Y-121404762D01*
X42809524Y-121309524D01*
X42761905Y-121214286D01*
X42714286Y-121023810D01*
X42714286Y-120880952D01*
X42761905Y-120690476D01*
X42809524Y-120595238D01*
X42904762Y-120500000D01*
X43047620Y-120452381D01*
X43142858Y-120452381D01*
X43285715Y-120500000D01*
X43333334Y-120547619D01*
X44285715Y-121452381D02*
X43714286Y-121452381D01*
X44000000Y-121452381D02*
X44000000Y-120452381D01*
X43904762Y-120595238D01*
X43809524Y-120690476D01*
X43714286Y-120738095D01*
X48157143Y-94166666D02*
X48204762Y-94214285D01*
X48252381Y-94357142D01*
X48252381Y-94452380D01*
X48204762Y-94595238D01*
X48109524Y-94690476D01*
X48014286Y-94738095D01*
X47823810Y-94785714D01*
X47680952Y-94785714D01*
X47490476Y-94738095D01*
X47395238Y-94690476D01*
X47300000Y-94595238D01*
X47252381Y-94452380D01*
X47252381Y-94357142D01*
X47300000Y-94214285D01*
X47347619Y-94166666D01*
X47347619Y-93785714D02*
X47300000Y-93738095D01*
X47252381Y-93642857D01*
X47252381Y-93404761D01*
X47300000Y-93309523D01*
X47347619Y-93261904D01*
X47442857Y-93214285D01*
X47538095Y-93214285D01*
X47680952Y-93261904D01*
X48252381Y-93833333D01*
X48252381Y-93214285D01*
X31357143Y-73566666D02*
X31404762Y-73614285D01*
X31452381Y-73757142D01*
X31452381Y-73852380D01*
X31404762Y-73995238D01*
X31309524Y-74090476D01*
X31214286Y-74138095D01*
X31023810Y-74185714D01*
X30880952Y-74185714D01*
X30690476Y-74138095D01*
X30595238Y-74090476D01*
X30500000Y-73995238D01*
X30452381Y-73852380D01*
X30452381Y-73757142D01*
X30500000Y-73614285D01*
X30547619Y-73566666D01*
X30452381Y-73233333D02*
X30452381Y-72614285D01*
X30833333Y-72947619D01*
X30833333Y-72804761D01*
X30880952Y-72709523D01*
X30928571Y-72661904D01*
X31023810Y-72614285D01*
X31261905Y-72614285D01*
X31357143Y-72661904D01*
X31404762Y-72709523D01*
X31452381Y-72804761D01*
X31452381Y-73090476D01*
X31404762Y-73185714D01*
X31357143Y-73233333D01*
X73457143Y-94166666D02*
X73504762Y-94214285D01*
X73552381Y-94357142D01*
X73552381Y-94452380D01*
X73504762Y-94595238D01*
X73409524Y-94690476D01*
X73314286Y-94738095D01*
X73123810Y-94785714D01*
X72980952Y-94785714D01*
X72790476Y-94738095D01*
X72695238Y-94690476D01*
X72600000Y-94595238D01*
X72552381Y-94452380D01*
X72552381Y-94357142D01*
X72600000Y-94214285D01*
X72647619Y-94166666D01*
X72552381Y-93261904D02*
X72552381Y-93738095D01*
X73028571Y-93785714D01*
X72980952Y-93738095D01*
X72933333Y-93642857D01*
X72933333Y-93404761D01*
X72980952Y-93309523D01*
X73028571Y-93261904D01*
X73123810Y-93214285D01*
X73361905Y-93214285D01*
X73457143Y-93261904D01*
X73504762Y-93309523D01*
X73552381Y-93404761D01*
X73552381Y-93642857D01*
X73504762Y-93738095D01*
X73457143Y-93785714D01*
X56957143Y-73366666D02*
X57004762Y-73414285D01*
X57052381Y-73557142D01*
X57052381Y-73652380D01*
X57004762Y-73795238D01*
X56909524Y-73890476D01*
X56814286Y-73938095D01*
X56623810Y-73985714D01*
X56480952Y-73985714D01*
X56290476Y-73938095D01*
X56195238Y-73890476D01*
X56100000Y-73795238D01*
X56052381Y-73652380D01*
X56052381Y-73557142D01*
X56100000Y-73414285D01*
X56147619Y-73366666D01*
X56052381Y-72509523D02*
X56052381Y-72700000D01*
X56100000Y-72795238D01*
X56147619Y-72842857D01*
X56290476Y-72938095D01*
X56480952Y-72985714D01*
X56861905Y-72985714D01*
X56957143Y-72938095D01*
X57004762Y-72890476D01*
X57052381Y-72795238D01*
X57052381Y-72604761D01*
X57004762Y-72509523D01*
X56957143Y-72461904D01*
X56861905Y-72414285D01*
X56623810Y-72414285D01*
X56528571Y-72461904D01*
X56480952Y-72509523D01*
X56433333Y-72604761D01*
X56433333Y-72795238D01*
X56480952Y-72890476D01*
X56528571Y-72938095D01*
X56623810Y-72985714D01*
X98857143Y-94166666D02*
X98904762Y-94214285D01*
X98952381Y-94357142D01*
X98952381Y-94452380D01*
X98904762Y-94595238D01*
X98809524Y-94690476D01*
X98714286Y-94738095D01*
X98523810Y-94785714D01*
X98380952Y-94785714D01*
X98190476Y-94738095D01*
X98095238Y-94690476D01*
X98000000Y-94595238D01*
X97952381Y-94452380D01*
X97952381Y-94357142D01*
X98000000Y-94214285D01*
X98047619Y-94166666D01*
X97952381Y-93833333D02*
X97952381Y-93166666D01*
X98952381Y-93595238D01*
X82357143Y-73566666D02*
X82404762Y-73614285D01*
X82452381Y-73757142D01*
X82452381Y-73852380D01*
X82404762Y-73995238D01*
X82309524Y-74090476D01*
X82214286Y-74138095D01*
X82023810Y-74185714D01*
X81880952Y-74185714D01*
X81690476Y-74138095D01*
X81595238Y-74090476D01*
X81500000Y-73995238D01*
X81452381Y-73852380D01*
X81452381Y-73757142D01*
X81500000Y-73614285D01*
X81547619Y-73566666D01*
X81880952Y-72995238D02*
X81833333Y-73090476D01*
X81785714Y-73138095D01*
X81690476Y-73185714D01*
X81642857Y-73185714D01*
X81547619Y-73138095D01*
X81500000Y-73090476D01*
X81452381Y-72995238D01*
X81452381Y-72804761D01*
X81500000Y-72709523D01*
X81547619Y-72661904D01*
X81642857Y-72614285D01*
X81690476Y-72614285D01*
X81785714Y-72661904D01*
X81833333Y-72709523D01*
X81880952Y-72804761D01*
X81880952Y-72995238D01*
X81928571Y-73090476D01*
X81976190Y-73138095D01*
X82071429Y-73185714D01*
X82261905Y-73185714D01*
X82357143Y-73138095D01*
X82404762Y-73090476D01*
X82452381Y-72995238D01*
X82452381Y-72804761D01*
X82404762Y-72709523D01*
X82357143Y-72661904D01*
X82261905Y-72614285D01*
X82071429Y-72614285D01*
X81976190Y-72661904D01*
X81928571Y-72709523D01*
X81880952Y-72804761D01*
X124157143Y-94066666D02*
X124204762Y-94114285D01*
X124252381Y-94257142D01*
X124252381Y-94352380D01*
X124204762Y-94495238D01*
X124109524Y-94590476D01*
X124014286Y-94638095D01*
X123823810Y-94685714D01*
X123680952Y-94685714D01*
X123490476Y-94638095D01*
X123395238Y-94590476D01*
X123300000Y-94495238D01*
X123252381Y-94352380D01*
X123252381Y-94257142D01*
X123300000Y-94114285D01*
X123347619Y-94066666D01*
X124252381Y-93590476D02*
X124252381Y-93400000D01*
X124204762Y-93304761D01*
X124157143Y-93257142D01*
X124014286Y-93161904D01*
X123823810Y-93114285D01*
X123442857Y-93114285D01*
X123347619Y-93161904D01*
X123300000Y-93209523D01*
X123252381Y-93304761D01*
X123252381Y-93495238D01*
X123300000Y-93590476D01*
X123347619Y-93638095D01*
X123442857Y-93685714D01*
X123680952Y-93685714D01*
X123776190Y-93638095D01*
X123823810Y-93590476D01*
X123871429Y-93495238D01*
X123871429Y-93304761D01*
X123823810Y-93209523D01*
X123776190Y-93161904D01*
X123680952Y-93114285D01*
X107257143Y-74142857D02*
X107304762Y-74190476D01*
X107352381Y-74333333D01*
X107352381Y-74428571D01*
X107304762Y-74571429D01*
X107209524Y-74666667D01*
X107114286Y-74714286D01*
X106923810Y-74761905D01*
X106780952Y-74761905D01*
X106590476Y-74714286D01*
X106495238Y-74666667D01*
X106400000Y-74571429D01*
X106352381Y-74428571D01*
X106352381Y-74333333D01*
X106400000Y-74190476D01*
X106447619Y-74142857D01*
X107352381Y-73190476D02*
X107352381Y-73761905D01*
X107352381Y-73476191D02*
X106352381Y-73476191D01*
X106495238Y-73571429D01*
X106590476Y-73666667D01*
X106638095Y-73761905D01*
X106352381Y-72571429D02*
X106352381Y-72476190D01*
X106400000Y-72380952D01*
X106447619Y-72333333D01*
X106542857Y-72285714D01*
X106733333Y-72238095D01*
X106971429Y-72238095D01*
X107161905Y-72285714D01*
X107257143Y-72333333D01*
X107304762Y-72380952D01*
X107352381Y-72476190D01*
X107352381Y-72571429D01*
X107304762Y-72666667D01*
X107257143Y-72714286D01*
X107161905Y-72761905D01*
X106971429Y-72809524D01*
X106733333Y-72809524D01*
X106542857Y-72761905D01*
X106447619Y-72714286D01*
X106400000Y-72666667D01*
X106352381Y-72571429D01*
X149657143Y-94642857D02*
X149704762Y-94690476D01*
X149752381Y-94833333D01*
X149752381Y-94928571D01*
X149704762Y-95071429D01*
X149609524Y-95166667D01*
X149514286Y-95214286D01*
X149323810Y-95261905D01*
X149180952Y-95261905D01*
X148990476Y-95214286D01*
X148895238Y-95166667D01*
X148800000Y-95071429D01*
X148752381Y-94928571D01*
X148752381Y-94833333D01*
X148800000Y-94690476D01*
X148847619Y-94642857D01*
X149752381Y-93690476D02*
X149752381Y-94261905D01*
X149752381Y-93976191D02*
X148752381Y-93976191D01*
X148895238Y-94071429D01*
X148990476Y-94166667D01*
X149038095Y-94261905D01*
X149752381Y-92738095D02*
X149752381Y-93309524D01*
X149752381Y-93023810D02*
X148752381Y-93023810D01*
X148895238Y-93119048D01*
X148990476Y-93214286D01*
X149038095Y-93309524D01*
X132757143Y-74142857D02*
X132804762Y-74190476D01*
X132852381Y-74333333D01*
X132852381Y-74428571D01*
X132804762Y-74571429D01*
X132709524Y-74666667D01*
X132614286Y-74714286D01*
X132423810Y-74761905D01*
X132280952Y-74761905D01*
X132090476Y-74714286D01*
X131995238Y-74666667D01*
X131900000Y-74571429D01*
X131852381Y-74428571D01*
X131852381Y-74333333D01*
X131900000Y-74190476D01*
X131947619Y-74142857D01*
X132852381Y-73190476D02*
X132852381Y-73761905D01*
X132852381Y-73476191D02*
X131852381Y-73476191D01*
X131995238Y-73571429D01*
X132090476Y-73666667D01*
X132138095Y-73761905D01*
X131947619Y-72809524D02*
X131900000Y-72761905D01*
X131852381Y-72666667D01*
X131852381Y-72428571D01*
X131900000Y-72333333D01*
X131947619Y-72285714D01*
X132042857Y-72238095D01*
X132138095Y-72238095D01*
X132280952Y-72285714D01*
X132852381Y-72857143D01*
X132852381Y-72238095D01*
X177557143Y-94642857D02*
X177604762Y-94690476D01*
X177652381Y-94833333D01*
X177652381Y-94928571D01*
X177604762Y-95071429D01*
X177509524Y-95166667D01*
X177414286Y-95214286D01*
X177223810Y-95261905D01*
X177080952Y-95261905D01*
X176890476Y-95214286D01*
X176795238Y-95166667D01*
X176700000Y-95071429D01*
X176652381Y-94928571D01*
X176652381Y-94833333D01*
X176700000Y-94690476D01*
X176747619Y-94642857D01*
X177652381Y-93690476D02*
X177652381Y-94261905D01*
X177652381Y-93976191D02*
X176652381Y-93976191D01*
X176795238Y-94071429D01*
X176890476Y-94166667D01*
X176938095Y-94261905D01*
X176652381Y-93357143D02*
X176652381Y-92738095D01*
X177033333Y-93071429D01*
X177033333Y-92928571D01*
X177080952Y-92833333D01*
X177128571Y-92785714D01*
X177223810Y-92738095D01*
X177461905Y-92738095D01*
X177557143Y-92785714D01*
X177604762Y-92833333D01*
X177652381Y-92928571D01*
X177652381Y-93214286D01*
X177604762Y-93309524D01*
X177557143Y-93357143D01*
X160857143Y-74042857D02*
X160904762Y-74090476D01*
X160952381Y-74233333D01*
X160952381Y-74328571D01*
X160904762Y-74471429D01*
X160809524Y-74566667D01*
X160714286Y-74614286D01*
X160523810Y-74661905D01*
X160380952Y-74661905D01*
X160190476Y-74614286D01*
X160095238Y-74566667D01*
X160000000Y-74471429D01*
X159952381Y-74328571D01*
X159952381Y-74233333D01*
X160000000Y-74090476D01*
X160047619Y-74042857D01*
X160952381Y-73090476D02*
X160952381Y-73661905D01*
X160952381Y-73376191D02*
X159952381Y-73376191D01*
X160095238Y-73471429D01*
X160190476Y-73566667D01*
X160238095Y-73661905D01*
X160285714Y-72233333D02*
X160952381Y-72233333D01*
X159904762Y-72471429D02*
X160619048Y-72709524D01*
X160619048Y-72090476D01*
X203057143Y-94542857D02*
X203104762Y-94590476D01*
X203152381Y-94733333D01*
X203152381Y-94828571D01*
X203104762Y-94971429D01*
X203009524Y-95066667D01*
X202914286Y-95114286D01*
X202723810Y-95161905D01*
X202580952Y-95161905D01*
X202390476Y-95114286D01*
X202295238Y-95066667D01*
X202200000Y-94971429D01*
X202152381Y-94828571D01*
X202152381Y-94733333D01*
X202200000Y-94590476D01*
X202247619Y-94542857D01*
X203152381Y-93590476D02*
X203152381Y-94161905D01*
X203152381Y-93876191D02*
X202152381Y-93876191D01*
X202295238Y-93971429D01*
X202390476Y-94066667D01*
X202438095Y-94161905D01*
X202152381Y-92685714D02*
X202152381Y-93161905D01*
X202628571Y-93209524D01*
X202580952Y-93161905D01*
X202533333Y-93066667D01*
X202533333Y-92828571D01*
X202580952Y-92733333D01*
X202628571Y-92685714D01*
X202723810Y-92638095D01*
X202961905Y-92638095D01*
X203057143Y-92685714D01*
X203104762Y-92733333D01*
X203152381Y-92828571D01*
X203152381Y-93066667D01*
X203104762Y-93161905D01*
X203057143Y-93209524D01*
X186357143Y-74042857D02*
X186404762Y-74090476D01*
X186452381Y-74233333D01*
X186452381Y-74328571D01*
X186404762Y-74471429D01*
X186309524Y-74566667D01*
X186214286Y-74614286D01*
X186023810Y-74661905D01*
X185880952Y-74661905D01*
X185690476Y-74614286D01*
X185595238Y-74566667D01*
X185500000Y-74471429D01*
X185452381Y-74328571D01*
X185452381Y-74233333D01*
X185500000Y-74090476D01*
X185547619Y-74042857D01*
X186452381Y-73090476D02*
X186452381Y-73661905D01*
X186452381Y-73376191D02*
X185452381Y-73376191D01*
X185595238Y-73471429D01*
X185690476Y-73566667D01*
X185738095Y-73661905D01*
X185452381Y-72233333D02*
X185452381Y-72423810D01*
X185500000Y-72519048D01*
X185547619Y-72566667D01*
X185690476Y-72661905D01*
X185880952Y-72709524D01*
X186261905Y-72709524D01*
X186357143Y-72661905D01*
X186404762Y-72614286D01*
X186452381Y-72519048D01*
X186452381Y-72328571D01*
X186404762Y-72233333D01*
X186357143Y-72185714D01*
X186261905Y-72138095D01*
X186023810Y-72138095D01*
X185928571Y-72185714D01*
X185880952Y-72233333D01*
X185833333Y-72328571D01*
X185833333Y-72519048D01*
X185880952Y-72614286D01*
X185928571Y-72661905D01*
X186023810Y-72709524D01*
X228557143Y-94242857D02*
X228604762Y-94290476D01*
X228652381Y-94433333D01*
X228652381Y-94528571D01*
X228604762Y-94671429D01*
X228509524Y-94766667D01*
X228414286Y-94814286D01*
X228223810Y-94861905D01*
X228080952Y-94861905D01*
X227890476Y-94814286D01*
X227795238Y-94766667D01*
X227700000Y-94671429D01*
X227652381Y-94528571D01*
X227652381Y-94433333D01*
X227700000Y-94290476D01*
X227747619Y-94242857D01*
X228652381Y-93290476D02*
X228652381Y-93861905D01*
X228652381Y-93576191D02*
X227652381Y-93576191D01*
X227795238Y-93671429D01*
X227890476Y-93766667D01*
X227938095Y-93861905D01*
X227652381Y-92957143D02*
X227652381Y-92290476D01*
X228652381Y-92719048D01*
X211657143Y-74142857D02*
X211704762Y-74190476D01*
X211752381Y-74333333D01*
X211752381Y-74428571D01*
X211704762Y-74571429D01*
X211609524Y-74666667D01*
X211514286Y-74714286D01*
X211323810Y-74761905D01*
X211180952Y-74761905D01*
X210990476Y-74714286D01*
X210895238Y-74666667D01*
X210800000Y-74571429D01*
X210752381Y-74428571D01*
X210752381Y-74333333D01*
X210800000Y-74190476D01*
X210847619Y-74142857D01*
X211752381Y-73190476D02*
X211752381Y-73761905D01*
X211752381Y-73476191D02*
X210752381Y-73476191D01*
X210895238Y-73571429D01*
X210990476Y-73666667D01*
X211038095Y-73761905D01*
X211180952Y-72619048D02*
X211133333Y-72714286D01*
X211085714Y-72761905D01*
X210990476Y-72809524D01*
X210942857Y-72809524D01*
X210847619Y-72761905D01*
X210800000Y-72714286D01*
X210752381Y-72619048D01*
X210752381Y-72428571D01*
X210800000Y-72333333D01*
X210847619Y-72285714D01*
X210942857Y-72238095D01*
X210990476Y-72238095D01*
X211085714Y-72285714D01*
X211133333Y-72333333D01*
X211180952Y-72428571D01*
X211180952Y-72619048D01*
X211228571Y-72714286D01*
X211276190Y-72761905D01*
X211371429Y-72809524D01*
X211561905Y-72809524D01*
X211657143Y-72761905D01*
X211704762Y-72714286D01*
X211752381Y-72619048D01*
X211752381Y-72428571D01*
X211704762Y-72333333D01*
X211657143Y-72285714D01*
X211561905Y-72238095D01*
X211371429Y-72238095D01*
X211276190Y-72285714D01*
X211228571Y-72333333D01*
X211180952Y-72428571D01*
X253857143Y-94442857D02*
X253904762Y-94490476D01*
X253952381Y-94633333D01*
X253952381Y-94728571D01*
X253904762Y-94871429D01*
X253809524Y-94966667D01*
X253714286Y-95014286D01*
X253523810Y-95061905D01*
X253380952Y-95061905D01*
X253190476Y-95014286D01*
X253095238Y-94966667D01*
X253000000Y-94871429D01*
X252952381Y-94728571D01*
X252952381Y-94633333D01*
X253000000Y-94490476D01*
X253047619Y-94442857D01*
X253952381Y-93490476D02*
X253952381Y-94061905D01*
X253952381Y-93776191D02*
X252952381Y-93776191D01*
X253095238Y-93871429D01*
X253190476Y-93966667D01*
X253238095Y-94061905D01*
X253952381Y-93014286D02*
X253952381Y-92823810D01*
X253904762Y-92728571D01*
X253857143Y-92680952D01*
X253714286Y-92585714D01*
X253523810Y-92538095D01*
X253142857Y-92538095D01*
X253047619Y-92585714D01*
X253000000Y-92633333D01*
X252952381Y-92728571D01*
X252952381Y-92919048D01*
X253000000Y-93014286D01*
X253047619Y-93061905D01*
X253142857Y-93109524D01*
X253380952Y-93109524D01*
X253476190Y-93061905D01*
X253523810Y-93014286D01*
X253571429Y-92919048D01*
X253571429Y-92728571D01*
X253523810Y-92633333D01*
X253476190Y-92585714D01*
X253380952Y-92538095D01*
X237257143Y-74142857D02*
X237304762Y-74190476D01*
X237352381Y-74333333D01*
X237352381Y-74428571D01*
X237304762Y-74571429D01*
X237209524Y-74666667D01*
X237114286Y-74714286D01*
X236923810Y-74761905D01*
X236780952Y-74761905D01*
X236590476Y-74714286D01*
X236495238Y-74666667D01*
X236400000Y-74571429D01*
X236352381Y-74428571D01*
X236352381Y-74333333D01*
X236400000Y-74190476D01*
X236447619Y-74142857D01*
X236447619Y-73761905D02*
X236400000Y-73714286D01*
X236352381Y-73619048D01*
X236352381Y-73380952D01*
X236400000Y-73285714D01*
X236447619Y-73238095D01*
X236542857Y-73190476D01*
X236638095Y-73190476D01*
X236780952Y-73238095D01*
X237352381Y-73809524D01*
X237352381Y-73190476D01*
X236352381Y-72571429D02*
X236352381Y-72476190D01*
X236400000Y-72380952D01*
X236447619Y-72333333D01*
X236542857Y-72285714D01*
X236733333Y-72238095D01*
X236971429Y-72238095D01*
X237161905Y-72285714D01*
X237257143Y-72333333D01*
X237304762Y-72380952D01*
X237352381Y-72476190D01*
X237352381Y-72571429D01*
X237304762Y-72666667D01*
X237257143Y-72714286D01*
X237161905Y-72761905D01*
X236971429Y-72809524D01*
X236733333Y-72809524D01*
X236542857Y-72761905D01*
X236447619Y-72714286D01*
X236400000Y-72666667D01*
X236352381Y-72571429D01*
X279157143Y-94242857D02*
X279204762Y-94290476D01*
X279252381Y-94433333D01*
X279252381Y-94528571D01*
X279204762Y-94671429D01*
X279109524Y-94766667D01*
X279014286Y-94814286D01*
X278823810Y-94861905D01*
X278680952Y-94861905D01*
X278490476Y-94814286D01*
X278395238Y-94766667D01*
X278300000Y-94671429D01*
X278252381Y-94528571D01*
X278252381Y-94433333D01*
X278300000Y-94290476D01*
X278347619Y-94242857D01*
X278347619Y-93861905D02*
X278300000Y-93814286D01*
X278252381Y-93719048D01*
X278252381Y-93480952D01*
X278300000Y-93385714D01*
X278347619Y-93338095D01*
X278442857Y-93290476D01*
X278538095Y-93290476D01*
X278680952Y-93338095D01*
X279252381Y-93909524D01*
X279252381Y-93290476D01*
X279252381Y-92338095D02*
X279252381Y-92909524D01*
X279252381Y-92623810D02*
X278252381Y-92623810D01*
X278395238Y-92719048D01*
X278490476Y-92814286D01*
X278538095Y-92909524D01*
X262557143Y-74142857D02*
X262604762Y-74190476D01*
X262652381Y-74333333D01*
X262652381Y-74428571D01*
X262604762Y-74571429D01*
X262509524Y-74666667D01*
X262414286Y-74714286D01*
X262223810Y-74761905D01*
X262080952Y-74761905D01*
X261890476Y-74714286D01*
X261795238Y-74666667D01*
X261700000Y-74571429D01*
X261652381Y-74428571D01*
X261652381Y-74333333D01*
X261700000Y-74190476D01*
X261747619Y-74142857D01*
X261747619Y-73761905D02*
X261700000Y-73714286D01*
X261652381Y-73619048D01*
X261652381Y-73380952D01*
X261700000Y-73285714D01*
X261747619Y-73238095D01*
X261842857Y-73190476D01*
X261938095Y-73190476D01*
X262080952Y-73238095D01*
X262652381Y-73809524D01*
X262652381Y-73190476D01*
X261747619Y-72809524D02*
X261700000Y-72761905D01*
X261652381Y-72666667D01*
X261652381Y-72428571D01*
X261700000Y-72333333D01*
X261747619Y-72285714D01*
X261842857Y-72238095D01*
X261938095Y-72238095D01*
X262080952Y-72285714D01*
X262652381Y-72857143D01*
X262652381Y-72238095D01*
X70953334Y-42042381D02*
X70620000Y-41566190D01*
X70381905Y-42042381D02*
X70381905Y-41042381D01*
X70762858Y-41042381D01*
X70858096Y-41090000D01*
X70905715Y-41137619D01*
X70953334Y-41232857D01*
X70953334Y-41375714D01*
X70905715Y-41470952D01*
X70858096Y-41518571D01*
X70762858Y-41566190D01*
X70381905Y-41566190D01*
X71905715Y-42042381D02*
X71334286Y-42042381D01*
X71620000Y-42042381D02*
X71620000Y-41042381D01*
X71524762Y-41185238D01*
X71429524Y-41280476D01*
X71334286Y-41328095D01*
D17*
X100375143Y-48257429D02*
X100375143Y-46733429D01*
X100955715Y-46733429D01*
X101100857Y-46806000D01*
X101173429Y-46878571D01*
X101246000Y-47023714D01*
X101246000Y-47241429D01*
X101173429Y-47386571D01*
X101100857Y-47459143D01*
X100955715Y-47531714D01*
X100375143Y-47531714D01*
X101754000Y-46733429D02*
X102697429Y-46733429D01*
X102189429Y-47314000D01*
X102407143Y-47314000D01*
X102552286Y-47386571D01*
X102624857Y-47459143D01*
X102697429Y-47604286D01*
X102697429Y-47967143D01*
X102624857Y-48112286D01*
X102552286Y-48184857D01*
X102407143Y-48257429D01*
X101971715Y-48257429D01*
X101826572Y-48184857D01*
X101754000Y-48112286D01*
X203899428Y-48507429D02*
X203899428Y-46983429D01*
X204480000Y-46983429D01*
X204625142Y-47056000D01*
X204697714Y-47128571D01*
X204770285Y-47273714D01*
X204770285Y-47491429D01*
X204697714Y-47636571D01*
X204625142Y-47709143D01*
X204480000Y-47781714D01*
X203899428Y-47781714D01*
X206221714Y-48507429D02*
X205350857Y-48507429D01*
X205786285Y-48507429D02*
X205786285Y-46983429D01*
X205641142Y-47201143D01*
X205496000Y-47346286D01*
X205350857Y-47418857D01*
X207528000Y-46983429D02*
X207237714Y-46983429D01*
X207092571Y-47056000D01*
X207020000Y-47128571D01*
X206874857Y-47346286D01*
X206802286Y-47636571D01*
X206802286Y-48217143D01*
X206874857Y-48362286D01*
X206947429Y-48434857D01*
X207092571Y-48507429D01*
X207382857Y-48507429D01*
X207528000Y-48434857D01*
X207600571Y-48362286D01*
X207673143Y-48217143D01*
X207673143Y-47854286D01*
X207600571Y-47709143D01*
X207528000Y-47636571D01*
X207382857Y-47564000D01*
X207092571Y-47564000D01*
X206947429Y-47636571D01*
X206874857Y-47709143D01*
X206802286Y-47854286D01*
D16*
X38452381Y-108071428D02*
X37976190Y-108404762D01*
X38452381Y-108642857D02*
X37452381Y-108642857D01*
X37452381Y-108261904D01*
X37500000Y-108166666D01*
X37547619Y-108119047D01*
X37642857Y-108071428D01*
X37785714Y-108071428D01*
X37880952Y-108119047D01*
X37928571Y-108166666D01*
X37976190Y-108261904D01*
X37976190Y-108642857D01*
X38452381Y-107166666D02*
X38452381Y-107642857D01*
X37452381Y-107642857D01*
X38452381Y-106309523D02*
X38452381Y-106880952D01*
X38452381Y-106595238D02*
X37452381Y-106595238D01*
X37595238Y-106690476D01*
X37690476Y-106785714D01*
X37738095Y-106880952D01*
X38952381Y-61571428D02*
X38476190Y-61904762D01*
X38952381Y-62142857D02*
X37952381Y-62142857D01*
X37952381Y-61761904D01*
X38000000Y-61666666D01*
X38047619Y-61619047D01*
X38142857Y-61571428D01*
X38285714Y-61571428D01*
X38380952Y-61619047D01*
X38428571Y-61666666D01*
X38476190Y-61761904D01*
X38476190Y-62142857D01*
X38952381Y-60666666D02*
X38952381Y-61142857D01*
X37952381Y-61142857D01*
X38047619Y-60380952D02*
X38000000Y-60333333D01*
X37952381Y-60238095D01*
X37952381Y-59999999D01*
X38000000Y-59904761D01*
X38047619Y-59857142D01*
X38142857Y-59809523D01*
X38238095Y-59809523D01*
X38380952Y-59857142D01*
X38952381Y-60428571D01*
X38952381Y-59809523D01*
X63452381Y-108071428D02*
X62976190Y-108404762D01*
X63452381Y-108642857D02*
X62452381Y-108642857D01*
X62452381Y-108261904D01*
X62500000Y-108166666D01*
X62547619Y-108119047D01*
X62642857Y-108071428D01*
X62785714Y-108071428D01*
X62880952Y-108119047D01*
X62928571Y-108166666D01*
X62976190Y-108261904D01*
X62976190Y-108642857D01*
X63452381Y-107166666D02*
X63452381Y-107642857D01*
X62452381Y-107642857D01*
X62452381Y-106928571D02*
X62452381Y-106309523D01*
X62833333Y-106642857D01*
X62833333Y-106499999D01*
X62880952Y-106404761D01*
X62928571Y-106357142D01*
X63023810Y-106309523D01*
X63261905Y-106309523D01*
X63357143Y-106357142D01*
X63404762Y-106404761D01*
X63452381Y-106499999D01*
X63452381Y-106785714D01*
X63404762Y-106880952D01*
X63357143Y-106928571D01*
X63952381Y-61571428D02*
X63476190Y-61904762D01*
X63952381Y-62142857D02*
X62952381Y-62142857D01*
X62952381Y-61761904D01*
X63000000Y-61666666D01*
X63047619Y-61619047D01*
X63142857Y-61571428D01*
X63285714Y-61571428D01*
X63380952Y-61619047D01*
X63428571Y-61666666D01*
X63476190Y-61761904D01*
X63476190Y-62142857D01*
X63952381Y-60666666D02*
X63952381Y-61142857D01*
X62952381Y-61142857D01*
X63285714Y-59904761D02*
X63952381Y-59904761D01*
X62904762Y-60142857D02*
X63619048Y-60380952D01*
X63619048Y-59761904D01*
X88452381Y-108071428D02*
X87976190Y-108404762D01*
X88452381Y-108642857D02*
X87452381Y-108642857D01*
X87452381Y-108261904D01*
X87500000Y-108166666D01*
X87547619Y-108119047D01*
X87642857Y-108071428D01*
X87785714Y-108071428D01*
X87880952Y-108119047D01*
X87928571Y-108166666D01*
X87976190Y-108261904D01*
X87976190Y-108642857D01*
X88452381Y-107166666D02*
X88452381Y-107642857D01*
X87452381Y-107642857D01*
X87452381Y-106357142D02*
X87452381Y-106833333D01*
X87928571Y-106880952D01*
X87880952Y-106833333D01*
X87833333Y-106738095D01*
X87833333Y-106499999D01*
X87880952Y-106404761D01*
X87928571Y-106357142D01*
X88023810Y-106309523D01*
X88261905Y-106309523D01*
X88357143Y-106357142D01*
X88404762Y-106404761D01*
X88452381Y-106499999D01*
X88452381Y-106738095D01*
X88404762Y-106833333D01*
X88357143Y-106880952D01*
X88952381Y-61571428D02*
X88476190Y-61904762D01*
X88952381Y-62142857D02*
X87952381Y-62142857D01*
X87952381Y-61761904D01*
X88000000Y-61666666D01*
X88047619Y-61619047D01*
X88142857Y-61571428D01*
X88285714Y-61571428D01*
X88380952Y-61619047D01*
X88428571Y-61666666D01*
X88476190Y-61761904D01*
X88476190Y-62142857D01*
X88952381Y-60666666D02*
X88952381Y-61142857D01*
X87952381Y-61142857D01*
X87952381Y-59904761D02*
X87952381Y-60095238D01*
X88000000Y-60190476D01*
X88047619Y-60238095D01*
X88190476Y-60333333D01*
X88380952Y-60380952D01*
X88761905Y-60380952D01*
X88857143Y-60333333D01*
X88904762Y-60285714D01*
X88952381Y-60190476D01*
X88952381Y-59999999D01*
X88904762Y-59904761D01*
X88857143Y-59857142D01*
X88761905Y-59809523D01*
X88523810Y-59809523D01*
X88428571Y-59857142D01*
X88380952Y-59904761D01*
X88333333Y-59999999D01*
X88333333Y-60190476D01*
X88380952Y-60285714D01*
X88428571Y-60333333D01*
X88523810Y-60380952D01*
X113452381Y-108071428D02*
X112976190Y-108404762D01*
X113452381Y-108642857D02*
X112452381Y-108642857D01*
X112452381Y-108261904D01*
X112500000Y-108166666D01*
X112547619Y-108119047D01*
X112642857Y-108071428D01*
X112785714Y-108071428D01*
X112880952Y-108119047D01*
X112928571Y-108166666D01*
X112976190Y-108261904D01*
X112976190Y-108642857D01*
X113452381Y-107166666D02*
X113452381Y-107642857D01*
X112452381Y-107642857D01*
X112452381Y-106928571D02*
X112452381Y-106261904D01*
X113452381Y-106690476D01*
X113952381Y-61571428D02*
X113476190Y-61904762D01*
X113952381Y-62142857D02*
X112952381Y-62142857D01*
X112952381Y-61761904D01*
X113000000Y-61666666D01*
X113047619Y-61619047D01*
X113142857Y-61571428D01*
X113285714Y-61571428D01*
X113380952Y-61619047D01*
X113428571Y-61666666D01*
X113476190Y-61761904D01*
X113476190Y-62142857D01*
X113952381Y-60666666D02*
X113952381Y-61142857D01*
X112952381Y-61142857D01*
X113380952Y-60190476D02*
X113333333Y-60285714D01*
X113285714Y-60333333D01*
X113190476Y-60380952D01*
X113142857Y-60380952D01*
X113047619Y-60333333D01*
X113000000Y-60285714D01*
X112952381Y-60190476D01*
X112952381Y-59999999D01*
X113000000Y-59904761D01*
X113047619Y-59857142D01*
X113142857Y-59809523D01*
X113190476Y-59809523D01*
X113285714Y-59857142D01*
X113333333Y-59904761D01*
X113380952Y-59999999D01*
X113380952Y-60190476D01*
X113428571Y-60285714D01*
X113476190Y-60333333D01*
X113571429Y-60380952D01*
X113761905Y-60380952D01*
X113857143Y-60333333D01*
X113904762Y-60285714D01*
X113952381Y-60190476D01*
X113952381Y-59999999D01*
X113904762Y-59904761D01*
X113857143Y-59857142D01*
X113761905Y-59809523D01*
X113571429Y-59809523D01*
X113476190Y-59857142D01*
X113428571Y-59904761D01*
X113380952Y-59999999D01*
X138452381Y-108071428D02*
X137976190Y-108404762D01*
X138452381Y-108642857D02*
X137452381Y-108642857D01*
X137452381Y-108261904D01*
X137500000Y-108166666D01*
X137547619Y-108119047D01*
X137642857Y-108071428D01*
X137785714Y-108071428D01*
X137880952Y-108119047D01*
X137928571Y-108166666D01*
X137976190Y-108261904D01*
X137976190Y-108642857D01*
X138452381Y-107166666D02*
X138452381Y-107642857D01*
X137452381Y-107642857D01*
X138452381Y-106785714D02*
X138452381Y-106595238D01*
X138404762Y-106499999D01*
X138357143Y-106452380D01*
X138214286Y-106357142D01*
X138023810Y-106309523D01*
X137642857Y-106309523D01*
X137547619Y-106357142D01*
X137500000Y-106404761D01*
X137452381Y-106499999D01*
X137452381Y-106690476D01*
X137500000Y-106785714D01*
X137547619Y-106833333D01*
X137642857Y-106880952D01*
X137880952Y-106880952D01*
X137976190Y-106833333D01*
X138023810Y-106785714D01*
X138071429Y-106690476D01*
X138071429Y-106499999D01*
X138023810Y-106404761D01*
X137976190Y-106357142D01*
X137880952Y-106309523D01*
X138952381Y-62047619D02*
X138476190Y-62380953D01*
X138952381Y-62619048D02*
X137952381Y-62619048D01*
X137952381Y-62238095D01*
X138000000Y-62142857D01*
X138047619Y-62095238D01*
X138142857Y-62047619D01*
X138285714Y-62047619D01*
X138380952Y-62095238D01*
X138428571Y-62142857D01*
X138476190Y-62238095D01*
X138476190Y-62619048D01*
X138952381Y-61142857D02*
X138952381Y-61619048D01*
X137952381Y-61619048D01*
X138952381Y-60285714D02*
X138952381Y-60857143D01*
X138952381Y-60571429D02*
X137952381Y-60571429D01*
X138095238Y-60666667D01*
X138190476Y-60761905D01*
X138238095Y-60857143D01*
X137952381Y-59666667D02*
X137952381Y-59571428D01*
X138000000Y-59476190D01*
X138047619Y-59428571D01*
X138142857Y-59380952D01*
X138333333Y-59333333D01*
X138571429Y-59333333D01*
X138761905Y-59380952D01*
X138857143Y-59428571D01*
X138904762Y-59476190D01*
X138952381Y-59571428D01*
X138952381Y-59666667D01*
X138904762Y-59761905D01*
X138857143Y-59809524D01*
X138761905Y-59857143D01*
X138571429Y-59904762D01*
X138333333Y-59904762D01*
X138142857Y-59857143D01*
X138047619Y-59809524D01*
X138000000Y-59761905D01*
X137952381Y-59666667D01*
X168452381Y-108547619D02*
X167976190Y-108880953D01*
X168452381Y-109119048D02*
X167452381Y-109119048D01*
X167452381Y-108738095D01*
X167500000Y-108642857D01*
X167547619Y-108595238D01*
X167642857Y-108547619D01*
X167785714Y-108547619D01*
X167880952Y-108595238D01*
X167928571Y-108642857D01*
X167976190Y-108738095D01*
X167976190Y-109119048D01*
X168452381Y-107642857D02*
X168452381Y-108119048D01*
X167452381Y-108119048D01*
X168452381Y-106785714D02*
X168452381Y-107357143D01*
X168452381Y-107071429D02*
X167452381Y-107071429D01*
X167595238Y-107166667D01*
X167690476Y-107261905D01*
X167738095Y-107357143D01*
X168452381Y-105833333D02*
X168452381Y-106404762D01*
X168452381Y-106119048D02*
X167452381Y-106119048D01*
X167595238Y-106214286D01*
X167690476Y-106309524D01*
X167738095Y-106404762D01*
X193452381Y-108547619D02*
X192976190Y-108880953D01*
X193452381Y-109119048D02*
X192452381Y-109119048D01*
X192452381Y-108738095D01*
X192500000Y-108642857D01*
X192547619Y-108595238D01*
X192642857Y-108547619D01*
X192785714Y-108547619D01*
X192880952Y-108595238D01*
X192928571Y-108642857D01*
X192976190Y-108738095D01*
X192976190Y-109119048D01*
X193452381Y-107642857D02*
X193452381Y-108119048D01*
X192452381Y-108119048D01*
X193452381Y-106785714D02*
X193452381Y-107357143D01*
X193452381Y-107071429D02*
X192452381Y-107071429D01*
X192595238Y-107166667D01*
X192690476Y-107261905D01*
X192738095Y-107357143D01*
X192452381Y-106452381D02*
X192452381Y-105833333D01*
X192833333Y-106166667D01*
X192833333Y-106023809D01*
X192880952Y-105928571D01*
X192928571Y-105880952D01*
X193023810Y-105833333D01*
X193261905Y-105833333D01*
X193357143Y-105880952D01*
X193404762Y-105928571D01*
X193452381Y-106023809D01*
X193452381Y-106309524D01*
X193404762Y-106404762D01*
X193357143Y-106452381D01*
X193952381Y-62047619D02*
X193476190Y-62380953D01*
X193952381Y-62619048D02*
X192952381Y-62619048D01*
X192952381Y-62238095D01*
X193000000Y-62142857D01*
X193047619Y-62095238D01*
X193142857Y-62047619D01*
X193285714Y-62047619D01*
X193380952Y-62095238D01*
X193428571Y-62142857D01*
X193476190Y-62238095D01*
X193476190Y-62619048D01*
X193952381Y-61142857D02*
X193952381Y-61619048D01*
X192952381Y-61619048D01*
X193952381Y-60285714D02*
X193952381Y-60857143D01*
X193952381Y-60571429D02*
X192952381Y-60571429D01*
X193095238Y-60666667D01*
X193190476Y-60761905D01*
X193238095Y-60857143D01*
X193285714Y-59428571D02*
X193952381Y-59428571D01*
X192904762Y-59666667D02*
X193619048Y-59904762D01*
X193619048Y-59285714D01*
X218452381Y-108547619D02*
X217976190Y-108880953D01*
X218452381Y-109119048D02*
X217452381Y-109119048D01*
X217452381Y-108738095D01*
X217500000Y-108642857D01*
X217547619Y-108595238D01*
X217642857Y-108547619D01*
X217785714Y-108547619D01*
X217880952Y-108595238D01*
X217928571Y-108642857D01*
X217976190Y-108738095D01*
X217976190Y-109119048D01*
X218452381Y-107642857D02*
X218452381Y-108119048D01*
X217452381Y-108119048D01*
X218452381Y-106785714D02*
X218452381Y-107357143D01*
X218452381Y-107071429D02*
X217452381Y-107071429D01*
X217595238Y-107166667D01*
X217690476Y-107261905D01*
X217738095Y-107357143D01*
X217452381Y-105880952D02*
X217452381Y-106357143D01*
X217928571Y-106404762D01*
X217880952Y-106357143D01*
X217833333Y-106261905D01*
X217833333Y-106023809D01*
X217880952Y-105928571D01*
X217928571Y-105880952D01*
X218023810Y-105833333D01*
X218261905Y-105833333D01*
X218357143Y-105880952D01*
X218404762Y-105928571D01*
X218452381Y-106023809D01*
X218452381Y-106261905D01*
X218404762Y-106357143D01*
X218357143Y-106404762D01*
X218952381Y-62047619D02*
X218476190Y-62380953D01*
X218952381Y-62619048D02*
X217952381Y-62619048D01*
X217952381Y-62238095D01*
X218000000Y-62142857D01*
X218047619Y-62095238D01*
X218142857Y-62047619D01*
X218285714Y-62047619D01*
X218380952Y-62095238D01*
X218428571Y-62142857D01*
X218476190Y-62238095D01*
X218476190Y-62619048D01*
X218952381Y-61142857D02*
X218952381Y-61619048D01*
X217952381Y-61619048D01*
X218952381Y-60285714D02*
X218952381Y-60857143D01*
X218952381Y-60571429D02*
X217952381Y-60571429D01*
X218095238Y-60666667D01*
X218190476Y-60761905D01*
X218238095Y-60857143D01*
X217952381Y-59428571D02*
X217952381Y-59619048D01*
X218000000Y-59714286D01*
X218047619Y-59761905D01*
X218190476Y-59857143D01*
X218380952Y-59904762D01*
X218761905Y-59904762D01*
X218857143Y-59857143D01*
X218904762Y-59809524D01*
X218952381Y-59714286D01*
X218952381Y-59523809D01*
X218904762Y-59428571D01*
X218857143Y-59380952D01*
X218761905Y-59333333D01*
X218523810Y-59333333D01*
X218428571Y-59380952D01*
X218380952Y-59428571D01*
X218333333Y-59523809D01*
X218333333Y-59714286D01*
X218380952Y-59809524D01*
X218428571Y-59857143D01*
X218523810Y-59904762D01*
X243952381Y-62047619D02*
X243476190Y-62380953D01*
X243952381Y-62619048D02*
X242952381Y-62619048D01*
X242952381Y-62238095D01*
X243000000Y-62142857D01*
X243047619Y-62095238D01*
X243142857Y-62047619D01*
X243285714Y-62047619D01*
X243380952Y-62095238D01*
X243428571Y-62142857D01*
X243476190Y-62238095D01*
X243476190Y-62619048D01*
X243952381Y-61142857D02*
X243952381Y-61619048D01*
X242952381Y-61619048D01*
X243952381Y-60285714D02*
X243952381Y-60857143D01*
X243952381Y-60571429D02*
X242952381Y-60571429D01*
X243095238Y-60666667D01*
X243190476Y-60761905D01*
X243238095Y-60857143D01*
X243380952Y-59714286D02*
X243333333Y-59809524D01*
X243285714Y-59857143D01*
X243190476Y-59904762D01*
X243142857Y-59904762D01*
X243047619Y-59857143D01*
X243000000Y-59809524D01*
X242952381Y-59714286D01*
X242952381Y-59523809D01*
X243000000Y-59428571D01*
X243047619Y-59380952D01*
X243142857Y-59333333D01*
X243190476Y-59333333D01*
X243285714Y-59380952D01*
X243333333Y-59428571D01*
X243380952Y-59523809D01*
X243380952Y-59714286D01*
X243428571Y-59809524D01*
X243476190Y-59857143D01*
X243571429Y-59904762D01*
X243761905Y-59904762D01*
X243857143Y-59857143D01*
X243904762Y-59809524D01*
X243952381Y-59714286D01*
X243952381Y-59523809D01*
X243904762Y-59428571D01*
X243857143Y-59380952D01*
X243761905Y-59333333D01*
X243571429Y-59333333D01*
X243476190Y-59380952D01*
X243428571Y-59428571D01*
X243380952Y-59523809D01*
X268452381Y-108547619D02*
X267976190Y-108880953D01*
X268452381Y-109119048D02*
X267452381Y-109119048D01*
X267452381Y-108738095D01*
X267500000Y-108642857D01*
X267547619Y-108595238D01*
X267642857Y-108547619D01*
X267785714Y-108547619D01*
X267880952Y-108595238D01*
X267928571Y-108642857D01*
X267976190Y-108738095D01*
X267976190Y-109119048D01*
X268452381Y-107642857D02*
X268452381Y-108119048D01*
X267452381Y-108119048D01*
X268452381Y-106785714D02*
X268452381Y-107357143D01*
X268452381Y-107071429D02*
X267452381Y-107071429D01*
X267595238Y-107166667D01*
X267690476Y-107261905D01*
X267738095Y-107357143D01*
X268452381Y-106309524D02*
X268452381Y-106119048D01*
X268404762Y-106023809D01*
X268357143Y-105976190D01*
X268214286Y-105880952D01*
X268023810Y-105833333D01*
X267642857Y-105833333D01*
X267547619Y-105880952D01*
X267500000Y-105928571D01*
X267452381Y-106023809D01*
X267452381Y-106214286D01*
X267500000Y-106309524D01*
X267547619Y-106357143D01*
X267642857Y-106404762D01*
X267880952Y-106404762D01*
X267976190Y-106357143D01*
X268023810Y-106309524D01*
X268071429Y-106214286D01*
X268071429Y-106023809D01*
X268023810Y-105928571D01*
X267976190Y-105880952D01*
X267880952Y-105833333D01*
X268952381Y-62047619D02*
X268476190Y-62380953D01*
X268952381Y-62619048D02*
X267952381Y-62619048D01*
X267952381Y-62238095D01*
X268000000Y-62142857D01*
X268047619Y-62095238D01*
X268142857Y-62047619D01*
X268285714Y-62047619D01*
X268380952Y-62095238D01*
X268428571Y-62142857D01*
X268476190Y-62238095D01*
X268476190Y-62619048D01*
X268952381Y-61142857D02*
X268952381Y-61619048D01*
X267952381Y-61619048D01*
X268047619Y-60857143D02*
X268000000Y-60809524D01*
X267952381Y-60714286D01*
X267952381Y-60476190D01*
X268000000Y-60380952D01*
X268047619Y-60333333D01*
X268142857Y-60285714D01*
X268238095Y-60285714D01*
X268380952Y-60333333D01*
X268952381Y-60904762D01*
X268952381Y-60285714D01*
X267952381Y-59666667D02*
X267952381Y-59571428D01*
X268000000Y-59476190D01*
X268047619Y-59428571D01*
X268142857Y-59380952D01*
X268333333Y-59333333D01*
X268571429Y-59333333D01*
X268761905Y-59380952D01*
X268857143Y-59428571D01*
X268904762Y-59476190D01*
X268952381Y-59571428D01*
X268952381Y-59666667D01*
X268904762Y-59761905D01*
X268857143Y-59809524D01*
X268761905Y-59857143D01*
X268571429Y-59904762D01*
X268333333Y-59904762D01*
X268142857Y-59857143D01*
X268047619Y-59809524D01*
X268000000Y-59761905D01*
X267952381Y-59666667D01*
M02*
