M48
INCH,TZ
T1C0.016
T2C0.047
T3C0.051
T4C0.059
T5C0.063
T6C0.120
%
G90
G05
T1
X8858Y-19685
X8858Y-23622
X8858Y-27559
X8858Y-31496
X8858Y-35433
X8858Y-39370
X8858Y-43307
X8858Y-47244
X10500Y-15500
X12500Y-15500
X13780Y-49213
X14764Y-39370
X14764Y-42323
X17717Y-49213
X18000Y-15000
X18701Y-24606
X18701Y-27559
X18701Y-30512
X20000Y-17500
X21654Y-49213
X22000Y-15000
X25591Y-39370
X25591Y-42323
X25591Y-49213
X27000Y-15000
X28543Y-24606
X28543Y-27559
X28543Y-30512
X29528Y-49213
X32000Y-15000
X33465Y-49213
X35433Y-39370
X35433Y-42323
X37000Y-15000
X37402Y-49213
X38386Y-24606
X38386Y-27559
X38386Y-30512
X41339Y-49213
X42000Y-15000
X45276Y-39370
X45276Y-42323
X45276Y-49213
X47000Y-15000
X48228Y-24606
X48228Y-27559
X48228Y-30512
X49213Y-49213
X51000Y-15000
X55118Y-15748
X55118Y-39370
X55118Y-41339
X57087Y-49213
X59055Y-15748
X59055Y-24606
X59055Y-27559
X59055Y-30512
X61024Y-49213
X62992Y-15748
X64961Y-49213
X65945Y-39370
X65945Y-42323
X69882Y-24606
X69882Y-27559
X69882Y-30512
X70866Y-15748
X70866Y-49213
X74803Y-15748
X74803Y-49213
X76772Y-39370
X76772Y-42323
X78740Y-15748
X78740Y-49213
X79724Y-24606
X79724Y-27559
X79724Y-30512
X82677Y-15748
X82677Y-49213
X86614Y-15748
X86614Y-39370
X86614Y-42323
X86614Y-49213
X89567Y-24606
X89567Y-27559
X89567Y-30512
X90551Y-15748
X90551Y-49213
X94488Y-15748
X94488Y-49213
X96457Y-39370
X96457Y-42323
X98425Y-15748
X98425Y-49213
X99409Y-24606
X99409Y-27559
X99409Y-30512
X102362Y-15748
X102362Y-49213
X106299Y-15748
X106299Y-39370
X106299Y-42323
X106299Y-49213
X109252Y-24606
X109252Y-27559
X109252Y-30512
X110236Y-17717
X110236Y-21654
X110236Y-25591
X110236Y-29528
X110236Y-33465
X110236Y-37402
X110236Y-41339
X110236Y-45276
T2
X25500Y-17500
X30500Y-17500
X36500Y-17000
X37500Y-17000
X38500Y-17000
X39500Y-17000
X40500Y-17000
X41500Y-17000
X42500Y-17000
X43500Y-17000
X79000Y-17000
X80000Y-17000
X81000Y-17000
X82000Y-17000
X83000Y-17000
T3
X13728Y-29000
X13728Y-37000
X15228Y-46500
X17272Y-29000
X17272Y-37000
X18772Y-46500
X23728Y-29000
X23728Y-37000
X27272Y-29000
X27272Y-37000
X33728Y-29000
X33728Y-37000
X37272Y-29000
X37272Y-37000
X43728Y-29000
X43728Y-37000
X47272Y-29000
X47272Y-37000
X53728Y-29000
X53728Y-37000
X57272Y-29000
X57272Y-37000
X64728Y-29000
X64728Y-37000
X68272Y-29000
X68272Y-37000
X74728Y-29000
X74728Y-37000
X78272Y-29000
X78272Y-37000
X84728Y-29000
X84728Y-37000
X88272Y-29000
X88272Y-37000
X94728Y-29000
X94728Y-37000
X98272Y-29000
X98272Y-37000
X104728Y-29000
X104728Y-37000
X108272Y-29000
X108272Y-37000
T4
X11575Y-24000
X11575Y-42000
X12362Y-21638
X12362Y-26362
X12362Y-39638
X12362Y-44362
X17165Y-21638
X17165Y-26362
X17165Y-39638
X17165Y-44362
X21575Y-24000
X21575Y-42000
X22362Y-21638
X22362Y-26362
X22362Y-39638
X22362Y-44362
X27165Y-21638
X27165Y-26362
X27165Y-39638
X27165Y-44362
X31575Y-24000
X31575Y-42000
X32362Y-21638
X32362Y-26362
X32362Y-39638
X32362Y-44362
X37165Y-21638
X37165Y-26362
X37165Y-39638
X37165Y-44362
X41575Y-24000
X41575Y-42000
X42362Y-21638
X42362Y-26362
X42362Y-39638
X42362Y-44362
X47165Y-21638
X47165Y-26362
X47165Y-39638
X47165Y-44362
X51575Y-24000
X51575Y-42000
X52362Y-21638
X52362Y-26362
X52362Y-39638
X52362Y-44362
X57165Y-21638
X57165Y-26362
X57165Y-39638
X57165Y-44362
X62575Y-24000
X62575Y-42000
X63362Y-21638
X63362Y-26362
X63362Y-39638
X63362Y-44362
X68165Y-21638
X68165Y-26362
X68165Y-39638
X68165Y-44362
X72575Y-24000
X72575Y-42000
X73362Y-21638
X73362Y-26362
X73362Y-39638
X73362Y-44362
X78165Y-21638
X78165Y-26362
X78165Y-39638
X78165Y-44362
X82575Y-24000
X82575Y-42000
X83362Y-21638
X83362Y-26362
X83362Y-39638
X83362Y-44362
X88165Y-21638
X88165Y-26362
X88165Y-39638
X88165Y-44362
X92575Y-24000
X92575Y-42000
X93362Y-21638
X93362Y-26362
X93362Y-39638
X93362Y-44362
X98165Y-21638
X98165Y-26362
X98165Y-39638
X98165Y-44362
X102575Y-24000
X102575Y-42000
X103362Y-21638
X103362Y-26362
X103362Y-39638
X103362Y-44362
X108165Y-21638
X108165Y-26362
X108165Y-39638
X108165Y-44362
T5
X12244Y-31425
X17756Y-34575
X22244Y-31425
X27756Y-34575
X32244Y-31425
X37756Y-34575
X42244Y-31425
X47756Y-34575
X52244Y-31425
X57756Y-34575
X63244Y-31425
X68756Y-34575
X73244Y-31425
X78756Y-34575
X83244Y-31425
X88756Y-34575
X93244Y-31425
X98756Y-34575
X103244Y-31425
X108756Y-34575
T6
X15000Y-15500
X15000Y-49000
X53000Y-15500
X53000Y-49000
X67000Y-15500
X67000Y-49000
X105000Y-15500
X105000Y-49000
T0
M30
