G04 #@! TF.FileFunction,Paste,Bot*
%FSLAX46Y46*%
G04 Gerber Fmt 4.6, Leading zero omitted, Abs format (unit mm)*
G04 Created by KiCad (PCBNEW 4.0.6) date 04/17/17 17:22:29*
%MOMM*%
%LPD*%
G01*
G04 APERTURE LIST*
%ADD10C,0.100000*%
%ADD11R,1.600000X3.600000*%
%ADD12R,3.500000X2.300000*%
%ADD13R,2.300000X3.500000*%
%ADD14R,4.000000X2.500000*%
%ADD15R,3.000000X1.300000*%
%ADD16R,2.200000X6.350000*%
%ADD17R,2.000000X1.600000*%
G04 APERTURE END LIST*
D10*
D11*
X33830000Y-111760000D03*
X39830000Y-111760000D03*
D12*
X40480000Y-59690000D03*
X45880000Y-59690000D03*
D13*
X29210000Y-96680000D03*
X29210000Y-91280000D03*
D12*
X65880000Y-59690000D03*
X71280000Y-59690000D03*
D13*
X54610000Y-96680000D03*
X54610000Y-91280000D03*
D12*
X91280000Y-59690000D03*
X96680000Y-59690000D03*
D13*
X80010000Y-96680000D03*
X80010000Y-91280000D03*
D12*
X116680000Y-59690000D03*
X122080000Y-59690000D03*
D13*
X105410000Y-96680000D03*
X105410000Y-91280000D03*
D12*
X142080000Y-59690000D03*
X147480000Y-59690000D03*
D13*
X130810000Y-95410000D03*
X130810000Y-90010000D03*
D12*
X170020000Y-59690000D03*
X175420000Y-59690000D03*
D13*
X158750000Y-96680000D03*
X158750000Y-91280000D03*
D12*
X195420000Y-59690000D03*
X200820000Y-59690000D03*
D13*
X184150000Y-96680000D03*
X184150000Y-91280000D03*
D12*
X220820000Y-59690000D03*
X226220000Y-59690000D03*
D13*
X209550000Y-96680000D03*
X209550000Y-91280000D03*
D12*
X246220000Y-59690000D03*
X251620000Y-59690000D03*
D13*
X234950000Y-96680000D03*
X234950000Y-91280000D03*
D12*
X271620000Y-59690000D03*
X277020000Y-59690000D03*
D13*
X260350000Y-96680000D03*
X260350000Y-91280000D03*
D14*
X27480000Y-118110000D03*
D15*
X32480000Y-118110000D03*
D14*
X28750000Y-50800000D03*
D15*
X33750000Y-50800000D03*
D14*
X279860000Y-50800000D03*
D15*
X274860000Y-50800000D03*
D14*
X279860000Y-118110000D03*
D15*
X274860000Y-118110000D03*
D10*
G36*
X144603223Y-122240990D02*
X146370990Y-120473223D01*
X149199417Y-123301650D01*
X147431650Y-125069417D01*
X144603223Y-122240990D01*
X144603223Y-122240990D01*
G37*
G36*
X141845506Y-118634745D02*
X142764745Y-117715506D01*
X144886066Y-119836827D01*
X143966827Y-120756066D01*
X141845506Y-118634745D01*
X141845506Y-118634745D01*
G37*
G36*
X160196777Y-46669010D02*
X158429010Y-48436777D01*
X155600583Y-45608350D01*
X157368350Y-43840583D01*
X160196777Y-46669010D01*
X160196777Y-46669010D01*
G37*
G36*
X162954494Y-50275255D02*
X162035255Y-51194494D01*
X159913934Y-49073173D01*
X160833173Y-48153934D01*
X162954494Y-50275255D01*
X162954494Y-50275255D01*
G37*
G36*
X148910990Y-48436777D02*
X147143223Y-46669010D01*
X149971650Y-43840583D01*
X151739417Y-45608350D01*
X148910990Y-48436777D01*
X148910990Y-48436777D01*
G37*
G36*
X145304745Y-51194494D02*
X144385506Y-50275255D01*
X146506827Y-48153934D01*
X147426066Y-49073173D01*
X145304745Y-51194494D01*
X145304745Y-51194494D01*
G37*
G36*
X158429010Y-120473223D02*
X160196777Y-122240990D01*
X157368350Y-125069417D01*
X155600583Y-123301650D01*
X158429010Y-120473223D01*
X158429010Y-120473223D01*
G37*
G36*
X162035255Y-117715506D02*
X162954494Y-118634745D01*
X160833173Y-120756066D01*
X159913934Y-119836827D01*
X162035255Y-117715506D01*
X162035255Y-117715506D01*
G37*
D16*
X32660000Y-87630000D03*
X38460000Y-87630000D03*
X43540000Y-78740000D03*
X37740000Y-78740000D03*
X58060000Y-87630000D03*
X63860000Y-87630000D03*
X68940000Y-78740000D03*
X63140000Y-78740000D03*
X83460000Y-87630000D03*
X89260000Y-87630000D03*
X94340000Y-78740000D03*
X88540000Y-78740000D03*
X108860000Y-87630000D03*
X114660000Y-87630000D03*
X119740000Y-78740000D03*
X113940000Y-78740000D03*
X134260000Y-87630000D03*
X140060000Y-87630000D03*
X145140000Y-78740000D03*
X139340000Y-78740000D03*
X162200000Y-87630000D03*
X168000000Y-87630000D03*
X173080000Y-78740000D03*
X167280000Y-78740000D03*
X187600000Y-87630000D03*
X193400000Y-87630000D03*
X198480000Y-78740000D03*
X192680000Y-78740000D03*
X213000000Y-87630000D03*
X218800000Y-87630000D03*
X223880000Y-78740000D03*
X218080000Y-78740000D03*
X238400000Y-87630000D03*
X244200000Y-87630000D03*
X249280000Y-78740000D03*
X243480000Y-78740000D03*
X263800000Y-87630000D03*
X269600000Y-87630000D03*
X274680000Y-78740000D03*
X268880000Y-78740000D03*
D17*
X40100000Y-54610000D03*
X36100000Y-54610000D03*
X50070000Y-100330000D03*
X54070000Y-100330000D03*
X90900000Y-54610000D03*
X86900000Y-54610000D03*
X116300000Y-54610000D03*
X112300000Y-54610000D03*
X141700000Y-54610000D03*
X137700000Y-54610000D03*
X169640000Y-54610000D03*
X165640000Y-54610000D03*
X195040000Y-54610000D03*
X191040000Y-54610000D03*
X220440000Y-54610000D03*
X216440000Y-54610000D03*
X245840000Y-54610000D03*
X241840000Y-54610000D03*
X271240000Y-54610000D03*
X267240000Y-54610000D03*
X41370000Y-50800000D03*
X37370000Y-50800000D03*
X24670000Y-100330000D03*
X28670000Y-100330000D03*
X65500000Y-54610000D03*
X61500000Y-54610000D03*
X75470000Y-100330000D03*
X79470000Y-100330000D03*
X100870000Y-100330000D03*
X104870000Y-100330000D03*
X126270000Y-100330000D03*
X130270000Y-100330000D03*
X154210000Y-100330000D03*
X158210000Y-100330000D03*
X179610000Y-100330000D03*
X183610000Y-100330000D03*
X205010000Y-100330000D03*
X209010000Y-100330000D03*
X230410000Y-100330000D03*
X234410000Y-100330000D03*
X255810000Y-100330000D03*
X259810000Y-100330000D03*
X71850000Y-44450000D03*
X67850000Y-44450000D03*
M02*
