G04 #@! TF.FileFunction,Legend,Top*
%FSLAX46Y46*%
G04 Gerber Fmt 4.6, Leading zero omitted, Abs format (unit mm)*
G04 Created by KiCad (PCBNEW 4.0.5) date 02/01/17 10:47:15*
%MOMM*%
%LPD*%
G01*
G04 APERTURE LIST*
%ADD10C,0.600000*%
%ADD11C,0.120000*%
%ADD12C,1.000000*%
%ADD13C,0.100000*%
%ADD14C,0.150000*%
G04 APERTURE END LIST*
D10*
D11*
X40386000Y-39370000D02*
G75*
G03X40386000Y-39370000I-2286000J0D01*
G01*
X40386000Y-124460000D02*
G75*
G03X40386000Y-124460000I-2286000J0D01*
G01*
X268986000Y-39370000D02*
G75*
G03X268986000Y-39370000I-2286000J0D01*
G01*
X268986000Y-124460000D02*
G75*
G03X268986000Y-124460000I-2286000J0D01*
G01*
D12*
X27600000Y-108680000D02*
X26600000Y-108680000D01*
X27600000Y-104680000D02*
X26600000Y-104680000D01*
X27600000Y-104680000D02*
X27600000Y-108680000D01*
X49600000Y-98180000D02*
X26600000Y-98180000D01*
X26600000Y-98180000D02*
X26600000Y-115180000D01*
X26600000Y-115180000D02*
X49600000Y-115180000D01*
X49600000Y-115180000D02*
X49600000Y-98180000D01*
X27600000Y-62960000D02*
X26600000Y-62960000D01*
X27600000Y-58960000D02*
X26600000Y-58960000D01*
X27600000Y-58960000D02*
X27600000Y-62960000D01*
X49600000Y-52460000D02*
X26600000Y-52460000D01*
X26600000Y-52460000D02*
X26600000Y-69460000D01*
X26600000Y-69460000D02*
X49600000Y-69460000D01*
X49600000Y-69460000D02*
X49600000Y-52460000D01*
X53000000Y-108680000D02*
X52000000Y-108680000D01*
X53000000Y-104680000D02*
X52000000Y-104680000D01*
X53000000Y-104680000D02*
X53000000Y-108680000D01*
X75000000Y-98180000D02*
X52000000Y-98180000D01*
X52000000Y-98180000D02*
X52000000Y-115180000D01*
X52000000Y-115180000D02*
X75000000Y-115180000D01*
X75000000Y-115180000D02*
X75000000Y-98180000D01*
X53000000Y-62960000D02*
X52000000Y-62960000D01*
X53000000Y-58960000D02*
X52000000Y-58960000D01*
X53000000Y-58960000D02*
X53000000Y-62960000D01*
X75000000Y-52460000D02*
X52000000Y-52460000D01*
X52000000Y-52460000D02*
X52000000Y-69460000D01*
X52000000Y-69460000D02*
X75000000Y-69460000D01*
X75000000Y-69460000D02*
X75000000Y-52460000D01*
X78400000Y-108680000D02*
X77400000Y-108680000D01*
X78400000Y-104680000D02*
X77400000Y-104680000D01*
X78400000Y-104680000D02*
X78400000Y-108680000D01*
X100400000Y-98180000D02*
X77400000Y-98180000D01*
X77400000Y-98180000D02*
X77400000Y-115180000D01*
X77400000Y-115180000D02*
X100400000Y-115180000D01*
X100400000Y-115180000D02*
X100400000Y-98180000D01*
X78400000Y-62960000D02*
X77400000Y-62960000D01*
X78400000Y-58960000D02*
X77400000Y-58960000D01*
X78400000Y-58960000D02*
X78400000Y-62960000D01*
X100400000Y-52460000D02*
X77400000Y-52460000D01*
X77400000Y-52460000D02*
X77400000Y-69460000D01*
X77400000Y-69460000D02*
X100400000Y-69460000D01*
X100400000Y-69460000D02*
X100400000Y-52460000D01*
X103800000Y-108680000D02*
X102800000Y-108680000D01*
X103800000Y-104680000D02*
X102800000Y-104680000D01*
X103800000Y-104680000D02*
X103800000Y-108680000D01*
X125800000Y-98180000D02*
X102800000Y-98180000D01*
X102800000Y-98180000D02*
X102800000Y-115180000D01*
X102800000Y-115180000D02*
X125800000Y-115180000D01*
X125800000Y-115180000D02*
X125800000Y-98180000D01*
X103800000Y-62960000D02*
X102800000Y-62960000D01*
X103800000Y-58960000D02*
X102800000Y-58960000D01*
X103800000Y-58960000D02*
X103800000Y-62960000D01*
X125800000Y-52460000D02*
X102800000Y-52460000D01*
X102800000Y-52460000D02*
X102800000Y-69460000D01*
X102800000Y-69460000D02*
X125800000Y-69460000D01*
X125800000Y-69460000D02*
X125800000Y-52460000D01*
X129200000Y-108680000D02*
X128200000Y-108680000D01*
X129200000Y-104680000D02*
X128200000Y-104680000D01*
X129200000Y-104680000D02*
X129200000Y-108680000D01*
X151200000Y-98180000D02*
X128200000Y-98180000D01*
X128200000Y-98180000D02*
X128200000Y-115180000D01*
X128200000Y-115180000D02*
X151200000Y-115180000D01*
X151200000Y-115180000D02*
X151200000Y-98180000D01*
X129200000Y-62960000D02*
X128200000Y-62960000D01*
X129200000Y-58960000D02*
X128200000Y-58960000D01*
X129200000Y-58960000D02*
X129200000Y-62960000D01*
X151200000Y-52460000D02*
X128200000Y-52460000D01*
X128200000Y-52460000D02*
X128200000Y-69460000D01*
X128200000Y-69460000D02*
X151200000Y-69460000D01*
X151200000Y-69460000D02*
X151200000Y-52460000D01*
X157140000Y-108680000D02*
X156140000Y-108680000D01*
X157140000Y-104680000D02*
X156140000Y-104680000D01*
X157140000Y-104680000D02*
X157140000Y-108680000D01*
X179140000Y-98180000D02*
X156140000Y-98180000D01*
X156140000Y-98180000D02*
X156140000Y-115180000D01*
X156140000Y-115180000D02*
X179140000Y-115180000D01*
X179140000Y-115180000D02*
X179140000Y-98180000D01*
X157140000Y-62960000D02*
X156140000Y-62960000D01*
X157140000Y-58960000D02*
X156140000Y-58960000D01*
X157140000Y-58960000D02*
X157140000Y-62960000D01*
X179140000Y-52460000D02*
X156140000Y-52460000D01*
X156140000Y-52460000D02*
X156140000Y-69460000D01*
X156140000Y-69460000D02*
X179140000Y-69460000D01*
X179140000Y-69460000D02*
X179140000Y-52460000D01*
X182540000Y-108680000D02*
X181540000Y-108680000D01*
X182540000Y-104680000D02*
X181540000Y-104680000D01*
X182540000Y-104680000D02*
X182540000Y-108680000D01*
X204540000Y-98180000D02*
X181540000Y-98180000D01*
X181540000Y-98180000D02*
X181540000Y-115180000D01*
X181540000Y-115180000D02*
X204540000Y-115180000D01*
X204540000Y-115180000D02*
X204540000Y-98180000D01*
X182540000Y-62960000D02*
X181540000Y-62960000D01*
X182540000Y-58960000D02*
X181540000Y-58960000D01*
X182540000Y-58960000D02*
X182540000Y-62960000D01*
X204540000Y-52460000D02*
X181540000Y-52460000D01*
X181540000Y-52460000D02*
X181540000Y-69460000D01*
X181540000Y-69460000D02*
X204540000Y-69460000D01*
X204540000Y-69460000D02*
X204540000Y-52460000D01*
X207940000Y-108680000D02*
X206940000Y-108680000D01*
X207940000Y-104680000D02*
X206940000Y-104680000D01*
X207940000Y-104680000D02*
X207940000Y-108680000D01*
X229940000Y-98180000D02*
X206940000Y-98180000D01*
X206940000Y-98180000D02*
X206940000Y-115180000D01*
X206940000Y-115180000D02*
X229940000Y-115180000D01*
X229940000Y-115180000D02*
X229940000Y-98180000D01*
X207940000Y-62960000D02*
X206940000Y-62960000D01*
X207940000Y-58960000D02*
X206940000Y-58960000D01*
X207940000Y-58960000D02*
X207940000Y-62960000D01*
X229940000Y-52460000D02*
X206940000Y-52460000D01*
X206940000Y-52460000D02*
X206940000Y-69460000D01*
X206940000Y-69460000D02*
X229940000Y-69460000D01*
X229940000Y-69460000D02*
X229940000Y-52460000D01*
X233340000Y-108680000D02*
X232340000Y-108680000D01*
X233340000Y-104680000D02*
X232340000Y-104680000D01*
X233340000Y-104680000D02*
X233340000Y-108680000D01*
X255340000Y-98180000D02*
X232340000Y-98180000D01*
X232340000Y-98180000D02*
X232340000Y-115180000D01*
X232340000Y-115180000D02*
X255340000Y-115180000D01*
X255340000Y-115180000D02*
X255340000Y-98180000D01*
X233340000Y-62960000D02*
X232340000Y-62960000D01*
X233340000Y-58960000D02*
X232340000Y-58960000D01*
X233340000Y-58960000D02*
X233340000Y-62960000D01*
X255340000Y-52460000D02*
X232340000Y-52460000D01*
X232340000Y-52460000D02*
X232340000Y-69460000D01*
X232340000Y-69460000D02*
X255340000Y-69460000D01*
X255340000Y-69460000D02*
X255340000Y-52460000D01*
X258740000Y-108680000D02*
X257740000Y-108680000D01*
X258740000Y-104680000D02*
X257740000Y-104680000D01*
X258740000Y-104680000D02*
X258740000Y-108680000D01*
X280740000Y-98180000D02*
X257740000Y-98180000D01*
X257740000Y-98180000D02*
X257740000Y-115180000D01*
X257740000Y-115180000D02*
X280740000Y-115180000D01*
X280740000Y-115180000D02*
X280740000Y-98180000D01*
X258740000Y-62960000D02*
X257740000Y-62960000D01*
X258740000Y-58960000D02*
X257740000Y-58960000D01*
X258740000Y-58960000D02*
X258740000Y-62960000D01*
X280740000Y-52460000D02*
X257740000Y-52460000D01*
X257740000Y-52460000D02*
X257740000Y-69460000D01*
X257740000Y-69460000D02*
X280740000Y-69460000D01*
X280740000Y-69460000D02*
X280740000Y-52460000D01*
D11*
X136906000Y-124460000D02*
G75*
G03X136906000Y-124460000I-2286000J0D01*
G01*
X136906000Y-39370000D02*
G75*
G03X136906000Y-39370000I-2286000J0D01*
G01*
X172466000Y-39370000D02*
G75*
G03X172466000Y-39370000I-2286000J0D01*
G01*
X172466000Y-124460000D02*
G75*
G03X172466000Y-124460000I-2286000J0D01*
G01*
D10*
X45100000Y-89820000D02*
X48100000Y-82820000D01*
X46100000Y-77820000D02*
X42100000Y-89820000D01*
X43100000Y-77820000D02*
X39100000Y-89820000D01*
X31100000Y-77820000D02*
X28100000Y-85820000D01*
X34100000Y-77820000D02*
X30100000Y-89820000D01*
X37100000Y-77820000D02*
X33100000Y-89820000D01*
X40100000Y-77820000D02*
X36100000Y-89820000D01*
D13*
X48100000Y-89820000D02*
X28100000Y-89820000D01*
X28100000Y-89820000D02*
X28100000Y-77820000D01*
X48100000Y-77820000D02*
X48100000Y-89820000D01*
X28100000Y-77820000D02*
X48100000Y-77820000D01*
D10*
X70500000Y-89820000D02*
X73500000Y-82820000D01*
X71500000Y-77820000D02*
X67500000Y-89820000D01*
X68500000Y-77820000D02*
X64500000Y-89820000D01*
X56500000Y-77820000D02*
X53500000Y-85820000D01*
X59500000Y-77820000D02*
X55500000Y-89820000D01*
X62500000Y-77820000D02*
X58500000Y-89820000D01*
X65500000Y-77820000D02*
X61500000Y-89820000D01*
D13*
X73500000Y-89820000D02*
X53500000Y-89820000D01*
X53500000Y-89820000D02*
X53500000Y-77820000D01*
X73500000Y-77820000D02*
X73500000Y-89820000D01*
X53500000Y-77820000D02*
X73500000Y-77820000D01*
D10*
X95900000Y-89820000D02*
X98900000Y-82820000D01*
X96900000Y-77820000D02*
X92900000Y-89820000D01*
X93900000Y-77820000D02*
X89900000Y-89820000D01*
X81900000Y-77820000D02*
X78900000Y-85820000D01*
X84900000Y-77820000D02*
X80900000Y-89820000D01*
X87900000Y-77820000D02*
X83900000Y-89820000D01*
X90900000Y-77820000D02*
X86900000Y-89820000D01*
D13*
X98900000Y-89820000D02*
X78900000Y-89820000D01*
X78900000Y-89820000D02*
X78900000Y-77820000D01*
X98900000Y-77820000D02*
X98900000Y-89820000D01*
X78900000Y-77820000D02*
X98900000Y-77820000D01*
D10*
X121300000Y-89820000D02*
X124300000Y-82820000D01*
X122300000Y-77820000D02*
X118300000Y-89820000D01*
X119300000Y-77820000D02*
X115300000Y-89820000D01*
X107300000Y-77820000D02*
X104300000Y-85820000D01*
X110300000Y-77820000D02*
X106300000Y-89820000D01*
X113300000Y-77820000D02*
X109300000Y-89820000D01*
X116300000Y-77820000D02*
X112300000Y-89820000D01*
D13*
X124300000Y-89820000D02*
X104300000Y-89820000D01*
X104300000Y-89820000D02*
X104300000Y-77820000D01*
X124300000Y-77820000D02*
X124300000Y-89820000D01*
X104300000Y-77820000D02*
X124300000Y-77820000D01*
D10*
X146700000Y-89820000D02*
X149700000Y-82820000D01*
X147700000Y-77820000D02*
X143700000Y-89820000D01*
X144700000Y-77820000D02*
X140700000Y-89820000D01*
X132700000Y-77820000D02*
X129700000Y-85820000D01*
X135700000Y-77820000D02*
X131700000Y-89820000D01*
X138700000Y-77820000D02*
X134700000Y-89820000D01*
X141700000Y-77820000D02*
X137700000Y-89820000D01*
D13*
X149700000Y-89820000D02*
X129700000Y-89820000D01*
X129700000Y-89820000D02*
X129700000Y-77820000D01*
X149700000Y-77820000D02*
X149700000Y-89820000D01*
X129700000Y-77820000D02*
X149700000Y-77820000D01*
D10*
X174640000Y-89820000D02*
X177640000Y-82820000D01*
X175640000Y-77820000D02*
X171640000Y-89820000D01*
X172640000Y-77820000D02*
X168640000Y-89820000D01*
X160640000Y-77820000D02*
X157640000Y-85820000D01*
X163640000Y-77820000D02*
X159640000Y-89820000D01*
X166640000Y-77820000D02*
X162640000Y-89820000D01*
X169640000Y-77820000D02*
X165640000Y-89820000D01*
D13*
X177640000Y-89820000D02*
X157640000Y-89820000D01*
X157640000Y-89820000D02*
X157640000Y-77820000D01*
X177640000Y-77820000D02*
X177640000Y-89820000D01*
X157640000Y-77820000D02*
X177640000Y-77820000D01*
D10*
X200040000Y-89820000D02*
X203040000Y-82820000D01*
X201040000Y-77820000D02*
X197040000Y-89820000D01*
X198040000Y-77820000D02*
X194040000Y-89820000D01*
X186040000Y-77820000D02*
X183040000Y-85820000D01*
X189040000Y-77820000D02*
X185040000Y-89820000D01*
X192040000Y-77820000D02*
X188040000Y-89820000D01*
X195040000Y-77820000D02*
X191040000Y-89820000D01*
D13*
X203040000Y-89820000D02*
X183040000Y-89820000D01*
X183040000Y-89820000D02*
X183040000Y-77820000D01*
X203040000Y-77820000D02*
X203040000Y-89820000D01*
X183040000Y-77820000D02*
X203040000Y-77820000D01*
D10*
X225440000Y-89820000D02*
X228440000Y-82820000D01*
X226440000Y-77820000D02*
X222440000Y-89820000D01*
X223440000Y-77820000D02*
X219440000Y-89820000D01*
X211440000Y-77820000D02*
X208440000Y-85820000D01*
X214440000Y-77820000D02*
X210440000Y-89820000D01*
X217440000Y-77820000D02*
X213440000Y-89820000D01*
X220440000Y-77820000D02*
X216440000Y-89820000D01*
D13*
X228440000Y-89820000D02*
X208440000Y-89820000D01*
X208440000Y-89820000D02*
X208440000Y-77820000D01*
X228440000Y-77820000D02*
X228440000Y-89820000D01*
X208440000Y-77820000D02*
X228440000Y-77820000D01*
D10*
X250840000Y-89820000D02*
X253840000Y-82820000D01*
X251840000Y-77820000D02*
X247840000Y-89820000D01*
X248840000Y-77820000D02*
X244840000Y-89820000D01*
X236840000Y-77820000D02*
X233840000Y-85820000D01*
X239840000Y-77820000D02*
X235840000Y-89820000D01*
X242840000Y-77820000D02*
X238840000Y-89820000D01*
X245840000Y-77820000D02*
X241840000Y-89820000D01*
D13*
X253840000Y-89820000D02*
X233840000Y-89820000D01*
X233840000Y-89820000D02*
X233840000Y-77820000D01*
X253840000Y-77820000D02*
X253840000Y-89820000D01*
X233840000Y-77820000D02*
X253840000Y-77820000D01*
D10*
X276240000Y-89820000D02*
X279240000Y-82820000D01*
X277240000Y-77820000D02*
X273240000Y-89820000D01*
X274240000Y-77820000D02*
X270240000Y-89820000D01*
X262240000Y-77820000D02*
X259240000Y-85820000D01*
X265240000Y-77820000D02*
X261240000Y-89820000D01*
X268240000Y-77820000D02*
X264240000Y-89820000D01*
X271240000Y-77820000D02*
X267240000Y-89820000D01*
D13*
X279240000Y-89820000D02*
X259240000Y-89820000D01*
X259240000Y-89820000D02*
X259240000Y-77820000D01*
X279240000Y-77820000D02*
X279240000Y-89820000D01*
X259240000Y-77820000D02*
X279240000Y-77820000D01*
D14*
X111860000Y-46200000D02*
X111860000Y-40200000D01*
X111860000Y-40200000D02*
X91340000Y-40200000D01*
X91340000Y-40200000D02*
X91340000Y-46200000D01*
X91340000Y-46200000D02*
X111860000Y-46200000D01*
X110490000Y-40200000D02*
X110490000Y-41200000D01*
X110490000Y-41200000D02*
X105410000Y-41200000D01*
X105410000Y-41200000D02*
X105410000Y-40200000D01*
X110490000Y-41200000D02*
X110240000Y-41630000D01*
X110240000Y-41630000D02*
X105410000Y-41630000D01*
X105410000Y-41630000D02*
X105410000Y-41200000D01*
X110240000Y-40200000D02*
X110240000Y-41200000D01*
X92710000Y-40200000D02*
X92710000Y-41200000D01*
X92710000Y-41200000D02*
X97790000Y-41200000D01*
X97790000Y-41200000D02*
X97790000Y-40200000D01*
X92710000Y-41200000D02*
X92960000Y-41630000D01*
X92960000Y-41630000D02*
X97790000Y-41630000D01*
X97790000Y-41630000D02*
X97790000Y-41200000D01*
X92960000Y-40200000D02*
X92960000Y-41200000D01*
X111290000Y-46200000D02*
X111290000Y-45580000D01*
X111290000Y-45580000D02*
X109690000Y-45580000D01*
X109690000Y-45580000D02*
X109690000Y-46200000D01*
X108750000Y-46200000D02*
X108750000Y-45580000D01*
X108750000Y-45580000D02*
X107150000Y-45580000D01*
X107150000Y-45580000D02*
X107150000Y-46200000D01*
X106210000Y-46200000D02*
X106210000Y-45580000D01*
X106210000Y-45580000D02*
X104610000Y-45580000D01*
X104610000Y-45580000D02*
X104610000Y-46200000D01*
X103670000Y-46200000D02*
X103670000Y-45580000D01*
X103670000Y-45580000D02*
X102070000Y-45580000D01*
X102070000Y-45580000D02*
X102070000Y-46200000D01*
X101130000Y-46200000D02*
X101130000Y-45580000D01*
X101130000Y-45580000D02*
X99530000Y-45580000D01*
X99530000Y-45580000D02*
X99530000Y-46200000D01*
X98590000Y-46200000D02*
X98590000Y-45580000D01*
X98590000Y-45580000D02*
X96990000Y-45580000D01*
X96990000Y-45580000D02*
X96990000Y-46200000D01*
X96050000Y-46200000D02*
X96050000Y-45580000D01*
X96050000Y-45580000D02*
X94450000Y-45580000D01*
X94450000Y-45580000D02*
X94450000Y-46200000D01*
X93510000Y-46200000D02*
X93510000Y-45580000D01*
X93510000Y-45580000D02*
X91910000Y-45580000D01*
X91910000Y-45580000D02*
X91910000Y-46200000D01*
X212190000Y-46200000D02*
X212190000Y-40200000D01*
X212190000Y-40200000D02*
X199290000Y-40200000D01*
X199290000Y-40200000D02*
X199290000Y-46200000D01*
X199290000Y-46200000D02*
X212190000Y-46200000D01*
X210820000Y-40200000D02*
X210820000Y-41200000D01*
X210820000Y-41200000D02*
X200660000Y-41200000D01*
X200660000Y-41200000D02*
X200660000Y-40200000D01*
X210820000Y-41200000D02*
X210570000Y-41630000D01*
X210570000Y-41630000D02*
X200910000Y-41630000D01*
X200910000Y-41630000D02*
X200660000Y-41200000D01*
X210570000Y-40200000D02*
X210570000Y-41200000D01*
X200910000Y-40200000D02*
X200910000Y-41200000D01*
X211620000Y-46200000D02*
X211620000Y-45580000D01*
X211620000Y-45580000D02*
X210020000Y-45580000D01*
X210020000Y-45580000D02*
X210020000Y-46200000D01*
X209080000Y-46200000D02*
X209080000Y-45580000D01*
X209080000Y-45580000D02*
X207480000Y-45580000D01*
X207480000Y-45580000D02*
X207480000Y-46200000D01*
X206540000Y-46200000D02*
X206540000Y-45580000D01*
X206540000Y-45580000D02*
X204940000Y-45580000D01*
X204940000Y-45580000D02*
X204940000Y-46200000D01*
X204000000Y-46200000D02*
X204000000Y-45580000D01*
X204000000Y-45580000D02*
X202400000Y-45580000D01*
X202400000Y-45580000D02*
X202400000Y-46200000D01*
X201460000Y-46200000D02*
X201460000Y-45580000D01*
X201460000Y-45580000D02*
X199860000Y-45580000D01*
X199860000Y-45580000D02*
X199860000Y-46200000D01*
D13*
X55285000Y-45950000D02*
X55285000Y-42950000D01*
X60285000Y-45950000D02*
X60285000Y-43450000D01*
X60285000Y-43450000D02*
X60285000Y-42950000D01*
X58785000Y-41950000D02*
X61285000Y-43950000D01*
X61285000Y-43950000D02*
X61285000Y-44950000D01*
X61285000Y-44950000D02*
X58785000Y-46950000D01*
X58785000Y-46950000D02*
X56785000Y-46950000D01*
X56785000Y-46950000D02*
X54285000Y-44950000D01*
X54285000Y-44950000D02*
X54285000Y-43950000D01*
X54285000Y-43950000D02*
X56785000Y-41950000D01*
X56785000Y-41950000D02*
X58785000Y-41950000D01*
X60021068Y-44450000D02*
G75*
G03X60021068Y-44450000I-2236068J0D01*
G01*
D12*
X44180000Y-117110000D02*
X42180000Y-117110000D01*
X44180000Y-119110000D02*
X42180000Y-119110000D01*
X44180000Y-118110000D02*
X42180000Y-118110000D01*
X43180000Y-119110000D02*
X43180000Y-117110000D01*
X50180000Y-118110000D02*
G75*
G03X50180000Y-118110000I-3000000J0D01*
G01*
X42180000Y-118110000D02*
G75*
G03X42180000Y-118110000I-3000000J0D01*
G01*
X41180000Y-116110000D02*
G75*
G03X45180000Y-116110000I2000000J2000000D01*
G01*
X45180000Y-120110000D02*
G75*
G03X41180000Y-120110000I-2000000J-2000000D01*
G01*
X38370000Y-94980000D02*
X40370000Y-94980000D01*
X38370000Y-92980000D02*
X40370000Y-92980000D01*
X38370000Y-93980000D02*
X40370000Y-93980000D01*
X39370000Y-92980000D02*
X39370000Y-94980000D01*
X38370000Y-93980000D02*
G75*
G03X38370000Y-93980000I-3000000J0D01*
G01*
X46370000Y-93980000D02*
G75*
G03X46370000Y-93980000I-3000000J0D01*
G01*
X41370000Y-95980000D02*
G75*
G03X37370000Y-95980000I-2000000J-2000000D01*
G01*
X37370000Y-91980000D02*
G75*
G03X41370000Y-91980000I2000000J2000000D01*
G01*
X38370000Y-74660000D02*
X40370000Y-74660000D01*
X38370000Y-72660000D02*
X40370000Y-72660000D01*
X38370000Y-73660000D02*
X40370000Y-73660000D01*
X39370000Y-72660000D02*
X39370000Y-74660000D01*
X38370000Y-73660000D02*
G75*
G03X38370000Y-73660000I-3000000J0D01*
G01*
X46370000Y-73660000D02*
G75*
G03X46370000Y-73660000I-3000000J0D01*
G01*
X41370000Y-75660000D02*
G75*
G03X37370000Y-75660000I-2000000J-2000000D01*
G01*
X37370000Y-71660000D02*
G75*
G03X41370000Y-71660000I2000000J2000000D01*
G01*
X63770000Y-94980000D02*
X65770000Y-94980000D01*
X63770000Y-92980000D02*
X65770000Y-92980000D01*
X63770000Y-93980000D02*
X65770000Y-93980000D01*
X64770000Y-92980000D02*
X64770000Y-94980000D01*
X63770000Y-93980000D02*
G75*
G03X63770000Y-93980000I-3000000J0D01*
G01*
X71770000Y-93980000D02*
G75*
G03X71770000Y-93980000I-3000000J0D01*
G01*
X66770000Y-95980000D02*
G75*
G03X62770000Y-95980000I-2000000J-2000000D01*
G01*
X62770000Y-91980000D02*
G75*
G03X66770000Y-91980000I2000000J2000000D01*
G01*
X63770000Y-74660000D02*
X65770000Y-74660000D01*
X63770000Y-72660000D02*
X65770000Y-72660000D01*
X63770000Y-73660000D02*
X65770000Y-73660000D01*
X64770000Y-72660000D02*
X64770000Y-74660000D01*
X63770000Y-73660000D02*
G75*
G03X63770000Y-73660000I-3000000J0D01*
G01*
X71770000Y-73660000D02*
G75*
G03X71770000Y-73660000I-3000000J0D01*
G01*
X66770000Y-75660000D02*
G75*
G03X62770000Y-75660000I-2000000J-2000000D01*
G01*
X62770000Y-71660000D02*
G75*
G03X66770000Y-71660000I2000000J2000000D01*
G01*
X89170000Y-94980000D02*
X91170000Y-94980000D01*
X89170000Y-92980000D02*
X91170000Y-92980000D01*
X89170000Y-93980000D02*
X91170000Y-93980000D01*
X90170000Y-92980000D02*
X90170000Y-94980000D01*
X89170000Y-93980000D02*
G75*
G03X89170000Y-93980000I-3000000J0D01*
G01*
X97170000Y-93980000D02*
G75*
G03X97170000Y-93980000I-3000000J0D01*
G01*
X92170000Y-95980000D02*
G75*
G03X88170000Y-95980000I-2000000J-2000000D01*
G01*
X88170000Y-91980000D02*
G75*
G03X92170000Y-91980000I2000000J2000000D01*
G01*
X89170000Y-74660000D02*
X91170000Y-74660000D01*
X89170000Y-72660000D02*
X91170000Y-72660000D01*
X89170000Y-73660000D02*
X91170000Y-73660000D01*
X90170000Y-72660000D02*
X90170000Y-74660000D01*
X89170000Y-73660000D02*
G75*
G03X89170000Y-73660000I-3000000J0D01*
G01*
X97170000Y-73660000D02*
G75*
G03X97170000Y-73660000I-3000000J0D01*
G01*
X92170000Y-75660000D02*
G75*
G03X88170000Y-75660000I-2000000J-2000000D01*
G01*
X88170000Y-71660000D02*
G75*
G03X92170000Y-71660000I2000000J2000000D01*
G01*
X114570000Y-94980000D02*
X116570000Y-94980000D01*
X114570000Y-92980000D02*
X116570000Y-92980000D01*
X114570000Y-93980000D02*
X116570000Y-93980000D01*
X115570000Y-92980000D02*
X115570000Y-94980000D01*
X114570000Y-93980000D02*
G75*
G03X114570000Y-93980000I-3000000J0D01*
G01*
X122570000Y-93980000D02*
G75*
G03X122570000Y-93980000I-3000000J0D01*
G01*
X117570000Y-95980000D02*
G75*
G03X113570000Y-95980000I-2000000J-2000000D01*
G01*
X113570000Y-91980000D02*
G75*
G03X117570000Y-91980000I2000000J2000000D01*
G01*
X114570000Y-74660000D02*
X116570000Y-74660000D01*
X114570000Y-72660000D02*
X116570000Y-72660000D01*
X114570000Y-73660000D02*
X116570000Y-73660000D01*
X115570000Y-72660000D02*
X115570000Y-74660000D01*
X114570000Y-73660000D02*
G75*
G03X114570000Y-73660000I-3000000J0D01*
G01*
X122570000Y-73660000D02*
G75*
G03X122570000Y-73660000I-3000000J0D01*
G01*
X117570000Y-75660000D02*
G75*
G03X113570000Y-75660000I-2000000J-2000000D01*
G01*
X113570000Y-71660000D02*
G75*
G03X117570000Y-71660000I2000000J2000000D01*
G01*
X139970000Y-94980000D02*
X141970000Y-94980000D01*
X139970000Y-92980000D02*
X141970000Y-92980000D01*
X139970000Y-93980000D02*
X141970000Y-93980000D01*
X140970000Y-92980000D02*
X140970000Y-94980000D01*
X139970000Y-93980000D02*
G75*
G03X139970000Y-93980000I-3000000J0D01*
G01*
X147970000Y-93980000D02*
G75*
G03X147970000Y-93980000I-3000000J0D01*
G01*
X142970000Y-95980000D02*
G75*
G03X138970000Y-95980000I-2000000J-2000000D01*
G01*
X138970000Y-91980000D02*
G75*
G03X142970000Y-91980000I2000000J2000000D01*
G01*
X139970000Y-74660000D02*
X141970000Y-74660000D01*
X139970000Y-72660000D02*
X141970000Y-72660000D01*
X139970000Y-73660000D02*
X141970000Y-73660000D01*
X140970000Y-72660000D02*
X140970000Y-74660000D01*
X139970000Y-73660000D02*
G75*
G03X139970000Y-73660000I-3000000J0D01*
G01*
X147970000Y-73660000D02*
G75*
G03X147970000Y-73660000I-3000000J0D01*
G01*
X142970000Y-75660000D02*
G75*
G03X138970000Y-75660000I-2000000J-2000000D01*
G01*
X138970000Y-71660000D02*
G75*
G03X142970000Y-71660000I2000000J2000000D01*
G01*
X167910000Y-94980000D02*
X169910000Y-94980000D01*
X167910000Y-92980000D02*
X169910000Y-92980000D01*
X167910000Y-93980000D02*
X169910000Y-93980000D01*
X168910000Y-92980000D02*
X168910000Y-94980000D01*
X167910000Y-93980000D02*
G75*
G03X167910000Y-93980000I-3000000J0D01*
G01*
X175910000Y-93980000D02*
G75*
G03X175910000Y-93980000I-3000000J0D01*
G01*
X170910000Y-95980000D02*
G75*
G03X166910000Y-95980000I-2000000J-2000000D01*
G01*
X166910000Y-91980000D02*
G75*
G03X170910000Y-91980000I2000000J2000000D01*
G01*
X167910000Y-74660000D02*
X169910000Y-74660000D01*
X167910000Y-72660000D02*
X169910000Y-72660000D01*
X167910000Y-73660000D02*
X169910000Y-73660000D01*
X168910000Y-72660000D02*
X168910000Y-74660000D01*
X167910000Y-73660000D02*
G75*
G03X167910000Y-73660000I-3000000J0D01*
G01*
X175910000Y-73660000D02*
G75*
G03X175910000Y-73660000I-3000000J0D01*
G01*
X170910000Y-75660000D02*
G75*
G03X166910000Y-75660000I-2000000J-2000000D01*
G01*
X166910000Y-71660000D02*
G75*
G03X170910000Y-71660000I2000000J2000000D01*
G01*
X193310000Y-94980000D02*
X195310000Y-94980000D01*
X193310000Y-92980000D02*
X195310000Y-92980000D01*
X193310000Y-93980000D02*
X195310000Y-93980000D01*
X194310000Y-92980000D02*
X194310000Y-94980000D01*
X193310000Y-93980000D02*
G75*
G03X193310000Y-93980000I-3000000J0D01*
G01*
X201310000Y-93980000D02*
G75*
G03X201310000Y-93980000I-3000000J0D01*
G01*
X196310000Y-95980000D02*
G75*
G03X192310000Y-95980000I-2000000J-2000000D01*
G01*
X192310000Y-91980000D02*
G75*
G03X196310000Y-91980000I2000000J2000000D01*
G01*
X193310000Y-74660000D02*
X195310000Y-74660000D01*
X193310000Y-72660000D02*
X195310000Y-72660000D01*
X193310000Y-73660000D02*
X195310000Y-73660000D01*
X194310000Y-72660000D02*
X194310000Y-74660000D01*
X193310000Y-73660000D02*
G75*
G03X193310000Y-73660000I-3000000J0D01*
G01*
X201310000Y-73660000D02*
G75*
G03X201310000Y-73660000I-3000000J0D01*
G01*
X196310000Y-75660000D02*
G75*
G03X192310000Y-75660000I-2000000J-2000000D01*
G01*
X192310000Y-71660000D02*
G75*
G03X196310000Y-71660000I2000000J2000000D01*
G01*
X218710000Y-94980000D02*
X220710000Y-94980000D01*
X218710000Y-92980000D02*
X220710000Y-92980000D01*
X218710000Y-93980000D02*
X220710000Y-93980000D01*
X219710000Y-92980000D02*
X219710000Y-94980000D01*
X218710000Y-93980000D02*
G75*
G03X218710000Y-93980000I-3000000J0D01*
G01*
X226710000Y-93980000D02*
G75*
G03X226710000Y-93980000I-3000000J0D01*
G01*
X221710000Y-95980000D02*
G75*
G03X217710000Y-95980000I-2000000J-2000000D01*
G01*
X217710000Y-91980000D02*
G75*
G03X221710000Y-91980000I2000000J2000000D01*
G01*
X218710000Y-74660000D02*
X220710000Y-74660000D01*
X218710000Y-72660000D02*
X220710000Y-72660000D01*
X218710000Y-73660000D02*
X220710000Y-73660000D01*
X219710000Y-72660000D02*
X219710000Y-74660000D01*
X218710000Y-73660000D02*
G75*
G03X218710000Y-73660000I-3000000J0D01*
G01*
X226710000Y-73660000D02*
G75*
G03X226710000Y-73660000I-3000000J0D01*
G01*
X221710000Y-75660000D02*
G75*
G03X217710000Y-75660000I-2000000J-2000000D01*
G01*
X217710000Y-71660000D02*
G75*
G03X221710000Y-71660000I2000000J2000000D01*
G01*
X244110000Y-94980000D02*
X246110000Y-94980000D01*
X244110000Y-92980000D02*
X246110000Y-92980000D01*
X244110000Y-93980000D02*
X246110000Y-93980000D01*
X245110000Y-92980000D02*
X245110000Y-94980000D01*
X244110000Y-93980000D02*
G75*
G03X244110000Y-93980000I-3000000J0D01*
G01*
X252110000Y-93980000D02*
G75*
G03X252110000Y-93980000I-3000000J0D01*
G01*
X247110000Y-95980000D02*
G75*
G03X243110000Y-95980000I-2000000J-2000000D01*
G01*
X243110000Y-91980000D02*
G75*
G03X247110000Y-91980000I2000000J2000000D01*
G01*
X244110000Y-74660000D02*
X246110000Y-74660000D01*
X244110000Y-72660000D02*
X246110000Y-72660000D01*
X244110000Y-73660000D02*
X246110000Y-73660000D01*
X245110000Y-72660000D02*
X245110000Y-74660000D01*
X244110000Y-73660000D02*
G75*
G03X244110000Y-73660000I-3000000J0D01*
G01*
X252110000Y-73660000D02*
G75*
G03X252110000Y-73660000I-3000000J0D01*
G01*
X247110000Y-75660000D02*
G75*
G03X243110000Y-75660000I-2000000J-2000000D01*
G01*
X243110000Y-71660000D02*
G75*
G03X247110000Y-71660000I2000000J2000000D01*
G01*
X269510000Y-94980000D02*
X271510000Y-94980000D01*
X269510000Y-92980000D02*
X271510000Y-92980000D01*
X269510000Y-93980000D02*
X271510000Y-93980000D01*
X270510000Y-92980000D02*
X270510000Y-94980000D01*
X269510000Y-93980000D02*
G75*
G03X269510000Y-93980000I-3000000J0D01*
G01*
X277510000Y-93980000D02*
G75*
G03X277510000Y-93980000I-3000000J0D01*
G01*
X272510000Y-95980000D02*
G75*
G03X268510000Y-95980000I-2000000J-2000000D01*
G01*
X268510000Y-91980000D02*
G75*
G03X272510000Y-91980000I2000000J2000000D01*
G01*
X269510000Y-74660000D02*
X271510000Y-74660000D01*
X269510000Y-72660000D02*
X271510000Y-72660000D01*
X269510000Y-73660000D02*
X271510000Y-73660000D01*
X270510000Y-72660000D02*
X270510000Y-74660000D01*
X269510000Y-73660000D02*
G75*
G03X269510000Y-73660000I-3000000J0D01*
G01*
X277510000Y-73660000D02*
G75*
G03X277510000Y-73660000I-3000000J0D01*
G01*
X272510000Y-75660000D02*
G75*
G03X268510000Y-75660000I-2000000J-2000000D01*
G01*
X268510000Y-71660000D02*
G75*
G03X272510000Y-71660000I2000000J2000000D01*
G01*
D11*
X66110000Y-43070000D02*
X66110000Y-42590000D01*
X66110000Y-42590000D02*
X76130000Y-42590000D01*
X76130000Y-42590000D02*
X76130000Y-43070000D01*
X66110000Y-45830000D02*
X66110000Y-46310000D01*
X66110000Y-46310000D02*
X76130000Y-46310000D01*
X76130000Y-46310000D02*
X76130000Y-45830000D01*
D14*
X37361905Y-36774381D02*
X37361905Y-35774381D01*
X37742858Y-35774381D01*
X37838096Y-35822000D01*
X37885715Y-35869619D01*
X37933334Y-35964857D01*
X37933334Y-36107714D01*
X37885715Y-36202952D01*
X37838096Y-36250571D01*
X37742858Y-36298190D01*
X37361905Y-36298190D01*
X38790477Y-36107714D02*
X38790477Y-36774381D01*
X38552381Y-35726762D02*
X38314286Y-36441048D01*
X38933334Y-36441048D01*
X37361905Y-121864381D02*
X37361905Y-120864381D01*
X37742858Y-120864381D01*
X37838096Y-120912000D01*
X37885715Y-120959619D01*
X37933334Y-121054857D01*
X37933334Y-121197714D01*
X37885715Y-121292952D01*
X37838096Y-121340571D01*
X37742858Y-121388190D01*
X37361905Y-121388190D01*
X38838096Y-120864381D02*
X38361905Y-120864381D01*
X38314286Y-121340571D01*
X38361905Y-121292952D01*
X38457143Y-121245333D01*
X38695239Y-121245333D01*
X38790477Y-121292952D01*
X38838096Y-121340571D01*
X38885715Y-121435810D01*
X38885715Y-121673905D01*
X38838096Y-121769143D01*
X38790477Y-121816762D01*
X38695239Y-121864381D01*
X38457143Y-121864381D01*
X38361905Y-121816762D01*
X38314286Y-121769143D01*
X265961905Y-36774381D02*
X265961905Y-35774381D01*
X266342858Y-35774381D01*
X266438096Y-35822000D01*
X266485715Y-35869619D01*
X266533334Y-35964857D01*
X266533334Y-36107714D01*
X266485715Y-36202952D01*
X266438096Y-36250571D01*
X266342858Y-36298190D01*
X265961905Y-36298190D01*
X267390477Y-35774381D02*
X267200000Y-35774381D01*
X267104762Y-35822000D01*
X267057143Y-35869619D01*
X266961905Y-36012476D01*
X266914286Y-36202952D01*
X266914286Y-36583905D01*
X266961905Y-36679143D01*
X267009524Y-36726762D01*
X267104762Y-36774381D01*
X267295239Y-36774381D01*
X267390477Y-36726762D01*
X267438096Y-36679143D01*
X267485715Y-36583905D01*
X267485715Y-36345810D01*
X267438096Y-36250571D01*
X267390477Y-36202952D01*
X267295239Y-36155333D01*
X267104762Y-36155333D01*
X267009524Y-36202952D01*
X266961905Y-36250571D01*
X266914286Y-36345810D01*
X265961905Y-121864381D02*
X265961905Y-120864381D01*
X266342858Y-120864381D01*
X266438096Y-120912000D01*
X266485715Y-120959619D01*
X266533334Y-121054857D01*
X266533334Y-121197714D01*
X266485715Y-121292952D01*
X266438096Y-121340571D01*
X266342858Y-121388190D01*
X265961905Y-121388190D01*
X266866667Y-120864381D02*
X267533334Y-120864381D01*
X267104762Y-121864381D01*
X39052381Y-107251428D02*
X38576190Y-107584762D01*
X39052381Y-107822857D02*
X38052381Y-107822857D01*
X38052381Y-107441904D01*
X38100000Y-107346666D01*
X38147619Y-107299047D01*
X38242857Y-107251428D01*
X38385714Y-107251428D01*
X38480952Y-107299047D01*
X38528571Y-107346666D01*
X38576190Y-107441904D01*
X38576190Y-107822857D01*
X39052381Y-106346666D02*
X39052381Y-106822857D01*
X38052381Y-106822857D01*
X39052381Y-105489523D02*
X39052381Y-106060952D01*
X39052381Y-105775238D02*
X38052381Y-105775238D01*
X38195238Y-105870476D01*
X38290476Y-105965714D01*
X38338095Y-106060952D01*
X39052381Y-61531428D02*
X38576190Y-61864762D01*
X39052381Y-62102857D02*
X38052381Y-62102857D01*
X38052381Y-61721904D01*
X38100000Y-61626666D01*
X38147619Y-61579047D01*
X38242857Y-61531428D01*
X38385714Y-61531428D01*
X38480952Y-61579047D01*
X38528571Y-61626666D01*
X38576190Y-61721904D01*
X38576190Y-62102857D01*
X39052381Y-60626666D02*
X39052381Y-61102857D01*
X38052381Y-61102857D01*
X38147619Y-60340952D02*
X38100000Y-60293333D01*
X38052381Y-60198095D01*
X38052381Y-59959999D01*
X38100000Y-59864761D01*
X38147619Y-59817142D01*
X38242857Y-59769523D01*
X38338095Y-59769523D01*
X38480952Y-59817142D01*
X39052381Y-60388571D01*
X39052381Y-59769523D01*
X64452381Y-107251428D02*
X63976190Y-107584762D01*
X64452381Y-107822857D02*
X63452381Y-107822857D01*
X63452381Y-107441904D01*
X63500000Y-107346666D01*
X63547619Y-107299047D01*
X63642857Y-107251428D01*
X63785714Y-107251428D01*
X63880952Y-107299047D01*
X63928571Y-107346666D01*
X63976190Y-107441904D01*
X63976190Y-107822857D01*
X64452381Y-106346666D02*
X64452381Y-106822857D01*
X63452381Y-106822857D01*
X63452381Y-106108571D02*
X63452381Y-105489523D01*
X63833333Y-105822857D01*
X63833333Y-105679999D01*
X63880952Y-105584761D01*
X63928571Y-105537142D01*
X64023810Y-105489523D01*
X64261905Y-105489523D01*
X64357143Y-105537142D01*
X64404762Y-105584761D01*
X64452381Y-105679999D01*
X64452381Y-105965714D01*
X64404762Y-106060952D01*
X64357143Y-106108571D01*
X64452381Y-61531428D02*
X63976190Y-61864762D01*
X64452381Y-62102857D02*
X63452381Y-62102857D01*
X63452381Y-61721904D01*
X63500000Y-61626666D01*
X63547619Y-61579047D01*
X63642857Y-61531428D01*
X63785714Y-61531428D01*
X63880952Y-61579047D01*
X63928571Y-61626666D01*
X63976190Y-61721904D01*
X63976190Y-62102857D01*
X64452381Y-60626666D02*
X64452381Y-61102857D01*
X63452381Y-61102857D01*
X63785714Y-59864761D02*
X64452381Y-59864761D01*
X63404762Y-60102857D02*
X64119048Y-60340952D01*
X64119048Y-59721904D01*
X89852381Y-107251428D02*
X89376190Y-107584762D01*
X89852381Y-107822857D02*
X88852381Y-107822857D01*
X88852381Y-107441904D01*
X88900000Y-107346666D01*
X88947619Y-107299047D01*
X89042857Y-107251428D01*
X89185714Y-107251428D01*
X89280952Y-107299047D01*
X89328571Y-107346666D01*
X89376190Y-107441904D01*
X89376190Y-107822857D01*
X89852381Y-106346666D02*
X89852381Y-106822857D01*
X88852381Y-106822857D01*
X88852381Y-105537142D02*
X88852381Y-106013333D01*
X89328571Y-106060952D01*
X89280952Y-106013333D01*
X89233333Y-105918095D01*
X89233333Y-105679999D01*
X89280952Y-105584761D01*
X89328571Y-105537142D01*
X89423810Y-105489523D01*
X89661905Y-105489523D01*
X89757143Y-105537142D01*
X89804762Y-105584761D01*
X89852381Y-105679999D01*
X89852381Y-105918095D01*
X89804762Y-106013333D01*
X89757143Y-106060952D01*
X89852381Y-61531428D02*
X89376190Y-61864762D01*
X89852381Y-62102857D02*
X88852381Y-62102857D01*
X88852381Y-61721904D01*
X88900000Y-61626666D01*
X88947619Y-61579047D01*
X89042857Y-61531428D01*
X89185714Y-61531428D01*
X89280952Y-61579047D01*
X89328571Y-61626666D01*
X89376190Y-61721904D01*
X89376190Y-62102857D01*
X89852381Y-60626666D02*
X89852381Y-61102857D01*
X88852381Y-61102857D01*
X88852381Y-59864761D02*
X88852381Y-60055238D01*
X88900000Y-60150476D01*
X88947619Y-60198095D01*
X89090476Y-60293333D01*
X89280952Y-60340952D01*
X89661905Y-60340952D01*
X89757143Y-60293333D01*
X89804762Y-60245714D01*
X89852381Y-60150476D01*
X89852381Y-59959999D01*
X89804762Y-59864761D01*
X89757143Y-59817142D01*
X89661905Y-59769523D01*
X89423810Y-59769523D01*
X89328571Y-59817142D01*
X89280952Y-59864761D01*
X89233333Y-59959999D01*
X89233333Y-60150476D01*
X89280952Y-60245714D01*
X89328571Y-60293333D01*
X89423810Y-60340952D01*
X115252381Y-107251428D02*
X114776190Y-107584762D01*
X115252381Y-107822857D02*
X114252381Y-107822857D01*
X114252381Y-107441904D01*
X114300000Y-107346666D01*
X114347619Y-107299047D01*
X114442857Y-107251428D01*
X114585714Y-107251428D01*
X114680952Y-107299047D01*
X114728571Y-107346666D01*
X114776190Y-107441904D01*
X114776190Y-107822857D01*
X115252381Y-106346666D02*
X115252381Y-106822857D01*
X114252381Y-106822857D01*
X114252381Y-106108571D02*
X114252381Y-105441904D01*
X115252381Y-105870476D01*
X115252381Y-61531428D02*
X114776190Y-61864762D01*
X115252381Y-62102857D02*
X114252381Y-62102857D01*
X114252381Y-61721904D01*
X114300000Y-61626666D01*
X114347619Y-61579047D01*
X114442857Y-61531428D01*
X114585714Y-61531428D01*
X114680952Y-61579047D01*
X114728571Y-61626666D01*
X114776190Y-61721904D01*
X114776190Y-62102857D01*
X115252381Y-60626666D02*
X115252381Y-61102857D01*
X114252381Y-61102857D01*
X114680952Y-60150476D02*
X114633333Y-60245714D01*
X114585714Y-60293333D01*
X114490476Y-60340952D01*
X114442857Y-60340952D01*
X114347619Y-60293333D01*
X114300000Y-60245714D01*
X114252381Y-60150476D01*
X114252381Y-59959999D01*
X114300000Y-59864761D01*
X114347619Y-59817142D01*
X114442857Y-59769523D01*
X114490476Y-59769523D01*
X114585714Y-59817142D01*
X114633333Y-59864761D01*
X114680952Y-59959999D01*
X114680952Y-60150476D01*
X114728571Y-60245714D01*
X114776190Y-60293333D01*
X114871429Y-60340952D01*
X115061905Y-60340952D01*
X115157143Y-60293333D01*
X115204762Y-60245714D01*
X115252381Y-60150476D01*
X115252381Y-59959999D01*
X115204762Y-59864761D01*
X115157143Y-59817142D01*
X115061905Y-59769523D01*
X114871429Y-59769523D01*
X114776190Y-59817142D01*
X114728571Y-59864761D01*
X114680952Y-59959999D01*
X140652381Y-107251428D02*
X140176190Y-107584762D01*
X140652381Y-107822857D02*
X139652381Y-107822857D01*
X139652381Y-107441904D01*
X139700000Y-107346666D01*
X139747619Y-107299047D01*
X139842857Y-107251428D01*
X139985714Y-107251428D01*
X140080952Y-107299047D01*
X140128571Y-107346666D01*
X140176190Y-107441904D01*
X140176190Y-107822857D01*
X140652381Y-106346666D02*
X140652381Y-106822857D01*
X139652381Y-106822857D01*
X140652381Y-105965714D02*
X140652381Y-105775238D01*
X140604762Y-105679999D01*
X140557143Y-105632380D01*
X140414286Y-105537142D01*
X140223810Y-105489523D01*
X139842857Y-105489523D01*
X139747619Y-105537142D01*
X139700000Y-105584761D01*
X139652381Y-105679999D01*
X139652381Y-105870476D01*
X139700000Y-105965714D01*
X139747619Y-106013333D01*
X139842857Y-106060952D01*
X140080952Y-106060952D01*
X140176190Y-106013333D01*
X140223810Y-105965714D01*
X140271429Y-105870476D01*
X140271429Y-105679999D01*
X140223810Y-105584761D01*
X140176190Y-105537142D01*
X140080952Y-105489523D01*
X140652381Y-62007619D02*
X140176190Y-62340953D01*
X140652381Y-62579048D02*
X139652381Y-62579048D01*
X139652381Y-62198095D01*
X139700000Y-62102857D01*
X139747619Y-62055238D01*
X139842857Y-62007619D01*
X139985714Y-62007619D01*
X140080952Y-62055238D01*
X140128571Y-62102857D01*
X140176190Y-62198095D01*
X140176190Y-62579048D01*
X140652381Y-61102857D02*
X140652381Y-61579048D01*
X139652381Y-61579048D01*
X140652381Y-60245714D02*
X140652381Y-60817143D01*
X140652381Y-60531429D02*
X139652381Y-60531429D01*
X139795238Y-60626667D01*
X139890476Y-60721905D01*
X139938095Y-60817143D01*
X139652381Y-59626667D02*
X139652381Y-59531428D01*
X139700000Y-59436190D01*
X139747619Y-59388571D01*
X139842857Y-59340952D01*
X140033333Y-59293333D01*
X140271429Y-59293333D01*
X140461905Y-59340952D01*
X140557143Y-59388571D01*
X140604762Y-59436190D01*
X140652381Y-59531428D01*
X140652381Y-59626667D01*
X140604762Y-59721905D01*
X140557143Y-59769524D01*
X140461905Y-59817143D01*
X140271429Y-59864762D01*
X140033333Y-59864762D01*
X139842857Y-59817143D01*
X139747619Y-59769524D01*
X139700000Y-59721905D01*
X139652381Y-59626667D01*
X168592381Y-107727619D02*
X168116190Y-108060953D01*
X168592381Y-108299048D02*
X167592381Y-108299048D01*
X167592381Y-107918095D01*
X167640000Y-107822857D01*
X167687619Y-107775238D01*
X167782857Y-107727619D01*
X167925714Y-107727619D01*
X168020952Y-107775238D01*
X168068571Y-107822857D01*
X168116190Y-107918095D01*
X168116190Y-108299048D01*
X168592381Y-106822857D02*
X168592381Y-107299048D01*
X167592381Y-107299048D01*
X168592381Y-105965714D02*
X168592381Y-106537143D01*
X168592381Y-106251429D02*
X167592381Y-106251429D01*
X167735238Y-106346667D01*
X167830476Y-106441905D01*
X167878095Y-106537143D01*
X168592381Y-105013333D02*
X168592381Y-105584762D01*
X168592381Y-105299048D02*
X167592381Y-105299048D01*
X167735238Y-105394286D01*
X167830476Y-105489524D01*
X167878095Y-105584762D01*
X168592381Y-62007619D02*
X168116190Y-62340953D01*
X168592381Y-62579048D02*
X167592381Y-62579048D01*
X167592381Y-62198095D01*
X167640000Y-62102857D01*
X167687619Y-62055238D01*
X167782857Y-62007619D01*
X167925714Y-62007619D01*
X168020952Y-62055238D01*
X168068571Y-62102857D01*
X168116190Y-62198095D01*
X168116190Y-62579048D01*
X168592381Y-61102857D02*
X168592381Y-61579048D01*
X167592381Y-61579048D01*
X168592381Y-60245714D02*
X168592381Y-60817143D01*
X168592381Y-60531429D02*
X167592381Y-60531429D01*
X167735238Y-60626667D01*
X167830476Y-60721905D01*
X167878095Y-60817143D01*
X167687619Y-59864762D02*
X167640000Y-59817143D01*
X167592381Y-59721905D01*
X167592381Y-59483809D01*
X167640000Y-59388571D01*
X167687619Y-59340952D01*
X167782857Y-59293333D01*
X167878095Y-59293333D01*
X168020952Y-59340952D01*
X168592381Y-59912381D01*
X168592381Y-59293333D01*
X193992381Y-107727619D02*
X193516190Y-108060953D01*
X193992381Y-108299048D02*
X192992381Y-108299048D01*
X192992381Y-107918095D01*
X193040000Y-107822857D01*
X193087619Y-107775238D01*
X193182857Y-107727619D01*
X193325714Y-107727619D01*
X193420952Y-107775238D01*
X193468571Y-107822857D01*
X193516190Y-107918095D01*
X193516190Y-108299048D01*
X193992381Y-106822857D02*
X193992381Y-107299048D01*
X192992381Y-107299048D01*
X193992381Y-105965714D02*
X193992381Y-106537143D01*
X193992381Y-106251429D02*
X192992381Y-106251429D01*
X193135238Y-106346667D01*
X193230476Y-106441905D01*
X193278095Y-106537143D01*
X192992381Y-105632381D02*
X192992381Y-105013333D01*
X193373333Y-105346667D01*
X193373333Y-105203809D01*
X193420952Y-105108571D01*
X193468571Y-105060952D01*
X193563810Y-105013333D01*
X193801905Y-105013333D01*
X193897143Y-105060952D01*
X193944762Y-105108571D01*
X193992381Y-105203809D01*
X193992381Y-105489524D01*
X193944762Y-105584762D01*
X193897143Y-105632381D01*
X193992381Y-62007619D02*
X193516190Y-62340953D01*
X193992381Y-62579048D02*
X192992381Y-62579048D01*
X192992381Y-62198095D01*
X193040000Y-62102857D01*
X193087619Y-62055238D01*
X193182857Y-62007619D01*
X193325714Y-62007619D01*
X193420952Y-62055238D01*
X193468571Y-62102857D01*
X193516190Y-62198095D01*
X193516190Y-62579048D01*
X193992381Y-61102857D02*
X193992381Y-61579048D01*
X192992381Y-61579048D01*
X193992381Y-60245714D02*
X193992381Y-60817143D01*
X193992381Y-60531429D02*
X192992381Y-60531429D01*
X193135238Y-60626667D01*
X193230476Y-60721905D01*
X193278095Y-60817143D01*
X193325714Y-59388571D02*
X193992381Y-59388571D01*
X192944762Y-59626667D02*
X193659048Y-59864762D01*
X193659048Y-59245714D01*
X219392381Y-107727619D02*
X218916190Y-108060953D01*
X219392381Y-108299048D02*
X218392381Y-108299048D01*
X218392381Y-107918095D01*
X218440000Y-107822857D01*
X218487619Y-107775238D01*
X218582857Y-107727619D01*
X218725714Y-107727619D01*
X218820952Y-107775238D01*
X218868571Y-107822857D01*
X218916190Y-107918095D01*
X218916190Y-108299048D01*
X219392381Y-106822857D02*
X219392381Y-107299048D01*
X218392381Y-107299048D01*
X219392381Y-105965714D02*
X219392381Y-106537143D01*
X219392381Y-106251429D02*
X218392381Y-106251429D01*
X218535238Y-106346667D01*
X218630476Y-106441905D01*
X218678095Y-106537143D01*
X218392381Y-105060952D02*
X218392381Y-105537143D01*
X218868571Y-105584762D01*
X218820952Y-105537143D01*
X218773333Y-105441905D01*
X218773333Y-105203809D01*
X218820952Y-105108571D01*
X218868571Y-105060952D01*
X218963810Y-105013333D01*
X219201905Y-105013333D01*
X219297143Y-105060952D01*
X219344762Y-105108571D01*
X219392381Y-105203809D01*
X219392381Y-105441905D01*
X219344762Y-105537143D01*
X219297143Y-105584762D01*
X219392381Y-62007619D02*
X218916190Y-62340953D01*
X219392381Y-62579048D02*
X218392381Y-62579048D01*
X218392381Y-62198095D01*
X218440000Y-62102857D01*
X218487619Y-62055238D01*
X218582857Y-62007619D01*
X218725714Y-62007619D01*
X218820952Y-62055238D01*
X218868571Y-62102857D01*
X218916190Y-62198095D01*
X218916190Y-62579048D01*
X219392381Y-61102857D02*
X219392381Y-61579048D01*
X218392381Y-61579048D01*
X219392381Y-60245714D02*
X219392381Y-60817143D01*
X219392381Y-60531429D02*
X218392381Y-60531429D01*
X218535238Y-60626667D01*
X218630476Y-60721905D01*
X218678095Y-60817143D01*
X218392381Y-59388571D02*
X218392381Y-59579048D01*
X218440000Y-59674286D01*
X218487619Y-59721905D01*
X218630476Y-59817143D01*
X218820952Y-59864762D01*
X219201905Y-59864762D01*
X219297143Y-59817143D01*
X219344762Y-59769524D01*
X219392381Y-59674286D01*
X219392381Y-59483809D01*
X219344762Y-59388571D01*
X219297143Y-59340952D01*
X219201905Y-59293333D01*
X218963810Y-59293333D01*
X218868571Y-59340952D01*
X218820952Y-59388571D01*
X218773333Y-59483809D01*
X218773333Y-59674286D01*
X218820952Y-59769524D01*
X218868571Y-59817143D01*
X218963810Y-59864762D01*
X244792381Y-107727619D02*
X244316190Y-108060953D01*
X244792381Y-108299048D02*
X243792381Y-108299048D01*
X243792381Y-107918095D01*
X243840000Y-107822857D01*
X243887619Y-107775238D01*
X243982857Y-107727619D01*
X244125714Y-107727619D01*
X244220952Y-107775238D01*
X244268571Y-107822857D01*
X244316190Y-107918095D01*
X244316190Y-108299048D01*
X244792381Y-106822857D02*
X244792381Y-107299048D01*
X243792381Y-107299048D01*
X244792381Y-105965714D02*
X244792381Y-106537143D01*
X244792381Y-106251429D02*
X243792381Y-106251429D01*
X243935238Y-106346667D01*
X244030476Y-106441905D01*
X244078095Y-106537143D01*
X243792381Y-105632381D02*
X243792381Y-104965714D01*
X244792381Y-105394286D01*
X244792381Y-62007619D02*
X244316190Y-62340953D01*
X244792381Y-62579048D02*
X243792381Y-62579048D01*
X243792381Y-62198095D01*
X243840000Y-62102857D01*
X243887619Y-62055238D01*
X243982857Y-62007619D01*
X244125714Y-62007619D01*
X244220952Y-62055238D01*
X244268571Y-62102857D01*
X244316190Y-62198095D01*
X244316190Y-62579048D01*
X244792381Y-61102857D02*
X244792381Y-61579048D01*
X243792381Y-61579048D01*
X244792381Y-60245714D02*
X244792381Y-60817143D01*
X244792381Y-60531429D02*
X243792381Y-60531429D01*
X243935238Y-60626667D01*
X244030476Y-60721905D01*
X244078095Y-60817143D01*
X244220952Y-59674286D02*
X244173333Y-59769524D01*
X244125714Y-59817143D01*
X244030476Y-59864762D01*
X243982857Y-59864762D01*
X243887619Y-59817143D01*
X243840000Y-59769524D01*
X243792381Y-59674286D01*
X243792381Y-59483809D01*
X243840000Y-59388571D01*
X243887619Y-59340952D01*
X243982857Y-59293333D01*
X244030476Y-59293333D01*
X244125714Y-59340952D01*
X244173333Y-59388571D01*
X244220952Y-59483809D01*
X244220952Y-59674286D01*
X244268571Y-59769524D01*
X244316190Y-59817143D01*
X244411429Y-59864762D01*
X244601905Y-59864762D01*
X244697143Y-59817143D01*
X244744762Y-59769524D01*
X244792381Y-59674286D01*
X244792381Y-59483809D01*
X244744762Y-59388571D01*
X244697143Y-59340952D01*
X244601905Y-59293333D01*
X244411429Y-59293333D01*
X244316190Y-59340952D01*
X244268571Y-59388571D01*
X244220952Y-59483809D01*
X270192381Y-107727619D02*
X269716190Y-108060953D01*
X270192381Y-108299048D02*
X269192381Y-108299048D01*
X269192381Y-107918095D01*
X269240000Y-107822857D01*
X269287619Y-107775238D01*
X269382857Y-107727619D01*
X269525714Y-107727619D01*
X269620952Y-107775238D01*
X269668571Y-107822857D01*
X269716190Y-107918095D01*
X269716190Y-108299048D01*
X270192381Y-106822857D02*
X270192381Y-107299048D01*
X269192381Y-107299048D01*
X270192381Y-105965714D02*
X270192381Y-106537143D01*
X270192381Y-106251429D02*
X269192381Y-106251429D01*
X269335238Y-106346667D01*
X269430476Y-106441905D01*
X269478095Y-106537143D01*
X270192381Y-105489524D02*
X270192381Y-105299048D01*
X270144762Y-105203809D01*
X270097143Y-105156190D01*
X269954286Y-105060952D01*
X269763810Y-105013333D01*
X269382857Y-105013333D01*
X269287619Y-105060952D01*
X269240000Y-105108571D01*
X269192381Y-105203809D01*
X269192381Y-105394286D01*
X269240000Y-105489524D01*
X269287619Y-105537143D01*
X269382857Y-105584762D01*
X269620952Y-105584762D01*
X269716190Y-105537143D01*
X269763810Y-105489524D01*
X269811429Y-105394286D01*
X269811429Y-105203809D01*
X269763810Y-105108571D01*
X269716190Y-105060952D01*
X269620952Y-105013333D01*
X270192381Y-62007619D02*
X269716190Y-62340953D01*
X270192381Y-62579048D02*
X269192381Y-62579048D01*
X269192381Y-62198095D01*
X269240000Y-62102857D01*
X269287619Y-62055238D01*
X269382857Y-62007619D01*
X269525714Y-62007619D01*
X269620952Y-62055238D01*
X269668571Y-62102857D01*
X269716190Y-62198095D01*
X269716190Y-62579048D01*
X270192381Y-61102857D02*
X270192381Y-61579048D01*
X269192381Y-61579048D01*
X269287619Y-60817143D02*
X269240000Y-60769524D01*
X269192381Y-60674286D01*
X269192381Y-60436190D01*
X269240000Y-60340952D01*
X269287619Y-60293333D01*
X269382857Y-60245714D01*
X269478095Y-60245714D01*
X269620952Y-60293333D01*
X270192381Y-60864762D01*
X270192381Y-60245714D01*
X269192381Y-59626667D02*
X269192381Y-59531428D01*
X269240000Y-59436190D01*
X269287619Y-59388571D01*
X269382857Y-59340952D01*
X269573333Y-59293333D01*
X269811429Y-59293333D01*
X270001905Y-59340952D01*
X270097143Y-59388571D01*
X270144762Y-59436190D01*
X270192381Y-59531428D01*
X270192381Y-59626667D01*
X270144762Y-59721905D01*
X270097143Y-59769524D01*
X270001905Y-59817143D01*
X269811429Y-59864762D01*
X269573333Y-59864762D01*
X269382857Y-59817143D01*
X269287619Y-59769524D01*
X269240000Y-59721905D01*
X269192381Y-59626667D01*
X133405714Y-121864381D02*
X133405714Y-120864381D01*
X133786667Y-120864381D01*
X133881905Y-120912000D01*
X133929524Y-120959619D01*
X133977143Y-121054857D01*
X133977143Y-121197714D01*
X133929524Y-121292952D01*
X133881905Y-121340571D01*
X133786667Y-121388190D01*
X133405714Y-121388190D01*
X134929524Y-121864381D02*
X134358095Y-121864381D01*
X134643809Y-121864381D02*
X134643809Y-120864381D01*
X134548571Y-121007238D01*
X134453333Y-121102476D01*
X134358095Y-121150095D01*
X135262857Y-120864381D02*
X135929524Y-120864381D01*
X135500952Y-121864381D01*
X133405714Y-36774381D02*
X133405714Y-35774381D01*
X133786667Y-35774381D01*
X133881905Y-35822000D01*
X133929524Y-35869619D01*
X133977143Y-35964857D01*
X133977143Y-36107714D01*
X133929524Y-36202952D01*
X133881905Y-36250571D01*
X133786667Y-36298190D01*
X133405714Y-36298190D01*
X134929524Y-36774381D02*
X134358095Y-36774381D01*
X134643809Y-36774381D02*
X134643809Y-35774381D01*
X134548571Y-35917238D01*
X134453333Y-36012476D01*
X134358095Y-36060095D01*
X135500952Y-36202952D02*
X135405714Y-36155333D01*
X135358095Y-36107714D01*
X135310476Y-36012476D01*
X135310476Y-35964857D01*
X135358095Y-35869619D01*
X135405714Y-35822000D01*
X135500952Y-35774381D01*
X135691429Y-35774381D01*
X135786667Y-35822000D01*
X135834286Y-35869619D01*
X135881905Y-35964857D01*
X135881905Y-36012476D01*
X135834286Y-36107714D01*
X135786667Y-36155333D01*
X135691429Y-36202952D01*
X135500952Y-36202952D01*
X135405714Y-36250571D01*
X135358095Y-36298190D01*
X135310476Y-36393429D01*
X135310476Y-36583905D01*
X135358095Y-36679143D01*
X135405714Y-36726762D01*
X135500952Y-36774381D01*
X135691429Y-36774381D01*
X135786667Y-36726762D01*
X135834286Y-36679143D01*
X135881905Y-36583905D01*
X135881905Y-36393429D01*
X135834286Y-36298190D01*
X135786667Y-36250571D01*
X135691429Y-36202952D01*
X168965714Y-36774381D02*
X168965714Y-35774381D01*
X169346667Y-35774381D01*
X169441905Y-35822000D01*
X169489524Y-35869619D01*
X169537143Y-35964857D01*
X169537143Y-36107714D01*
X169489524Y-36202952D01*
X169441905Y-36250571D01*
X169346667Y-36298190D01*
X168965714Y-36298190D01*
X170489524Y-36774381D02*
X169918095Y-36774381D01*
X170203809Y-36774381D02*
X170203809Y-35774381D01*
X170108571Y-35917238D01*
X170013333Y-36012476D01*
X169918095Y-36060095D01*
X170965714Y-36774381D02*
X171156190Y-36774381D01*
X171251429Y-36726762D01*
X171299048Y-36679143D01*
X171394286Y-36536286D01*
X171441905Y-36345810D01*
X171441905Y-35964857D01*
X171394286Y-35869619D01*
X171346667Y-35822000D01*
X171251429Y-35774381D01*
X171060952Y-35774381D01*
X170965714Y-35822000D01*
X170918095Y-35869619D01*
X170870476Y-35964857D01*
X170870476Y-36202952D01*
X170918095Y-36298190D01*
X170965714Y-36345810D01*
X171060952Y-36393429D01*
X171251429Y-36393429D01*
X171346667Y-36345810D01*
X171394286Y-36298190D01*
X171441905Y-36202952D01*
X168965714Y-121864381D02*
X168965714Y-120864381D01*
X169346667Y-120864381D01*
X169441905Y-120912000D01*
X169489524Y-120959619D01*
X169537143Y-121054857D01*
X169537143Y-121197714D01*
X169489524Y-121292952D01*
X169441905Y-121340571D01*
X169346667Y-121388190D01*
X168965714Y-121388190D01*
X169918095Y-120959619D02*
X169965714Y-120912000D01*
X170060952Y-120864381D01*
X170299048Y-120864381D01*
X170394286Y-120912000D01*
X170441905Y-120959619D01*
X170489524Y-121054857D01*
X170489524Y-121150095D01*
X170441905Y-121292952D01*
X169870476Y-121864381D01*
X170489524Y-121864381D01*
X171108571Y-120864381D02*
X171203810Y-120864381D01*
X171299048Y-120912000D01*
X171346667Y-120959619D01*
X171394286Y-121054857D01*
X171441905Y-121245333D01*
X171441905Y-121483429D01*
X171394286Y-121673905D01*
X171346667Y-121769143D01*
X171299048Y-121816762D01*
X171203810Y-121864381D01*
X171108571Y-121864381D01*
X171013333Y-121816762D01*
X170965714Y-121769143D01*
X170918095Y-121673905D01*
X170870476Y-121483429D01*
X170870476Y-121245333D01*
X170918095Y-121054857D01*
X170965714Y-120959619D01*
X171013333Y-120912000D01*
X171108571Y-120864381D01*
X36933334Y-87272381D02*
X36457143Y-87272381D01*
X36457143Y-86272381D01*
X37171429Y-86272381D02*
X37790477Y-86272381D01*
X37457143Y-86653333D01*
X37600001Y-86653333D01*
X37695239Y-86700952D01*
X37742858Y-86748571D01*
X37790477Y-86843810D01*
X37790477Y-87081905D01*
X37742858Y-87177143D01*
X37695239Y-87224762D01*
X37600001Y-87272381D01*
X37314286Y-87272381D01*
X37219048Y-87224762D01*
X37171429Y-87177143D01*
X62333334Y-87272381D02*
X61857143Y-87272381D01*
X61857143Y-86272381D01*
X63095239Y-86605714D02*
X63095239Y-87272381D01*
X62857143Y-86224762D02*
X62619048Y-86939048D01*
X63238096Y-86939048D01*
X87733334Y-87272381D02*
X87257143Y-87272381D01*
X87257143Y-86272381D01*
X88542858Y-86272381D02*
X88066667Y-86272381D01*
X88019048Y-86748571D01*
X88066667Y-86700952D01*
X88161905Y-86653333D01*
X88400001Y-86653333D01*
X88495239Y-86700952D01*
X88542858Y-86748571D01*
X88590477Y-86843810D01*
X88590477Y-87081905D01*
X88542858Y-87177143D01*
X88495239Y-87224762D01*
X88400001Y-87272381D01*
X88161905Y-87272381D01*
X88066667Y-87224762D01*
X88019048Y-87177143D01*
X113133334Y-87272381D02*
X112657143Y-87272381D01*
X112657143Y-86272381D01*
X113895239Y-86272381D02*
X113704762Y-86272381D01*
X113609524Y-86320000D01*
X113561905Y-86367619D01*
X113466667Y-86510476D01*
X113419048Y-86700952D01*
X113419048Y-87081905D01*
X113466667Y-87177143D01*
X113514286Y-87224762D01*
X113609524Y-87272381D01*
X113800001Y-87272381D01*
X113895239Y-87224762D01*
X113942858Y-87177143D01*
X113990477Y-87081905D01*
X113990477Y-86843810D01*
X113942858Y-86748571D01*
X113895239Y-86700952D01*
X113800001Y-86653333D01*
X113609524Y-86653333D01*
X113514286Y-86700952D01*
X113466667Y-86748571D01*
X113419048Y-86843810D01*
X138533334Y-87272381D02*
X138057143Y-87272381D01*
X138057143Y-86272381D01*
X138771429Y-86272381D02*
X139438096Y-86272381D01*
X139009524Y-87272381D01*
X166473334Y-87272381D02*
X165997143Y-87272381D01*
X165997143Y-86272381D01*
X166949524Y-86700952D02*
X166854286Y-86653333D01*
X166806667Y-86605714D01*
X166759048Y-86510476D01*
X166759048Y-86462857D01*
X166806667Y-86367619D01*
X166854286Y-86320000D01*
X166949524Y-86272381D01*
X167140001Y-86272381D01*
X167235239Y-86320000D01*
X167282858Y-86367619D01*
X167330477Y-86462857D01*
X167330477Y-86510476D01*
X167282858Y-86605714D01*
X167235239Y-86653333D01*
X167140001Y-86700952D01*
X166949524Y-86700952D01*
X166854286Y-86748571D01*
X166806667Y-86796190D01*
X166759048Y-86891429D01*
X166759048Y-87081905D01*
X166806667Y-87177143D01*
X166854286Y-87224762D01*
X166949524Y-87272381D01*
X167140001Y-87272381D01*
X167235239Y-87224762D01*
X167282858Y-87177143D01*
X167330477Y-87081905D01*
X167330477Y-86891429D01*
X167282858Y-86796190D01*
X167235239Y-86748571D01*
X167140001Y-86700952D01*
X191873334Y-87272381D02*
X191397143Y-87272381D01*
X191397143Y-86272381D01*
X192254286Y-87272381D02*
X192444762Y-87272381D01*
X192540001Y-87224762D01*
X192587620Y-87177143D01*
X192682858Y-87034286D01*
X192730477Y-86843810D01*
X192730477Y-86462857D01*
X192682858Y-86367619D01*
X192635239Y-86320000D01*
X192540001Y-86272381D01*
X192349524Y-86272381D01*
X192254286Y-86320000D01*
X192206667Y-86367619D01*
X192159048Y-86462857D01*
X192159048Y-86700952D01*
X192206667Y-86796190D01*
X192254286Y-86843810D01*
X192349524Y-86891429D01*
X192540001Y-86891429D01*
X192635239Y-86843810D01*
X192682858Y-86796190D01*
X192730477Y-86700952D01*
X216797143Y-87272381D02*
X216320952Y-87272381D01*
X216320952Y-86272381D01*
X217654286Y-87272381D02*
X217082857Y-87272381D01*
X217368571Y-87272381D02*
X217368571Y-86272381D01*
X217273333Y-86415238D01*
X217178095Y-86510476D01*
X217082857Y-86558095D01*
X218273333Y-86272381D02*
X218368572Y-86272381D01*
X218463810Y-86320000D01*
X218511429Y-86367619D01*
X218559048Y-86462857D01*
X218606667Y-86653333D01*
X218606667Y-86891429D01*
X218559048Y-87081905D01*
X218511429Y-87177143D01*
X218463810Y-87224762D01*
X218368572Y-87272381D01*
X218273333Y-87272381D01*
X218178095Y-87224762D01*
X218130476Y-87177143D01*
X218082857Y-87081905D01*
X218035238Y-86891429D01*
X218035238Y-86653333D01*
X218082857Y-86462857D01*
X218130476Y-86367619D01*
X218178095Y-86320000D01*
X218273333Y-86272381D01*
X242197143Y-87272381D02*
X241720952Y-87272381D01*
X241720952Y-86272381D01*
X243054286Y-87272381D02*
X242482857Y-87272381D01*
X242768571Y-87272381D02*
X242768571Y-86272381D01*
X242673333Y-86415238D01*
X242578095Y-86510476D01*
X242482857Y-86558095D01*
X244006667Y-87272381D02*
X243435238Y-87272381D01*
X243720952Y-87272381D02*
X243720952Y-86272381D01*
X243625714Y-86415238D01*
X243530476Y-86510476D01*
X243435238Y-86558095D01*
X267597143Y-87272381D02*
X267120952Y-87272381D01*
X267120952Y-86272381D01*
X268454286Y-87272381D02*
X267882857Y-87272381D01*
X268168571Y-87272381D02*
X268168571Y-86272381D01*
X268073333Y-86415238D01*
X267978095Y-86510476D01*
X267882857Y-86558095D01*
X268835238Y-86367619D02*
X268882857Y-86320000D01*
X268978095Y-86272381D01*
X269216191Y-86272381D01*
X269311429Y-86320000D01*
X269359048Y-86367619D01*
X269406667Y-86462857D01*
X269406667Y-86558095D01*
X269359048Y-86700952D01*
X268787619Y-87272381D01*
X269406667Y-87272381D01*
X108751905Y-48132381D02*
X108751905Y-47132381D01*
X109132858Y-47132381D01*
X109228096Y-47180000D01*
X109275715Y-47227619D01*
X109323334Y-47322857D01*
X109323334Y-47465714D01*
X109275715Y-47560952D01*
X109228096Y-47608571D01*
X109132858Y-47656190D01*
X108751905Y-47656190D01*
X109656667Y-47132381D02*
X110275715Y-47132381D01*
X109942381Y-47513333D01*
X110085239Y-47513333D01*
X110180477Y-47560952D01*
X110228096Y-47608571D01*
X110275715Y-47703810D01*
X110275715Y-47941905D01*
X110228096Y-48037143D01*
X110180477Y-48084762D01*
X110085239Y-48132381D01*
X109799524Y-48132381D01*
X109704286Y-48084762D01*
X109656667Y-48037143D01*
X208605714Y-48132381D02*
X208605714Y-47132381D01*
X208986667Y-47132381D01*
X209081905Y-47180000D01*
X209129524Y-47227619D01*
X209177143Y-47322857D01*
X209177143Y-47465714D01*
X209129524Y-47560952D01*
X209081905Y-47608571D01*
X208986667Y-47656190D01*
X208605714Y-47656190D01*
X210129524Y-48132381D02*
X209558095Y-48132381D01*
X209843809Y-48132381D02*
X209843809Y-47132381D01*
X209748571Y-47275238D01*
X209653333Y-47370476D01*
X209558095Y-47418095D01*
X210986667Y-47132381D02*
X210796190Y-47132381D01*
X210700952Y-47180000D01*
X210653333Y-47227619D01*
X210558095Y-47370476D01*
X210510476Y-47560952D01*
X210510476Y-47941905D01*
X210558095Y-48037143D01*
X210605714Y-48084762D01*
X210700952Y-48132381D01*
X210891429Y-48132381D01*
X210986667Y-48084762D01*
X211034286Y-48037143D01*
X211081905Y-47941905D01*
X211081905Y-47703810D01*
X211034286Y-47608571D01*
X210986667Y-47560952D01*
X210891429Y-47513333D01*
X210700952Y-47513333D01*
X210605714Y-47560952D01*
X210558095Y-47608571D01*
X210510476Y-47703810D01*
X58737381Y-44616666D02*
X58737381Y-45092857D01*
X57737381Y-45092857D01*
X57832619Y-44330952D02*
X57785000Y-44283333D01*
X57737381Y-44188095D01*
X57737381Y-43949999D01*
X57785000Y-43854761D01*
X57832619Y-43807142D01*
X57927857Y-43759523D01*
X58023095Y-43759523D01*
X58165952Y-43807142D01*
X58737381Y-44378571D01*
X58737381Y-43759523D01*
X43013334Y-114467143D02*
X42965715Y-114514762D01*
X42822858Y-114562381D01*
X42727620Y-114562381D01*
X42584762Y-114514762D01*
X42489524Y-114419524D01*
X42441905Y-114324286D01*
X42394286Y-114133810D01*
X42394286Y-113990952D01*
X42441905Y-113800476D01*
X42489524Y-113705238D01*
X42584762Y-113610000D01*
X42727620Y-113562381D01*
X42822858Y-113562381D01*
X42965715Y-113610000D01*
X43013334Y-113657619D01*
X43965715Y-114562381D02*
X43394286Y-114562381D01*
X43680000Y-114562381D02*
X43680000Y-113562381D01*
X43584762Y-113705238D01*
X43489524Y-113800476D01*
X43394286Y-113848095D01*
X39203334Y-98337143D02*
X39155715Y-98384762D01*
X39012858Y-98432381D01*
X38917620Y-98432381D01*
X38774762Y-98384762D01*
X38679524Y-98289524D01*
X38631905Y-98194286D01*
X38584286Y-98003810D01*
X38584286Y-97860952D01*
X38631905Y-97670476D01*
X38679524Y-97575238D01*
X38774762Y-97480000D01*
X38917620Y-97432381D01*
X39012858Y-97432381D01*
X39155715Y-97480000D01*
X39203334Y-97527619D01*
X39584286Y-97527619D02*
X39631905Y-97480000D01*
X39727143Y-97432381D01*
X39965239Y-97432381D01*
X40060477Y-97480000D01*
X40108096Y-97527619D01*
X40155715Y-97622857D01*
X40155715Y-97718095D01*
X40108096Y-97860952D01*
X39536667Y-98432381D01*
X40155715Y-98432381D01*
X39203334Y-78017143D02*
X39155715Y-78064762D01*
X39012858Y-78112381D01*
X38917620Y-78112381D01*
X38774762Y-78064762D01*
X38679524Y-77969524D01*
X38631905Y-77874286D01*
X38584286Y-77683810D01*
X38584286Y-77540952D01*
X38631905Y-77350476D01*
X38679524Y-77255238D01*
X38774762Y-77160000D01*
X38917620Y-77112381D01*
X39012858Y-77112381D01*
X39155715Y-77160000D01*
X39203334Y-77207619D01*
X39536667Y-77112381D02*
X40155715Y-77112381D01*
X39822381Y-77493333D01*
X39965239Y-77493333D01*
X40060477Y-77540952D01*
X40108096Y-77588571D01*
X40155715Y-77683810D01*
X40155715Y-77921905D01*
X40108096Y-78017143D01*
X40060477Y-78064762D01*
X39965239Y-78112381D01*
X39679524Y-78112381D01*
X39584286Y-78064762D01*
X39536667Y-78017143D01*
X64603334Y-98337143D02*
X64555715Y-98384762D01*
X64412858Y-98432381D01*
X64317620Y-98432381D01*
X64174762Y-98384762D01*
X64079524Y-98289524D01*
X64031905Y-98194286D01*
X63984286Y-98003810D01*
X63984286Y-97860952D01*
X64031905Y-97670476D01*
X64079524Y-97575238D01*
X64174762Y-97480000D01*
X64317620Y-97432381D01*
X64412858Y-97432381D01*
X64555715Y-97480000D01*
X64603334Y-97527619D01*
X65508096Y-97432381D02*
X65031905Y-97432381D01*
X64984286Y-97908571D01*
X65031905Y-97860952D01*
X65127143Y-97813333D01*
X65365239Y-97813333D01*
X65460477Y-97860952D01*
X65508096Y-97908571D01*
X65555715Y-98003810D01*
X65555715Y-98241905D01*
X65508096Y-98337143D01*
X65460477Y-98384762D01*
X65365239Y-98432381D01*
X65127143Y-98432381D01*
X65031905Y-98384762D01*
X64984286Y-98337143D01*
X64603334Y-78017143D02*
X64555715Y-78064762D01*
X64412858Y-78112381D01*
X64317620Y-78112381D01*
X64174762Y-78064762D01*
X64079524Y-77969524D01*
X64031905Y-77874286D01*
X63984286Y-77683810D01*
X63984286Y-77540952D01*
X64031905Y-77350476D01*
X64079524Y-77255238D01*
X64174762Y-77160000D01*
X64317620Y-77112381D01*
X64412858Y-77112381D01*
X64555715Y-77160000D01*
X64603334Y-77207619D01*
X65460477Y-77112381D02*
X65270000Y-77112381D01*
X65174762Y-77160000D01*
X65127143Y-77207619D01*
X65031905Y-77350476D01*
X64984286Y-77540952D01*
X64984286Y-77921905D01*
X65031905Y-78017143D01*
X65079524Y-78064762D01*
X65174762Y-78112381D01*
X65365239Y-78112381D01*
X65460477Y-78064762D01*
X65508096Y-78017143D01*
X65555715Y-77921905D01*
X65555715Y-77683810D01*
X65508096Y-77588571D01*
X65460477Y-77540952D01*
X65365239Y-77493333D01*
X65174762Y-77493333D01*
X65079524Y-77540952D01*
X65031905Y-77588571D01*
X64984286Y-77683810D01*
X90003334Y-98337143D02*
X89955715Y-98384762D01*
X89812858Y-98432381D01*
X89717620Y-98432381D01*
X89574762Y-98384762D01*
X89479524Y-98289524D01*
X89431905Y-98194286D01*
X89384286Y-98003810D01*
X89384286Y-97860952D01*
X89431905Y-97670476D01*
X89479524Y-97575238D01*
X89574762Y-97480000D01*
X89717620Y-97432381D01*
X89812858Y-97432381D01*
X89955715Y-97480000D01*
X90003334Y-97527619D01*
X90336667Y-97432381D02*
X91003334Y-97432381D01*
X90574762Y-98432381D01*
X90003334Y-78017143D02*
X89955715Y-78064762D01*
X89812858Y-78112381D01*
X89717620Y-78112381D01*
X89574762Y-78064762D01*
X89479524Y-77969524D01*
X89431905Y-77874286D01*
X89384286Y-77683810D01*
X89384286Y-77540952D01*
X89431905Y-77350476D01*
X89479524Y-77255238D01*
X89574762Y-77160000D01*
X89717620Y-77112381D01*
X89812858Y-77112381D01*
X89955715Y-77160000D01*
X90003334Y-77207619D01*
X90574762Y-77540952D02*
X90479524Y-77493333D01*
X90431905Y-77445714D01*
X90384286Y-77350476D01*
X90384286Y-77302857D01*
X90431905Y-77207619D01*
X90479524Y-77160000D01*
X90574762Y-77112381D01*
X90765239Y-77112381D01*
X90860477Y-77160000D01*
X90908096Y-77207619D01*
X90955715Y-77302857D01*
X90955715Y-77350476D01*
X90908096Y-77445714D01*
X90860477Y-77493333D01*
X90765239Y-77540952D01*
X90574762Y-77540952D01*
X90479524Y-77588571D01*
X90431905Y-77636190D01*
X90384286Y-77731429D01*
X90384286Y-77921905D01*
X90431905Y-78017143D01*
X90479524Y-78064762D01*
X90574762Y-78112381D01*
X90765239Y-78112381D01*
X90860477Y-78064762D01*
X90908096Y-78017143D01*
X90955715Y-77921905D01*
X90955715Y-77731429D01*
X90908096Y-77636190D01*
X90860477Y-77588571D01*
X90765239Y-77540952D01*
X115403334Y-98337143D02*
X115355715Y-98384762D01*
X115212858Y-98432381D01*
X115117620Y-98432381D01*
X114974762Y-98384762D01*
X114879524Y-98289524D01*
X114831905Y-98194286D01*
X114784286Y-98003810D01*
X114784286Y-97860952D01*
X114831905Y-97670476D01*
X114879524Y-97575238D01*
X114974762Y-97480000D01*
X115117620Y-97432381D01*
X115212858Y-97432381D01*
X115355715Y-97480000D01*
X115403334Y-97527619D01*
X115879524Y-98432381D02*
X116070000Y-98432381D01*
X116165239Y-98384762D01*
X116212858Y-98337143D01*
X116308096Y-98194286D01*
X116355715Y-98003810D01*
X116355715Y-97622857D01*
X116308096Y-97527619D01*
X116260477Y-97480000D01*
X116165239Y-97432381D01*
X115974762Y-97432381D01*
X115879524Y-97480000D01*
X115831905Y-97527619D01*
X115784286Y-97622857D01*
X115784286Y-97860952D01*
X115831905Y-97956190D01*
X115879524Y-98003810D01*
X115974762Y-98051429D01*
X116165239Y-98051429D01*
X116260477Y-98003810D01*
X116308096Y-97956190D01*
X116355715Y-97860952D01*
X114927143Y-78017143D02*
X114879524Y-78064762D01*
X114736667Y-78112381D01*
X114641429Y-78112381D01*
X114498571Y-78064762D01*
X114403333Y-77969524D01*
X114355714Y-77874286D01*
X114308095Y-77683810D01*
X114308095Y-77540952D01*
X114355714Y-77350476D01*
X114403333Y-77255238D01*
X114498571Y-77160000D01*
X114641429Y-77112381D01*
X114736667Y-77112381D01*
X114879524Y-77160000D01*
X114927143Y-77207619D01*
X115879524Y-78112381D02*
X115308095Y-78112381D01*
X115593809Y-78112381D02*
X115593809Y-77112381D01*
X115498571Y-77255238D01*
X115403333Y-77350476D01*
X115308095Y-77398095D01*
X116498571Y-77112381D02*
X116593810Y-77112381D01*
X116689048Y-77160000D01*
X116736667Y-77207619D01*
X116784286Y-77302857D01*
X116831905Y-77493333D01*
X116831905Y-77731429D01*
X116784286Y-77921905D01*
X116736667Y-78017143D01*
X116689048Y-78064762D01*
X116593810Y-78112381D01*
X116498571Y-78112381D01*
X116403333Y-78064762D01*
X116355714Y-78017143D01*
X116308095Y-77921905D01*
X116260476Y-77731429D01*
X116260476Y-77493333D01*
X116308095Y-77302857D01*
X116355714Y-77207619D01*
X116403333Y-77160000D01*
X116498571Y-77112381D01*
X140327143Y-98337143D02*
X140279524Y-98384762D01*
X140136667Y-98432381D01*
X140041429Y-98432381D01*
X139898571Y-98384762D01*
X139803333Y-98289524D01*
X139755714Y-98194286D01*
X139708095Y-98003810D01*
X139708095Y-97860952D01*
X139755714Y-97670476D01*
X139803333Y-97575238D01*
X139898571Y-97480000D01*
X140041429Y-97432381D01*
X140136667Y-97432381D01*
X140279524Y-97480000D01*
X140327143Y-97527619D01*
X141279524Y-98432381D02*
X140708095Y-98432381D01*
X140993809Y-98432381D02*
X140993809Y-97432381D01*
X140898571Y-97575238D01*
X140803333Y-97670476D01*
X140708095Y-97718095D01*
X142231905Y-98432381D02*
X141660476Y-98432381D01*
X141946190Y-98432381D02*
X141946190Y-97432381D01*
X141850952Y-97575238D01*
X141755714Y-97670476D01*
X141660476Y-97718095D01*
X140327143Y-78017143D02*
X140279524Y-78064762D01*
X140136667Y-78112381D01*
X140041429Y-78112381D01*
X139898571Y-78064762D01*
X139803333Y-77969524D01*
X139755714Y-77874286D01*
X139708095Y-77683810D01*
X139708095Y-77540952D01*
X139755714Y-77350476D01*
X139803333Y-77255238D01*
X139898571Y-77160000D01*
X140041429Y-77112381D01*
X140136667Y-77112381D01*
X140279524Y-77160000D01*
X140327143Y-77207619D01*
X141279524Y-78112381D02*
X140708095Y-78112381D01*
X140993809Y-78112381D02*
X140993809Y-77112381D01*
X140898571Y-77255238D01*
X140803333Y-77350476D01*
X140708095Y-77398095D01*
X141660476Y-77207619D02*
X141708095Y-77160000D01*
X141803333Y-77112381D01*
X142041429Y-77112381D01*
X142136667Y-77160000D01*
X142184286Y-77207619D01*
X142231905Y-77302857D01*
X142231905Y-77398095D01*
X142184286Y-77540952D01*
X141612857Y-78112381D01*
X142231905Y-78112381D01*
X168267143Y-98337143D02*
X168219524Y-98384762D01*
X168076667Y-98432381D01*
X167981429Y-98432381D01*
X167838571Y-98384762D01*
X167743333Y-98289524D01*
X167695714Y-98194286D01*
X167648095Y-98003810D01*
X167648095Y-97860952D01*
X167695714Y-97670476D01*
X167743333Y-97575238D01*
X167838571Y-97480000D01*
X167981429Y-97432381D01*
X168076667Y-97432381D01*
X168219524Y-97480000D01*
X168267143Y-97527619D01*
X169219524Y-98432381D02*
X168648095Y-98432381D01*
X168933809Y-98432381D02*
X168933809Y-97432381D01*
X168838571Y-97575238D01*
X168743333Y-97670476D01*
X168648095Y-97718095D01*
X169552857Y-97432381D02*
X170171905Y-97432381D01*
X169838571Y-97813333D01*
X169981429Y-97813333D01*
X170076667Y-97860952D01*
X170124286Y-97908571D01*
X170171905Y-98003810D01*
X170171905Y-98241905D01*
X170124286Y-98337143D01*
X170076667Y-98384762D01*
X169981429Y-98432381D01*
X169695714Y-98432381D01*
X169600476Y-98384762D01*
X169552857Y-98337143D01*
X168267143Y-78017143D02*
X168219524Y-78064762D01*
X168076667Y-78112381D01*
X167981429Y-78112381D01*
X167838571Y-78064762D01*
X167743333Y-77969524D01*
X167695714Y-77874286D01*
X167648095Y-77683810D01*
X167648095Y-77540952D01*
X167695714Y-77350476D01*
X167743333Y-77255238D01*
X167838571Y-77160000D01*
X167981429Y-77112381D01*
X168076667Y-77112381D01*
X168219524Y-77160000D01*
X168267143Y-77207619D01*
X169219524Y-78112381D02*
X168648095Y-78112381D01*
X168933809Y-78112381D02*
X168933809Y-77112381D01*
X168838571Y-77255238D01*
X168743333Y-77350476D01*
X168648095Y-77398095D01*
X170076667Y-77445714D02*
X170076667Y-78112381D01*
X169838571Y-77064762D02*
X169600476Y-77779048D01*
X170219524Y-77779048D01*
X193667143Y-98337143D02*
X193619524Y-98384762D01*
X193476667Y-98432381D01*
X193381429Y-98432381D01*
X193238571Y-98384762D01*
X193143333Y-98289524D01*
X193095714Y-98194286D01*
X193048095Y-98003810D01*
X193048095Y-97860952D01*
X193095714Y-97670476D01*
X193143333Y-97575238D01*
X193238571Y-97480000D01*
X193381429Y-97432381D01*
X193476667Y-97432381D01*
X193619524Y-97480000D01*
X193667143Y-97527619D01*
X194619524Y-98432381D02*
X194048095Y-98432381D01*
X194333809Y-98432381D02*
X194333809Y-97432381D01*
X194238571Y-97575238D01*
X194143333Y-97670476D01*
X194048095Y-97718095D01*
X195524286Y-97432381D02*
X195048095Y-97432381D01*
X195000476Y-97908571D01*
X195048095Y-97860952D01*
X195143333Y-97813333D01*
X195381429Y-97813333D01*
X195476667Y-97860952D01*
X195524286Y-97908571D01*
X195571905Y-98003810D01*
X195571905Y-98241905D01*
X195524286Y-98337143D01*
X195476667Y-98384762D01*
X195381429Y-98432381D01*
X195143333Y-98432381D01*
X195048095Y-98384762D01*
X195000476Y-98337143D01*
X193667143Y-78017143D02*
X193619524Y-78064762D01*
X193476667Y-78112381D01*
X193381429Y-78112381D01*
X193238571Y-78064762D01*
X193143333Y-77969524D01*
X193095714Y-77874286D01*
X193048095Y-77683810D01*
X193048095Y-77540952D01*
X193095714Y-77350476D01*
X193143333Y-77255238D01*
X193238571Y-77160000D01*
X193381429Y-77112381D01*
X193476667Y-77112381D01*
X193619524Y-77160000D01*
X193667143Y-77207619D01*
X194619524Y-78112381D02*
X194048095Y-78112381D01*
X194333809Y-78112381D02*
X194333809Y-77112381D01*
X194238571Y-77255238D01*
X194143333Y-77350476D01*
X194048095Y-77398095D01*
X195476667Y-77112381D02*
X195286190Y-77112381D01*
X195190952Y-77160000D01*
X195143333Y-77207619D01*
X195048095Y-77350476D01*
X195000476Y-77540952D01*
X195000476Y-77921905D01*
X195048095Y-78017143D01*
X195095714Y-78064762D01*
X195190952Y-78112381D01*
X195381429Y-78112381D01*
X195476667Y-78064762D01*
X195524286Y-78017143D01*
X195571905Y-77921905D01*
X195571905Y-77683810D01*
X195524286Y-77588571D01*
X195476667Y-77540952D01*
X195381429Y-77493333D01*
X195190952Y-77493333D01*
X195095714Y-77540952D01*
X195048095Y-77588571D01*
X195000476Y-77683810D01*
X219067143Y-98337143D02*
X219019524Y-98384762D01*
X218876667Y-98432381D01*
X218781429Y-98432381D01*
X218638571Y-98384762D01*
X218543333Y-98289524D01*
X218495714Y-98194286D01*
X218448095Y-98003810D01*
X218448095Y-97860952D01*
X218495714Y-97670476D01*
X218543333Y-97575238D01*
X218638571Y-97480000D01*
X218781429Y-97432381D01*
X218876667Y-97432381D01*
X219019524Y-97480000D01*
X219067143Y-97527619D01*
X220019524Y-98432381D02*
X219448095Y-98432381D01*
X219733809Y-98432381D02*
X219733809Y-97432381D01*
X219638571Y-97575238D01*
X219543333Y-97670476D01*
X219448095Y-97718095D01*
X220352857Y-97432381D02*
X221019524Y-97432381D01*
X220590952Y-98432381D01*
X219067143Y-78017143D02*
X219019524Y-78064762D01*
X218876667Y-78112381D01*
X218781429Y-78112381D01*
X218638571Y-78064762D01*
X218543333Y-77969524D01*
X218495714Y-77874286D01*
X218448095Y-77683810D01*
X218448095Y-77540952D01*
X218495714Y-77350476D01*
X218543333Y-77255238D01*
X218638571Y-77160000D01*
X218781429Y-77112381D01*
X218876667Y-77112381D01*
X219019524Y-77160000D01*
X219067143Y-77207619D01*
X220019524Y-78112381D02*
X219448095Y-78112381D01*
X219733809Y-78112381D02*
X219733809Y-77112381D01*
X219638571Y-77255238D01*
X219543333Y-77350476D01*
X219448095Y-77398095D01*
X220590952Y-77540952D02*
X220495714Y-77493333D01*
X220448095Y-77445714D01*
X220400476Y-77350476D01*
X220400476Y-77302857D01*
X220448095Y-77207619D01*
X220495714Y-77160000D01*
X220590952Y-77112381D01*
X220781429Y-77112381D01*
X220876667Y-77160000D01*
X220924286Y-77207619D01*
X220971905Y-77302857D01*
X220971905Y-77350476D01*
X220924286Y-77445714D01*
X220876667Y-77493333D01*
X220781429Y-77540952D01*
X220590952Y-77540952D01*
X220495714Y-77588571D01*
X220448095Y-77636190D01*
X220400476Y-77731429D01*
X220400476Y-77921905D01*
X220448095Y-78017143D01*
X220495714Y-78064762D01*
X220590952Y-78112381D01*
X220781429Y-78112381D01*
X220876667Y-78064762D01*
X220924286Y-78017143D01*
X220971905Y-77921905D01*
X220971905Y-77731429D01*
X220924286Y-77636190D01*
X220876667Y-77588571D01*
X220781429Y-77540952D01*
X244467143Y-98337143D02*
X244419524Y-98384762D01*
X244276667Y-98432381D01*
X244181429Y-98432381D01*
X244038571Y-98384762D01*
X243943333Y-98289524D01*
X243895714Y-98194286D01*
X243848095Y-98003810D01*
X243848095Y-97860952D01*
X243895714Y-97670476D01*
X243943333Y-97575238D01*
X244038571Y-97480000D01*
X244181429Y-97432381D01*
X244276667Y-97432381D01*
X244419524Y-97480000D01*
X244467143Y-97527619D01*
X245419524Y-98432381D02*
X244848095Y-98432381D01*
X245133809Y-98432381D02*
X245133809Y-97432381D01*
X245038571Y-97575238D01*
X244943333Y-97670476D01*
X244848095Y-97718095D01*
X245895714Y-98432381D02*
X246086190Y-98432381D01*
X246181429Y-98384762D01*
X246229048Y-98337143D01*
X246324286Y-98194286D01*
X246371905Y-98003810D01*
X246371905Y-97622857D01*
X246324286Y-97527619D01*
X246276667Y-97480000D01*
X246181429Y-97432381D01*
X245990952Y-97432381D01*
X245895714Y-97480000D01*
X245848095Y-97527619D01*
X245800476Y-97622857D01*
X245800476Y-97860952D01*
X245848095Y-97956190D01*
X245895714Y-98003810D01*
X245990952Y-98051429D01*
X246181429Y-98051429D01*
X246276667Y-98003810D01*
X246324286Y-97956190D01*
X246371905Y-97860952D01*
X244467143Y-78017143D02*
X244419524Y-78064762D01*
X244276667Y-78112381D01*
X244181429Y-78112381D01*
X244038571Y-78064762D01*
X243943333Y-77969524D01*
X243895714Y-77874286D01*
X243848095Y-77683810D01*
X243848095Y-77540952D01*
X243895714Y-77350476D01*
X243943333Y-77255238D01*
X244038571Y-77160000D01*
X244181429Y-77112381D01*
X244276667Y-77112381D01*
X244419524Y-77160000D01*
X244467143Y-77207619D01*
X244848095Y-77207619D02*
X244895714Y-77160000D01*
X244990952Y-77112381D01*
X245229048Y-77112381D01*
X245324286Y-77160000D01*
X245371905Y-77207619D01*
X245419524Y-77302857D01*
X245419524Y-77398095D01*
X245371905Y-77540952D01*
X244800476Y-78112381D01*
X245419524Y-78112381D01*
X246038571Y-77112381D02*
X246133810Y-77112381D01*
X246229048Y-77160000D01*
X246276667Y-77207619D01*
X246324286Y-77302857D01*
X246371905Y-77493333D01*
X246371905Y-77731429D01*
X246324286Y-77921905D01*
X246276667Y-78017143D01*
X246229048Y-78064762D01*
X246133810Y-78112381D01*
X246038571Y-78112381D01*
X245943333Y-78064762D01*
X245895714Y-78017143D01*
X245848095Y-77921905D01*
X245800476Y-77731429D01*
X245800476Y-77493333D01*
X245848095Y-77302857D01*
X245895714Y-77207619D01*
X245943333Y-77160000D01*
X246038571Y-77112381D01*
X269867143Y-98337143D02*
X269819524Y-98384762D01*
X269676667Y-98432381D01*
X269581429Y-98432381D01*
X269438571Y-98384762D01*
X269343333Y-98289524D01*
X269295714Y-98194286D01*
X269248095Y-98003810D01*
X269248095Y-97860952D01*
X269295714Y-97670476D01*
X269343333Y-97575238D01*
X269438571Y-97480000D01*
X269581429Y-97432381D01*
X269676667Y-97432381D01*
X269819524Y-97480000D01*
X269867143Y-97527619D01*
X270248095Y-97527619D02*
X270295714Y-97480000D01*
X270390952Y-97432381D01*
X270629048Y-97432381D01*
X270724286Y-97480000D01*
X270771905Y-97527619D01*
X270819524Y-97622857D01*
X270819524Y-97718095D01*
X270771905Y-97860952D01*
X270200476Y-98432381D01*
X270819524Y-98432381D01*
X271771905Y-98432381D02*
X271200476Y-98432381D01*
X271486190Y-98432381D02*
X271486190Y-97432381D01*
X271390952Y-97575238D01*
X271295714Y-97670476D01*
X271200476Y-97718095D01*
X269867143Y-78017143D02*
X269819524Y-78064762D01*
X269676667Y-78112381D01*
X269581429Y-78112381D01*
X269438571Y-78064762D01*
X269343333Y-77969524D01*
X269295714Y-77874286D01*
X269248095Y-77683810D01*
X269248095Y-77540952D01*
X269295714Y-77350476D01*
X269343333Y-77255238D01*
X269438571Y-77160000D01*
X269581429Y-77112381D01*
X269676667Y-77112381D01*
X269819524Y-77160000D01*
X269867143Y-77207619D01*
X270248095Y-77207619D02*
X270295714Y-77160000D01*
X270390952Y-77112381D01*
X270629048Y-77112381D01*
X270724286Y-77160000D01*
X270771905Y-77207619D01*
X270819524Y-77302857D01*
X270819524Y-77398095D01*
X270771905Y-77540952D01*
X270200476Y-78112381D01*
X270819524Y-78112381D01*
X271200476Y-77207619D02*
X271248095Y-77160000D01*
X271343333Y-77112381D01*
X271581429Y-77112381D01*
X271676667Y-77160000D01*
X271724286Y-77207619D01*
X271771905Y-77302857D01*
X271771905Y-77398095D01*
X271724286Y-77540952D01*
X271152857Y-78112381D01*
X271771905Y-78112381D01*
X70953334Y-42042381D02*
X70620000Y-41566190D01*
X70381905Y-42042381D02*
X70381905Y-41042381D01*
X70762858Y-41042381D01*
X70858096Y-41090000D01*
X70905715Y-41137619D01*
X70953334Y-41232857D01*
X70953334Y-41375714D01*
X70905715Y-41470952D01*
X70858096Y-41518571D01*
X70762858Y-41566190D01*
X70381905Y-41566190D01*
X71905715Y-42042381D02*
X71334286Y-42042381D01*
X71620000Y-42042381D02*
X71620000Y-41042381D01*
X71524762Y-41185238D01*
X71429524Y-41280476D01*
X71334286Y-41328095D01*
M02*
